<svg width="28" height="28" viewBox="0 0 28 28" fill="none" xmlns="http://www.w3.org/2000/svg">
<path d="M24.5 24.5L15.5384 10.0618M24.5 15.0937C21.9347 18.0002 18.1814 19.8333 14 19.8333C9.81858 19.8333 6.06531 18.0002 3.5 15.0937M3.5 24.5L12.4616 10.0618M14 4.66667C12.3892 4.66667 11.0833 5.9725 11.0833 7.58333C11.0833 8.62954 11.6342 9.54709 12.4616 10.0618M14 4.66667C15.6108 4.66667 16.9167 5.9725 16.9167 7.58333C16.9167 8.62954 16.3658 9.54709 15.5384 10.0618M14 4.66667V3.5M15.5384 10.0618C15.0918 10.3396 14.5646 10.5 14 10.5C13.4354 10.5 12.9082 10.3396 12.4616 10.0618" stroke="#0052FF" stroke-width="2" stroke-linecap="round" stroke-linejoin="round"/>
</svg>
