<svg width="28" height="28" viewBox="0 0 28 28" fill="none" xmlns="http://www.w3.org/2000/svg">
<path d="M10.5 21L8.16667 24.5M17.5 21L19.8333 24.5M8.16667 16.3333H19.8333M9.33333 16.3333V12.8333M14 16.3333V7M18.6667 16.3333V10.5M7.23333 21H20.7667C22.0735 21 22.7269 21 23.226 20.7457C23.665 20.522 24.022 20.165 24.2457 19.726C24.5 19.2268 24.5 18.5735 24.5 17.2667V7.23333C24.5 5.92654 24.5 5.27315 24.2457 4.77402C24.022 4.33498 23.665 3.97802 23.226 3.75432C22.7269 3.5 22.0735 3.5 20.7667 3.5H7.23333C5.92654 3.5 5.27315 3.5 4.77402 3.75432C4.33498 3.97802 3.97802 4.33498 3.75432 4.77402C3.5 5.27315 3.5 5.92654 3.5 7.23333V17.2667C3.5 18.5735 3.5 19.2268 3.75432 19.726C3.97802 20.165 4.33498 20.522 4.77402 20.7457C5.27315 21 5.92654 21 7.23333 21Z" stroke="#0052FF" stroke-width="2" stroke-linecap="round" stroke-linejoin="round"/>
</svg>
