<svg width="28" height="28" viewBox="0 0 28 28" fill="none" xmlns="http://www.w3.org/2000/svg">
<path d="M25.5 14C25.5 13.4477 25.0523 13 24.5 13C23.9477 13 23.5 13.4477 23.5 14H25.5ZM14 4.5C14.5523 4.5 15 4.05228 15 3.5C15 2.94772 14.5523 2.5 14 2.5V4.5ZM20.8333 14C20.8333 13.4477 20.3856 13 19.8333 13C19.281 13 18.8333 13.4477 18.8333 14H20.8333ZM14 9.16667C14.5523 9.16667 15 8.71895 15 8.16667C15 7.61438 14.5523 7.16667 14 7.16667V9.16667ZM20.3341 3.88408L21.2828 3.56785C21.1824 3.26679 20.9451 3.03124 20.6433 2.9331C20.3415 2.83496 20.0111 2.8859 19.7528 3.07035L20.3341 3.88408ZM24.3401 7.89008L25.1538 8.47132C25.3383 8.21308 25.3892 7.88262 25.2911 7.58083C25.1929 7.27904 24.9574 7.04175 24.6563 6.9414L24.3401 7.89008ZM21.8363 11.3953L21.7319 12.3899C22.09 12.4275 22.4407 12.2696 22.6501 11.9766L21.8363 11.3953ZM16.8288 6.38783L16.2476 5.5741C15.96 5.77949 15.8022 6.12139 15.8325 6.47346L16.8288 6.38783ZM21.3356 6.88858L20.3869 7.20481C20.4864 7.50341 20.7207 7.73773 21.0194 7.83726L21.3356 6.88858ZM13.3074 13.2786C12.909 13.6611 12.8962 14.2942 13.2787 14.6925C13.6613 15.0909 14.2943 15.1037 14.6927 14.7212L13.3074 13.2786ZM23.5 14C23.5 19.2467 19.2467 23.5 14 23.5V25.5C20.3513 25.5 25.5 20.3513 25.5 14H23.5ZM14 23.5C8.75329 23.5 4.5 19.2467 4.5 14H2.5C2.5 20.3513 7.64873 25.5 14 25.5V23.5ZM4.5 14C4.5 8.75329 8.75329 4.5 14 4.5V2.5C7.64873 2.5 2.5 7.64873 2.5 14H4.5ZM18.8333 14C18.8333 16.6694 16.6694 18.8333 14 18.8333V20.8333C17.7739 20.8333 20.8333 17.7739 20.8333 14H18.8333ZM14 18.8333C11.3306 18.8333 9.16667 16.6694 9.16667 14H7.16667C7.16667 17.7739 10.2261 20.8333 14 20.8333V18.8333ZM9.16667 14C9.16667 11.3306 11.3306 9.16667 14 9.16667V7.16667C10.2261 7.16667 7.16667 10.2261 7.16667 14H9.16667ZM23.5263 7.30884L21.0226 10.8141L22.6501 11.9766L25.1538 8.47132L23.5263 7.30884ZM17.4101 7.20156L20.9153 4.69782L19.7528 3.07035L16.2476 5.5741L17.4101 7.20156ZM19.3854 4.20031L20.3869 7.20481L22.2843 6.57235L21.2828 3.56785L19.3854 4.20031ZM21.0194 7.83726L24.0238 8.83876L24.6563 6.9414L21.6518 5.9399L21.0194 7.83726ZM21.9408 10.4008L17.322 9.9157L17.1131 11.9048L21.7319 12.3899L21.9408 10.4008ZM18.2138 10.8246L17.8252 6.3022L15.8325 6.47346L16.2212 10.9959L18.2138 10.8246ZM16.5249 10.1889L13.3074 13.2786L14.6927 14.7212L17.9102 11.6315L16.5249 10.1889Z" fill="#0052FF"/>
</svg>
