<svg width="42" height="42" viewBox="0 0 42 42" fill="none" xmlns="http://www.w3.org/2000/svg">
<path d="M21.9019 41.9915C21.0455 41.7603 20.1874 41.5352 19.3319 41.2979C17.1066 40.6797 14.8838 40.0545 12.6594 39.4363C12.0446 39.2657 11.4454 39.3133 10.8748 39.6112C10.4652 39.8251 10.0634 40.0536 9.64781 40.2563C9.47377 40.3411 9.43047 40.4528 9.42615 40.6355C9.4045 41.4495 9.18283 41.6356 8.37928 41.6114C6.75487 41.562 5.1296 41.5274 3.50519 41.4884C2.77957 41.4711 2.54059 41.2373 2.55964 40.5221C2.66441 36.6377 2.77351 32.7542 2.88435 28.8698C2.8982 28.3884 3.17875 28.1061 3.66278 28.1165C5.43786 28.1546 7.21293 28.2013 8.98714 28.2576C9.49022 28.2732 9.74566 28.5685 9.75172 29.0776C9.75172 29.1045 9.74826 29.1322 9.75085 29.159C9.77596 29.4526 9.58201 29.8708 9.78809 30.0033C9.97945 30.1262 10.3137 29.8171 10.5916 29.7132C12.9209 28.8421 15.2735 28.8031 17.4936 29.9115C19.0358 30.6813 20.5944 31.0233 22.2846 31.012C23.4172 31.0042 24.5506 31.0674 25.6841 31.1003C27.2436 31.1454 28.4549 31.8277 29.3061 33.1231C29.4646 33.3638 29.5676 33.3629 29.8023 33.2503C31.5185 32.4286 33.2373 31.613 34.9647 30.8155C36.5354 30.0907 38.3469 30.5955 39.3115 31.9991C39.7141 32.5853 39.6448 32.9282 39.043 33.317C35.783 35.4211 32.5255 37.5296 29.2594 39.625C28.3675 40.1974 27.5284 40.8633 26.5517 41.2936C25.7915 41.6287 24.9923 41.8556 24.1541 41.9092C24.0961 41.9127 24.0484 41.924 24.0346 41.9898H21.9028L21.9019 41.9915ZM9.5188 38.7462C9.72401 38.6388 9.91364 38.5427 10.1007 38.4405C11.0696 37.9106 12.081 37.8145 13.1417 38.1158C14.5912 38.5279 16.0398 38.947 17.498 39.328C19.0877 39.7428 20.629 40.3636 22.2699 40.5533C23.7921 40.729 25.2806 40.5178 26.5959 39.6865C29.2325 38.0205 31.8414 36.3104 34.4608 34.6185C35.5778 33.8972 36.693 33.1733 37.8152 32.4468C37.1848 31.8389 36.3068 31.7212 35.4513 32.123C33.8278 32.8841 32.2138 33.6668 30.5798 34.4063C30.1426 34.6046 29.9105 34.7778 29.9902 35.3328C30.0915 36.0394 29.7893 36.2836 29.0654 36.268C27.5501 36.2342 26.0339 36.2004 24.5186 36.1632C23.4129 36.1355 22.3063 36.1121 21.2014 36.0662C20.707 36.0463 20.4178 35.7502 20.4299 35.3432C20.442 34.9163 20.7684 34.654 21.281 34.6678C22.4275 34.7007 23.5739 34.7518 24.7212 34.7674C25.9872 34.7847 27.254 34.7717 28.5069 34.7717C28.2705 33.5335 27.092 32.5308 25.7577 32.4944C24.5697 32.4615 23.3817 32.4399 22.1937 32.4C21.4568 32.3749 20.7191 32.3507 19.9865 32.2814C18.9354 32.1827 18.0296 31.6684 17.0893 31.2389C14.6518 30.1254 12.2585 30.2552 9.93182 31.593C9.76557 31.6883 9.67119 31.7853 9.666 31.9983C9.6253 33.6885 9.56555 35.3778 9.52139 37.0681C9.50667 37.611 9.5188 38.1539 9.5188 38.7462ZM4.11218 34.854H4.11911C4.07321 36.5035 4.02819 38.1522 3.98056 39.8008C3.97623 39.961 3.91822 40.1117 4.19357 40.1151C5.39543 40.1298 6.59642 40.1627 7.79827 40.2008C8.00002 40.2069 8.05284 40.1437 8.04938 39.9506C8.04332 39.5281 8.05717 39.1055 8.06843 38.6829C8.14723 35.7805 8.22775 32.8772 8.30568 29.9747C8.31001 29.8162 8.39487 29.6275 8.08228 29.624C6.90814 29.6119 5.73399 29.579 4.55984 29.54C4.33298 29.5322 4.26371 29.5902 4.25765 29.8258C4.21782 31.5021 4.1624 33.1785 4.11218 34.854Z" fill="#0052FF"/>
<path d="M21.4752 29.1839C15.9213 29.164 11.4646 24.6726 11.4923 19.1231C11.5192 13.6663 16.0521 9.20091 21.5262 9.23901C27.0809 9.27798 31.5134 13.7425 31.4892 19.2738C31.4649 24.7402 26.9545 29.2038 21.4752 29.1839ZM21.4942 27.7777C26.2402 27.7751 30.0847 23.9513 30.0968 19.2236C30.1089 14.4863 26.2471 10.634 21.4873 10.6366C16.7318 10.6392 12.8665 14.4993 12.8821 19.2322C12.8968 23.9565 16.7509 27.7803 21.4942 27.7777Z" fill="#0052FF"/>
<path d="M22.1973 4.00472C22.1973 5.0663 22.2077 6.12875 22.1939 7.19033C22.1852 7.83369 21.6666 8.18957 21.1643 7.92114C20.8959 7.77827 20.7868 7.53062 20.7859 7.24401C20.7816 5.107 20.7773 2.96998 20.7877 0.832965C20.7903 0.368848 21.0803 0.0908972 21.4839 0.0874337C21.9055 0.0839701 22.187 0.367982 22.1939 0.860673C22.2069 1.9084 22.1982 2.95699 22.1982 4.00472H22.1973Z" fill="#0052FF"/>
<path d="M15.6172 5.73886C15.6172 5.26262 15.6068 4.78725 15.6198 4.31187C15.6337 3.81572 15.8978 3.53084 16.3177 3.52738C16.7385 3.52391 17.0217 3.80706 17.0286 4.29802C17.0425 5.27647 17.0425 6.25579 17.0286 7.23425C17.0217 7.70876 16.71 8.02308 16.3117 8.01269C15.9125 8.00316 15.6328 7.69057 15.6207 7.20654C15.6077 6.71731 15.6181 6.22809 15.6181 5.73799L15.6172 5.73886Z" fill="#0052FF"/>
<path d="M27.3615 5.78132C27.3615 6.25756 27.3719 6.73294 27.3589 7.20917C27.3459 7.69321 27.0653 8.00493 26.6662 8.01272C26.2549 8.02051 25.9544 7.69407 25.9492 7.19099C25.9388 6.23938 25.9388 5.28777 25.9492 4.33615C25.9544 3.81835 26.2297 3.52222 26.6644 3.52741C27.0982 3.53174 27.3493 3.82181 27.3597 4.3552C27.3693 4.83058 27.3615 5.30681 27.3615 5.78305V5.78132Z" fill="#0052FF"/>
<path d="M18.5437 21.6473C18.5437 21.0351 18.7939 20.7337 19.1948 20.713C19.6286 20.6904 19.8927 20.9537 19.9343 21.4498C20.001 22.2542 20.588 22.8837 21.3119 22.9288C22.1977 22.9833 22.8593 22.4872 23.0281 21.6412C23.1675 20.9433 22.7112 20.1718 21.9943 19.9432C21.7518 19.8661 21.486 19.8523 21.2288 19.828C19.8494 19.699 18.7939 18.705 18.5619 17.3074C18.3584 16.0839 19.071 14.7539 20.2616 14.2474C20.6305 14.0906 20.7422 13.9027 20.7041 13.5287C20.672 13.2144 20.7907 12.939 21.0981 12.7823C21.3414 12.6585 21.5717 12.6879 21.7942 12.8334C22.0549 13.0031 22.1328 13.2698 22.0973 13.5469C22.0497 13.9166 22.2055 14.0517 22.5432 14.1703C23.6351 14.5539 24.404 15.6336 24.4387 16.7463C24.4542 17.2477 24.1884 17.5845 23.765 17.5984C23.3511 17.6122 23.0957 17.3377 23.0489 16.8312C22.9727 15.9973 22.3683 15.399 21.5674 15.3661C20.7638 15.3332 20.1205 15.8406 19.9551 16.6381C19.8062 17.3568 20.2685 18.1162 21.0011 18.3716C21.2912 18.4729 21.5951 18.4469 21.8912 18.4885C23.2221 18.6764 24.2404 19.6964 24.4283 21.0524C24.6032 22.3166 23.8282 23.663 22.5952 24.1142C22.2064 24.2562 22.0514 24.4112 22.0973 24.8207C22.1328 25.1351 22.0046 25.4035 21.6851 25.5507C21.4323 25.6676 21.2054 25.6252 20.9924 25.4728C20.7439 25.2952 20.6746 25.0277 20.7023 24.748C20.7378 24.3939 20.6287 24.2155 20.2729 24.0596C19.1741 23.5782 18.6433 22.6716 18.5437 21.6481V21.6473Z" fill="#0052FF"/>
</svg>
