<svg width="42" height="42" viewBox="0 0 42 42" fill="none" xmlns="http://www.w3.org/2000/svg">
<g clip-path="url(#clip0_901_2684)">
<path d="M33.8868 41.9998C33.5696 41.7975 33.4734 41.5076 33.4777 41.1357C33.4941 39.8812 33.4909 38.6256 33.4799 37.3711C33.4755 36.8581 33.5652 36.3714 33.7588 35.8989C34.6984 33.6031 35.1249 31.2132 35.1162 28.7348C35.1041 25.0795 35.1162 21.4242 35.1107 17.7678C35.1096 16.9475 34.7541 16.3164 33.9984 15.9686C33.2798 15.6371 32.5885 15.7389 31.9749 16.2398C31.4882 16.6368 31.2957 17.1771 31.2957 17.794C31.2957 18.435 31.3001 19.0759 31.2935 19.7168C31.288 20.2342 31.0671 20.489 30.6526 20.4781C30.2643 20.4671 30.0466 20.2025 30.0455 19.7179C30.0423 18.3814 30.0477 17.0448 30.0434 15.7082C30.039 14.6003 29.2307 13.7603 28.173 13.7537C27.0793 13.7461 26.2655 14.562 26.2568 15.6984C26.2469 16.9803 26.2546 18.2632 26.2535 19.5451C26.2535 19.6676 26.2623 19.7934 26.2415 19.9126C26.178 20.2604 25.9899 20.4836 25.6093 20.4781C25.2276 20.4737 25.0362 20.2407 24.9957 19.8929C24.9629 19.6096 24.9848 19.3209 24.9848 19.0343C24.9848 17.5611 24.9935 16.0878 24.9793 14.6145C24.9694 13.605 24.2837 12.8645 23.2873 12.7442C22.3499 12.6304 21.4968 13.2342 21.2409 14.1814C21.1894 14.3706 21.1949 14.5598 21.1949 14.749C21.1927 16.3995 21.1949 18.05 21.1927 19.7004C21.1927 20.2079 20.9674 20.4825 20.5616 20.477C20.2313 20.4737 20.0213 20.3064 19.9655 19.9793C19.9382 19.8196 19.9426 19.6534 19.9426 19.4904C19.9415 15.0979 19.9426 10.7065 19.9404 6.31402C19.9404 5.25965 19.4471 4.51918 18.5896 4.26543C17.3449 3.89683 16.133 4.80355 16.1298 6.1259C16.1221 9.38636 16.1276 12.6457 16.1276 15.9062C16.1276 16.0156 16.1319 16.125 16.1265 16.2332C16.1079 16.6106 15.8684 16.8621 15.5227 16.8698C15.1574 16.8775 14.8993 16.6259 14.8971 16.2212C14.8894 15.0892 14.8938 13.9571 14.8938 12.8251C14.8949 10.5337 14.8862 8.2423 14.9048 5.9509C14.9157 4.59902 15.9209 3.37183 17.2355 3.04152C19.2491 2.53512 21.1599 4.00074 21.1927 6.08543C21.208 7.08074 21.196 8.07715 21.196 9.07246C21.196 10.0546 21.196 11.0357 21.196 12.0857C22.0491 11.5487 22.9329 11.3168 23.8877 11.5782C24.848 11.8418 25.5371 12.4434 25.9735 13.337C27.9718 11.6493 30.7729 12.6698 31.2902 15.1668C31.8032 14.8453 32.3337 14.6068 32.9418 14.5532C34.7213 14.3957 36.3324 15.7968 36.3379 17.5807C36.3521 21.7414 36.3762 25.902 36.3204 30.0615C36.2909 32.2403 35.7418 34.3359 34.9259 36.3561C34.7957 36.6787 34.7366 37.0057 34.7366 37.3492C34.7388 38.5906 34.7279 39.832 34.7432 41.0734C34.7476 41.4453 34.6841 41.7636 34.379 42.0009H33.8879L33.8868 41.9998Z" fill="#0052FF"/>
<path d="M18.0944 42C17.7739 41.7998 17.6798 41.51 17.6842 41.1381C17.6995 39.8289 17.6842 38.5197 17.6952 37.2094C17.6973 36.9731 17.647 36.8659 17.3911 36.7926C15.4431 36.2315 13.9348 35.0711 12.7984 33.3976C10.6645 30.2564 8.51203 27.1294 6.37375 23.9914C4.965 21.9242 5.98109 19.3047 8.40594 18.807C9.61781 18.5587 10.6602 18.9536 11.5002 19.8647C12.4156 20.8567 13.3278 21.852 14.2422 22.8451C14.4358 23.0551 14.6294 23.2662 14.8273 23.4806C14.9531 23.3734 14.8919 23.2433 14.8919 23.1339C14.8973 21.77 14.8941 20.4061 14.8963 19.0422C14.8963 18.5117 15.0986 18.2601 15.5098 18.2612C15.9189 18.2612 16.1278 18.5226 16.1289 19.0433C16.13 20.7211 16.13 22.3989 16.1289 24.0767C16.1289 24.6137 15.9189 24.9637 15.5109 25.1256C15.0811 25.2962 14.7202 25.2022 14.3428 24.7942C13.0839 23.4325 11.8359 22.0598 10.5748 20.7014C9.80922 19.8767 8.70891 19.7487 7.84484 20.3623C6.90641 21.0284 6.68875 22.2228 7.35703 23.2126C8.68266 25.1748 10.0258 27.1261 11.3613 29.0817C12.198 30.3067 13.0402 31.5284 13.8725 32.7578C14.8941 34.2661 16.2875 35.2373 18.0463 35.6923C18.6981 35.8608 18.9322 36.1451 18.9344 36.8156C18.9398 38.2473 18.9267 39.6801 18.942 41.1119C18.9453 41.4728 18.8633 41.7692 18.5844 42.0011H18.0933L18.0944 42Z" fill="#0052FF"/>
<path d="M17.9795 0.0865813C19.1848 0.0767376 20.2151 0.340331 21.1897 0.832519C21.6447 1.06221 21.7956 1.39143 21.6151 1.74033C21.4314 2.09689 21.0814 2.17127 20.6297 1.95143C17.1668 0.26705 13.2326 2.22814 12.5523 5.99939C12.3467 7.1358 12.5042 8.24814 13.0062 9.30252C13.0926 9.48299 13.2129 9.66346 13.1583 9.88111C13.0893 10.1556 12.922 10.3492 12.6376 10.3908C12.315 10.4378 12.0951 10.2738 11.9518 9.98939C11.3897 8.86939 11.1436 7.68049 11.2387 6.43471C11.4608 3.50783 13.4754 1.09174 16.3148 0.315175C16.8956 0.156581 17.4851 0.0679876 17.9784 0.0876751L17.9795 0.0865813Z" fill="#0052FF"/>
<path d="M28.6347 6.96286C28.6051 8.45474 28.3131 9.92364 27.6689 11.3149C27.472 11.7415 27.1428 11.9077 26.795 11.7568C26.4439 11.6036 26.3345 11.2526 26.5248 10.8172C27.6623 8.22067 27.6601 5.62739 26.5237 3.03192C26.3334 2.59771 26.4439 2.25536 26.8015 2.09786C27.1472 1.94583 27.4698 2.11099 27.6689 2.54192C28.3142 3.93317 28.6062 5.40099 28.6347 6.96286Z" fill="#0052FF"/>
<path d="M7.53232 7.00328C7.51372 5.38891 7.84622 3.90578 8.50247 2.49157C8.64575 2.18203 8.85904 2.01141 9.20247 2.06063C9.51091 2.10438 9.67388 2.31875 9.72529 2.60969C9.76247 2.82188 9.63779 3.00344 9.55575 3.18719C9.01763 4.39688 8.76169 5.66672 8.76825 6.98688C8.77372 8.23703 9.02857 9.43907 9.51747 10.5919C9.54372 10.6542 9.57325 10.7155 9.5995 10.7778C9.79747 11.2448 9.71216 11.5872 9.35888 11.748C8.9881 11.9164 8.66216 11.7436 8.44669 11.2569C7.84075 9.88532 7.51044 8.45469 7.53013 7.00438L7.53232 7.00328Z" fill="#0052FF"/>
<path d="M24.9081 6.99029C24.9168 8.00857 24.6773 8.99075 24.2267 9.92154C24.02 10.3481 23.694 10.499 23.3506 10.3361C22.9929 10.1665 22.8945 9.82857 23.0903 9.40091C24.009 7.3906 23.8461 5.47435 22.6046 3.64669C22.3411 3.25841 22.375 2.89529 22.6867 2.67654C23.0082 2.45122 23.3484 2.53872 23.624 2.92591C24.4859 4.13669 24.9245 5.4831 24.9081 6.99138V6.99029Z" fill="#0052FF"/>
</g>
<defs>
<clipPath id="clip0_901_2684">
<rect width="42" height="42" fill="white"/>
</clipPath>
</defs>
</svg>
