<svg width="42" height="42" viewBox="0 0 42 42" fill="none" xmlns="http://www.w3.org/2000/svg">
<g clip-path="url(#clip0_901_2657)">
<path d="M41.9918 26.0333C41.7949 26.6086 41.796 27.22 41.6735 27.8095C41.2589 29.8133 40.5141 31.6792 39.4236 33.4095C39.1119 33.905 38.6361 34.0483 38.2128 33.7847C37.7863 33.5189 37.6999 33.0377 38.0182 32.5367C39.2727 30.5636 40.0547 28.4133 40.2483 26.0913C40.6661 21.0841 39.0703 16.8152 35.3341 13.4158C33.0328 11.3224 30.293 10.1225 27.2108 9.76486C19.5174 8.87126 12.5808 13.9233 10.9555 21.258C9.54347 27.6269 12.256 34.0888 17.8953 37.3197C22.9824 40.2334 28.1503 40.1427 33.2516 37.2256C33.4168 37.1316 33.571 37.0091 33.746 36.9424C34.131 36.7969 34.5739 36.9839 34.7577 37.3416C34.9633 37.7419 34.8485 38.1652 34.4285 38.4397C33.5043 39.0434 32.5253 39.5422 31.495 39.9403C25.0375 42.4363 17.8768 40.7584 13.1988 35.6408C11.9027 34.2222 10.8822 32.6188 10.1757 30.8305C10.0444 30.4991 9.88035 30.4203 9.55222 30.4225C7.83394 30.4378 6.11566 30.4313 4.39629 30.428C3.84394 30.428 3.50707 30.2234 3.38675 29.833C3.21175 29.2653 3.63722 28.7567 4.31097 28.7535C5.87941 28.7469 7.44785 28.7392 9.01629 28.76C9.40019 28.7655 9.46254 28.6878 9.36629 28.3127C9.1716 27.5492 9.02832 26.7705 9.00426 25.9786C8.99551 25.7052 8.90254 25.6122 8.61597 25.6166C7.55285 25.6352 6.48863 25.6253 5.42441 25.6231C4.85675 25.622 4.50894 25.3125 4.50457 24.8138C4.50019 24.3117 4.848 23.9891 5.408 23.988C6.47222 23.9847 7.53535 23.9781 8.59957 23.9934C8.86207 23.9978 8.93316 23.9267 8.94847 23.662C8.99222 22.8734 9.05676 22.0838 9.25472 21.317C9.3466 20.9594 9.28972 20.8511 8.88722 20.8544C6.32347 20.8741 3.75863 20.8642 1.19488 20.8653C1.00347 20.8653 0.813161 20.8719 0.630505 20.7975C0.261911 20.6477 0.0705046 20.3808 0.0869108 19.9772C0.10113 19.6097 0.348317 19.3111 0.72238 19.2324C0.880973 19.1984 1.04613 19.193 1.2091 19.193C3.92269 19.1908 6.63738 19.1853 9.35097 19.1984C9.68019 19.1995 9.85519 19.1241 9.96457 18.7905C10.273 17.8509 10.7258 16.9716 11.2519 16.0605C10.075 16.0605 8.96379 16.0605 7.85254 16.0605C7.40301 16.0605 6.95238 16.0681 6.50285 16.0561C5.99863 16.043 5.66066 15.7138 5.65519 15.2511C5.64972 14.7852 6.01613 14.4188 6.52363 14.4177C8.35129 14.4111 10.1789 14.4111 12.0066 14.4199C12.2571 14.4209 12.4244 14.3608 12.5918 14.1563C14.9302 11.2917 17.8855 9.38642 21.4828 8.50157C21.7322 8.44032 21.858 8.34079 21.8175 8.06517C21.7913 7.89126 21.7946 7.7086 21.8164 7.5347C21.9072 6.81064 21.7902 6.31517 20.995 5.93345C19.9013 5.40954 19.4824 4.04345 19.8149 2.86111C20.1364 1.71814 21.2083 0.855168 22.4049 0.842043C24.4228 0.821261 26.4419 0.821261 28.4599 0.839855C29.8139 0.85298 30.9175 1.85595 31.1603 3.23407C31.3758 4.45798 30.6157 5.7672 29.3907 6.2222C29.1238 6.32064 29.0428 6.43657 29.0571 6.70892C29.0811 7.17157 29.0757 7.63642 29.0582 8.09907C29.0494 8.33204 29.1183 8.4097 29.3546 8.46986C34.0719 9.67736 37.6299 12.4074 39.9946 16.6631C41.0621 18.5849 41.6888 20.6564 41.9064 22.8472C41.913 22.9117 41.8966 22.9861 41.9885 23.0058V26.0344L41.9918 26.0333ZM25.4532 4.76095C26.3927 4.76095 27.3333 4.76314 28.2728 4.76095C29.0024 4.75876 29.5121 4.30814 29.5328 3.65517C29.5525 3.03282 29.0614 2.50673 28.3614 2.49907C26.4135 2.47829 24.4655 2.4772 22.5175 2.50017C21.8088 2.50892 21.3439 3.02517 21.3658 3.6672C21.3866 4.30267 21.8908 4.75657 22.5919 4.75986C23.5457 4.76423 24.4994 4.75986 25.4532 4.75986V4.76095ZM25.4838 6.41689C25.2803 6.41689 25.0758 6.4136 24.8724 6.41689C24.4261 6.42454 23.8103 6.26267 23.5774 6.49126C23.2886 6.77454 23.5205 7.38814 23.4811 7.85736C23.4614 8.08704 23.5555 8.13736 23.7611 8.10454C24.5574 7.97876 25.3613 8.04657 26.1608 8.01704C26.583 8.00064 27.1594 8.31345 27.3749 8.00392C27.5849 7.70095 27.4132 7.13767 27.4285 6.69032C27.435 6.47923 27.3727 6.40704 27.155 6.41251C26.5983 6.42673 26.0405 6.41689 25.4838 6.41689Z" fill="#0052FF"/>
<path d="M38.155 24.549C38.144 31.5797 32.45 37.2562 25.4205 37.2431C18.427 37.23 12.733 31.5009 12.7658 24.5097C12.7975 17.4911 18.5309 11.773 25.4806 11.8265C32.5211 11.8812 38.1659 17.5469 38.155 24.549ZM25.462 13.5C19.3731 13.4989 14.4151 18.4405 14.4097 24.5162C14.4042 30.6117 19.3709 35.5948 25.4576 35.597C31.5258 35.6003 36.5056 30.627 36.51 24.5622C36.5144 18.4503 31.5728 13.5022 25.462 13.5Z" fill="#0052FF"/>
<path d="M35.7551 35.6366C35.7605 35.1816 36.1532 34.801 36.5962 34.8185C37.0282 34.836 37.3979 35.2133 37.4012 35.6431C37.4055 36.0861 37.0107 36.4842 36.5688 36.4831C36.1204 36.482 35.7485 36.0949 35.754 35.6366H35.7551Z" fill="#0052FF"/>
<path d="M0.0889844 29.5882C0.0889844 29.1354 0.475078 28.7471 0.916953 28.7548C1.3643 28.7624 1.73398 29.154 1.72523 29.6079C1.71648 30.0476 1.35336 30.4107 0.916953 30.4173C0.467422 30.4238 0.0878906 30.0443 0.0878906 29.5882H0.0889844Z" fill="#0052FF"/>
<path d="M22.906 24.5527C22.9049 24.2475 22.9399 23.9468 23.0734 23.6744C23.1806 23.4579 23.0985 23.3364 22.9476 23.1899C22.4477 22.7064 21.9588 22.2121 21.471 21.7166C21.0401 21.2791 21.0062 20.7782 21.3748 20.4249C21.7237 20.0902 22.2213 20.1339 22.637 20.5452C23.1313 21.0341 23.6268 21.5219 24.1102 22.0218C24.2579 22.1738 24.3738 22.2339 24.5981 22.1454C25.1471 21.9299 25.7279 21.9179 26.2737 22.13C26.5537 22.2383 26.6871 22.1519 26.8621 21.9747C28.0817 20.7454 29.3088 19.5236 30.5306 18.2975C30.7624 18.0657 31.0173 17.8961 31.3618 17.9694C32.0235 18.1094 32.2652 18.851 31.796 19.3639C31.3552 19.8463 30.8773 20.2958 30.4146 20.7585C29.5954 21.5788 28.7806 22.4024 27.9537 23.2139C27.8071 23.3572 27.7787 23.471 27.8465 23.6668C28.3365 25.0875 27.5917 26.5707 26.1895 26.9885C24.772 27.4107 23.3217 26.5521 22.9695 25.0766C22.929 24.906 22.9257 24.7266 22.9049 24.5516L22.906 24.5527ZM25.4774 23.6525C24.9743 23.646 24.5587 24.0507 24.562 24.5439C24.5652 25.0186 24.9699 25.4266 25.4468 25.4364C25.9335 25.4474 26.3656 25.0219 26.3623 24.5341C26.359 24.055 25.962 23.6591 25.4774 23.6525Z" fill="#0052FF"/>
<path d="M17.0886 25.3628C16.8578 25.3628 16.6226 25.3923 16.4039 25.2917C16.0451 25.1265 15.8515 24.8476 15.892 24.4484C15.9303 24.0733 16.1436 23.8217 16.5176 23.7364C16.8534 23.6587 17.1969 23.6708 17.5348 23.7134C18.0008 23.7725 18.2906 24.0973 18.2906 24.5294C18.2906 24.9701 17.9669 25.3136 17.4976 25.3606C17.3631 25.3737 17.2253 25.3628 17.0886 25.3628Z" fill="#0052FF"/>
<path d="M24.6356 32.8191C24.6509 32.6343 24.582 32.3663 24.733 32.13C24.9331 31.815 25.2164 31.6444 25.5937 31.7199C25.9787 31.7975 26.2259 32.0458 26.2686 32.4407C26.2992 32.724 26.2872 33.0138 26.2751 33.2993C26.2555 33.7685 25.8694 34.1371 25.4319 34.1229C24.9966 34.1075 24.6608 33.7608 24.6389 33.2982C24.6323 33.1625 24.6389 33.0258 24.6389 32.8191H24.6356Z" fill="#0052FF"/>
<path d="M33.8367 25.3705C33.6726 25.3705 33.5074 25.388 33.3467 25.3672C32.919 25.3136 32.616 24.9417 32.6335 24.5119C32.651 24.0787 32.9693 23.7583 33.421 23.7364C33.6934 23.7233 33.9668 23.7233 34.2381 23.7364C34.7095 23.7583 35.031 24.0941 35.0332 24.5458C35.0343 24.9887 34.7029 25.3398 34.2446 25.3727C34.109 25.3825 33.9723 25.3738 33.8356 25.3738C33.8356 25.3727 33.8356 25.3716 33.8356 25.3705H33.8367Z" fill="#0052FF"/>
<path d="M26.284 16.1851C26.284 16.3218 26.2917 16.4586 26.283 16.5942C26.2523 17.047 25.933 17.3532 25.4933 17.3609C25.0361 17.3696 24.6795 17.0568 24.6489 16.5986C24.6314 16.3273 24.6347 16.0528 24.6467 15.7815C24.6675 15.2937 25.0142 14.9667 25.4878 14.9732C25.9439 14.9798 26.26 15.2959 26.2851 15.7761C26.2928 15.9117 26.2862 16.0484 26.2862 16.1851C26.2862 16.1851 26.2851 16.1851 26.284 16.1851Z" fill="#0052FF"/>
</g>
<defs>
<clipPath id="clip0_901_2657">
<rect width="42" height="42" fill="white"/>
</clipPath>
</defs>
</svg>
