<svg width="42" height="42" viewBox="0 0 42 42" fill="none" xmlns="http://www.w3.org/2000/svg">
<g clip-path="url(#clip0_901_2722)">
<path d="M32.2535 41.9936C30.0371 40.8771 27.8214 39.7598 25.6041 38.645C25.034 38.3579 24.4671 38.0643 23.888 37.7968C23.3384 37.5434 23.1128 37.1283 23.1153 36.5319C23.1251 34.0923 23.1194 31.6527 23.1194 29.2131C23.1194 28.3001 23.1276 27.3871 23.1161 26.4741C23.1087 25.8933 23.3507 25.5053 23.8773 25.2444C26.5663 23.9122 29.2487 22.5694 31.9279 21.2183C32.3684 20.996 32.7703 21.0001 33.2067 21.2191C35.8851 22.5661 38.5667 23.9073 41.2524 25.2395C41.5838 25.4035 41.8036 25.6537 41.9923 25.9515V37.0823C41.7897 37.4703 41.4525 37.6943 41.0694 37.8838C39.0876 38.8657 37.109 39.8542 35.1328 40.8484C34.388 41.2233 33.6218 41.558 32.9073 41.9927H32.2527L32.2535 41.9936ZM25.2333 27.9859C25.2333 30.647 25.2374 33.2359 25.2259 35.8248C25.2251 36.0668 25.335 36.1537 25.5171 36.244C27.4022 37.1808 29.2848 38.1225 31.1691 39.0609C31.2741 39.1134 31.3676 39.2053 31.5161 39.1823C31.5161 36.5655 31.5128 33.9504 31.5226 31.336C31.5235 31.1137 31.3947 31.067 31.2503 30.9956C30.1576 30.4501 29.065 29.9038 27.9723 29.3575C27.0765 28.9096 26.1808 28.4609 25.2325 27.9867L25.2333 27.9859ZM39.8775 28.0351C39.7701 28.0671 39.7299 28.0728 39.6946 28.0901C37.7529 29.0613 35.8137 30.0391 33.8663 30.9989C33.6431 31.1088 33.6292 31.2483 33.6292 31.4484C33.6325 33.9438 33.6308 36.4384 33.6333 38.9338C33.6333 39.0183 33.5915 39.12 33.6948 39.2004C35.6849 38.2053 37.6717 37.2062 39.6651 36.2227C39.898 36.1078 39.8767 35.9413 39.8767 35.7534C39.8767 33.6813 39.8767 31.6084 39.8767 29.5363C39.8767 29.049 39.8767 28.5618 39.8767 28.0351H39.8775ZM38.5831 26.278C36.5905 25.2838 34.6841 24.3388 32.7859 23.3774C32.5743 23.2699 32.4315 23.3388 32.2617 23.4233C30.4653 24.3224 28.6671 25.2198 26.8723 26.1221C26.787 26.1648 26.6508 26.1656 26.6451 26.3248C28.5129 27.2607 30.384 28.1926 32.2478 29.1376C32.4783 29.2549 32.6588 29.2541 32.886 29.1376C34.493 28.3214 36.1065 27.5167 37.7185 26.7087C37.9801 26.5774 38.2426 26.447 38.5831 26.2772V26.278Z" fill="#0052FF"/>
<path d="M0.0889839 10.5434C0.0889839 8.8388 0.0955464 7.13419 0.0848824 5.42958C0.0816011 4.90541 0.303906 4.56251 0.768203 4.33119C3.49164 2.97603 6.2118 1.61349 8.93031 0.24685C9.32734 0.0475142 9.6973 0.0425924 10.096 0.242749C12.8112 1.60693 15.5289 2.96619 18.2507 4.31806C18.7322 4.55759 18.9636 4.92427 18.9636 5.45255C18.9636 8.86177 18.9636 12.2702 18.9636 15.6794C18.9636 16.2077 18.7306 16.5744 18.2491 16.8131C15.5404 18.16 12.835 19.5135 10.1329 20.8736C9.70715 21.0877 9.31504 21.0803 8.89094 20.867C6.19785 19.5111 3.5023 18.1608 0.801835 16.8188C0.308007 16.5735 0.0791402 16.2159 0.0840621 15.6564C0.099648 13.9518 0.0898042 12.2472 0.0898042 10.5434H0.0889839ZM16.8488 7.07431C16.7627 7.0981 16.7216 7.1022 16.6872 7.11943C14.7094 8.10544 12.7341 9.09638 10.7522 10.0734C10.5316 10.1817 10.566 10.34 10.566 10.509C10.5652 12.9888 10.5644 15.4686 10.5677 17.9492C10.5677 18.0468 10.5283 18.1592 10.6218 18.2617C12.6324 17.2552 14.6315 16.2503 16.6363 15.2561C16.8168 15.1667 16.8521 15.0535 16.8521 14.873C16.848 12.2849 16.8488 9.69603 16.8488 7.07431ZM8.4373 18.2675C8.44305 18.1461 8.44961 18.0681 8.44961 17.9902C8.44961 15.4825 8.44551 12.9748 8.45699 10.4679C8.45781 10.2186 8.36266 10.1111 8.1584 10.0102C6.2725 9.07751 4.39152 8.1358 2.50809 7.19818C2.41867 7.15388 2.33992 7.06037 2.20457 7.11533C2.20457 9.71654 2.20703 12.3186 2.19965 14.9206C2.19965 15.1265 2.29644 15.202 2.45394 15.2799C3.31691 15.7048 4.17578 16.1371 5.03629 16.567C6.1593 17.1281 7.2823 17.69 8.4373 18.2675ZM3.54578 5.30326C3.62043 5.3656 3.64504 5.39595 3.67703 5.41154C5.55555 6.35162 7.43734 7.28595 9.31176 8.23423C9.50617 8.33267 9.63824 8.27689 9.79902 8.1965C11.6095 7.29005 13.4215 6.38771 15.2311 5.47962C15.3082 5.44107 15.4182 5.43287 15.4526 5.32623C15.4362 5.30162 15.4272 5.27126 15.4075 5.26142C13.5126 4.3115 11.616 3.36486 9.72191 2.4133C9.57344 2.33865 9.45613 2.35177 9.30766 2.42642C7.40617 3.38208 5.50141 4.32873 3.54742 5.30244L3.54578 5.30326Z" fill="#0052FF"/>
<path d="M28.4039 8.44995C29.7123 8.44995 31.0207 8.44831 32.3291 8.44995C33.2191 8.45159 33.6301 8.8601 33.6309 9.74768C33.6325 11.7238 33.6375 13.7008 33.6284 15.6769C33.6243 16.5456 32.8828 17.0936 32.156 16.7728C31.7146 16.5776 31.5112 16.2232 31.5137 15.7343C31.5202 14.1257 31.5079 12.5179 31.5235 10.9092C31.5268 10.6148 31.4415 10.5573 31.1626 10.559C28.9002 10.5713 26.6369 10.545 24.3753 10.5778C23.6756 10.5877 23.1448 10.1636 23.1293 9.5262C23.1137 8.88471 23.6272 8.45241 24.3958 8.45077C25.7313 8.44831 27.0676 8.45077 28.403 8.45077L28.4039 8.44995Z" fill="#0052FF"/>
<path d="M13.7174 33.6321C12.3951 33.6321 11.0727 33.6338 9.75122 33.6321C8.86282 33.6305 8.45266 33.2211 8.45184 32.3319C8.4502 30.3558 8.4461 28.3788 8.45348 26.4027C8.45676 25.5348 9.19997 24.9877 9.92676 25.31C10.3681 25.5061 10.5707 25.8605 10.5682 26.3494C10.5617 27.9441 10.5765 29.5388 10.5568 31.1334C10.5527 31.4665 10.656 31.5247 10.9612 31.5231C13.2236 31.5108 15.4868 31.5338 17.7493 31.5042C18.3473 31.4968 18.9354 31.866 18.9518 32.5567C18.9666 33.1768 18.472 33.6264 17.7657 33.6296C16.4163 33.6362 15.0668 33.6313 13.7174 33.6313V33.6321Z" fill="#0052FF"/>
</g>
<defs>
<clipPath id="clip0_901_2722">
<rect width="42" height="42" fill="white"/>
</clipPath>
</defs>
</svg>
