<svg width="42" height="42" viewBox="0 0 42 42" fill="none" xmlns="http://www.w3.org/2000/svg">
<path d="M26.1959 0.00756836C26.303 0.171631 26.489 0.0939746 26.6334 0.141006C27.9284 0.561006 28.7104 1.6121 28.7202 3.03835C28.7345 5.04319 28.7268 7.04803 28.7268 9.05397C28.7279 11.6724 28.7355 14.2919 28.7224 16.9104C28.7213 17.221 28.8001 17.3019 29.103 17.2833C29.8413 17.2374 30.5774 17.2855 31.2752 17.5579C32.6632 18.0993 33.3905 19.1788 33.6345 20.5974C33.9418 22.378 33.5918 24.093 32.9859 25.761C31.9895 28.5074 30.4976 30.9257 28.2248 32.8135C28.1613 32.866 28.1045 32.9327 28.0323 32.9644C27.2852 33.2871 27.1212 33.8602 27.1835 34.6313C27.2557 35.526 27.2054 36.4305 27.1988 37.3307C27.1945 37.9322 26.8827 38.2965 26.3873 38.303C25.8874 38.3107 25.5462 37.9126 25.5451 37.311C25.5429 35.9197 25.5473 34.5285 25.5429 33.1372C25.5418 32.7807 25.6588 32.4963 25.9771 32.3191C28.0202 31.1816 29.3601 29.4021 30.4505 27.4016C31.2895 25.8627 31.8713 24.2319 32.0627 22.4776C32.1273 21.8902 32.113 21.304 31.9763 20.7297C31.6898 19.5222 30.9635 18.9382 29.651 18.9294C26.582 18.9087 23.5129 18.9108 20.4438 18.9163C19.6301 18.9174 18.9159 19.7891 18.999 20.6313C19.0974 21.6201 19.7362 22.2074 20.714 22.2085C22.7462 22.2107 24.7784 22.214 26.8106 22.2172C26.8784 22.2172 26.9473 22.2151 27.0151 22.2172C27.539 22.2391 27.8605 22.4852 27.9305 22.9172C28.0049 23.3777 27.7752 23.7266 27.2579 23.8852C26.2331 24.1991 25.2946 24.6815 24.447 25.3322C22.9146 26.5102 22.0363 28.0349 22.0035 30.0037C21.9937 30.6172 21.6459 31.0088 21.1526 31.0022C20.6385 30.9957 20.3016 30.5735 20.3257 29.9479C20.4154 27.5919 21.3998 25.6822 23.211 24.1871C23.3029 24.1116 23.3959 24.0362 23.4954 23.9552C23.386 23.8371 23.257 23.894 23.1465 23.894C22.2595 23.8885 21.3735 23.8907 20.4865 23.8907C19.9735 23.8907 19.4802 23.789 19.0493 23.5068C18.8109 23.3515 18.7234 23.3897 18.5888 23.6369C17.5771 25.4865 15.1709 25.8726 13.6451 24.4387C13.1124 23.9388 12.7799 23.3274 12.6881 22.5946C12.6684 22.4415 12.6859 22.2851 12.4321 22.3999C11.579 22.786 10.7193 22.7532 9.83446 22.3529C9.80165 23.323 9.8804 24.2538 9.99196 25.1802C10.1779 26.718 10.5574 28.1946 11.4324 29.5071C12.0143 30.3799 12.7482 31.1094 13.5795 31.734C14.0388 32.0796 14.2281 32.4733 14.2182 33.0497C14.1799 35.3138 14.1898 37.5779 14.1526 39.8419C14.146 40.2204 14.2609 40.2761 14.6032 40.2751C17.249 40.2608 19.8959 40.2652 22.5416 40.2685C23.2449 40.2685 23.6748 40.8547 23.3948 41.43C23.2318 41.7658 22.9496 41.9146 22.5668 41.9124C20.8212 41.9047 19.0745 41.9091 17.3288 41.9091C16.1016 41.9091 14.8734 41.9091 13.6462 41.9091C12.7416 41.9091 12.5054 41.6729 12.5087 40.7815C12.5185 38.326 12.5218 35.8705 12.5393 33.4161C12.5415 33.1493 12.4737 32.9721 12.256 32.7993C9.91103 30.9377 8.70462 28.4636 8.35353 25.5247C8.06696 23.1316 8.21134 20.7297 8.17743 18.3322C8.1654 17.4868 8.16212 16.6402 8.184 15.7958C8.21571 14.5282 8.83806 13.6127 9.98212 13.1074C11.1273 12.6032 12.221 12.7858 13.1846 13.5887C13.3902 13.7604 13.4865 13.7779 13.6954 13.5887C14.9302 12.4643 16.7021 12.473 17.9621 13.5865C18.0638 13.6773 18.1273 13.8271 18.3165 13.6543C19.454 12.6207 20.7184 12.4862 22.0845 13.1643C22.1052 13.1741 22.1359 13.1654 22.1873 13.1654C22.2409 11.9951 22.2999 10.8269 22.347 9.65881C22.4377 7.41116 22.5132 5.16241 22.6116 2.91475C22.6729 1.51913 23.4123 0.573037 24.7324 0.125693C24.8112 0.0994433 24.937 0.139912 24.9676 0.00866211H26.1948L26.1959 0.00756836ZM24.0259 9.00694C23.8957 12.309 23.8093 14.6387 23.7043 16.9672C23.6923 17.2319 23.7546 17.2855 24.004 17.2812C24.8899 17.2669 25.777 17.2593 26.6629 17.2844C26.9976 17.2943 27.0916 17.2144 27.0895 16.8666C27.0665 12.3254 27.061 7.78303 27.0501 3.24179C27.0501 3.14663 27.0501 3.05038 27.0446 2.95522C26.9976 2.1546 26.4737 1.66022 25.6665 1.65257C24.8823 1.64601 24.3321 2.12507 24.2949 2.90929C24.1812 5.26522 24.086 7.62225 24.0259 9.00694ZM14.321 19.0301H14.3188C14.3188 20.0921 14.3046 21.1552 14.3232 22.2172C14.3396 23.1458 15.2299 23.8174 16.1279 23.6052C16.9012 23.4226 17.319 22.8691 17.3245 21.9865C17.3343 20.243 17.3354 18.4996 17.3376 16.7562C17.3376 16.4291 17.3573 16.0999 17.3179 15.7772C17.214 14.9285 16.5435 14.3652 15.7265 14.4112C14.9193 14.4571 14.3265 15.1068 14.3221 15.9665C14.3166 16.988 14.321 18.0096 14.321 19.0312V19.0301ZM12.559 17.793H12.5677C12.5677 17.1674 12.5787 16.5407 12.5645 15.9151C12.5459 15.0893 11.9607 14.4932 11.1962 14.4943C10.4131 14.4954 9.83009 15.1144 9.8279 15.9577C9.82353 17.1554 9.82462 18.353 9.8279 19.5507C9.83009 20.383 10.4218 21.0108 11.1984 21.013C11.9716 21.0152 12.5404 20.4268 12.5579 19.589C12.5699 18.9907 12.5601 18.3913 12.5601 17.7919L12.559 17.793ZM18.9968 17.653C19.7187 17.2024 20.4701 17.2658 21.2127 17.2746C21.7538 17.2812 22.0243 17.0216 22.0243 16.4958C22.0243 16.3187 22.0265 16.1426 22.0243 15.9654C22.0134 15.0849 21.3746 14.4188 20.5313 14.409C19.6935 14.3991 19.0263 15.0521 19.0001 15.9304C18.9837 16.4729 18.9968 17.0165 18.9968 17.6519V17.653Z" fill="#0052FF"/>
<path d="M27.1823 41.1108C27.1746 41.5789 26.8093 41.9245 26.3368 41.9103C25.8927 41.8972 25.5449 41.5373 25.5449 41.0911C25.5449 40.6284 25.9102 40.2697 26.3773 40.273C26.8476 40.2773 27.1899 40.6339 27.1823 41.1097V41.1108Z" fill="#0052FF"/>
</svg>
