<svg width="42" height="42" viewBox="0 0 42 42" fill="none" xmlns="http://www.w3.org/2000/svg">
<g clip-path="url(#clip0_901_2700)">
<path d="M37.7363 41.9923H26.4433C26.4094 41.8851 26.3131 41.9201 26.2398 41.9015C24.2645 41.3929 22.9837 40.1712 22.4741 38.186C22.2367 37.2629 22.3734 36.3146 22.3614 35.3773C22.3581 35.094 22.2936 35.0185 22.0048 35.0196C19.6194 35.0327 17.235 35.0273 14.8495 35.0273C11.1155 35.0273 7.38031 35.0294 3.64625 35.0262C2.03953 35.0251 0.725937 34.126 0.202031 32.6899C0.138594 32.5171 0.152812 32.3159 0.0117188 32.1715V2.8743C0.123281 2.84914 0.0926562 2.74852 0.115625 2.67742C0.651563 1.01273 1.90828 0.0917969 3.655 0.0917969C13.7995 0.0917969 23.9441 0.0917969 34.0886 0.0928906C34.3325 0.0928906 34.583 0.0928906 34.8203 0.138828C36.5955 0.489922 37.7308 1.87789 37.7319 3.69898C37.7352 7.83008 37.7352 11.9623 37.7286 16.0934C37.7286 16.3504 37.7898 16.5429 37.9637 16.7474C39.0422 18.0151 39.6733 19.4763 39.7914 21.1487C39.8734 22.3201 39.8155 23.4926 39.8319 24.6651C39.8395 25.2152 39.833 25.2152 40.3897 25.2185C41.3412 25.224 41.9111 25.7927 41.9111 26.7432C41.9111 30.2071 41.9133 33.6699 41.9111 37.1338C41.9089 39.2743 40.4663 41.1938 38.4198 41.8009C38.1934 41.8676 37.943 41.849 37.7373 41.9912L37.7363 41.9923ZM36.3187 15.2829C36.3187 12.6338 36.3122 10.0712 36.3264 7.50852C36.3286 7.17492 36.2466 7.07758 35.9031 7.07867C24.5434 7.08742 13.1848 7.08742 1.82516 7.07867C1.48609 7.07867 1.39969 7.15851 1.39969 7.50195C1.41062 15.4251 1.40734 23.3482 1.40844 31.2713C1.40844 32.7435 2.24188 33.5945 3.69656 33.5955C9.79203 33.5977 15.8875 33.5945 21.983 33.6043C22.2914 33.6043 22.3625 33.5288 22.3603 33.2248C22.3461 31.0427 22.3548 28.8607 22.3516 26.6787C22.3516 26.0738 22.6217 25.6429 23.1522 25.3629C23.4694 25.1945 23.8117 25.2054 24.1508 25.2251C24.3859 25.2382 24.4527 25.1584 24.4472 24.9276C24.433 24.2593 24.4395 23.591 24.4428 22.9227C24.4472 21.9427 24.422 20.9638 24.643 19.9959C25.5694 15.9304 29.6819 13.3273 33.7528 14.2307C34.6475 14.4298 35.4744 14.7809 36.3198 15.2829H36.3187ZM40.405 37.8141C39.775 37.8141 39.1505 37.8185 38.5248 37.813C38.0184 37.8087 37.7177 37.533 37.7242 37.0923C37.7297 36.6668 38.0097 36.413 38.5117 36.4043C39.0706 36.3945 39.6295 36.3923 40.1884 36.4065C40.4236 36.413 40.545 36.3704 40.5187 36.098C40.4947 35.841 40.4991 35.5796 40.5177 35.3215C40.5341 35.0951 40.4652 35.0152 40.2278 35.0218C39.6416 35.0382 39.0553 35.0371 38.4691 35.024C38.0184 35.0141 37.7297 34.7287 37.7242 34.3251C37.7177 33.9127 37.9845 33.6316 38.445 33.6032C38.7841 33.5824 39.1264 33.5966 39.4677 33.5966C40.5592 33.5966 40.5516 33.5966 40.5198 32.5051C40.5133 32.2885 40.4531 32.2273 40.242 32.2327C39.67 32.2459 39.0969 32.2459 38.5238 32.2349C38.0173 32.2251 37.7177 31.9407 37.7242 31.5043C37.7308 31.0865 38.025 30.8174 38.5117 30.8021C38.8387 30.7923 39.1658 30.7999 39.4939 30.7999C40.5494 30.7999 40.5406 30.7999 40.5209 29.7259C40.5166 29.4852 40.44 29.4305 40.2169 29.436C39.6175 29.448 39.0159 29.4568 38.4177 29.4295C37.9637 29.4087 37.7067 29.1013 37.7264 28.6835C37.7439 28.3007 38.0283 28.0295 38.457 28.013C38.8245 27.9999 39.1931 28.0098 39.5617 28.0098C40.5155 28.0098 40.4969 28.0098 40.5242 27.0746C40.5341 26.7159 40.4444 26.6251 40.0802 26.6262C34.9811 26.6393 29.8809 26.6349 24.7819 26.6349C23.7417 26.6349 23.7505 26.6349 23.7494 27.6707C23.7494 27.9288 23.8041 28.0273 24.083 28.0152C24.6408 27.9923 25.2008 28.0021 25.7597 28.0109C26.2387 28.0185 26.5406 28.2952 26.5461 28.712C26.5516 29.1352 26.2683 29.413 25.7816 29.436C25.4545 29.4513 25.1275 29.4393 24.8005 29.4393C23.7286 29.4393 23.7395 29.4393 23.7483 30.497C23.7505 30.766 23.8456 30.8098 24.0797 30.8032C24.6386 30.789 25.1975 30.7901 25.7564 30.801C26.242 30.8109 26.5384 31.0854 26.545 31.5021C26.5527 31.9363 26.2497 32.2185 25.7444 32.2338C25.4173 32.2437 25.0903 32.236 24.7622 32.236C23.7275 32.236 23.7384 32.236 23.7483 33.286C23.7505 33.5463 23.8325 33.6076 24.0753 33.5999C24.6342 33.5835 25.1931 33.5846 25.752 33.5988C26.2639 33.6119 26.5581 33.8985 26.545 34.3349C26.533 34.7484 26.23 35.0141 25.7455 35.0251C25.4316 35.0316 25.1187 35.0262 24.8048 35.0262C23.7122 35.0262 23.7209 35.0262 23.7472 36.1134C23.7537 36.3562 23.8358 36.4098 24.0567 36.4043C24.6014 36.3912 25.1472 36.3988 25.693 36.401C25.8833 36.401 26.0747 36.401 26.242 36.5191C26.522 36.7193 26.6052 37.0004 26.5144 37.3121C26.4148 37.6501 26.1534 37.8109 25.8034 37.812C25.157 37.8141 24.5117 37.812 23.8566 37.812C24.1956 39.422 25.5355 40.566 27.198 40.5824C30.4836 40.6141 33.7703 40.613 37.0559 40.5835C38.7359 40.5693 40.1097 39.3968 40.4072 37.812L40.405 37.8141ZM18.8505 5.66336H35.6658C36.1011 5.66336 36.3187 5.44023 36.3187 4.99398C36.3187 4.58492 36.322 4.17586 36.3187 3.7668C36.3067 2.34273 35.4437 1.48852 34.0131 1.48852C23.9211 1.48852 13.8291 1.48852 3.73703 1.48852C3.655 1.48852 3.57297 1.48633 3.49203 1.4907C2.42891 1.53883 1.65125 2.21586 1.45 3.26039C1.37891 3.6268 1.415 3.9943 1.41172 4.3618C1.40844 4.7818 1.26953 5.33523 1.48062 5.58461C1.70047 5.84383 2.2725 5.66008 2.69031 5.66117C8.07703 5.66555 13.4637 5.66445 18.8516 5.66445L18.8505 5.66336ZM32.1286 25.2196C34.0919 25.2196 36.0552 25.2098 38.0173 25.2284C38.3531 25.2316 38.4122 25.1255 38.4067 24.8215C38.3881 23.7452 38.4067 22.6679 38.3958 21.5905C38.3608 18.4285 35.8189 15.7204 32.6678 15.4798C28.9709 15.1976 25.8789 18.0446 25.8647 21.747C25.8603 22.7827 25.8789 23.8196 25.8548 24.8554C25.8472 25.1737 25.9445 25.2284 26.2387 25.2273C28.202 25.213 30.1642 25.2207 32.1275 25.2207L32.1286 25.2196Z" fill="#0052FF"/>
<path d="M8.37328 18.2569C7.47422 18.2569 6.57406 18.2602 5.675 18.2569C4.78578 18.2525 4.19297 17.6619 4.19078 16.7716C4.18641 14.9592 4.18641 13.1469 4.19078 11.3345C4.19297 10.4858 4.75844 9.87984 5.605 9.85688C6.50406 9.83172 7.40422 9.84266 8.30328 9.85359C8.78344 9.85906 9.08641 10.1456 9.09297 10.5569C9.09953 10.9867 8.79109 11.2777 8.28578 11.2842C7.495 11.2952 6.70531 11.2973 5.91453 11.282C5.65969 11.2766 5.59625 11.3597 5.59734 11.6058C5.60719 13.2409 5.60828 14.8761 5.59734 16.5113C5.59516 16.7727 5.65969 16.8602 5.93641 16.858C7.57156 16.8448 9.20672 16.8438 10.8419 16.858C11.135 16.8613 11.1766 16.7497 11.17 16.5025C11.1558 15.9709 11.1602 15.4394 11.1667 14.9078C11.1744 14.3686 11.4511 14.0514 11.8919 14.058C12.3316 14.0645 12.5952 14.3828 12.5995 14.9253C12.6039 15.5247 12.605 16.1241 12.5995 16.7245C12.5908 17.6706 12.0078 18.2536 11.0716 18.2569C10.1725 18.2591 9.27234 18.2569 8.37328 18.2569Z" fill="#0052FF"/>
<path d="M8.39144 30.1252C7.47816 30.1252 6.56487 30.1285 5.65159 30.1252C4.78644 30.1209 4.19144 29.5302 4.18925 28.6629C4.18378 26.8506 4.18487 25.0371 4.18925 23.2248C4.19144 22.3509 4.75144 21.7526 5.62753 21.7296C6.51237 21.7056 7.39941 21.7154 8.28534 21.7274C8.79613 21.734 9.09909 22.0238 9.09144 22.4548C9.08378 22.8792 8.76769 23.1537 8.25909 23.1581C7.49566 23.1646 6.73222 23.1701 5.96987 23.1548C5.703 23.1493 5.59144 23.1963 5.59472 23.5026C5.61112 25.1246 5.60894 26.7467 5.59581 28.3687C5.59362 28.652 5.66581 28.7362 5.95675 28.734C7.57878 28.7198 9.20081 28.7187 10.8228 28.734C11.1291 28.7373 11.1794 28.6268 11.1707 28.3588C11.1521 27.8284 11.1586 27.2957 11.1674 26.7642C11.1761 26.2435 11.4397 25.9417 11.8696 25.9351C12.318 25.9285 12.5947 26.2413 12.5991 26.7773C12.6046 27.404 12.6089 28.0318 12.5991 28.6585C12.5827 29.5499 11.9899 30.1242 11.093 30.1263C10.1939 30.1296 9.29378 30.1263 8.39472 30.1263L8.39144 30.1252Z" fill="#0052FF"/>
<path d="M19.8989 15.4711C18.4289 15.4711 16.9578 15.4754 15.4878 15.4689C14.8414 15.4656 14.4684 14.9122 14.7616 14.4068C14.9048 14.1597 15.1345 14.0579 15.4091 14.0525C15.7219 14.0459 16.0358 14.0481 16.3486 14.0481C18.9769 14.0481 21.6041 14.047 24.2323 14.0481C24.8208 14.0481 25.115 14.2636 25.1434 14.6978C25.1751 15.1714 24.8623 15.4667 24.3111 15.4678C22.8411 15.4711 21.37 15.4689 19.9 15.4689L19.8989 15.4711Z" fill="#0052FF"/>
<path d="M12.5972 22.4382C12.5655 22.6351 12.4999 22.8068 12.3719 22.9588C11.253 24.2965 10.1406 25.6396 9.01846 26.9751C8.6083 27.4629 8.23205 27.4672 7.77596 27.0155C7.36908 26.613 6.96111 26.2105 6.56299 25.7993C6.22939 25.4547 6.2108 25.0424 6.49955 24.7482C6.78502 24.4583 7.21267 24.4747 7.55283 24.7919C7.66221 24.8937 7.76611 25.003 7.87111 25.1091C8.18684 25.4249 8.4909 25.4059 8.7833 25.0522C9.62002 24.0471 10.4567 23.0419 11.2956 22.0379C11.5166 21.7732 11.7911 21.6562 12.128 21.783C12.4255 21.8957 12.5611 22.1363 12.5961 22.4382H12.5972Z" fill="#0052FF"/>
<path d="M8.38338 15.471C8.16463 15.4546 7.99073 15.3572 7.84198 15.2085C7.4176 14.7841 6.98994 14.363 6.57213 13.9332C6.23635 13.5886 6.21338 13.1774 6.49666 12.8832C6.79088 12.5769 7.21963 12.5999 7.57838 12.9455C7.77526 13.1347 7.9776 13.3196 8.15369 13.5263C8.30463 13.7035 8.38557 13.6652 8.5201 13.5033C9.4301 12.3986 10.3489 11.3027 11.2665 10.2057C11.5804 9.83051 11.9195 9.75941 12.2651 9.98473C12.6217 10.2177 12.7157 10.6628 12.4259 11.0139C11.2665 12.4238 10.0907 13.8205 8.91713 15.2205C8.78041 15.3846 8.59338 15.4633 8.38338 15.4732V15.471Z" fill="#0052FF"/>
<path d="M18.1709 23.8361C17.2861 23.8361 16.4001 23.8394 15.5153 23.835C14.9717 23.8328 14.6534 23.5605 14.6643 23.1219C14.6742 22.7019 14.9957 22.4361 15.5043 22.4361C17.2751 22.4339 19.0448 22.435 20.8156 22.4361C21.3406 22.4361 21.6829 22.7248 21.672 23.1514C21.6611 23.5659 21.3384 23.8328 20.8265 23.835C19.9417 23.8394 19.0557 23.8361 18.1709 23.8361Z" fill="#0052FF"/>
<path d="M18.1645 11.9634C17.2654 11.9634 16.3663 11.9667 15.4684 11.9623C14.9685 11.9601 14.6513 11.6692 14.6645 11.2437C14.6776 10.8347 14.9893 10.5689 15.4705 10.5678C17.2676 10.5656 19.0657 10.5656 20.8627 10.5678C21.3374 10.5678 21.6568 10.8412 21.6721 11.2448C21.6874 11.6572 21.3527 11.9591 20.8605 11.9612C19.9615 11.9656 19.0635 11.9623 18.1645 11.9623V11.9634Z" fill="#0052FF"/>
<path d="M17.8075 27.3393C17.0452 27.3393 16.2828 27.3415 15.5205 27.3393C14.9922 27.3371 14.6608 27.0549 14.6641 26.6218C14.6685 26.1974 14.9747 25.9305 15.4964 25.9283C17.0485 25.9229 18.6005 25.9218 20.1525 25.9283C20.6764 25.9305 20.9641 26.1974 20.9597 26.6382C20.9553 27.0669 20.6447 27.336 20.1361 27.3382C19.3606 27.3426 18.5841 27.3382 17.8086 27.3382L17.8075 27.3393Z" fill="#0052FF"/>
<path d="M31.4348 35.0436C31.4348 34.9889 31.4293 34.9343 31.4348 34.8807C31.484 34.4519 31.3921 34.1675 30.9492 33.9171C30.1354 33.4566 29.8346 32.4022 30.1409 31.5185C30.4504 30.6238 31.2915 30.0835 32.3087 30.1272C33.1815 30.1644 33.9646 30.8382 34.1845 31.7394C34.3988 32.6199 33.9865 33.601 33.1618 34.0286C32.8785 34.1752 32.8063 34.336 32.8249 34.6225C32.8468 34.9616 32.8348 35.3039 32.8282 35.6441C32.8206 36.1068 32.522 36.4283 32.1173 36.4185C31.7268 36.4097 31.4424 36.0958 31.4337 35.6572C31.4293 35.4527 31.4337 35.2482 31.4337 35.0436H31.4348ZM32.1282 31.5196C31.7782 31.5218 31.4479 31.8477 31.4381 32.1988C31.4282 32.5641 31.7706 32.9097 32.1381 32.9064C32.4913 32.9032 32.8151 32.5838 32.8249 32.2294C32.8348 31.863 32.4946 31.5152 32.1282 31.5185V31.5196Z" fill="#0052FF"/>
<path d="M24.1114 2.87756C27.2067 2.87756 30.302 2.87756 33.3973 2.87756C33.9037 2.87756 34.1979 3.1149 34.222 3.52834C34.2461 3.93959 33.9989 4.23271 33.5854 4.27318C33.4498 4.28631 33.3131 4.28303 33.1764 4.28303C27.1225 4.28303 21.0675 4.28303 15.0136 4.28303C14.3081 4.28303 13.9833 4.06646 13.9767 3.59287C13.969 3.10068 14.2983 2.87646 15.03 2.87646C18.0575 2.87646 21.0839 2.87646 24.1114 2.87646V2.87756Z" fill="#0052FF"/>
<path d="M8.05148 4.27664C7.91586 4.27664 7.77914 4.28648 7.64352 4.27445C7.2607 4.24164 6.97852 3.94304 6.97852 3.58211C6.97852 3.22883 7.27164 2.90836 7.64242 2.88211C7.88633 2.86461 8.13242 2.87008 8.37633 2.87883C8.78977 2.89523 9.0807 3.17851 9.09164 3.56133C9.10258 3.97039 8.82367 4.25258 8.37742 4.27992C8.26914 4.28648 8.15977 4.27992 8.05148 4.27992C8.05148 4.27883 8.05148 4.27664 8.05148 4.27554V4.27664Z" fill="#0052FF"/>
<path d="M11.5331 4.27549C11.3975 4.27549 11.2608 4.28643 11.1262 4.2733C10.7325 4.23611 10.482 3.95611 10.4864 3.57221C10.4908 3.19924 10.762 2.90721 11.147 2.88096C11.3767 2.86565 11.6097 2.87111 11.8404 2.87768C12.2725 2.8908 12.5908 3.18611 12.5973 3.57111C12.605 3.95611 12.2944 4.2558 11.8601 4.27986C11.7519 4.28533 11.6425 4.27986 11.5342 4.27986C11.5342 4.27768 11.5342 4.27549 11.5342 4.2744L11.5331 4.27549Z" fill="#0052FF"/>
<path d="M4.55875 2.87756C5.285 2.87756 5.60437 3.10068 5.59344 3.60162C5.5825 4.08178 5.27625 4.28412 4.55984 4.28412C4.43734 4.28412 4.31484 4.2874 4.19344 4.27865C3.77344 4.25021 3.5 3.9735 3.5 3.58193C3.5 3.19365 3.78219 2.9049 4.19234 2.87975C4.31375 2.87209 4.43625 2.87865 4.55875 2.87756Z" fill="#0052FF"/>
</g>
<defs>
<clipPath id="clip0_901_2700">
<rect width="42" height="42" fill="white"/>
</clipPath>
</defs>
</svg>
