<svg width="42" height="42" viewBox="0 0 42 42" fill="none" xmlns="http://www.w3.org/2000/svg">
<g clip-path="url(#clip0_901_2692)">
<path d="M0.0078125 14.0022C0.2025 13.743 0.164219 13.4181 0.245156 13.1261C0.675 11.5763 1.53906 10.395 3.01891 9.69065C4.22094 9.11752 5.44922 8.61002 6.69609 8.15065C8.13766 7.62018 9.75203 8.15393 10.5516 9.4708C11.6016 11.2011 12.6198 12.9533 13.5867 14.7317C14.4103 16.2488 13.8788 18.0885 12.4317 19.0367C12.295 19.1264 12.1528 19.2063 12.0139 19.2905C10.8764 19.9796 10.6106 21.2866 11.4069 22.341C12.8725 24.2824 14.4989 26.0783 16.2784 27.7375C17.3153 28.7044 18.3981 29.6188 19.5302 30.4741C20.6436 31.3141 21.9517 31.0571 22.6638 29.8517C23.81 27.9103 25.6573 27.4236 27.602 28.548C29.107 29.4186 30.6186 30.2794 32.1192 31.1566C33.8255 32.153 34.368 33.7433 33.6341 35.5841C33.1867 36.7052 32.7383 37.8252 32.2155 38.9156C31.3623 40.6908 29.8792 41.5494 28.0111 41.8206C25.6016 42.1706 23.3397 41.5439 21.1434 40.6416C17.4236 39.1147 14.1894 36.8277 11.2209 34.1524C7.61266 30.8996 4.52391 27.2235 2.26094 22.8988C1.19672 20.8677 0.370938 18.7502 0.0832813 16.4544C0.08 16.426 0.0340625 16.4019 0.00890625 16.3756C0.00890625 15.5849 0.00890625 14.793 0.00890625 14.0022H0.0078125ZM2.62516 15.283C2.59563 15.5499 2.69844 15.8966 2.70938 16.251C2.71156 16.3319 2.73563 16.4117 2.74875 16.4927C3.09875 18.5981 3.93109 20.5253 4.96578 22.3683C7.41141 26.7269 10.7014 30.3724 14.5459 33.5289C17.0922 35.6191 19.8386 37.3942 22.9613 38.5142C24.452 39.0491 25.9778 39.4472 27.5911 39.2164C28.6652 39.0633 29.5084 38.6116 29.958 37.5441C30.3736 36.5564 30.8013 35.5742 31.1917 34.5767C31.4192 33.9927 31.3328 33.7455 30.7925 33.4327C29.3805 32.6167 27.9531 31.826 26.5597 30.9805C25.4758 30.3221 25.2822 30.5999 24.7889 31.4038C23.3659 33.7236 20.2717 34.3175 18.0941 32.69C14.7089 30.1613 11.7514 27.1961 9.22047 23.8121C8.38594 22.6964 8.13438 21.4266 8.43406 20.0605C8.73813 18.6758 9.54422 17.6641 10.7616 16.963C11.3883 16.6021 11.4703 16.2936 11.1083 15.6669C10.2245 14.1367 9.33969 12.6077 8.45266 11.0797C8.18141 10.6127 7.91344 10.5011 7.44203 10.6849C6.36797 11.1027 5.30594 11.5489 4.25266 12.0192C3.44547 12.3802 3.01344 13.0058 2.79797 13.8174C2.67875 14.2658 2.62516 14.7263 2.62625 15.283H2.62516Z" fill="#0052FF"/>
<path d="M26.2796 0.00756836C26.75 0.176006 27.2509 0.165068 27.7365 0.243818C34.4171 1.32335 40.0904 6.65101 41.4861 13.2944C42.7417 19.2762 41.2454 24.5262 37.0498 28.9887C36.5817 29.4863 36.0457 29.623 35.5065 29.4054C34.625 29.0499 34.3975 27.9627 35.08 27.2496C36.0271 26.2608 36.8639 25.1933 37.5146 23.9858C38.8589 21.4932 39.4287 18.8408 39.2362 16.0069C38.8075 9.70585 34.17 4.35413 28.1084 3.02413C23.1461 1.93476 18.7656 3.14663 14.9889 6.54491C14.6673 6.83366 14.3895 7.18038 13.9061 7.21648C13.3012 7.26132 12.7992 7.00757 12.552 6.50772C12.3059 6.00897 12.4142 5.38663 12.832 4.96772C14.0318 3.76241 15.3848 2.76163 16.8898 1.96976C18.8345 0.943818 20.8995 0.312725 23.0881 0.0906934C23.1537 0.0841309 23.227 0.0939746 23.2511 0.00756836H26.2786H26.2796Z" fill="#0052FF"/>
<path d="M20.1092 20.4718C21.4512 20.4718 22.6784 20.4652 23.9045 20.4751C24.552 20.4805 25.0923 20.9487 25.2028 21.5655C25.3132 22.1813 24.9468 22.7927 24.3453 23.0268C24.1582 23.1001 23.9723 23.0968 23.7831 23.0968C21.7104 23.099 19.6367 23.0618 17.5651 23.1132C16.5118 23.1394 15.7429 22.1069 16.3171 21.0504C17.0631 19.6788 18.159 18.631 19.3457 17.6608C20.0939 17.0483 20.8835 16.4851 21.589 15.8201C21.9139 15.5138 22.1556 15.1758 22.1982 14.7066C22.2628 14.0001 22.1239 13.3843 21.4468 13.0419C20.6943 12.6602 19.9221 12.6307 19.2079 13.1426C18.789 13.4433 18.742 13.9082 18.7595 14.3916C18.7901 15.2666 18.2006 15.8496 17.3507 15.8069C16.6846 15.773 16.1673 15.2185 16.1367 14.5054C16.0262 11.9591 17.7018 10.2015 20.2918 10.1446C22.5067 10.0965 24.33 11.4068 24.7543 13.4422C25.0748 14.9833 24.7412 16.3877 23.5982 17.5427C22.7801 18.3696 21.8285 19.0357 20.9339 19.7707C20.6845 19.9763 20.4406 20.1896 20.1103 20.4718H20.1092Z" fill="#0052FF"/>
<path d="M33.6316 14.4714C33.6316 15.4393 33.6371 16.4073 33.6272 17.3753C33.6251 17.5984 33.6491 17.6957 33.9215 17.7198C34.6587 17.7865 35.1826 18.3586 35.1836 19.029C35.1858 19.7017 34.6762 20.2595 33.928 20.3437C33.6743 20.3722 33.613 20.4476 33.6272 20.6861C33.6469 21.0393 33.6404 21.3948 33.6305 21.7492C33.6076 22.5236 33.0607 23.0879 32.3333 23.0978C31.5863 23.1087 31.0362 22.5914 30.9847 21.8061C30.9629 21.467 30.9552 21.1225 30.9847 20.7845C31.0132 20.4542 30.9257 20.347 30.5713 20.3525C29.1265 20.3754 27.6816 20.3667 26.2368 20.3601C25.4263 20.3568 24.898 19.9456 24.7657 19.2248C24.6826 18.772 24.874 18.4045 25.1518 18.0665C26.5901 16.322 28.0272 14.5753 29.4644 12.8297C30.0441 12.1253 30.6238 11.4187 31.2046 10.7154C31.6322 10.197 32.1704 10.0198 32.7227 10.2101C33.2958 10.407 33.6272 10.8926 33.6316 11.5675C33.6382 12.5354 33.6327 13.5034 33.6338 14.4714H33.6316ZM28.8694 17.7034C29.5519 17.7034 30.148 17.7023 30.7441 17.7034C30.8754 17.7034 30.9804 17.7034 30.9793 17.5186C30.9716 16.765 30.976 16.0114 30.976 15.144C30.2432 16.0343 29.5847 16.8339 28.8694 17.7023V17.7034Z" fill="#0052FF"/>
</g>
<defs>
<clipPath id="clip0_901_2692">
<rect width="42" height="42" fill="white"/>
</clipPath>
</defs>
</svg>
