<svg width="42" height="42" viewBox="0 0 42 42" fill="none" xmlns="http://www.w3.org/2000/svg">
<g clip-path="url(#clip0_901_2670)">
<path d="M0 6.96383C0.138906 6.8818 0.106094 6.7232 0.14875 6.60398C0.591719 5.33633 1.72266 4.50945 3.0625 4.50945C14.9953 4.50727 26.9292 4.50727 38.862 4.50945C40.5475 4.50945 41.9081 5.86133 41.9092 7.54023C41.9125 16.5396 41.9125 25.539 41.9092 34.5384C41.9092 36.2162 40.5475 37.5702 38.8631 37.5702C26.9303 37.5735 14.9964 37.5724 3.06359 37.5702C1.72375 37.5702 0.591719 36.7423 0.14875 35.4757C0.107188 35.3565 0.138906 35.1979 0 35.1159V6.96383H0ZM20.953 5.73664C15.0872 5.73664 9.2225 5.73664 3.35672 5.73664C1.95125 5.73664 1.22828 6.46508 1.22828 7.88258C1.22828 9.02773 1.24797 10.174 1.21734 11.3191C1.20641 11.7227 1.29828 11.8277 1.71719 11.8266C12.9708 11.8135 24.2233 11.8157 35.4769 11.8168C35.6267 11.8168 35.7798 11.8059 35.9253 11.831C36.2633 11.8901 36.4689 12.1077 36.4722 12.4457C36.4744 12.7618 36.2906 12.9882 35.9691 13.0527C35.7973 13.0866 35.6169 13.0845 35.4408 13.0845C24.1741 13.0855 12.9073 13.0877 1.64063 13.0779C1.30266 13.0779 1.21953 13.1545 1.21953 13.4957C1.23047 20.4104 1.22828 27.324 1.22828 34.2387C1.22828 35.6124 1.96875 36.3452 3.35563 36.3452C15.0861 36.3452 26.8166 36.3452 38.547 36.3452C39.9536 36.3452 40.6809 35.6157 40.6809 34.2037C40.6809 27.3163 40.6809 20.429 40.6809 13.5427C40.6809 13.488 40.6744 13.4323 40.682 13.3798C40.7148 13.1566 40.6372 13.0724 40.3977 13.0812C39.8803 13.0998 39.3608 13.0943 38.8434 13.0845C38.3884 13.0757 38.0888 12.8132 38.0888 12.4479C38.0888 12.0815 38.3895 11.8255 38.8456 11.8201C39.3498 11.8135 39.8563 11.8004 40.3594 11.8255C40.6427 11.8398 40.6897 11.7337 40.6864 11.481C40.6744 10.2812 40.6809 9.08133 40.6809 7.88039C40.6809 6.46727 39.9547 5.73883 38.5481 5.73883C32.6823 5.73883 26.8177 5.73883 20.9519 5.73883L20.953 5.73664Z" fill="#0052FF"/>
<path d="M8.25479 22.9543C8.25479 24.5228 8.23948 26.0912 8.26135 27.6585C8.27229 28.457 8.57198 29.1767 9.06635 29.7979C11.5131 32.8714 15.6857 32.4853 17.8492 29.8132C18.4824 29.0312 18.7078 28.0993 18.7078 27.1062C18.7078 24.1323 18.7078 21.1595 18.7078 18.1856C18.7078 17.8367 18.6465 17.5206 18.2396 17.4331C17.7912 17.3368 17.5101 17.6168 17.509 18.156C17.5079 21.061 17.509 23.9671 17.509 26.8721C17.509 28.8978 16.0915 30.441 14.0659 30.7068C12.6976 30.8862 11.5448 30.4935 10.5254 29.6076C9.80573 28.982 9.43167 28.1923 9.4262 27.2407C9.41745 25.8495 9.42182 24.4582 9.42401 23.067C9.42401 22.6065 9.66901 22.309 10.0376 22.2959C10.4182 22.2828 10.6764 22.5835 10.6785 23.0779C10.684 24.374 10.6785 25.669 10.6807 26.9651C10.6829 28.2875 11.7318 29.391 13.0629 29.4807C13.6131 29.5179 14.1468 29.472 14.6598 29.2412C15.712 28.7676 16.2906 28.049 16.2687 26.8109C16.2173 23.9475 16.2501 21.0818 16.2534 18.2184C16.2545 17.1706 16.7806 16.4235 17.6479 16.2168C18.8784 15.9237 19.959 16.7998 19.9623 18.1101C19.9678 21.1518 19.9667 24.1935 19.9623 27.2353C19.9623 27.8226 19.8737 28.4023 19.6823 28.9601C18.9539 31.07 17.3821 32.2895 15.3324 32.9195C12.6298 33.7507 9.78823 32.7904 8.07979 30.5537C7.33385 29.577 6.97729 28.4646 6.97292 27.2484C6.96088 24.1935 6.96417 21.1376 6.97073 18.0828C6.97292 17.0098 7.76042 16.1851 8.78745 16.1523C9.77729 16.1206 10.6151 16.9059 10.6687 17.9646C10.7037 18.645 10.6895 19.3285 10.6753 20.01C10.6665 20.4201 10.404 20.687 10.0595 20.6903C9.70292 20.6925 9.43276 20.4015 9.4262 19.9804C9.41745 19.3668 9.4262 18.7532 9.42292 18.1385C9.42073 17.6628 9.22167 17.4265 8.83339 17.4232C8.4451 17.42 8.23073 17.6529 8.22854 18.1287C8.22198 19.7387 8.22635 21.3476 8.22635 22.9576C8.2362 22.9576 8.24604 22.9576 8.25589 22.9576L8.25479 22.9543Z" fill="#0052FF"/>
<path d="M28.0558 20.9912C29.0073 19.6394 29.9283 18.3236 30.8569 17.0155C31.4387 16.1962 32.3914 15.9305 33.227 16.3406C34.2595 16.847 34.5953 18.1147 33.9237 19.0827C32.8147 20.6828 31.6914 22.2731 30.5561 23.8547C30.3669 24.1172 30.3286 24.2966 30.5484 24.5569C30.8186 24.8784 31.0417 25.2416 31.2823 25.5872C31.5962 26.0367 31.5886 26.39 31.2648 26.6252C30.928 26.8691 30.5976 26.7684 30.2794 26.3211C29.9556 25.8661 29.634 25.41 29.3147 24.9528C28.9297 24.4027 28.9297 24.0111 29.3169 23.4609C30.438 21.8695 31.5601 20.2792 32.6812 18.6878C32.76 18.5762 32.8431 18.468 32.9109 18.3509C33.0892 18.0447 33.0225 17.6958 32.76 17.5153C32.5008 17.3381 32.1322 17.395 31.9244 17.6662C31.71 17.9473 31.5142 18.2437 31.3108 18.5325C30.5419 19.623 29.7751 20.7145 29.004 21.8039C28.4309 22.6133 27.6664 22.61 27.0889 21.7941C26.1614 20.4827 25.2394 19.1669 24.3162 17.8533C24.1992 17.6859 24.0931 17.4989 23.8798 17.4453C23.6272 17.3819 23.3909 17.4158 23.2181 17.64C23.0387 17.8741 23.0333 18.118 23.1995 18.3575C23.6337 18.9842 24.0734 19.6066 24.512 20.2311C25.2711 21.3117 26.0334 22.3902 26.7903 23.473C27.1928 24.0483 27.1895 24.3808 26.7826 24.9594C25.3881 26.9412 23.9925 28.922 22.5936 30.9017C22.4131 31.1566 22.3365 31.4125 22.517 31.6925C22.669 31.9298 22.902 31.978 23.1623 31.932C23.3865 31.8938 23.4992 31.7177 23.6173 31.5503C24.7701 29.9152 25.924 28.2789 27.0769 26.6437C27.673 25.7994 28.4233 25.7917 29.015 26.6306C30.1383 28.2209 31.2561 29.8145 32.3761 31.407C32.4384 31.4956 32.4986 31.5875 32.5664 31.6728C32.7961 31.9648 33.1592 32.0359 33.4272 31.8456C33.6995 31.6531 33.7608 31.2878 33.5453 30.9739C33.0914 30.3122 32.6222 29.6592 32.1628 29.0019C32.0851 28.8903 31.9976 28.7777 31.9572 28.6519C31.862 28.3566 31.967 28.1094 32.2208 27.9453C32.4986 27.7659 32.7994 27.7933 32.993 28.0514C33.6142 28.8783 34.2639 29.692 34.7583 30.5998C35.2023 31.4147 34.8392 32.4548 34.0342 32.9459C33.2237 33.4392 32.1715 33.2467 31.5951 32.4516C30.6917 31.2069 29.8189 29.9392 28.933 28.6825C28.6442 28.2723 28.3533 27.8644 28.0481 27.4323C26.8636 29.1112 25.7042 30.7573 24.5415 32.4012C24.1194 32.9973 23.5255 33.2817 22.8123 33.192C21.3686 33.0105 20.6948 31.4661 21.525 30.2641C22.4842 28.8761 23.4664 27.5023 24.4376 26.122C24.8139 25.5872 25.1715 25.0392 25.5697 24.523C25.7501 24.2889 25.7458 24.1369 25.5784 23.9006C24.4475 22.3169 23.3242 20.7266 22.213 19.1286C21.3719 17.9189 22.0095 16.3986 23.4576 16.1798C24.1905 16.0694 24.7887 16.3691 25.2186 16.9761C26.1548 18.2984 27.0867 19.623 28.0525 20.9912H28.0558Z" fill="#0052FF"/>
<path d="M28.8449 10.6314C26.0504 10.6314 23.2548 10.6347 20.4603 10.6303C19.4759 10.6292 18.7332 10.1042 18.5024 9.27294C18.1634 8.04794 19.0471 6.91482 20.3684 6.90826C22.5362 6.89841 24.704 6.90497 26.8718 6.90497C30.3489 6.90497 33.8248 6.90279 37.3018 6.90607C38.4929 6.90716 39.3329 7.74169 39.287 8.86279C39.2454 9.88763 38.4131 10.627 37.2701 10.6303C34.7337 10.6369 32.1984 10.6325 29.662 10.6325C29.3896 10.6325 29.1162 10.6325 28.8439 10.6325L28.8449 10.6314ZM28.8996 8.17591C26.1467 8.17591 23.3937 8.17591 20.6407 8.17591C19.9484 8.17591 19.6837 8.34435 19.6924 8.77747C19.7012 9.19529 19.9637 9.35935 20.6265 9.35935C26.1182 9.35935 31.611 9.35935 37.1028 9.35935C37.2657 9.35935 37.4342 9.37029 37.5917 9.33419C37.9001 9.2631 38.0478 9.02685 38.0324 8.73154C38.0182 8.45701 37.8651 8.24044 37.5665 8.19013C37.4331 8.16826 37.2953 8.17701 37.1585 8.17701C34.4056 8.17701 31.6526 8.17701 28.8996 8.17701V8.17591Z" fill="#0052FF"/>
<path d="M6.18079 8.76745C6.17861 9.77261 5.3397 10.617 4.33783 10.6225C3.32939 10.6279 2.45329 9.74417 2.47298 8.74011C2.49267 7.73605 3.35126 6.89386 4.34329 6.90589C5.34954 6.91792 6.18298 7.7623 6.18079 8.76636V8.76745ZM4.9197 8.7773C4.92626 8.43167 4.68892 8.18339 4.34548 8.17683C3.99548 8.17026 3.75158 8.40433 3.74501 8.75214C3.73954 9.10323 3.97251 9.34823 4.31923 9.35261C4.66595 9.35808 4.91314 9.12073 4.9197 8.7773Z" fill="#0052FF"/>
<path d="M11.481 8.75639C11.4854 9.77248 10.6683 10.607 9.65771 10.6223C8.65036 10.6376 7.77755 9.76374 7.78521 8.75092C7.79286 7.75123 8.64599 6.90358 9.64239 6.90577C10.6486 6.90795 11.4766 7.74139 11.481 8.75639ZM10.2352 8.74436C10.2254 8.40967 9.96505 8.16795 9.62271 8.17561C9.28036 8.18327 9.03864 8.4392 9.04849 8.78264C9.05833 9.12498 9.31318 9.36123 9.66099 9.35139C9.99786 9.34155 10.244 9.08123 10.2341 8.74436H10.2352Z" fill="#0052FF"/>
<path d="M16.6366 8.82203C16.6059 9.83484 15.7364 10.6639 14.7488 10.6212C13.7338 10.5775 12.9189 9.72218 12.9419 8.72578C12.9659 7.72499 13.8377 6.88171 14.8242 6.90578C15.8567 6.92984 16.6672 7.78843 16.6366 8.82203ZM14.8045 9.35249C15.1458 9.34921 15.3941 9.09765 15.3919 8.75859C15.3886 8.42062 15.1359 8.17453 14.7936 8.17562C14.448 8.17781 14.203 8.42499 14.2063 8.76953C14.2095 9.11296 14.4578 9.35578 14.8045 9.35249Z" fill="#0052FF"/>
</g>
<defs>
<clipPath id="clip0_901_2670">
<rect width="42" height="42" fill="white"/>
</clipPath>
</defs>
</svg>
