<svg width="32" height="33" viewBox="0 0 32 33" fill="none" xmlns="http://www.w3.org/2000/svg">
<path d="M16.0004 10.8571C16.5687 10.8571 17.1138 10.6314 17.5156 10.2295C17.9175 9.82763 18.1433 9.28258 18.1433 8.71426C18.1433 8.14594 17.9175 7.60089 17.5156 7.19903C17.1138 6.79717 16.5687 6.5714 16.0004 6.5714C15.4321 6.5714 14.887 6.79717 14.4852 7.19903C14.0833 7.60089 13.8575 8.14594 13.8575 8.71426C13.8575 9.28258 14.0833 9.82763 14.4852 10.2295C14.887 10.6314 15.4321 10.8571 16.0004 10.8571ZM17.2718 1.27855C16.9035 1.00706 16.458 0.860596 16.0004 0.860596C15.5428 0.860596 15.0973 1.00706 14.729 1.27855L1.15755 11.2857C-0.505312 12.5128 0.361831 15.1528 2.42897 15.1528H3.14326V25.4985C2.29693 25.8512 1.57395 26.4465 1.06549 27.2095C0.557022 27.9724 0.285835 28.8688 0.286117 29.7857V31.9285C0.286117 32.52 0.766117 33 1.35755 33H30.6433C30.9274 33 31.1999 32.8871 31.4009 32.6862C31.6018 32.4852 31.7147 32.2127 31.7147 31.9285V29.7857C31.7147 28.8691 31.4434 27.973 30.9349 27.2103C30.4265 26.4476 29.7037 25.8525 28.8575 25.5V15.1528H29.5704C31.639 15.1528 32.5061 12.5128 30.8418 11.2857L17.2718 1.27855ZM5.28612 25.1428V15.1528H8.85755V25.1428H5.28612ZM26.7147 15.1528V25.1428H23.1433V15.1528H26.7147ZM21.0004 15.1528V25.1428H17.0718V15.1528H21.0004ZM14.929 15.1528V25.1428H11.0004V15.1528H14.929ZM2.42897 13.01L16.0004 3.00283L29.5704 13.01H2.42897ZM2.42897 29.7857C2.42897 28.4057 3.54897 27.2857 4.92897 27.2857H27.0718C28.4518 27.2857 29.5718 28.4057 29.5718 29.7857V30.8571H2.42897V29.7857Z" fill="#1A2B6B"/>
</svg>
