<svg width="40" height="40" viewBox="0 0 40 40" fill="none" xmlns="http://www.w3.org/2000/svg">
<path d="M27.3052 13.7891H25.4732C25.0747 13.7891 24.6958 13.9805 24.4614 14.3086L18.3208 22.8242L15.5396 18.9648C15.3052 18.6406 14.9302 18.4453 14.5278 18.4453H12.6958C12.4419 18.4453 12.2935 18.7344 12.4419 18.9414L17.3091 25.6914C17.4241 25.8519 17.5756 25.9827 17.7513 26.0729C17.9269 26.1631 18.1214 26.2101 18.3189 26.2101C18.5163 26.2101 18.7109 26.1631 18.8865 26.0729C19.0621 25.9827 19.2136 25.8519 19.3286 25.6914L27.5552 14.2852C27.7075 14.0781 27.5591 13.7891 27.3052 13.7891Z" fill="#1A2B6B"/>
<path d="M20 2.5C10.3359 2.5 2.5 10.3359 2.5 20C2.5 29.6641 10.3359 37.5 20 37.5C29.6641 37.5 37.5 29.6641 37.5 20C37.5 10.3359 29.6641 2.5 20 2.5ZM20 34.5312C11.9766 34.5312 5.46875 28.0234 5.46875 20C5.46875 11.9766 11.9766 5.46875 20 5.46875C28.0234 5.46875 34.5312 11.9766 34.5312 20C34.5312 28.0234 28.0234 34.5312 20 34.5312Z" fill="#1A2B6B"/>
</svg>
