<svg width="40" height="40" viewBox="0 0 40 40" fill="none" xmlns="http://www.w3.org/2000/svg">
<path d="M16.668 31.6666H36.668M16.668 8.33325H36.668H16.668ZM16.668 19.9999H36.668H16.668Z" stroke="#1A2B6B" stroke-width="3" stroke-linecap="round" stroke-linejoin="round"/>
<path d="M6.66732 23.3332C8.50827 23.3332 10.0007 21.8408 10.0007 19.9998C10.0007 18.1589 8.50827 16.6665 6.66732 16.6665C4.82637 16.6665 3.33398 18.1589 3.33398 19.9998C3.33398 21.8408 4.82637 23.3332 6.66732 23.3332Z" stroke="#1A2B6B" stroke-width="3" stroke-linecap="round" stroke-linejoin="round"/>
<path d="M6.66732 34.9999C8.50827 34.9999 10.0007 33.5075 10.0007 31.6666C10.0007 29.8256 8.50827 28.3333 6.66732 28.3333C4.82637 28.3333 3.33398 29.8256 3.33398 31.6666C3.33398 33.5075 4.82637 34.9999 6.66732 34.9999Z" stroke="#1A2B6B" stroke-width="3" stroke-linecap="round" stroke-linejoin="round"/>
<path d="M3.33398 8.33325L5.83398 10.8333L10.834 5.83325" stroke="#1A2B6B" stroke-width="3" stroke-linecap="round" stroke-linejoin="round"/>
</svg>
