<svg width="66" height="66" viewBox="0 0 66 66" fill="none" xmlns="http://www.w3.org/2000/svg">
<rect width="66" height="66" rx="8" fill="white"/>
<rect x="0.8" y="0.8" width="64.4" height="64.4" rx="7.2" stroke="#375BD2" stroke-opacity="0.19" stroke-width="1.6"/>
<path d="M33 44C29.4 44 25.9 42.2 23.8 39H29V37H21V45H23V41.3C25.5 44.3 29.1 46 33 46V44ZM48 40V38H45.9C45.8 37.4 45.5 36.8 45.2 36.2L46.7 34.7L45.3 33.3L43.8 34.8C43.3 34.5 42.7 34.2 42 34.1V32H40V34.1C39.4 34.2 38.8 34.5 38.2 34.8L36.7 33.3L35.3 34.7L36.8 36.2C36.5 36.7 36.2 37.3 36.1 38H34V40H36.1C36.2 40.6 36.5 41.2 36.8 41.8L35.3 43.3L36.7 44.7L38.2 43.2C38.7 43.5 39.3 43.8 40 43.9V46H42V43.9C42.6 43.8 43.2 43.5 43.8 43.2L45.3 44.7L46.7 43.3L45.2 41.8C45.5 41.3 45.8 40.7 45.9 40H48ZM41 42C39.3 42 38 40.7 38 39C38 37.3 39.3 36 41 36C42.7 36 44 37.3 44 39C44 40.7 42.7 42 41 42ZM37 27H42.2C38.9 21.9 32.1 20.5 27 23.8C23.9 25.8 22 29.3 22 33H20C20 25.8 25.8 20 33 20C36.9 20 40.5 21.7 43 24.7V21H45V29H37V27Z" fill="#0251FF"/>
</svg>
