<svg width="66" height="66" viewBox="0 0 66 66" fill="none" xmlns="http://www.w3.org/2000/svg">
<rect width="66" height="66" rx="8" fill="white"/>
<rect x="0.8" y="0.8" width="64.4" height="64.4" rx="7.2" stroke="#375BD2" stroke-opacity="0.19" stroke-width="1.6"/>
<path d="M45 23.6667L42.3333 33H26.8356M43.6667 38.3333H27.6667L25 21H21M32.3333 26.3333L35 29M35 29L37.6667 26.3333M35 29V21M29 43.6667C29 44.403 28.403 45 27.6667 45C26.9303 45 26.3333 44.403 26.3333 43.6667C26.3333 42.9303 26.9303 42.3333 27.6667 42.3333C28.403 42.3333 29 42.9303 29 43.6667ZM43.6667 43.6667C43.6667 44.403 43.0697 45 42.3333 45C41.597 45 41 44.403 41 43.6667C41 42.9303 41.597 42.3333 42.3333 42.3333C43.0697 42.3333 43.6667 42.9303 43.6667 43.6667Z" stroke="#0251FF" stroke-width="2" stroke-linecap="round" stroke-linejoin="round"/>
</svg>
