<svg width="66" height="66" viewBox="0 0 66 66" fill="none" xmlns="http://www.w3.org/2000/svg">
<rect width="66" height="66" rx="8" fill="white"/>
<rect x="0.8" y="0.8" width="64.4" height="64.4" rx="7.2" stroke="#375BD2" stroke-opacity="0.19" stroke-width="1.6"/>
<path d="M45 36.3334C44.3333 36.168 43.2468 36.1619 42.3333 36.168C42.0279 36.1701 42.2126 36.1571 41.8 36.168C40.7234 36.2016 39.6689 36.649 39.6667 37.9167C39.6643 39.2672 41 39.6667 42.3333 39.6667C43.6667 39.6667 45 39.975 45 41.4167C45 42.5002 43.9233 42.9749 42.5815 43.1321C41.5148 43.1321 41 43.1667 39.6667 43M42.3333 43.6667V45M42.3333 34.3333V35.6667M21 33H35.6667M21 33C21 39.6274 26.3726 45 33 45M21 33C21 26.3726 26.3726 21 33 21M33 45C33.4507 45 33.8956 44.9752 34.3333 44.9268M33 45C23.3408 34.44 28.9753 24.6 33 21M33 21C38.2249 21 42.6698 24.3392 44.3172 29M33 21C34.7865 22.598 36.8903 25.4256 37.8328 29" stroke="#0251FF" stroke-width="2" stroke-linecap="round" stroke-linejoin="round"/>
</svg>
