<svg width="66" height="66" viewBox="0 0 66 66" fill="none" xmlns="http://www.w3.org/2000/svg">
<rect width="66" height="66" rx="8" fill="white"/>
<rect x="0.8" y="0.8" width="64.4" height="64.4" rx="7.2" stroke="#375BD2" stroke-opacity="0.19" stroke-width="1.6"/>
<g clip-path="url(#clip0_1333_13031)">
<path d="M43.8312 22.7839C43.1268 22.8463 42.3943 22.9175 41.6424 22.9175C41.1403 22.9175 40.6469 22.8858 40.1646 22.8461C39.5688 22.797 39.2634 22.0916 39.6336 21.6221L40.4421 20.597L39.5604 19.3951C39.2137 18.9225 39.5232 18.2414 40.1073 18.1925C40.6077 18.1507 41.1203 18.1163 41.6424 18.1163C42.3943 18.1163 43.1268 18.1876 43.8312 18.2499C44.2206 18.2844 44.5231 18.6094 44.5231 19.0004V22.0335C44.5231 22.4244 44.2206 22.7494 43.8312 22.7839Z" fill="#FAFAFA" stroke="#4673DB" stroke-width="1.2" stroke-linejoin="round"/>
<path d="M44.5225 28.6789V19.0765" stroke="#4673DB" stroke-width="1.2" stroke-linecap="round" stroke-linejoin="round"/>
<path d="M19.3162 28.6789L22.9171 25.7982V27.9587L19.0762 29.8792L19.3162 28.6789Z" fill="#FAFAFA" stroke="#4673DB" stroke-width="1.2" stroke-linejoin="round"/>
<path d="M25.704 31.7325L26.0321 35.6068L24.4637 38.0308L23.3229 37.4604L24.1785 35.4642L22.8809 31.3291" stroke="#4673DB" stroke-width="1.2" stroke-linejoin="round"/>
<path d="M29.0324 31.8477L25.7979 29.1591V32.4239L27.6172 33L28.4259 34.9205L29.6388 34.5365L29.0324 31.8477Z" stroke="#4673DB" stroke-width="1.2" stroke-linejoin="round"/>
<path d="M25.7979 26.0962L29.6388 22.9175V24.3082L26.1819 28.6789" stroke="#4673DB" stroke-width="1.2" stroke-linejoin="round"/>
<path d="M26.1619 26.4738C26.2195 26.9673 26.2784 27.4781 26.2784 28.0011C26.2784 28.6016 26.2007 30.3142 26.1366 31.3621C26.1131 31.7463 25.7939 32.0398 25.409 32.0398H24.358H23.3069C22.922 32.0398 22.6029 31.7463 22.5793 31.3621C22.5152 30.3142 22.4375 28.6016 22.4375 28.0011C22.4375 27.4781 22.4965 26.9673 22.5541 26.4738C22.5987 26.0915 22.922 25.7982 23.3069 25.7982H25.409C25.7939 25.7982 26.1173 26.0915 26.1619 26.4738Z" fill="#FAFAFA" stroke="#4673DB" stroke-width="1.2" stroke-linejoin="round"/>
<path d="M24.3583 24.3579C25.1538 24.3579 25.7987 23.713 25.7987 22.9175C25.7987 22.122 25.1538 21.4772 24.3583 21.4772C23.5628 21.4772 22.918 22.122 22.918 22.9175C22.918 23.713 23.5628 24.3579 24.3583 24.3579Z" fill="#FAFAFA" stroke="#4673DB" stroke-width="1.2" stroke-linejoin="round"/>
<path d="M46.395 44.0428H40.7296C39.9076 44.0428 39.2412 44.7092 39.2412 45.5312V46.3954C39.2412 47.2174 39.9076 47.8838 40.7296 47.8838H46.395C47.217 47.8838 47.8834 47.2174 47.8834 46.3954V45.5312C47.8834 44.7092 47.217 44.0428 46.395 44.0428Z" fill="#FAFAFA" stroke="#4673DB" stroke-width="1.6" stroke-linejoin="round"/>
<path d="M46.395 40.2018H40.7296C39.9076 40.2018 39.2412 40.8681 39.2412 41.6902V42.5544C39.2412 43.3764 39.9076 44.0427 40.7296 44.0427H46.395C47.217 44.0427 47.8834 43.3764 47.8834 42.5544V41.6902C47.8834 40.8681 47.217 40.2018 46.395 40.2018Z" fill="#FAFAFA" stroke="#4673DB" stroke-width="1.6" stroke-linejoin="round"/>
<path d="M46.395 36.3609H40.7296C39.9076 36.3609 39.2412 37.0273 39.2412 37.8493V38.7135C39.2412 39.5355 39.9076 40.2019 40.7296 40.2019H46.395C47.217 40.2019 47.8834 39.5355 47.8834 38.7135V37.8493C47.8834 37.0273 47.217 36.3609 46.395 36.3609Z" fill="#FAFAFA" stroke="#4673DB" stroke-width="1.6" stroke-linejoin="round"/>
<path d="M46.395 32.5199H40.7296C39.9076 32.5199 39.2412 33.1863 39.2412 34.0083V34.8725C39.2412 35.6945 39.9076 36.3609 40.7296 36.3609H46.395C47.217 36.3609 47.8834 35.6945 47.8834 34.8725V34.0083C47.8834 33.1863 47.217 32.5199 46.395 32.5199Z" fill="#FAFAFA" stroke="#4673DB" stroke-width="1.6" stroke-linejoin="round"/>
<path d="M46.395 28.679H40.7296C39.9076 28.679 39.2412 29.3453 39.2412 30.1673V31.0315C39.2412 31.8535 39.9076 32.5199 40.7296 32.5199H46.395C47.217 32.5199 47.8834 31.8535 47.8834 31.0315V30.1673C47.8834 29.3453 47.217 28.679 46.395 28.679Z" fill="#FAFAFA" stroke="#4673DB" stroke-width="1.6" stroke-linejoin="round"/>
<path d="M35.8325 44.0427H30.1671C29.3451 44.0427 28.6787 44.7091 28.6787 45.5311V46.3953C28.6787 47.2173 29.3451 47.8837 30.1671 47.8837H35.8325C36.6545 47.8837 37.3209 47.2173 37.3209 46.3953V45.5311C37.3209 44.7091 36.6545 44.0427 35.8325 44.0427Z" fill="#FAFAFA" stroke="#4673DB" stroke-width="1.6" stroke-linejoin="round"/>
<path d="M35.8325 40.2018H30.1671C29.3451 40.2018 28.6787 40.8681 28.6787 41.6902V42.5544C28.6787 43.3764 29.3451 44.0427 30.1671 44.0427H35.8325C36.6545 44.0427 37.3209 43.3764 37.3209 42.5544V41.6902C37.3209 40.8681 36.6545 40.2018 35.8325 40.2018Z" fill="#FAFAFA" stroke="#4673DB" stroke-width="1.6" stroke-linejoin="round"/>
<path d="M35.8325 36.3608H30.1671C29.3451 36.3608 28.6787 37.0272 28.6787 37.8492V38.7134C28.6787 39.5354 29.3451 40.2018 30.1671 40.2018H35.8325C36.6545 40.2018 37.3209 39.5354 37.3209 38.7134V37.8492C37.3209 37.0272 36.6545 36.3608 35.8325 36.3608Z" fill="#FAFAFA" stroke="#4673DB" stroke-width="1.6" stroke-linejoin="round"/>
<path d="M25.27 44.0427H19.6046C18.7826 44.0427 18.1162 44.7091 18.1162 45.5311V46.3953C18.1162 47.2173 18.7826 47.8837 19.6046 47.8837H25.27C26.092 47.8837 26.7584 47.2173 26.7584 46.3953V45.5311C26.7584 44.7091 26.092 44.0427 25.27 44.0427Z" fill="#FAFAFA" stroke="#4673DB" stroke-width="1.6" stroke-linejoin="round"/>
<path d="M25.27 40.2018H19.6046C18.7826 40.2018 18.1162 40.8681 18.1162 41.6902V42.5544C18.1162 43.3764 18.7826 44.0427 19.6046 44.0427H25.27C26.092 44.0427 26.7584 43.3764 26.7584 42.5544V41.6902C26.7584 40.8681 26.092 40.2018 25.27 40.2018Z" fill="#FAFAFA" stroke="#4673DB" stroke-width="1.6" stroke-linejoin="round"/>
</g>
<defs>
<clipPath id="clip0_1333_13031">
<rect width="32" height="32" fill="white" transform="translate(17 17)"/>
</clipPath>
</defs>
</svg>
