<svg width="66" height="66" viewBox="0 0 66 66" fill="none" xmlns="http://www.w3.org/2000/svg">
<rect width="66" height="66" rx="8" fill="white"/>
<rect x="0.8" y="0.8" width="64.4" height="64.4" rx="7.2" stroke="#375BD2" stroke-opacity="0.19" stroke-width="1.6"/>
<path d="M33.0007 45L30.334 43.6667M33.0007 45L35.6673 43.6667M33.0007 45V41.6667M25.0007 41L22.334 39.6667V36.3333M22.334 29.6667V26.3333M22.334 26.3333L25.0007 25M22.334 26.3333L25.0007 27.6667M30.334 22.3333L33.0007 21L35.6673 22.3333M41.0007 25L43.6673 26.3333M43.6673 26.3333L41.0007 27.6667M43.6673 26.3333V29.6667M33.0007 31.6667L30.334 30.3333M33.0007 31.6667L35.6673 30.3333M33.0007 31.6667V35M41.0007 41L43.6673 39.6667V36.3333" stroke="#0251FF" stroke-width="2" stroke-linecap="round" stroke-linejoin="round"/>
</svg>
