<svg width="66" height="66" viewBox="0 0 66 66" fill="none" xmlns="http://www.w3.org/2000/svg">
<rect width="66" height="66" rx="8" fill="white"/>
<rect x="0.8" y="0.8" width="64.4" height="64.4" rx="7.2" stroke="#375BD2" stroke-opacity="0.19" stroke-width="1.6"/>
<path d="M29 41L26.3333 45M37 41L39.6667 45M26.3333 35.6667H39.6667M27.6667 35.6667V31.6667M33 35.6667V25M38.3333 35.6667V29M25.2667 41H40.7333C42.2268 41 42.9735 41 43.544 40.7094C44.0457 40.4537 44.4537 40.0457 44.7094 39.544C45 38.9735 45 38.2268 45 36.7333V25.2667C45 23.7732 45 23.0265 44.7094 22.456C44.4537 21.9543 44.0457 21.5463 43.544 21.2906C42.9735 21 42.2268 21 40.7333 21H25.2667C23.7732 21 23.0265 21 22.456 21.2906C21.9543 21.5463 21.5463 21.9543 21.2906 22.456C21 23.0265 21 23.7732 21 25.2667V36.7333C21 38.2268 21 38.9735 21.2906 39.544C21.5463 40.0457 21.9543 40.4537 22.456 40.7094C23.0265 41 23.7732 41 25.2667 41Z" stroke="#0251FF" stroke-width="2" stroke-linecap="round" stroke-linejoin="round"/>
</svg>
