<svg width="66" height="66" viewBox="0 0 66 66" fill="none" xmlns="http://www.w3.org/2000/svg">
<rect width="66" height="66" rx="8" fill="white"/>
<rect x="0.8" y="0.8" width="64.4" height="64.4" rx="7.2" stroke="#375BD2" stroke-opacity="0.19" stroke-width="1.6"/>
<path d="M29.0007 33L31.6673 35.6667L37.0007 30.3334M43.6673 33C43.6673 38.9482 36.3874 43.2583 33.8559 44.5773C33.5821 44.72 33.4452 44.7913 33.2553 44.8283C33.1073 44.857 32.894 44.857 32.746 44.8283C32.5561 44.7913 32.4192 44.72 32.1454 44.5773C29.6139 43.2583 22.334 38.9482 22.334 33V27.9568C22.334 26.8908 22.334 26.3578 22.5083 25.8996C22.6624 25.4949 22.9126 25.1337 23.2375 24.8474C23.6053 24.5233 24.1044 24.3361 25.1025 23.9618L32.2516 21.2809C32.5288 21.177 32.6674 21.125 32.81 21.1044C32.9364 21.0861 33.0649 21.0861 33.1913 21.1044C33.3339 21.125 33.4725 21.177 33.7497 21.2809L40.8988 23.9618C41.8969 24.3361 42.396 24.5233 42.7638 24.8474C43.0887 25.1337 43.339 25.4949 43.493 25.8996C43.6673 26.3578 43.6673 26.8908 43.6673 27.9568V33Z" stroke="#0251FF" stroke-width="2" stroke-linecap="round" stroke-linejoin="round"/>
</svg>
