<svg width="66" height="66" viewBox="0 0 66 66" fill="none" xmlns="http://www.w3.org/2000/svg">
<rect width="66" height="66" rx="8" fill="white"/>
<rect x="0.8" y="0.8" width="64.4" height="64.4" rx="7.2" stroke="#375BD2" stroke-opacity="0.19" stroke-width="1.6"/>
<path d="M40.9993 27.6667V37.4C40.9993 38.8935 40.9993 39.6402 40.7087 40.2106C40.453 40.7124 40.0451 41.1204 39.5433 41.376C38.9729 41.6667 38.2262 41.6667 36.7327 41.6667H32.9993M40.9993 27.6667C42.8403 27.6667 44.3327 26.1743 44.3327 24.3333C44.3327 22.4924 42.8403 21 40.9993 21C39.1584 21 37.666 22.4924 37.666 24.3333C37.666 26.1743 39.1584 27.6667 40.9993 27.6667ZM32.9993 41.6667L35.666 38.3333M32.9993 41.6667L35.666 45M24.9993 38.3333V28.6C24.9993 27.1065 24.9993 26.3598 25.29 25.7894C25.5457 25.2876 25.9536 24.8796 26.4554 24.624C27.0258 24.3333 27.7725 24.3333 29.266 24.3333H32.9993M24.9993 38.3333C23.1584 38.3333 21.666 39.8257 21.666 41.6667C21.666 43.5076 23.1584 45 24.9993 45C26.8403 45 28.3327 43.5076 28.3327 41.6667C28.3327 39.8257 26.8403 38.3333 24.9993 38.3333ZM32.9993 24.3333L30.3327 27.6667M32.9993 24.3333L30.3327 21" stroke="#0251FF" stroke-width="2" stroke-linecap="round" stroke-linejoin="round"/>
</svg>
