<svg width="62" height="40" viewBox="0 0 62 40" fill="none" xmlns="http://www.w3.org/2000/svg">
<circle cx="4" cy="36" r="4" transform="rotate(-90 4 36)" fill="#0052FF" fill-opacity="0.2"/>
<circle cx="4" cy="20" r="4" transform="rotate(-90 4 20)" fill="#0052FF" fill-opacity="0.2"/>
<circle cx="4" cy="4" r="4" transform="rotate(-90 4 4)" fill="#0052FF" fill-opacity="0.2"/>
<circle cx="22" cy="36" r="4" transform="rotate(-90 22 36)" fill="#0052FF" fill-opacity="0.2"/>
<circle cx="22" cy="20" r="4" transform="rotate(-90 22 20)" fill="#0052FF" fill-opacity="0.2"/>
<circle cx="22" cy="4" r="4" transform="rotate(-90 22 4)" fill="#0052FF" fill-opacity="0.2"/>
<circle cx="40" cy="36" r="4" transform="rotate(-90 40 36)" fill="#0052FF" fill-opacity="0.2"/>
<circle cx="40" cy="20" r="4" transform="rotate(-90 40 20)" fill="#0052FF" fill-opacity="0.2"/>
<circle cx="40" cy="4" r="4" transform="rotate(-90 40 4)" fill="#0052FF" fill-opacity="0.2"/>
<circle cx="58" cy="36" r="4" transform="rotate(-90 58 36)" fill="#0052FF" fill-opacity="0.2"/>
<circle cx="58" cy="20" r="4" transform="rotate(-90 58 20)" fill="#0052FF" fill-opacity="0.2"/>
<circle cx="58" cy="4" r="4" transform="rotate(-90 58 4)" fill="#0052FF" fill-opacity="0.2"/>
</svg>
