<svg width="69" height="108" viewBox="0 0 69 108" fill="none" xmlns="http://www.w3.org/2000/svg">
<ellipse cx="15.1371" cy="20.118" rx="2.5" ry="2.62469" transform="rotate(26.4507 15.1371 20.118)" fill="#0B50FF"/>
<ellipse cx="48.6129" cy="36.7726" rx="2.5" ry="2.62469" transform="rotate(26.4507 48.6129 36.7726)" fill="#0B50FF"/>
<ellipse cx="29.1102" cy="75.9736" rx="2.5" ry="2.62469" transform="rotate(26.4507 29.1102 75.9736)" fill="#0B50FF"/>
<ellipse cx="5.38559" cy="39.7184" rx="2.5" ry="2.62469" transform="rotate(26.4507 5.38559 39.7184)" fill="#0B50FF"/>
<ellipse cx="38.8617" cy="56.3729" rx="2.5" ry="2.62469" transform="rotate(26.4507 38.8617 56.3729)" fill="#0B50FF"/>
<ellipse cx="19.359" cy="95.5737" rx="2.5" ry="2.62469" transform="rotate(26.4507 19.359 95.5737)" fill="#0B50FF"/>
<ellipse cx="-1.60098" cy="11.7908" rx="2.5" ry="2.62469" transform="rotate(26.4507 -1.60098 11.7908)" fill="#0B50FF"/>
<ellipse cx="31.8748" cy="28.4453" rx="2.5" ry="2.62469" transform="rotate(26.4507 31.8748 28.4453)" fill="#0B50FF"/>
<ellipse cx="12.3722" cy="67.6462" rx="2.5" ry="2.62469" transform="rotate(26.4507 12.3722 67.6462)" fill="#0B50FF"/>
<ellipse cx="65.3509" cy="45.0999" rx="2.5" ry="2.62469" transform="rotate(26.4507 65.3509 45.0999)" fill="#0B50FF"/>
<ellipse cx="45.848" cy="84.3009" rx="2.5" ry="2.62469" transform="rotate(26.4507 45.848 84.3009)" fill="#0B50FF"/>
<ellipse cx="22.1236" cy="48.0457" rx="2.5" ry="2.62469" transform="rotate(26.4507 22.1236 48.0457)" fill="#0B50FF"/>
<ellipse cx="2.62094" cy="87.2465" rx="2.5" ry="2.62469" transform="rotate(26.4507 2.62094 87.2465)" fill="#0B50FF"/>
<ellipse cx="55.5995" cy="64.7002" rx="2.5" ry="2.62469" transform="rotate(26.4507 55.5995 64.7002)" fill="#0B50FF"/>
<ellipse cx="36.0968" cy="103.901" rx="2.5" ry="2.62469" transform="rotate(26.4507 36.0968 103.901)" fill="#0B50FF"/>
</svg>
