<svg width="36" height="51" viewBox="0 0 36 51" fill="none" xmlns="http://www.w3.org/2000/svg">
<circle cx="2.55" cy="2.55" r="2.55" fill="#0052FF" fill-opacity="0.1"/>
<circle cx="2.55" cy="14.0251" r="2.55" fill="#0052FF" fill-opacity="0.1"/>
<circle cx="2.55" cy="25.5" r="2.55" fill="#0052FF" fill-opacity="0.1"/>
<circle cx="2.55" cy="36.975" r="2.55" fill="#0052FF" fill-opacity="0.1"/>
<circle cx="2.55" cy="48.4499" r="2.55" fill="#0052FF" fill-opacity="0.1"/>
<circle cx="12.7492" cy="2.55" r="2.55" fill="#0052FF" fill-opacity="0.1"/>
<circle cx="12.7492" cy="14.0251" r="2.55" fill="#0052FF" fill-opacity="0.1"/>
<circle cx="12.7492" cy="25.5" r="2.55" fill="#0052FF" fill-opacity="0.1"/>
<circle cx="12.7492" cy="36.975" r="2.55" fill="#0052FF" fill-opacity="0.1"/>
<circle cx="12.7492" cy="48.4499" r="2.55" fill="#0052FF" fill-opacity="0.1"/>
<circle cx="22.9504" cy="2.55" r="2.55" fill="#0052FF" fill-opacity="0.1"/>
<circle cx="22.9504" cy="14.0251" r="2.55" fill="#0052FF" fill-opacity="0.1"/>
<circle cx="22.9504" cy="25.5" r="2.55" fill="#0052FF" fill-opacity="0.1"/>
<circle cx="22.9504" cy="36.975" r="2.55" fill="#0052FF" fill-opacity="0.1"/>
<circle cx="22.9504" cy="48.4499" r="2.55" fill="#0052FF" fill-opacity="0.1"/>
<circle cx="33.1496" cy="2.55" r="2.55" fill="#0052FF" fill-opacity="0.1"/>
<circle cx="33.1496" cy="14.0251" r="2.55" fill="#0052FF" fill-opacity="0.1"/>
<circle cx="33.1496" cy="25.5" r="2.55" fill="#0052FF" fill-opacity="0.1"/>
<circle cx="33.1496" cy="36.975" r="2.55" fill="#0052FF" fill-opacity="0.1"/>
<circle cx="33.1496" cy="48.4499" r="2.55" fill="#0052FF" fill-opacity="0.1"/>
</svg>
