<svg width="73" height="53" viewBox="0 0 73 53" fill="none" xmlns="http://www.w3.org/2000/svg">
<ellipse cx="1.85001" cy="1.94228" rx="1.85001" ry="1.94228" fill="#0B50FF" fill-opacity="0.6"/>
<ellipse cx="1.85001" cy="34.3429" rx="1.85001" ry="1.94228" fill="#0B50FF" fill-opacity="0.6"/>
<ellipse cx="29.519" cy="1.94228" rx="1.85001" ry="1.94228" fill="#0B50FF" fill-opacity="0.6"/>
<ellipse cx="29.519" cy="34.3429" rx="1.85001" ry="1.94228" fill="#0B50FF" fill-opacity="0.6"/>
<ellipse cx="57.1879" cy="1.94228" rx="1.85001" ry="1.94228" fill="#0B50FF" fill-opacity="0.6"/>
<ellipse cx="57.1879" cy="34.3429" rx="1.85001" ry="1.94228" fill="#0B50FF" fill-opacity="0.6"/>
<ellipse cx="1.85001" cy="18.1425" rx="1.85001" ry="1.94228" fill="#0B50FF" fill-opacity="0.6"/>
<ellipse cx="1.85001" cy="50.5429" rx="1.85001" ry="1.94228" fill="#0B50FF" fill-opacity="0.6"/>
<ellipse cx="29.519" cy="18.1425" rx="1.85001" ry="1.94228" fill="#0B50FF" fill-opacity="0.6"/>
<ellipse cx="29.519" cy="50.5429" rx="1.85001" ry="1.94228" fill="#0B50FF" fill-opacity="0.6"/>
<ellipse cx="57.1879" cy="18.1425" rx="1.85001" ry="1.94228" fill="#0B50FF" fill-opacity="0.6"/>
<ellipse cx="57.1879" cy="50.5429" rx="1.85001" ry="1.94228" fill="#0B50FF" fill-opacity="0.6"/>
<ellipse cx="15.684" cy="1.94228" rx="1.85001" ry="1.94228" fill="#0B50FF" fill-opacity="0.6"/>
<ellipse cx="15.684" cy="34.3429" rx="1.85001" ry="1.94228" fill="#0B50FF" fill-opacity="0.6"/>
<ellipse cx="43.3529" cy="1.94228" rx="1.85001" ry="1.94228" fill="#0B50FF" fill-opacity="0.6"/>
<ellipse cx="43.3529" cy="34.3429" rx="1.85001" ry="1.94228" fill="#0B50FF" fill-opacity="0.6"/>
<ellipse cx="71.0219" cy="1.94228" rx="1.85001" ry="1.94228" fill="#0B50FF" fill-opacity="0.6"/>
<ellipse cx="71.0219" cy="34.3429" rx="1.85001" ry="1.94228" fill="#0B50FF" fill-opacity="0.6"/>
<ellipse cx="15.684" cy="18.1425" rx="1.85001" ry="1.94228" fill="#0B50FF" fill-opacity="0.6"/>
<ellipse cx="15.685" cy="50.5429" rx="1.85001" ry="1.94228" fill="#0B50FF" fill-opacity="0.6"/>
<ellipse cx="43.3529" cy="18.1425" rx="1.85001" ry="1.94228" fill="#0B50FF" fill-opacity="0.6"/>
<ellipse cx="43.3529" cy="50.5429" rx="1.85001" ry="1.94228" fill="#0B50FF" fill-opacity="0.6"/>
<ellipse cx="71.0219" cy="18.1425" rx="1.85001" ry="1.94228" fill="#0B50FF" fill-opacity="0.6"/>
<ellipse cx="71.0219" cy="50.5429" rx="1.85001" ry="1.94228" fill="#0B50FF" fill-opacity="0.6"/>
</svg>
