<svg width="69" height="120" viewBox="0 0 69 120" fill="none" xmlns="http://www.w3.org/2000/svg">
<ellipse cx="3.62388" cy="69.8566" rx="2.5" ry="2.62469" transform="rotate(-45.1184 3.62388 69.8566)" fill="#E3297E"/>
<ellipse cx="34.6478" cy="100.753" rx="2.5" ry="2.62469" transform="rotate(-45.1184 34.6478 100.753)" fill="#E3297E"/>
<ellipse cx="30.0082" cy="43.3633" rx="2.5" ry="2.62469" transform="rotate(-45.1184 30.0082 43.3633)" fill="#E3297E"/>
<ellipse cx="61.0321" cy="74.2595" rx="2.5" ry="2.62469" transform="rotate(-45.1184 61.0321 74.2595)" fill="#E3297E"/>
<ellipse cx="56.3919" cy="16.87" rx="2.5" ry="2.62469" transform="rotate(-45.1184 56.3919 16.87)" fill="#E3297E"/>
<ellipse cx="19.1361" cy="85.3046" rx="2.5" ry="2.62469" transform="rotate(-45.1184 19.1361 85.3046)" fill="#E3297E"/>
<ellipse cx="50.16" cy="116.201" rx="2.5" ry="2.62469" transform="rotate(-45.1184 50.16 116.201)" fill="#E3297E"/>
<ellipse cx="45.5199" cy="58.8113" rx="2.5" ry="2.62469" transform="rotate(-45.1184 45.5199 58.8113)" fill="#E3297E"/>
<ellipse cx="71.9042" cy="32.318" rx="2.5" ry="2.62469" transform="rotate(-45.1184 71.9042 32.318)" fill="#E3297E"/>
<ellipse cx="16.8158" cy="56.6099" rx="2.5" ry="2.62469" transform="rotate(-45.1184 16.8158 56.6099)" fill="#E3297E"/>
<ellipse cx="47.8402" cy="87.5061" rx="2.5" ry="2.62469" transform="rotate(-45.1184 47.8402 87.5061)" fill="#E3297E"/>
<ellipse cx="43.2001" cy="30.1166" rx="2.5" ry="2.62469" transform="rotate(-45.1184 43.2001 30.1166)" fill="#E3297E"/>
<ellipse cx="69.5838" cy="3.62328" rx="2.5" ry="2.62469" transform="rotate(-45.1184 69.5838 3.62328)" fill="#E3297E"/>
<ellipse cx="32.328" cy="72.058" rx="2.5" ry="2.62469" transform="rotate(-45.1184 32.328 72.058)" fill="#E3297E"/>
<ellipse cx="63.3519" cy="102.954" rx="2.5" ry="2.62469" transform="rotate(-45.1184 63.3519 102.954)" fill="#E3297E"/>
<ellipse cx="58.7118" cy="45.5646" rx="2.5" ry="2.62469" transform="rotate(-45.1184 58.7118 45.5646)" fill="#E3297E"/>
</svg>
