<svg width="62" height="19" viewBox="0 0 62 19" fill="none" xmlns="http://www.w3.org/2000/svg">
<path d="M1.62046 13.2603C1.48189 12.5048 1.5586 11.7605 1.37302 11.017C1.15032 11.3076 0.927634 11.5982 0.704936 11.8887C5.59439 11.4126 10.4294 10.5624 15.3387 10.1952C20.0871 9.83945 24.8528 9.70647 29.6161 9.79617C39.3826 9.97958 49.1566 11.0836 58.7598 12.904C59.5862 13.0602 59.95 11.8278 59.1112 11.6319C49.503 9.37098 39.7092 8.21741 29.8536 8.05323C24.9295 7.9724 20.0054 8.12907 15.1011 8.52347C10.271 8.91339 5.22076 9.32918 0.519355 10.5266C0.187784 10.6111 -0.104187 11.0299 0.0368551 11.3747C0.336261 12.119 0.845974 12.7087 1.19487 13.4334C1.31611 13.6891 1.665 13.5031 1.62046 13.2603Z" fill="#C0D4FF"/>
<path d="M60.9624 10.7455C58.7477 6.72278 55.7314 2.91524 51.8268 0.420863C51.2255 0.0359679 50.4931 0.941863 51.0548 1.41806C54.5016 4.3475 57.6664 7.39152 60.0641 11.267C60.413 11.8408 61.2865 11.339 60.9624 10.7455Z" fill="#C0D4FF"/>
<path d="M60.6799 11.1667C57.525 12.7006 55.0159 15.1096 53.4026 18.2271C53.1502 18.7154 53.8925 19.1557 54.1449 18.6648C55.6667 15.6829 58.005 13.2258 60.9397 11.6088C61.2267 11.4498 60.9719 11.025 60.6799 11.1667Z" fill="#C0D4FF"/>
</svg>
