<svg width="27" height="24" viewBox="0 0 27 24" fill="none" xmlns="http://www.w3.org/2000/svg">
<path d="M4.51235 14.682C5.04541 11.4906 5.31195 9.89492 6.43079 8.94746C7.54963 8 9.16743 8 12.403 8H14.0539C17.2895 8 18.9073 8 20.0261 8.94746C21.145 9.89492 21.4115 11.4906 21.9446 14.682L22.6108 18.6705C22.7914 19.7518 22.8817 20.2925 22.5821 20.6462C22.2826 21 21.7344 21 20.6381 21H5.81881C4.72251 21 4.17436 21 3.87478 20.6462C3.57521 20.2925 3.66552 19.7518 3.84613 18.6705L4.51235 14.682Z" fill="#6F6F92"/>
<path d="M9.42871 11L9.42871 7.8C9.42871 5.70132 11.13 4 13.2287 4V4C15.3274 4 17.0287 5.70132 17.0287 7.8L17.0287 11" stroke="#C2C2C2" stroke-width="1.4" stroke-linecap="round"/>
</svg>
