<svg width="54" height="40" viewBox="0 0 54 40" fill="none" xmlns="http://www.w3.org/2000/svg">
<path d="M41.7266 24.0481C42.3269 24.0481 42.903 23.9573 43.4764 23.8744C43.2907 24.4943 43.0995 25.1249 42.7926 25.6914C42.4858 26.5144 42.0066 27.2278 41.5301 27.9466C41.1317 28.7241 40.4291 29.2505 39.9122 29.9158C39.3711 30.5625 38.6335 30.9927 38.0494 31.5297C37.476 32.0909 36.7249 32.3714 36.1273 32.7669C35.5027 33.1222 34.959 33.515 34.3775 33.7021L32.9265 34.2953L31.6505 34.8216L32.9561 40L34.5632 39.6152C35.0774 39.487 35.7046 39.3373 36.418 39.1583C37.1475 39.0247 37.9255 38.6587 38.7924 38.3247C39.6484 37.9452 40.6391 37.6887 41.5597 37.0795C42.4858 36.497 43.5545 36.0107 44.4967 35.2305C45.4093 34.4262 46.5103 33.7288 47.3233 32.7054C48.2116 31.7488 49.0892 30.7442 49.7703 29.6005C50.559 28.5104 51.0947 27.3133 51.6601 26.1296C52.1715 24.9459 52.5834 23.7355 52.9199 22.5598C53.5579 20.2031 53.8433 17.9639 53.9536 16.0481C54.0451 14.1296 53.9913 12.5344 53.8782 11.3801C53.8379 10.835 53.7625 10.3059 53.7087 9.93988L53.6414 9.49098L53.5714 9.50701C53.0926 7.28703 51.9903 5.24695 50.3922 3.62277C48.7941 1.99859 46.7654 0.856671 44.5407 0.329125C42.3161 -0.198417 39.9864 -0.0900371 37.8212 0.641729C35.656 1.37349 33.7438 2.69875 32.3057 4.46418C30.8676 6.22961 29.9625 8.36308 29.695 10.6178C29.4275 12.8725 29.8086 15.1563 30.7941 17.205C31.7796 19.2537 33.3294 20.9837 35.2641 22.1947C37.1988 23.4057 39.4394 24.0482 41.7266 24.0481ZM12.1148 24.0481C12.7151 24.0481 13.2912 23.9573 13.8646 23.8744C13.6788 24.4943 13.4877 25.1249 13.1808 25.6914C12.8739 26.5144 12.3947 27.2278 11.9182 27.9466C11.5198 28.7241 10.8172 29.2505 10.3004 29.9158C9.75927 30.5625 9.02167 30.9927 8.43751 31.5297C7.86412 32.0909 7.11305 32.3714 6.51543 32.7669C5.89089 33.1222 5.34711 33.515 4.76564 33.7021L3.31466 34.2953L2.03865 34.8216L3.34427 40L4.95139 39.6152C5.46556 39.487 6.09279 39.3373 6.80616 39.1583C7.53569 39.0247 8.31367 38.6587 9.1805 38.3247C10.0339 37.9426 11.0272 37.6887 11.9479 37.0768C12.8739 36.4943 13.9426 36.008 14.8848 35.2278C15.7974 34.4235 16.8984 33.7261 17.7114 32.7054C18.5998 31.7488 19.4773 30.7442 20.1584 29.6005C20.9472 28.5104 21.4829 27.3133 22.0482 26.1296C22.5597 24.9459 22.9715 23.7355 23.308 22.5598C23.946 20.2031 24.2314 17.9639 24.3418 16.0481C24.4333 14.1296 24.3795 12.5344 24.2664 11.3801C24.226 10.835 24.1506 10.3059 24.0968 9.93988L24.0295 9.49099L23.9595 9.50702C23.4807 7.28703 22.3785 5.24695 20.7804 3.62277C19.1822 1.99859 17.1535 0.856674 14.9289 0.329128C12.7042 -0.198414 10.3745 -0.0900345 8.20935 0.641731C6.04416 1.3735 4.13193 2.69875 2.69386 4.46418C1.2558 6.22961 0.350652 8.36308 0.0831464 10.6178C-0.184359 12.8725 0.196699 15.1563 1.18225 17.205C2.16779 19.2537 3.71754 20.9837 5.65224 22.1947C7.58693 23.4057 9.8275 24.0483 12.1148 24.0481Z" fill="#0052FF" fill-opacity="0.08"/>
</svg>
