<svg width="22" height="22" viewBox="0 0 22 22" fill="none" xmlns="http://www.w3.org/2000/svg">
<path d="M8.64551 18.8574H7.07408C7.07283 17.8159 6.65853 16.8174 5.92205 16.0809C5.18557 15.3444 4.18705 14.9301 3.14551 14.9289V13.3574C4.60369 13.3591 6.00167 13.9391 7.03276 14.9702C8.06385 16.0013 8.64384 17.3992 8.64551 18.8574Z" fill="#9696A9"/>
<path d="M12.5741 18.8569H11.0027C11.0004 16.7737 10.1718 14.7766 8.69882 13.3036C7.22582 11.8305 5.22865 11.002 3.14551 10.9997V9.42829C5.64523 9.4312 8.04173 10.4255 9.8093 12.1931C11.5769 13.9606 12.5712 16.3571 12.5741 18.8569ZM18.8598 8.64258C17.4016 8.64091 16.0036 8.06092 14.9725 7.02983C13.9415 5.99874 13.3615 4.60076 13.3598 3.14258H14.9312C14.9325 4.18412 15.3468 5.18264 16.0833 5.91912C16.8197 6.6556 17.8183 7.0699 18.8598 7.07115V8.64258Z" fill="#9696A9"/>
<path d="M18.8571 12.5714C16.3574 12.5685 13.9609 11.5742 12.1934 9.80665C10.4258 8.03908 9.43148 5.64258 9.42857 3.14286H11C11.0023 5.226 11.8308 7.22317 13.3038 8.69617C14.7768 10.1692 16.774 10.9977 18.8571 11V12.5714ZM4.48407 17.5159C4.33673 17.3686 4.13691 17.2859 3.92857 17.2859C3.72023 17.2859 3.52041 17.3686 3.37307 17.5159L0 20.889L1.111 22L4.48407 18.6269C4.63137 18.4796 4.71412 18.2798 4.71412 18.0714C4.71412 17.8631 4.63137 17.6633 4.48407 17.5159ZM20.889 0L17.5159 3.37307C17.3728 3.52126 17.2936 3.71973 17.2954 3.92574C17.2972 4.13176 17.3798 4.32882 17.5255 4.4745C17.6712 4.62018 17.8682 4.70281 18.0743 4.7046C18.2803 4.70639 18.4787 4.6272 18.6269 4.48407L22 1.111L20.889 0Z" fill="#9696A9"/>
</svg>
