<svg width="24" height="24" viewBox="0 0 24 24" fill="none" xmlns="http://www.w3.org/2000/svg">
<path fill-rule="evenodd" clip-rule="evenodd" d="M12 21C16.9706 21 21 16.9706 21 12C21 10.0928 20.4067 8.32408 19.3947 6.86844L12.2064 14.8555C11.583 15.5481 10.534 15.6505 9.78844 15.0913L6.52 12.64C6.16654 12.3749 6.0949 11.8735 6.36 11.52C6.62509 11.1665 7.12654 11.0949 7.48 11.36L10.7484 13.8113C10.8313 13.8735 10.9478 13.8621 11.0171 13.7851L18.3573 5.62937C16.7291 4.00461 14.4819 3 12 3C7.02944 3 3 7.02944 3 12C3 16.9706 7.02944 21 12 21Z" fill="#0052FF"/>
</svg>
