<svg width="40" height="40" viewBox="0 0 40 40" fill="none" xmlns="http://www.w3.org/2000/svg">
<path d="M27.3042 13.7891H25.4722C25.0737 13.7891 24.6948 13.9805 24.4605 14.3086L18.3198 22.8242L15.5386 18.9648C15.3042 18.6406 14.9292 18.4453 14.5269 18.4453H12.6948C12.4409 18.4453 12.2925 18.7344 12.4409 18.9414L17.3081 25.6914C17.4231 25.8519 17.5747 25.9827 17.7503 26.0729C17.9259 26.1631 18.1205 26.2101 18.3179 26.2101C18.5153 26.2101 18.7099 26.1631 18.8855 26.0729C19.0611 25.9827 19.2127 25.8519 19.3276 25.6914L27.5542 14.2852C27.7066 14.0781 27.5581 13.7891 27.3042 13.7891Z" fill="#1A2B6B"/>
<path d="M20 2.5C10.3359 2.5 2.5 10.3359 2.5 20C2.5 29.6641 10.3359 37.5 20 37.5C29.6641 37.5 37.5 29.6641 37.5 20C37.5 10.3359 29.6641 2.5 20 2.5ZM20 34.5312C11.9766 34.5312 5.46875 28.0234 5.46875 20C5.46875 11.9766 11.9766 5.46875 20 5.46875C28.0234 5.46875 34.5312 11.9766 34.5312 20C34.5312 28.0234 28.0234 34.5312 20 34.5312Z" fill="#1A2B6B"/>
</svg>
