<svg width="24" height="24" viewBox="0 0 24 24" fill="none" xmlns="http://www.w3.org/2000/svg">
<path d="M16.8121 17.3337H22.0521C21.6121 11.527 19.1121 7.92033 15.9054 5.78699L17.3654 2.60033C17.4096 2.49921 17.4279 2.38872 17.4188 2.27876C17.4098 2.16881 17.3735 2.06282 17.3134 1.97032C17.2533 1.87781 17.1711 1.80168 17.0743 1.74874C16.9775 1.6958 16.8691 1.66771 16.7588 1.66699H7.61878C7.50845 1.66771 7.40003 1.6958 7.30323 1.74874C7.20643 1.80168 7.12429 1.87781 7.06416 1.97032C7.00403 2.06282 6.9678 2.16881 6.95872 2.27876C6.94963 2.38872 6.96798 2.49921 7.01212 2.60033L7.81212 4.33366H14.5588L13.9588 5.66699H12.7254C13.1021 6.67982 13.379 7.72701 13.5521 8.79366C13.6643 9.45531 13.7355 10.1232 13.7654 10.7937L12.7121 11.5337C12.715 10.6713 12.6436 9.81039 12.4988 8.96033C12.3146 7.82898 11.9968 6.72347 11.5521 5.66699H10.8854C10.2702 6.44437 9.71737 7.26916 9.23212 8.13366C8.84085 8.87523 8.50871 9.64651 8.23878 10.4403L7.32545 9.83366C7.59204 9.06642 7.91976 8.32181 8.30545 7.60699C8.69516 6.93668 9.12251 6.28898 9.58545 5.66699H8.41878L8.47212 5.78033C4.93878 8.13366 2.25212 12.267 2.25212 19.167C2.24311 19.312 2.26293 19.4574 2.31043 19.5948C2.35794 19.7321 2.43219 19.8587 2.52889 19.9671C2.62559 20.0756 2.74282 20.1639 2.87383 20.2268C3.00483 20.2897 3.14699 20.326 3.29212 20.3337H8.62545C8.39644 20.0953 8.23832 19.7979 8.1688 19.4748C8.09928 19.1516 8.12111 18.8155 8.23184 18.5041C8.34258 18.1926 8.53784 17.9182 8.79575 17.7115C9.05366 17.5048 9.36404 17.3739 9.69212 17.3337C9.53246 17.0629 9.44735 16.7547 9.44545 16.4403C9.44545 15.9629 9.63509 15.5051 9.97266 15.1675C10.3102 14.83 10.7681 14.6403 11.2454 14.6403H15.2454C15.7228 14.6403 16.1807 14.83 16.5182 15.1675C16.8558 15.5051 17.0454 15.9629 17.0454 16.4403C17.0489 16.7536 16.9683 17.0621 16.8121 17.3337Z" fill="#9696A9"/>
<path d="M14.4056 19.0007C14.4056 18.8238 14.3354 18.6543 14.2103 18.5292C14.0853 18.4042 13.9157 18.334 13.7389 18.334H9.73893C9.56212 18.334 9.39255 18.4042 9.26753 18.5292C9.1425 18.6543 9.07227 18.8238 9.07227 19.0007C9.07227 19.1775 9.1425 19.347 9.26753 19.4721C9.39255 19.5971 9.56212 19.6673 9.73893 19.6673H13.7389C13.9157 19.6673 14.0853 19.5971 14.2103 19.4721C14.3354 19.347 14.4056 19.1775 14.4056 19.0007Z" fill="#9696A9"/>
<path d="M15.026 15.6665H11.026C10.8492 15.6665 10.6797 15.7367 10.5546 15.8618C10.4296 15.9868 10.3594 16.1564 10.3594 16.3332C10.3594 16.51 10.4296 16.6796 10.5546 16.8046C10.6797 16.9296 10.8492 16.9998 11.026 16.9998H15.026C15.2029 16.9998 15.3724 16.9296 15.4974 16.8046C15.6225 16.6796 15.6927 16.51 15.6927 16.3332C15.6927 16.1564 15.6225 15.9868 15.4974 15.8618C15.3724 15.7367 15.2029 15.6665 15.026 15.6665Z" fill="#9696A9"/>
<path d="M14.6676 21H10.6676C10.4908 21 10.3213 21.0702 10.1962 21.1953C10.0712 21.3203 10.001 21.4899 10.001 21.6667C10.001 21.8435 10.0712 22.013 10.1962 22.1381C10.3213 22.2631 10.4908 22.3333 10.6676 22.3333H14.6676C14.8445 22.3333 15.014 22.2631 15.139 22.1381C15.2641 22.013 15.3343 21.8435 15.3343 21.6667C15.3343 21.4899 15.2641 21.3203 15.139 21.1953C15.014 21.0702 14.8445 21 14.6676 21Z" fill="#9696A9"/>
<path d="M21.7992 21H17.1325C16.9557 21 16.7861 21.0702 16.6611 21.1953C16.5361 21.3203 16.4658 21.4899 16.4658 21.6667C16.4658 21.8435 16.5361 22.013 16.6611 22.1381C16.7861 22.2631 16.9557 22.3333 17.1325 22.3333H21.7992C21.976 22.3333 22.1455 22.2631 22.2706 22.1381C22.3956 22.013 22.4658 21.8435 22.4658 21.6667C22.4658 21.4899 22.3956 21.3203 22.2706 21.1953C22.1455 21.0702 21.976 21 21.7992 21Z" fill="#9696A9"/>
<path d="M22.4681 18.334H17.8014C17.6246 18.334 17.4551 18.4042 17.33 18.5292C17.205 18.6543 17.1348 18.8238 17.1348 19.0007C17.1348 19.1775 17.205 19.347 17.33 19.4721C17.4551 19.5971 17.6246 19.6673 17.8014 19.6673H22.4681C22.6449 19.6673 22.8145 19.5971 22.9395 19.4721C23.0645 19.347 23.1348 19.1775 23.1348 19.0007C23.1348 18.8238 23.0645 18.6543 22.9395 18.5292C22.8145 18.4042 22.6449 18.334 22.4681 18.334Z" fill="#9696A9"/>
</svg>
