<svg width="48" height="48" viewBox="0 0 48 48" fill="none" xmlns="http://www.w3.org/2000/svg">
<path d="M13.0003 20.0001C12.5543 20.0001 12.1263 20.0681 11.7003 20.1301C11.8383 19.6661 11.9803 19.1941 12.2083 18.7701C12.4363 18.1541 12.7923 17.6201 13.1463 17.0821C13.4423 16.5001 13.9643 16.1061 14.3483 15.6081C14.7503 15.1241 15.2983 14.8021 15.7323 14.4001C16.1583 13.9801 16.7163 13.7701 17.1603 13.4741C17.6243 13.2081 18.0283 12.9141 18.4603 12.7741L19.5383 12.3301L20.4863 11.9361L19.5163 8.06006L18.3223 8.34806C17.9403 8.44406 17.4743 8.55606 16.9443 8.69006C16.4023 8.79006 15.8243 9.06406 15.1803 9.31406C14.5443 9.59806 13.8083 9.79006 13.1243 10.2461C12.4363 10.6821 11.6423 11.0461 10.9423 11.6301C10.2643 12.2321 9.44629 12.7541 8.84229 13.5201C8.18229 14.2361 7.53029 14.9881 7.02429 15.8441C6.43829 16.6601 6.04029 17.5561 5.62029 18.4421C5.24029 19.3281 4.93429 20.2341 4.68429 21.1141C4.21029 22.8781 3.99829 24.5541 3.91629 25.9881C3.84829 27.4241 3.88829 28.6181 3.97229 29.4821C4.00229 29.8901 4.05829 30.2861 4.09829 30.5601L4.14829 30.8961L4.20029 30.8841C4.55601 32.5457 5.3749 34.0727 6.56222 35.2884C7.74954 36.5041 9.25677 37.3588 10.9096 37.7537C12.5624 38.1486 14.2932 38.0675 15.9018 37.5197C17.5104 36.972 18.9311 35.98 19.9995 34.6586C21.0679 33.3372 21.7404 31.7403 21.9391 30.0526C22.1379 28.365 21.8548 26.6556 21.1226 25.1221C20.3903 23.5886 19.239 22.2938 17.8016 21.3874C16.3642 20.4809 14.6996 19.9999 13.0003 20.0001ZM35.0003 20.0001C34.5543 20.0001 34.1263 20.0681 33.7003 20.1301C33.8383 19.6661 33.9803 19.1941 34.2083 18.7701C34.4363 18.1541 34.7923 17.6201 35.1463 17.0821C35.4423 16.5001 35.9643 16.1061 36.3483 15.6081C36.7503 15.1241 37.2983 14.8021 37.7323 14.4001C38.1583 13.9801 38.7163 13.7701 39.1603 13.4741C39.6243 13.2081 40.0283 12.9141 40.4603 12.7741L41.5383 12.3301L42.4863 11.9361L41.5163 8.06006L40.3223 8.34806C39.9403 8.44406 39.4743 8.55606 38.9443 8.69006C38.4023 8.79006 37.8243 9.06406 37.1803 9.31406C36.5463 9.60006 35.8083 9.79006 35.1243 10.2481C34.4363 10.6841 33.6423 11.0481 32.9423 11.6321C32.2643 12.2341 31.4463 12.7561 30.8423 13.5201C30.1823 14.2361 29.5303 14.9881 29.0243 15.8441C28.4383 16.6601 28.0403 17.5561 27.6203 18.4421C27.2403 19.3281 26.9343 20.2341 26.6843 21.1141C26.2103 22.8781 25.9983 24.5541 25.9163 25.9881C25.8483 27.4241 25.8883 28.6181 25.9723 29.4821C26.0023 29.8901 26.0583 30.2861 26.0983 30.5601L26.1483 30.8961L26.2003 30.8841C26.556 32.5457 27.3749 34.0727 28.5622 35.2884C29.7495 36.5041 31.2568 37.3588 32.9096 37.7537C34.5624 38.1486 36.2932 38.0675 37.9018 37.5197C39.5104 36.972 40.9311 35.98 41.9995 34.6586C43.0679 33.3372 43.7404 31.7403 43.9391 30.0526C44.1379 28.365 43.8548 26.6556 43.1226 25.1221C42.3903 23.5886 41.239 22.2938 39.8016 21.3874C38.3642 20.4809 36.6996 19.9999 35.0003 20.0001Z" fill="#0052FF" fill-opacity="0.08"/>
</svg>
