<svg width="19" height="17" viewBox="0 0 19 17" fill="none" xmlns="http://www.w3.org/2000/svg">
<g clip-path="url(#clip0_911_1253)">
<mask id="mask0_911_1253" style="mask-type:alpha" maskUnits="userSpaceOnUse" x="0" y="0" width="19" height="17">
<path d="M0 0.800903H18.6667V16.2009H0V0.800903Z" fill="white"/>
</mask>
<g mask="url(#mask0_911_1253)">
<path fill-rule="evenodd" clip-rule="evenodd" d="M0 0.800903V16.2009H18.6667V0.800903H0Z" fill="#2E42A5"/>
<mask id="mask1_911_1253" style="mask-type:alpha" maskUnits="userSpaceOnUse" x="0" y="0" width="19" height="17">
<path fill-rule="evenodd" clip-rule="evenodd" d="M0 0.800903V16.2009H18.6667V0.800903H0Z" fill="white"/>
</mask>
<g mask="url(#mask1_911_1253)">
<mask id="mask2_911_1253" style="mask-type:alpha" maskUnits="userSpaceOnUse" x="0" y="0" width="19" height="17">
<path d="M0 0.800903H18.6667V16.2009H0V0.800903Z" fill="white"/>
</mask>
<g mask="url(#mask2_911_1253)">
<path d="M-2.07812 15.1004L2.02971 17.012L18.7597 2.87862L20.9268 0.0386048L16.5343 -0.599854L9.71046 5.4902L4.21779 9.5943L-2.07812 15.1004Z" fill="white"/>
<path d="M-1.51758 16.4396L0.576005 17.5484L20.1474 -0.225098H17.2092L-1.51699 16.439L-1.51758 16.4396Z" fill="#F50100"/>
<path d="M20.7451 15.1004L16.6373 17.012L-0.0926824 2.87862L-2.25977 0.0386048L2.13273 -0.599854L8.95657 5.4902L14.4492 9.5943L20.7451 15.1004Z" fill="white"/>
<path d="M20.605 16.0617L18.512 17.1705L10.1785 9.56028L7.7075 8.71072L-2.46875 0.0482178H0.470083L10.6399 8.50538L13.3413 9.52435L20.605 16.0617Z" fill="#F50100"/>
<mask id="mask3_911_1253" style="mask-type:alpha" maskUnits="userSpaceOnUse" x="-2" y="-1" width="22" height="19">
<path fill-rule="evenodd" clip-rule="evenodd" d="M11.5371 -0.482422H7.12944V5.93425H-1.15039V11.0676H7.12944V17.4842H11.5371V11.0676H19.8496V5.93425H11.5371V-0.482422Z" fill="white"/>
</mask>
<g mask="url(#mask3_911_1253)">
<path fill-rule="evenodd" clip-rule="evenodd" d="M11.5371 -0.482422H7.12944V5.93425H-1.15039V11.0676H7.12944V17.4842H11.5371V11.0676H19.8496V5.93425H11.5371V-0.482422Z" fill="#F50100"/>
<path d="M7.13009 -0.482414V-1.76575H5.96343V-0.482414H7.13009ZM11.5378 -0.482414H12.7044V-1.76575H11.5378V-0.482414ZM7.13009 5.93425V7.21759H8.29676V5.93425H7.13009ZM-1.14974 5.93425V4.65092H-2.31641V5.93425H-1.14974ZM-1.14974 11.0676H-2.31641V12.3509H-1.14974V11.0676ZM7.13009 11.0676H8.29676V9.78425H7.13009V11.0676ZM7.13009 17.4843H5.96343V18.7676H7.13009V17.4843ZM11.5378 17.4843V18.7676H12.7044V17.4843H11.5378ZM11.5378 11.0676V9.78425H10.3711V11.0676H11.5378ZM19.8503 11.0676V12.3509H21.0169V11.0676H19.8503ZM19.8503 5.93425H21.0169V4.65092H19.8503V5.93425ZM11.5378 5.93425H10.3711V7.21759H11.5378V5.93425ZM7.13009 0.80092H11.5378V-1.76575H7.13009V0.80092ZM8.29676 5.93425V-0.482414H5.96343V5.93425H8.29676ZM-1.14974 7.21759H7.13009V4.65092H-1.14974V7.21759ZM0.016927 11.0676V5.93425H-2.31641V11.0676H0.016927ZM7.13009 9.78425H-1.14974V12.3509H7.13009V9.78425ZM8.29676 17.4843V11.0676H5.96343V17.4843H8.29676ZM11.5378 16.2009H7.13009V18.7676H11.5378V16.2009ZM10.3711 11.0676V17.4843H12.7044V11.0676H10.3711ZM19.8503 9.78425H11.5378V12.3509H19.8503V9.78425ZM18.6836 5.93425V11.0676H21.0169V5.93425H18.6836ZM11.5378 7.21759H19.8503V4.65092H11.5378V7.21759ZM10.3711 -0.482414V5.93425H12.7044V-0.482414H10.3711Z" fill="white"/>
</g>
</g>
</g>
</g>
</g>
<defs>
<clipPath id="clip0_911_1253">
<rect y="0.800903" width="18.6667" height="15.4" rx="2" fill="white"/>
</clipPath>
</defs>
</svg>
