<svg width="48" height="48" viewBox="0 0 48 48" fill="none" xmlns="http://www.w3.org/2000/svg">
<path d="M21 21.5C21 22.0909 20.8836 22.6761 20.6575 23.2221C20.4313 23.768 20.0998 24.2641 19.682 24.682C19.2641 25.0998 18.768 25.4313 18.2221 25.6575C17.6761 25.8836 17.0909 26 16.5 26C15.9091 26 15.3239 25.8836 14.7779 25.6575C14.232 25.4313 13.7359 25.0998 13.318 24.682C12.9002 24.2641 12.5687 23.768 12.3425 23.2221C12.1164 22.6761 12 22.0909 12 21.5C12 20.3065 12.4741 19.1619 13.318 18.318C14.1619 17.4741 15.3065 17 16.5 17C17.6935 17 18.8381 17.4741 19.682 18.318C20.5259 19.1619 21 20.3065 21 21.5ZM18.5 21.5C18.5 20.9696 18.2893 20.4609 17.9142 20.0858C17.5391 19.7107 17.0304 19.5 16.5 19.5C15.9696 19.5 15.4609 19.7107 15.0858 20.0858C14.7107 20.4609 14.5 20.9696 14.5 21.5C14.5 22.0304 14.7107 22.5391 15.0858 22.9142C15.4609 23.2893 15.9696 23.5 16.5 23.5C17.0304 23.5 17.5391 23.2893 17.9142 22.9142C18.2893 22.5391 18.5 22.0304 18.5 21.5ZM16.5 37C17.6935 37 18.8381 36.5259 19.682 35.682C20.5259 34.8381 21 33.6935 21 32.5C21 31.3065 20.5259 30.1619 19.682 29.318C18.8381 28.4741 17.6935 28 16.5 28C15.3065 28 14.1619 28.4741 13.318 29.318C12.4741 30.1619 12 31.3065 12 32.5C12 33.6935 12.4741 34.8381 13.318 35.682C14.1619 36.5259 15.3065 37 16.5 37ZM16.5 34.5C15.9696 34.5 15.4609 34.2893 15.0858 33.9142C14.7107 33.5391 14.5 33.0304 14.5 32.5C14.5 31.9696 14.7107 31.4609 15.0858 31.0858C15.4609 30.7107 15.9696 30.5 16.5 30.5C17.0304 30.5 17.5391 30.7107 17.9142 31.0858C18.2893 31.4609 18.5 31.9696 18.5 32.5C18.5 33.0304 18.2893 33.5391 17.9142 33.9142C17.5391 34.2893 17.0304 34.5 16.5 34.5ZM13.25 12C12.9185 12 12.6005 12.1317 12.3661 12.3661C12.1317 12.6005 12 12.9185 12 13.25C12 13.5815 12.1317 13.8995 12.3661 14.1339C12.6005 14.3683 12.9185 14.5 13.25 14.5H34.75C35.0815 14.5 35.3995 14.3683 35.6339 14.1339C35.8683 13.8995 36 13.5815 36 13.25C36 12.9185 35.8683 12.6005 35.6339 12.3661C35.3995 12.1317 35.0815 12 34.75 12H13.25ZM23 21.75C23 21.06 23.56 20.5 24.25 20.5H34.75C35.0815 20.5 35.3995 20.6317 35.6339 20.8661C35.8683 21.1005 36 21.4185 36 21.75C36 22.0815 35.8683 22.3995 35.6339 22.6339C35.3995 22.8683 35.0815 23 34.75 23H24.25C23.56 23 23 22.44 23 21.75ZM24.25 31C23.9185 31 23.6005 31.1317 23.3661 31.3661C23.1317 31.6005 23 31.9185 23 32.25C23 32.5815 23.1317 32.8995 23.3661 33.1339C23.6005 33.3683 23.9185 33.5 24.25 33.5H34.75C35.0815 33.5 35.3995 33.3683 35.6339 33.1339C35.8683 32.8995 36 32.5815 36 32.25C36 31.9185 35.8683 31.6005 35.6339 31.3661C35.3995 31.1317 35.0815 31 34.75 31H24.25ZM12.25 6C10.5924 6 9.00269 6.65848 7.83058 7.83058C6.65848 9.00269 6 10.5924 6 12.25V35.75C6 37.4076 6.65848 38.9973 7.83058 40.1694C9.00269 41.3415 10.5924 42 12.25 42H35.75C37.4076 42 38.9973 41.3415 40.1694 40.1694C41.3415 38.9973 42 37.4076 42 35.75V12.25C42 10.5924 41.3415 9.00269 40.1694 7.83058C38.9973 6.65848 37.4076 6 35.75 6H12.25ZM8.5 12.25C8.5 11.2554 8.89509 10.3016 9.59835 9.59835C10.3016 8.89509 11.2554 8.5 12.25 8.5H35.75C36.7446 8.5 37.6984 8.89509 38.4016 9.59835C39.1049 10.3016 39.5 11.2554 39.5 12.25V35.75C39.5 36.7446 39.1049 37.6984 38.4016 38.4016C37.6984 39.1049 36.7446 39.5 35.75 39.5H12.25C11.2554 39.5 10.3016 39.1049 9.59835 38.4016C8.89509 37.6984 8.5 36.7446 8.5 35.75V12.25Z" fill="#1A2B6B"/>
</svg>
