<svg width="19" height="20" viewBox="0 0 19 20" fill="none" xmlns="http://www.w3.org/2000/svg">
<path d="M8.32422 6.79351H10.1298V7.64277H8.32422V6.79351ZM8.32422 3.39648H10.1298V4.24574H8.32422V3.39648ZM8.32422 8.49202H10.1298V9.34128H8.32422V8.49202Z" fill="#9696A9"/>
<path d="M17.3527 10.1903V7.64258C14.6004 7.64204 11.9337 8.54285 9.81057 10.1903H8.64414C6.52098 8.54285 3.85433 7.64204 1.10203 7.64258V10.1903C0.862591 10.1903 0.632957 10.2798 0.463647 10.4391C0.294336 10.5984 0.199219 10.8144 0.199219 11.0396V12.7381C0.199219 12.9634 0.294336 13.1794 0.463647 13.3386C0.632957 13.4979 0.862591 13.5874 1.10203 13.5874V16.9844C4.11929 16.9818 7.02445 18.0598 9.22735 19.9993C11.4326 18.0632 14.3362 16.9858 17.3527 16.9844V13.5874C17.5921 13.5874 17.8218 13.4979 17.9911 13.3386C18.1604 13.1794 18.2555 12.9634 18.2555 12.7381V11.0396C18.2555 10.8144 18.1604 10.5984 17.9911 10.4391C17.8218 10.2798 17.5921 10.1903 17.3527 10.1903Z" fill="#9696A9"/>
<path d="M6.51902 4.24539C7.01763 4.24539 7.42184 3.86516 7.42184 3.39613C7.42184 2.9271 7.01763 2.54688 6.51902 2.54688C6.02041 2.54688 5.61621 2.9271 5.61621 3.39613C5.61621 3.86516 6.02041 4.24539 6.51902 4.24539Z" fill="#9696A9"/>
<path d="M11.9341 4.24539C12.4327 4.24539 12.8369 3.86516 12.8369 3.39613C12.8369 2.9271 12.4327 2.54688 11.9341 2.54688C11.4355 2.54688 11.0312 2.9271 11.0312 3.39613C11.0312 3.86516 11.4355 4.24539 11.9341 4.24539Z" fill="#9696A9"/>
<path d="M12.8372 6.79406H5.61469C4.89659 6.79338 4.2081 6.52474 3.70033 6.04709C3.19255 5.56943 2.90697 4.92179 2.90625 4.24628V2.54777C2.90697 1.87227 3.19255 1.22462 3.70033 0.74697C4.2081 0.269316 4.89659 0.000674493 5.61469 0L12.8372 0C13.5553 0.000674493 14.2438 0.269316 14.7516 0.74697C15.2593 1.22462 15.5449 1.87227 15.5456 2.54777V4.24628C15.5449 4.92179 15.2593 5.56943 14.7516 6.04709C14.2438 6.52474 13.5553 6.79338 12.8372 6.79406ZM5.61469 1.69851C5.37532 1.69874 5.14583 1.78829 4.97657 1.9475C4.80731 2.10672 4.71212 2.3226 4.71188 2.54777V4.24628C4.71212 4.47145 4.80731 4.68733 4.97657 4.84655C5.14583 5.00577 5.37532 5.09532 5.61469 5.09554H12.8372C13.0766 5.09532 13.3061 5.00577 13.4753 4.84655C13.6446 4.68733 13.7398 4.47145 13.74 4.24628V2.54777C13.7398 2.3226 13.6446 2.10672 13.4753 1.9475C13.3061 1.78829 13.0766 1.69874 12.8372 1.69851H5.61469Z" fill="#9696A9"/>
</svg>
