<svg width="33" height="32" viewBox="0 0 33 32" fill="none" xmlns="http://www.w3.org/2000/svg">
<rect x="0.798828" y="0.00439453" width="31.9955" height="31.9955" rx="4" fill="white"/>
<rect x="1.59894" y="0.804282" width="30.3955" height="30.3955" rx="3.2" stroke="#375BD2" stroke-opacity="0.19" stroke-width="1.6"/>
<path d="M12.4116 13.2612H9.06836V23.9226H12.4116V13.2612Z" fill="#375BD2"/>
<path d="M21.457 13.0302C21.3338 13.0148 21.2028 13.0071 21.0719 12.9994C19.2 12.9224 18.1446 14.0317 17.7749 14.5093C17.6747 14.6402 17.6285 14.7173 17.6285 14.7173V13.2921H14.4316V23.9535H17.6285H17.7749C17.7749 22.8673 17.7749 21.7889 17.7749 20.7027C17.7749 20.1173 17.7749 19.5318 17.7749 18.9464C17.7749 18.2222 17.7209 17.4519 18.083 16.7894C18.3911 16.2348 18.9458 15.9575 19.5697 15.9575C21.4185 15.9575 21.457 17.6291 21.457 17.7832C21.457 17.7909 21.457 17.7986 21.457 17.7986V23.9997H24.8003V17.0436C24.8003 14.6633 23.5908 13.2613 21.457 13.0302Z" fill="#375BD2"/>
<path d="M10.7401 11.8825C11.8122 11.8825 12.6813 11.0133 12.6813 9.94123C12.6813 8.86912 11.8122 8 10.7401 8C9.66794 8 8.79883 8.86912 8.79883 9.94123C8.79883 11.0133 9.66794 11.8825 10.7401 11.8825Z" fill="#375BD2"/>
</svg>
