<svg width="138" height="39" viewBox="0 0 138 39" fill="none" xmlns="http://www.w3.org/2000/svg">
<path d="M0 9.68976V29.0795L16.0896 38.7692L32.1792 29.0795V9.68976L16.0896 0L0 9.68976ZM16.1013 26.0386L10.1846 14.6798H22.018L16.1013 26.0386ZM14.8316 4.12846V12.1196H6.06642L10.7329 21.0812L2.79016 25.891V11.3802L14.8316 4.12846ZM4.0122 28.1242L11.9141 23.345L16.1013 31.383L20.2992 23.3247L28.2011 28.1039L16.0896 35.3984L4.0122 28.1242ZM29.3862 25.8461L21.4755 21.0598L26.1332 12.1175H17.4021V4.16207L29.3862 11.3802V25.8461Z" fill="#0052FF"/>
<path d="M50.4329 11.8874H39.6437V14.417H43.6695V26.6466H46.2866V14.417H50.4329V11.8874Z" fill="#0052FF"/>
<path d="M59.0202 16.853C58.5733 16.3673 58.0399 15.9781 57.4501 15.7073C56.8349 15.4237 56.1692 15.28 55.497 15.2857C54.749 15.2771 54.0068 15.4242 53.3135 15.7185C52.6667 15.9938 52.0834 16.4104 51.6025 16.9405C51.1184 17.4797 50.739 18.1123 50.4854 18.8031C50.2091 19.5638 50.0725 20.3723 50.083 21.1861C50.083 22.2819 50.3211 23.2551 50.7975 24.1058C51.2724 24.956 51.9616 25.6529 52.7895 26.1201C53.6418 26.6123 54.625 26.8581 55.7391 26.8574C56.2489 26.8555 56.7564 26.7846 57.2489 26.6466C57.7534 26.5088 58.2423 26.3145 58.7072 26.0671C59.1575 25.8302 59.5741 25.5286 59.9448 25.171L58.7198 23.3786C58.2363 23.8145 57.7868 24.1166 57.3714 24.285C56.9326 24.4586 56.4667 24.5446 55.9977 24.5386C55.3528 24.5542 54.714 24.4057 54.136 24.1058C53.6186 23.8319 53.191 23.4025 52.9081 22.8725C52.7085 22.5007 52.5766 22.0932 52.5192 21.6708H60.3414L60.3618 20.7645C60.3824 20.0217 60.2696 19.2814 60.0293 18.5821C59.8109 17.9388 59.4673 17.3499 59.0202 16.853ZM53.8366 17.9813C54.2857 17.7138 54.8392 17.5801 55.497 17.5801C55.9059 17.5748 56.3101 17.6726 56.6753 17.8652C57.0224 18.048 57.3225 18.3156 57.5503 18.6453C57.7815 18.9828 57.9206 19.3799 57.9528 19.794V19.8958H52.5785C52.6292 19.6299 52.7105 19.3714 52.8206 19.1259C53.0366 18.6425 53.392 18.2422 53.8366 17.9813Z" fill="#0052FF"/>
<path d="M68.3075 15.2999C67.7849 15.2999 67.2702 15.4338 66.8084 15.69C66.3261 15.9547 65.8985 16.3167 65.5504 16.7552C65.3813 16.964 65.2334 17.1906 65.109 17.4314L65.0866 15.5321H62.6562V26.6466H65.1518V20.7217C65.1476 20.3569 65.2137 19.995 65.3462 19.6575C65.5977 19.0288 66.075 18.5288 66.6752 18.2654C66.9773 18.1306 67.3024 18.0613 67.6308 18.0618C67.8482 18.0622 68.0646 18.0906 68.2754 18.1463C68.4643 18.1923 68.6469 18.2632 68.8188 18.3571L69.4829 15.5107C69.3165 15.445 69.1446 15.3955 68.9695 15.3631C68.7513 15.3199 68.5296 15.2987 68.3075 15.2999Z" fill="#0052FF"/>
<path d="M78.531 17.1014C78.3232 16.7758 78.0725 16.4827 77.7863 16.2307C77.4407 15.9294 77.0453 15.6971 76.6196 15.5454C76.1463 15.3778 75.6494 15.2948 75.1497 15.2999C74.2668 15.2872 73.3993 15.5437 72.6531 16.0383C71.9047 16.5424 71.3001 17.2489 70.9032 18.0831C70.4735 18.9549 70.2587 19.9457 70.2587 21.0558C70.2587 22.1658 70.4735 23.157 70.9032 24.0294C71.297 24.8584 71.8854 25.5691 72.6133 26.0946C73.3119 26.5967 74.1411 26.8615 74.9883 26.8533C75.4783 26.8572 75.9651 26.7717 76.4272 26.6008C76.8635 26.4393 77.2767 26.2159 77.655 25.9368C77.9795 25.6977 78.2679 25.409 78.5105 25.0803V26.6425H81.0275V15.5352H78.531V17.1014ZM77.2029 24.117C76.7446 24.4167 76.213 24.5706 75.6727 24.56C75.1357 24.5719 74.6072 24.4178 74.1532 24.117C73.7104 23.8136 73.358 23.3859 73.1363 22.8827C72.8858 22.3111 72.7619 21.6876 72.7737 21.0588C72.763 20.4419 72.887 19.8306 73.1363 19.2716C73.3603 18.7732 73.7125 18.35 74.1532 18.0495C74.6072 17.7487 75.1357 17.5946 75.6727 17.6065C76.213 17.5959 76.7446 17.7498 77.2029 18.0495C77.6492 18.3492 78.0078 18.7721 78.2393 19.2716C78.4956 19.8299 78.6231 20.4435 78.6116 21.0629C78.6239 21.6928 78.4964 22.3172 78.2393 22.8868C78.0095 23.3896 77.6507 23.8156 77.2029 24.117Z" fill="#0052FF"/>
<path d="M93.8292 19.13C93.5177 18.894 93.1756 18.7058 92.8133 18.5709C93.2592 18.3639 93.6496 18.0449 93.9498 17.6422C94.3659 17.08 94.5739 16.3913 94.5739 15.5759C94.5739 14.7884 94.4096 14.1173 94.081 13.5626C93.7369 12.9942 93.2293 12.5549 92.6315 12.308C91.9937 12.0269 91.2121 11.8864 90.2866 11.8864H84.2882V26.6466H90.4878C91.1619 26.6558 91.8336 26.5601 92.4808 26.3625C93.0373 26.1913 93.5567 25.9084 94.01 25.5294C94.4374 25.1639 94.7715 24.6929 94.9822 24.1587C95.213 23.556 95.3257 22.9108 95.3137 22.2615C95.3262 21.6361 95.1927 21.017 94.9249 20.458C94.6638 19.9316 94.2886 19.4768 93.8292 19.13ZM86.8441 14.3539H89.8433C90.5413 14.3539 91.0715 14.5121 91.4338 14.8284C91.7961 15.1448 91.9772 15.5841 91.9772 16.1462C91.9835 16.4733 91.8998 16.7953 91.7361 17.0739C91.5709 17.3456 91.3374 17.5644 91.0614 17.7063C90.745 17.8677 90.3963 17.9474 90.0445 17.9385H86.8441V14.3539ZM92.4098 23.2626C92.2224 23.5706 91.9483 23.8101 91.6253 23.9479C91.2253 24.1138 90.7973 24.1928 90.3673 24.1801H86.8441V20.3001H90.2662C90.7049 20.2901 91.1416 20.3651 91.5543 20.5211C91.8869 20.6458 92.1775 20.8695 92.3904 21.1647C92.5891 21.4605 92.6913 21.8155 92.682 22.177C92.6924 22.5587 92.5979 22.9354 92.4098 23.2626Z" fill="#0052FF"/>
<path d="M100.353 11.0432H97.857V26.6466H100.353V11.0432Z" fill="#0052FF"/>
<path d="M110.997 16.0515C110.128 15.5602 109.156 15.303 108.169 15.303C107.182 15.303 106.21 15.5602 105.341 16.0515C104.519 16.5394 103.838 17.2495 103.368 18.1076C102.892 19.0193 102.643 20.0417 102.643 21.0807C102.643 22.1198 102.892 23.1421 103.368 24.0538C103.838 24.9118 104.519 25.6216 105.341 26.1089C106.173 26.6086 107.119 26.8581 108.179 26.8574C109.165 26.8744 110.138 26.616 110.998 26.1089C111.817 25.6242 112.495 24.9152 112.96 24.0579C113.429 23.1439 113.674 22.1224 113.674 21.0848C113.674 20.0471 113.429 19.0256 112.96 18.1117C112.496 17.2511 111.818 16.5389 110.997 16.0515ZM110.786 22.8511C110.538 23.3555 110.169 23.7841 109.717 24.0956C109.259 24.4078 108.723 24.5695 108.177 24.56C107.626 24.5666 107.086 24.4052 106.621 24.0956C106.161 23.7907 105.789 23.3606 105.544 22.8511C105.283 22.3015 105.152 21.6941 105.162 21.0802C105.153 20.4631 105.283 19.8526 105.544 19.2991C105.785 18.787 106.158 18.3559 106.621 18.0546C107.088 17.7516 107.628 17.5944 108.177 17.6015C108.721 17.5915 109.257 17.7491 109.717 18.0546C110.17 18.3605 110.539 18.7858 110.786 19.2879C111.054 19.8421 111.183 20.4592 111.158 21.0802C111.181 21.6942 111.053 22.3041 110.786 22.8511Z" fill="#0052FF"/>
<path d="M119.24 18.0546C119.631 17.8066 120.071 17.6558 120.526 17.6138C120.981 17.5718 121.439 17.6397 121.865 17.8123C122.217 17.9542 122.548 18.1457 122.851 18.3815C123.145 18.6047 123.403 18.8752 123.616 19.183L124.985 17.4518C124.534 16.759 123.907 16.212 123.176 15.8723C122.361 15.4844 121.474 15.2901 120.579 15.303C119.636 15.2883 118.708 15.5512 117.901 16.0617C117.113 16.5638 116.467 17.2771 116.029 18.1279C115.579 19.041 115.344 20.0536 115.344 21.0812C115.344 22.1088 115.579 23.1214 116.029 24.0345C116.467 24.8833 117.114 25.5944 117.901 26.0946C118.708 26.6051 119.636 26.868 120.579 26.8533C121.452 26.8565 122.315 26.6587 123.106 26.2739C123.905 25.8882 124.532 25.3858 124.989 24.7667L123.62 23.0161C123.383 23.3355 123.105 23.6193 122.794 23.8593C122.508 24.0792 122.193 24.2535 121.858 24.3766C121.532 24.4956 121.188 24.5562 120.842 24.5559C120.287 24.5625 119.742 24.4012 119.272 24.0915C118.804 23.7847 118.419 23.3559 118.155 22.8471C117.874 22.3038 117.732 21.6938 117.742 21.0761C117.733 20.4566 117.871 19.8444 118.144 19.295C118.398 18.7866 118.776 18.3583 119.24 18.0546Z" fill="#0052FF"/>
<path d="M134.082 26.6466H137.143L132.139 20.3938L137.083 15.5352H133.781L129.393 20.1504V11.0432H126.916V26.6466H129.393V23.0935L130.458 22.0466L134.082 26.6466Z" fill="#0052FF"/>
</svg>
