<svg width="33" height="32" viewBox="0 0 33 32" fill="none" xmlns="http://www.w3.org/2000/svg">
<rect x="0.599609" y="0.00439453" width="31.9955" height="31.9955" rx="4" fill="white"/>
<rect x="1.39972" y="0.804282" width="30.3955" height="30.3955" rx="3.2" stroke="#375BD2" stroke-opacity="0.19" stroke-width="1.6"/>
<path d="M22.4656 10.1333H10.7323C9.92562 10.1333 9.27296 10.7933 9.27296 11.6L9.26562 20.4C9.26562 21.2066 9.92562 21.8666 10.7323 21.8666H22.4656C23.2723 21.8666 23.9323 21.2066 23.9323 20.4V11.6C23.9323 10.7933 23.2723 10.1333 22.4656 10.1333ZM22.1723 13.25L16.9876 16.4913C16.753 16.638 16.445 16.638 16.2103 16.4913L11.0256 13.25C10.9521 13.2087 10.8877 13.1529 10.8363 13.086C10.785 13.0191 10.7477 12.9425 10.7268 12.8608C10.706 12.7791 10.7019 12.6941 10.7148 12.6107C10.7278 12.5274 10.7575 12.4476 10.8022 12.3761C10.8469 12.3045 10.9056 12.2428 10.9748 12.1947C11.0441 12.1465 11.1223 12.1129 11.2049 12.0959C11.2875 12.0789 11.3727 12.0788 11.4553 12.0957C11.5379 12.1125 11.6163 12.146 11.6856 12.194L16.599 15.2666L21.5123 12.194C21.5816 12.146 21.66 12.1125 21.7426 12.0957C21.8252 12.0788 21.9104 12.0789 21.993 12.0959C22.0756 12.1129 22.1539 12.1465 22.2231 12.1947C22.2923 12.2428 22.351 12.3045 22.3957 12.3761C22.4404 12.4476 22.4702 12.5274 22.4831 12.6107C22.496 12.6941 22.492 12.7791 22.4711 12.8608C22.4502 12.9425 22.4129 13.0191 22.3616 13.086C22.3102 13.1529 22.2458 13.2087 22.1723 13.25Z" fill="#375BD2"/>
</svg>
