<svg width="40" height="40" viewBox="0 0 40 40" fill="none" xmlns="http://www.w3.org/2000/svg">
<path fill-rule="evenodd" clip-rule="evenodd" d="M23.9763 20.5558C23.7465 19.9059 23.3208 19.3431 22.7578 18.9451C22.1949 18.5471 21.5224 18.3333 20.833 18.3333V17.5H19.1663V18.3333C18.2823 18.3333 17.4344 18.6845 16.8093 19.3096C16.1842 19.9348 15.833 20.7826 15.833 21.6667C15.833 22.5507 16.1842 23.3986 16.8093 24.0237C17.4344 24.6488 18.2823 25 19.1663 25V28.3333C18.4413 28.3333 17.8238 27.8708 17.5938 27.2225C17.5597 27.1164 17.5047 27.0183 17.4319 26.9339C17.3592 26.8494 17.2703 26.7804 17.1705 26.731C17.0706 26.6815 16.9619 26.6526 16.8507 26.6459C16.7394 26.6392 16.628 26.6549 16.5229 26.692C16.4179 26.7291 16.3213 26.7869 16.239 26.862C16.1567 26.9371 16.0902 27.0279 16.0436 27.1291C15.997 27.2303 15.9712 27.3399 15.9676 27.4512C15.9641 27.5626 15.9829 27.6735 16.023 27.7775C16.2529 28.4275 16.6786 28.9902 17.2415 29.3882C17.8044 29.7863 18.4769 30 19.1663 30V30.8333H20.833V30C21.7171 30 22.5649 29.6488 23.19 29.0237C23.8152 28.3986 24.1663 27.5507 24.1663 26.6667C24.1663 25.7826 23.8152 24.9348 23.19 24.3096C22.5649 23.6845 21.7171 23.3333 20.833 23.3333V20C21.1777 19.9999 21.5139 20.1067 21.7954 20.3056C22.0769 20.5046 22.2897 20.7859 22.4047 21.1108C22.4783 21.3192 22.6316 21.4899 22.8311 21.5852C22.9298 21.6324 23.0369 21.6597 23.1462 21.6655C23.2554 21.6714 23.3648 21.6556 23.468 21.6192C23.5712 21.5827 23.6662 21.5263 23.7476 21.4532C23.829 21.38 23.8952 21.2915 23.9424 21.1928C23.9896 21.094 24.0169 20.987 24.0227 20.8777C24.0285 20.7684 24.0128 20.659 23.9763 20.5558ZM19.1663 20C18.7243 20 18.3004 20.1756 17.9878 20.4882C17.6753 20.8007 17.4997 21.2246 17.4997 21.6667C17.4997 22.1087 17.6753 22.5326 17.9878 22.8452C18.3004 23.1577 18.7243 23.3333 19.1663 23.3333V20ZM20.833 28.3333C21.275 28.3333 21.699 28.1577 22.0115 27.8452C22.3241 27.5326 22.4997 27.1087 22.4997 26.6667C22.4997 26.2246 22.3241 25.8007 22.0115 25.4882C21.699 25.1756 21.275 25 20.833 25V28.3333Z" fill="#375BD2" fill-opacity="0.8"/>
<path fill-rule="evenodd" clip-rule="evenodd" d="M10.9605 7.18417C13.0055 6.18333 16.3605 5 20.0322 5C23.6272 5 26.8938 6.13417 28.928 7.12167L29.043 7.1775C29.6563 7.48083 30.1513 7.7675 30.4997 8L27.4213 12.5C34.518 19.755 39.9997 34.9975 20.0322 34.9975C0.0646582 34.9975 5.39882 20.0317 12.5572 12.5L9.49882 8C9.73466 7.84583 10.0338 7.66667 10.3905 7.47667C10.5672 7.38167 10.7572 7.28417 10.9605 7.185V7.18417ZM25.443 12.44L27.9072 8.8375C25.6155 9.0025 22.8888 9.54083 20.2638 10.3008C18.3888 10.8425 16.3055 10.76 14.3763 10.4042C13.8902 10.314 13.4074 10.2068 12.9288 10.0825L14.5288 12.4383C17.958 13.6592 22.013 13.6592 25.443 12.44ZM13.5663 13.8583C17.5788 15.4083 22.4013 15.4083 26.4138 13.8567C28.0887 15.6222 29.4898 17.6287 30.5705 19.8092C31.6972 22.1075 32.3105 24.405 32.2105 26.385C32.1138 28.2958 31.3622 29.9283 29.6455 31.1417C27.8563 32.4058 24.8472 33.3308 20.0313 33.3308C15.2105 33.3308 12.1872 32.4217 10.3813 31.1717C8.65216 29.9733 7.89299 28.3633 7.78549 26.4783C7.67299 24.52 8.27299 22.2342 9.39549 19.92C10.4663 17.7133 11.9605 15.5892 13.5663 13.8583ZM12.608 8.26333C13.2747 8.46167 13.9713 8.63417 14.678 8.765C16.4697 9.095 18.2663 9.14333 19.7997 8.69917C21.5865 8.17862 23.4039 7.76923 25.2413 7.47333C23.708 7.01167 21.9147 6.66667 20.0313 6.66667C17.1605 6.66667 14.483 7.4675 12.608 8.26333Z" fill="#375BD2" fill-opacity="0.8"/>
</svg>
