<svg width="40" height="40" viewBox="0 0 40 40" fill="none" xmlns="http://www.w3.org/2000/svg">
<path d="M32.1406 9.64056L9.64056 32.1406C9.40164 32.3716 9.08229 32.5007 8.74994 32.5007C8.41758 32.5007 8.09824 32.3716 7.85931 32.1406C7.62458 31.9036 7.4929 31.5835 7.4929 31.2499C7.4929 30.9164 7.62458 30.5963 7.85931 30.3593L30.3593 7.85931C30.6022 7.65998 30.9105 7.55812 31.2243 7.57353C31.5381 7.58894 31.835 7.72053 32.0572 7.9427C32.2793 8.16487 32.4109 8.46173 32.4263 8.77555C32.4418 9.08936 32.3399 9.39769 32.1406 9.64056ZM7.89056 15.8593C6.83907 14.7998 6.24902 13.3676 6.24902 11.8749C6.24902 10.3822 6.83907 8.95005 7.89056 7.89056C8.95005 6.83907 10.3822 6.24902 11.8749 6.24902C13.3676 6.24902 14.7998 6.83907 15.8593 7.89056C16.8378 8.96263 17.3653 10.3706 17.3322 11.8217C17.2991 13.2728 16.7079 14.6552 15.6816 15.6816C14.6552 16.7079 13.2728 17.2991 11.8217 17.3322C10.3706 17.3653 8.96263 16.8378 7.89056 15.8593ZM8.74994 11.8749C8.74908 12.2851 8.83019 12.6912 8.9885 13.0695C9.14681 13.4479 9.37913 13.7908 9.67181 14.0781C9.96071 14.3681 10.304 14.5983 10.6821 14.7554C11.0602 14.9124 11.4655 14.9932 11.8749 14.9932C12.2843 14.9932 12.6897 14.9124 13.0678 14.7554C13.4458 14.5983 13.7892 14.3681 14.0781 14.0781C14.37 13.7902 14.6019 13.4472 14.7601 13.069C14.9183 12.6908 14.9998 12.2849 14.9998 11.8749C14.9998 11.465 14.9183 11.0591 14.7601 10.6808C14.6019 10.3026 14.37 9.95964 14.0781 9.67181C13.7902 9.37985 13.4472 9.14802 13.069 8.98978C12.6908 8.83154 12.2849 8.75005 11.8749 8.75005C11.465 8.75005 11.0591 8.83154 10.6808 8.98978C10.3026 9.14802 9.95964 9.37985 9.67181 9.67181C9.37913 9.9591 9.14681 10.302 8.9885 10.6803C8.83019 11.0587 8.74908 11.4648 8.74994 11.8749ZM33.7499 28.1249C33.7477 29.049 33.5178 29.9582 33.0806 30.7723C32.6435 31.5864 32.0125 32.2802 31.2434 32.7925C30.4744 33.3048 29.591 33.6197 28.6714 33.7095C27.7517 33.7993 26.8241 33.6611 25.9705 33.3072C25.1169 32.9532 24.3637 32.3945 23.7774 31.6803C23.191 30.9661 22.7897 30.1185 22.6088 29.2123C22.4279 28.3061 22.473 27.3694 22.7402 26.4848C23.0073 25.6002 23.4883 24.7951 24.1406 24.1406C25.2001 23.0891 26.6322 22.499 28.1249 22.499C29.6176 22.499 31.0498 23.0891 32.1093 24.1406C32.6319 24.6638 33.0459 25.2851 33.3275 25.9689C33.609 26.6527 33.7526 27.3854 33.7499 28.1249ZM31.2499 28.1249C31.2508 27.7148 31.1697 27.3087 31.0114 26.9303C30.8531 26.552 30.6207 26.2091 30.3281 25.9218C30.0402 25.6299 29.6972 25.398 29.319 25.2398C28.9408 25.0815 28.5349 25 28.1249 25C27.715 25 27.3091 25.0815 26.9308 25.2398C26.5526 25.398 26.2096 25.6299 25.9218 25.9218C25.5652 26.2851 25.3032 26.7304 25.1589 27.2186C25.0145 27.7067 24.9923 28.2229 25.0941 28.7217C25.1958 29.2205 25.4185 29.6867 25.7426 30.0793C26.0666 30.4719 26.4821 30.779 26.9525 30.9735C27.423 31.168 27.934 31.2441 28.4407 31.195C28.9474 31.1458 29.4343 30.9731 29.8586 30.6918C30.2829 30.4105 30.6317 30.0294 30.8743 29.5818C31.1169 29.1343 31.2459 28.634 31.2499 28.1249Z" fill="#375BD2" fill-opacity="0.8"/>
</svg>
