<svg width="36" height="36" viewBox="0 0 36 36" fill="none" xmlns="http://www.w3.org/2000/svg">
<path d="M4.5 22.5V24.75H9.65925L2.25 32.1593L3.84075 33.75L11.25 26.3407V31.5H13.5V22.5H4.5Z" fill="#375BD2" fill-opacity="0.8"/>
<path d="M24.75 4.5V7.875H11.25V4.5H2.25V13.5H11.25V10.125H19.1509C18.4074 11.0933 18.003 12.2792 18 13.5V31.5H20.25V13.5C20.2497 13.057 20.3367 12.6183 20.506 12.2089C20.6753 11.7995 20.9236 11.4275 21.2367 11.114C21.5498 10.8006 21.9215 10.552 22.3308 10.3823C22.74 10.2126 23.1786 10.1251 23.6216 10.125H24.75V13.5H33.75V4.5H24.75ZM9 11.25H4.5V6.75H9V11.25ZM31.5 11.25H27V6.75H31.5V11.25Z" fill="#375BD2" fill-opacity="0.8"/>
</svg>
