<svg width="40" height="40" viewBox="0 0 40 40" fill="none" xmlns="http://www.w3.org/2000/svg">
<path d="M16.666 31.6667H36.666M16.666 8.33337H36.666H16.666ZM16.666 20H36.666H16.666Z" stroke="#1A2B6B" stroke-width="3" stroke-linecap="round" stroke-linejoin="round"/>
<path d="M6.66634 23.3334C8.50729 23.3334 9.99967 21.841 9.99967 20.0001C9.99967 18.1591 8.50729 16.6667 6.66634 16.6667C4.82539 16.6667 3.33301 18.1591 3.33301 20.0001C3.33301 21.841 4.82539 23.3334 6.66634 23.3334Z" stroke="#1A2B6B" stroke-width="3" stroke-linecap="round" stroke-linejoin="round"/>
<path d="M6.66634 35C8.50729 35 9.99967 33.5077 9.99967 31.6667C9.99967 29.8258 8.50729 28.3334 6.66634 28.3334C4.82539 28.3334 3.33301 29.8258 3.33301 31.6667C3.33301 33.5077 4.82539 35 6.66634 35Z" stroke="#1A2B6B" stroke-width="3" stroke-linecap="round" stroke-linejoin="round"/>
<path d="M3.33301 8.33337L5.83301 10.8334L10.833 5.83337" stroke="#1A2B6B" stroke-width="3" stroke-linecap="round" stroke-linejoin="round"/>
</svg>
