<svg width="30" height="30" viewBox="0 0 30 30" fill="none" xmlns="http://www.w3.org/2000/svg">
<path d="M4.99805 10L4.43236 9.43431L3.86668 10L4.43236 10.5657L4.99805 10ZM24.198 12.5C24.198 12.9418 24.5562 13.3 24.998 13.3C25.4399 13.3 25.798 12.9418 25.798 12.5H24.198ZM9.43236 4.43431L4.43236 9.43431L5.56373 10.5657L10.5637 5.56569L9.43236 4.43431ZM4.43236 10.5657L9.43236 15.5657L10.5637 14.4343L5.56373 9.43431L4.43236 10.5657ZM4.99805 10.8H22.998V9.2H4.99805V10.8ZM24.198 12V12.5H25.798V12H24.198ZM22.998 10.8C23.6608 10.8 24.198 11.3373 24.198 12H25.798C25.798 10.4536 24.5444 9.2 22.998 9.2V10.8Z" fill="#6F6F92"/>
<path d="M25.001 20L25.5667 19.4343L26.1323 20L25.5667 20.5657L25.001 20ZM5.75098 20L5.75098 20.8L5.75098 20ZM2.95098 17.5C2.95098 17.0582 3.30915 16.7 3.75098 16.7C4.19281 16.7 4.55098 17.0582 4.55098 17.5L2.95098 17.5ZM20.5667 14.4343L25.5667 19.4343L24.4353 20.5657L19.4353 15.5657L20.5667 14.4343ZM25.5667 20.5657L20.5667 25.5657L19.4353 24.4343L24.4353 19.4343L25.5667 20.5657ZM25.001 20.8L5.75098 20.8L5.75098 19.2L25.001 19.2L25.001 20.8ZM2.95098 18L2.95098 17.5L4.55098 17.5L4.55098 18L2.95098 18ZM5.75098 20.8C4.20458 20.8 2.95098 19.5464 2.95098 18L4.55098 18C4.55098 18.6627 5.08824 19.2 5.75098 19.2L5.75098 20.8Z" fill="#6F6F92"/>
</svg>
