<svg width="22" height="22" viewBox="0 0 22 22" fill="none" xmlns="http://www.w3.org/2000/svg">
<path d="M1 1V19.9189C1 20.2056 1.1139 20.4806 1.31664 20.6834C1.51938 20.8861 1.79436 21 2.08108 21H21M1 17.4865H2.62162M1 14.2432H2.62162M1 11H2.62162M1 7.75676H2.62162M1 4.51351H2.62162" stroke="#9696A9" stroke-width="1.2" stroke-linecap="round" stroke-linejoin="round"/>
<path d="M19.1077 6.40537C20.1526 6.40537 20.9996 5.55834 20.9996 4.51347C20.9996 3.46861 20.1526 2.62158 19.1077 2.62158C18.0628 2.62158 17.2158 3.46861 17.2158 4.51347C17.2158 5.55834 18.0628 6.40537 19.1077 6.40537Z" stroke="#9696A9" stroke-width="1.2" stroke-linecap="round" stroke-linejoin="round"/>
<path d="M16.0169 13.4762C17.0618 13.4762 17.9088 12.6291 17.9088 11.5843C17.9088 10.5394 17.0618 9.69238 16.0169 9.69238C14.972 9.69238 14.125 10.5394 14.125 11.5843C14.125 12.6291 14.972 13.4762 16.0169 13.4762Z" stroke="#9696A9" stroke-width="1.2" stroke-linecap="round" stroke-linejoin="round"/>
<path d="M9.8372 9.64853C10.8821 9.64853 11.7291 8.8015 11.7291 7.75664C11.7291 6.71177 10.8821 5.86475 9.8372 5.86475C8.79234 5.86475 7.94531 6.71177 7.94531 7.75664C7.94531 8.8015 8.79234 9.64853 9.8372 9.64853Z" stroke="#9696A9" stroke-width="1.2" stroke-linecap="round" stroke-linejoin="round"/>
<path d="M6.24248 17.7569C7.28734 17.7569 8.13437 16.9099 8.13437 15.865C8.13437 14.8202 7.28734 13.9731 6.24248 13.9731C5.19761 13.9731 4.35059 14.8202 4.35059 15.865C4.35059 16.9099 5.19761 17.7569 6.24248 17.7569Z" stroke="#9696A9" stroke-width="1.2" stroke-linecap="round" stroke-linejoin="round"/>
<path d="M7.01172 14.136L9.07118 9.48735M14.4117 10.5901L11.4442 8.75221M18.3577 6.24951L16.8009 9.86573" stroke="#9696A9" stroke-width="1.2" stroke-linecap="round" stroke-linejoin="round"/>
</svg>
