<svg width="32" height="32" viewBox="0 0 32 32" fill="none" xmlns="http://www.w3.org/2000/svg">
<rect y="0.00439453" width="31.9955" height="31.9955" rx="4" fill="white"/>
<rect x="0.800112" y="0.804282" width="30.3955" height="30.3955" rx="3.2" stroke="#375BD2" stroke-opacity="0.19" stroke-width="1.6"/>
<path d="M7.42773 21.2962C9.21127 21.3993 10.7709 20.971 12.2919 19.8367C10.7554 19.567 9.68997 18.8451 9.1109 17.3539C9.55871 17.2904 9.95248 17.4094 10.4157 17.219C8.90244 16.5368 7.92187 15.5136 7.88327 13.7447C8.36197 13.7843 8.72485 14.1096 9.2962 14.062C7.90644 12.6659 7.48178 11.1429 8.35424 9.29468C9.80578 11.0081 11.5044 12.1741 13.5813 12.7214C13.6971 12.7531 13.8052 12.7849 13.921 12.8087C14.4538 12.9356 15.0869 13.2053 15.4112 13.1656C15.9671 13.0942 15.4112 12.4359 15.5501 11.5792C15.9902 8.91393 18.847 7.7003 20.9625 9.26295C21.5802 9.72302 22.0666 9.71509 22.6765 9.43746C22.9931 9.29468 23.3174 9.1519 23.6957 8.98532C23.6108 9.74682 23.0394 10.1672 22.5839 10.7304C23.1012 10.8494 23.5181 10.6987 23.9968 10.54C23.8347 11.0874 23.4332 11.3967 23.0703 11.6982C22.692 12.0075 22.5453 12.3327 22.5298 12.8404C22.2982 20.5268 13.7975 26.468 7.98365 21.7404C7.42002 21.2803 7.9682 21.7404 7.42773 21.2962Z" fill="#375BD2"/>
</svg>
