<svg width="36" height="36" viewBox="0 0 36 36" fill="none" xmlns="http://www.w3.org/2000/svg">
<path d="M30.375 28.7843L28.125 26.5343V23.625H25.875V27.4657L28.7843 30.375L30.375 28.7843Z" fill="#375BD2" fill-opacity="0.8"/>
<path d="M27 34.8751C25.4425 34.8751 23.9199 34.4133 22.6249 33.5479C21.3298 32.6826 20.3205 31.4527 19.7244 30.0137C19.1284 28.5748 18.9725 26.9914 19.2763 25.4638C19.5802 23.9362 20.3302 22.533 21.4315 21.4317C22.5329 20.3303 23.9361 19.5803 25.4637 19.2764C26.9913 18.9726 28.5747 19.1285 30.0136 19.7246C31.4526 20.3206 32.6825 21.33 33.5478 22.625C34.4131 23.92 34.875 25.4426 34.875 27.0001C34.8726 29.088 34.0422 31.0896 32.5658 32.566C31.0895 34.0423 29.0878 34.8727 27 34.8751ZM27 21.3751C25.8875 21.3751 24.7999 21.705 23.8749 22.3231C22.9499 22.9412 22.2289 23.8197 21.8032 24.8475C21.3774 25.8754 21.266 27.0064 21.4831 28.0975C21.7001 29.1886 22.2359 30.1909 23.0225 30.9776C23.8092 31.7643 24.8115 32.3 25.9026 32.517C26.9938 32.7341 28.1248 32.6227 29.1526 32.1969C30.1804 31.7712 31.0589 31.0502 31.677 30.1252C32.2951 29.2002 32.625 28.1126 32.625 27.0001C32.6235 25.5087 32.0304 24.0789 30.9758 23.0243C29.9213 21.9697 28.4914 21.3766 27 21.3751ZM18 31.5001C14.4208 31.4962 10.9892 30.0727 8.45833 27.5418C5.92743 25.0109 4.50387 21.5793 4.5 18.0001H2.25C2.25476 22.1758 3.91566 26.1791 6.86833 29.1318C9.821 32.0845 13.8243 33.7454 18 33.7501V31.5001ZM13.5 9.00012H7.96275C9.78323 6.96185 12.1802 5.52496 14.8358 4.87991C17.4915 4.23486 20.2805 4.41212 22.8332 5.38818C25.3858 6.36424 27.5815 8.09302 29.1293 10.3454C30.6771 12.5977 31.5039 15.2672 31.5 18.0001H33.75C33.7549 14.869 32.8251 11.8077 31.0794 9.20831C29.3338 6.60894 26.8519 4.58987 23.9517 3.40973C21.0515 2.22958 17.865 1.94211 14.8004 2.58412C11.7358 3.22613 8.93267 4.7684 6.75 7.01337V2.25012H4.5V11.2501H13.5V9.00012Z" fill="#375BD2" fill-opacity="0.8"/>
</svg>
