<svg width="14" height="17" viewBox="0 0 14 17" fill="none" xmlns="http://www.w3.org/2000/svg">
<path d="M9.177 0.834872C9.01691 0.705064 8.83178 0.609643 8.63317 0.55456C8.43456 0.499478 8.22673 0.485917 8.02264 0.514723C7.81856 0.543529 7.6226 0.614085 7.447 0.721987C7.27139 0.82989 7.11991 0.972824 7.002 1.14187L3.96 5.49887H5.18L7.82 1.71387C7.85933 1.6574 7.90989 1.60965 7.96852 1.57362C8.02716 1.53759 8.0926 1.51405 8.16075 1.50447C8.2289 1.4949 8.29829 1.49949 8.36458 1.51797C8.43087 1.53645 8.49263 1.56842 8.546 1.61187L9.354 2.26787L7.12 5.49887H8.336L10.132 2.89887L11.816 4.26587C11.9141 4.34564 11.9784 4.45963 11.9958 4.58488C12.0133 4.71012 11.9826 4.83733 11.91 4.94087L11.52 5.49887H12.74C12.952 5.18803 13.0395 4.80884 12.985 4.43653C12.9306 4.06422 12.7382 3.72597 12.446 3.48887L9.176 0.834872H9.177ZM1.5 4.49987C1.10218 4.49987 0.720644 4.65791 0.43934 4.93921C0.158035 5.22052 0 5.60205 0 5.99987V13.9999C0 14.6629 0.263392 15.2988 0.732233 15.7676C1.20107 16.2365 1.83696 16.4999 2.5 16.4999H12C12.5304 16.4999 13.0391 16.2892 13.4142 15.9141C13.7893 15.539 14 15.0303 14 14.4999V8.49987C14 7.96944 13.7893 7.46073 13.4142 7.08566C13.0391 6.71059 12.5304 6.49987 12 6.49987H1.5C1.36739 6.49987 1.24021 6.44719 1.14645 6.35343C1.05268 6.25966 1 6.13248 1 5.99987C1 5.86726 1.05268 5.74009 1.14645 5.64632C1.24021 5.55255 1.36739 5.49987 1.5 5.49987H2.969L3.669 4.49987H1.5ZM10.5 11.4999H11.5C11.6326 11.4999 11.7598 11.5526 11.8536 11.6463C11.9473 11.7401 12 11.8673 12 11.9999C12 12.1325 11.9473 12.2597 11.8536 12.3534C11.7598 12.4472 11.6326 12.4999 11.5 12.4999H10.5C10.3674 12.4999 10.2402 12.4472 10.1464 12.3534C10.0527 12.2597 10 12.1325 10 11.9999C10 11.8673 10.0527 11.7401 10.1464 11.6463C10.2402 11.5526 10.3674 11.4999 10.5 11.4999Z" fill="#6F6F92"/>
</svg>
