<svg width="28" height="32" viewBox="0 0 28 32" fill="none" xmlns="http://www.w3.org/2000/svg">
<path d="M14.004 1.28399C14.2398 0.945892 14.5428 0.660024 14.894 0.444219C15.2452 0.228413 15.6371 0.0873024 16.0453 0.0296898C16.4535 -0.0279228 16.8691 -0.00080061 17.2663 0.109364C17.6636 0.219529 18.0338 0.410373 18.354 0.669987L24.894 5.97999C25.4784 6.45418 25.8631 7.13068 25.9721 7.8753C26.081 8.61993 25.9061 9.37829 25.482 9.99999H23.042L23.822 8.88199C23.9672 8.6749 24.0285 8.42049 23.9936 8.17C23.9587 7.9195 23.8302 7.69153 23.634 7.53199L20.266 4.79999L16.674 9.99999H14.24L18.708 3.53599L17.092 2.22399C16.9853 2.13742 16.8619 2.07376 16.7295 2.03698C16.5972 2.00021 16.4586 1.99111 16.3226 2.01025C16.1865 2.02939 16.0559 2.07636 15.9388 2.14824C15.8217 2.22011 15.7207 2.31534 15.642 2.42799L10.36 9.99799H7.92L14.004 1.28399ZM21 22C20.7348 22 20.4804 22.1053 20.2929 22.2929C20.1054 22.4804 20 22.7348 20 23C20 23.2652 20.1054 23.5196 20.2929 23.7071C20.4804 23.8946 20.7348 24 21 24H23C23.2652 24 23.5196 23.8946 23.7071 23.7071C23.8946 23.5196 24 23.2652 24 23C24 22.7348 23.8946 22.4804 23.7071 22.2929C23.5196 22.1053 23.2652 22 23 22H21ZM3 7.99999H7.338L5.938 9.99999H3C2.73478 9.99999 2.48043 10.1053 2.29289 10.2929C2.10536 10.4804 2 10.7348 2 11C2 11.2652 2.10536 11.5196 2.29289 11.7071C2.48043 11.8946 2.73478 12 3 12H24C25.0609 12 26.0783 12.4214 26.8284 13.1716C27.5786 13.9217 28 14.9391 28 16V28C28 29.0609 27.5786 30.0783 26.8284 30.8284C26.0783 31.5786 25.0609 32 24 32H5C3.67392 32 2.40215 31.4732 1.46447 30.5355C0.526784 29.5978 0 28.3261 0 27V11C0 10.2043 0.316071 9.44127 0.87868 8.87867C1.44129 8.31606 2.20435 7.99999 3 7.99999ZM2 27C2 27.7956 2.31607 28.5587 2.87868 29.1213C3.44129 29.6839 4.20435 30 5 30H24C24.5304 30 25.0391 29.7893 25.4142 29.4142C25.7893 29.0391 26 28.5304 26 28V16C26 15.4696 25.7893 14.9608 25.4142 14.5858C25.0391 14.2107 24.5304 14 24 14H3C2.65 14 2.312 13.94 2 13.83V27Z" fill="#375BD2" fill-opacity="0.8"/>
</svg>
