<svg width="465" height="370" viewBox="0 0 465 370" fill="none" xmlns="http://www.w3.org/2000/svg">
<path d="M127.425 291.433L37.6641 239.615" stroke="#0052FF" stroke-width="1.22" stroke-miterlimit="10"/>
<path d="M234.468 353.24L127.426 291.434" stroke="#0052FF" stroke-width="1.22" stroke-miterlimit="10"/>
<path d="M337.356 293.832L234.467 353.24" stroke="#0052FF" stroke-width="1.22" stroke-miterlimit="10"/>
<path d="M431.164 239.667L337.355 293.832" stroke="#0052FF" stroke-width="1.22" stroke-miterlimit="10"/>
<path d="M328.533 180.449L431.164 239.668" stroke="#0052FF" stroke-width="1.22" stroke-miterlimit="10"/>
<path d="M234.414 126.138L328.533 180.449" stroke="#0052FF" stroke-width="1.22" stroke-miterlimit="10"/>
<path d="M141.414 179.775L234.416 126.138" stroke="#0052FF" stroke-width="1.22" stroke-miterlimit="10"/>
<path d="M37.6641 239.615L141.412 179.775" stroke="#0052FF" stroke-width="1.22" stroke-miterlimit="10"/>
<path d="M182.413 325.386C181.386 325.411 180.369 325.172 179.462 324.69C179.135 324.593 178.849 324.393 178.645 324.12C178.442 323.847 178.332 323.515 178.332 323.175C178.332 322.834 178.442 322.503 178.645 322.23C178.849 321.957 179.135 321.757 179.462 321.659C180.377 321.202 181.387 320.964 182.41 320.964C183.434 320.964 184.443 321.202 185.359 321.659C185.685 321.757 185.972 321.957 186.175 322.23C186.379 322.503 186.489 322.834 186.489 323.175C186.489 323.515 186.379 323.847 186.175 324.12C185.972 324.393 185.685 324.593 185.359 324.69C184.453 325.172 183.439 325.411 182.413 325.386Z" fill="white"/>
<path d="M182.412 321.28C183.38 321.261 184.338 321.488 185.195 321.939C185.469 322.009 185.713 322.169 185.887 322.393C186.061 322.616 186.155 322.892 186.155 323.175C186.155 323.459 186.061 323.734 185.887 323.958C185.713 324.182 185.469 324.341 185.195 324.411C184.329 324.841 183.376 325.065 182.409 325.065C181.443 325.065 180.489 324.841 179.624 324.411C179.349 324.341 179.106 324.182 178.932 323.958C178.758 323.734 178.663 323.459 178.663 323.175C178.663 322.892 178.758 322.616 178.932 322.393C179.106 322.169 179.349 322.009 179.624 321.939C180.482 321.488 181.442 321.261 182.412 321.28ZM182.412 320.643C181.329 320.618 180.258 320.872 179.302 321.381C177.589 322.366 177.589 323.984 179.302 324.97C180.266 325.455 181.33 325.708 182.409 325.708C183.488 325.708 184.552 325.455 185.516 324.97C187.229 323.984 187.229 322.366 185.516 321.381C184.561 320.873 183.493 320.619 182.412 320.643Z" fill="#4D8DFF"/>
<path d="M286.966 325.713C289.393 325.713 291.361 324.575 291.361 323.172C291.361 321.769 289.393 320.632 286.966 320.632C284.538 320.632 282.57 321.769 282.57 323.172C282.57 324.575 284.538 325.713 286.966 325.713Z" fill="white"/>
<path d="M286.966 321.28C287.936 321.262 288.895 321.489 289.754 321.939C290.029 322.009 290.273 322.169 290.447 322.393C290.62 322.616 290.715 322.892 290.715 323.175C290.715 323.459 290.62 323.734 290.447 323.958C290.273 324.182 290.029 324.341 289.754 324.411C288.888 324.841 287.934 325.065 286.966 325.065C285.999 325.065 285.045 324.841 284.178 324.411C283.904 324.341 283.66 324.182 283.486 323.958C283.312 323.734 283.218 323.459 283.218 323.175C283.218 322.892 283.312 322.616 283.486 322.393C283.66 322.169 283.904 322.009 284.178 321.939C285.037 321.488 285.996 321.261 286.966 321.28ZM286.966 320.643C285.884 320.618 284.813 320.872 283.857 321.381C282.149 322.366 282.149 323.984 283.857 324.97C284.822 325.455 285.887 325.708 286.966 325.708C288.046 325.708 289.111 325.455 290.076 324.97C291.784 323.984 291.784 322.366 290.076 321.381C289.119 320.874 288.049 320.62 286.966 320.643Z" fill="url(#paint0_linear_999_1862)"/>
<path d="M181.917 158.741C180.89 158.764 179.874 158.524 178.965 158.045C178.639 157.948 178.353 157.748 178.149 157.475C177.946 157.202 177.836 156.87 177.836 156.53C177.836 156.189 177.946 155.858 178.149 155.585C178.353 155.312 178.639 155.112 178.965 155.014C179.881 154.557 180.891 154.319 181.914 154.319C182.938 154.319 183.947 154.557 184.863 155.014C185.189 155.112 185.476 155.312 185.679 155.585C185.883 155.858 185.992 156.189 185.992 156.53C185.992 156.87 185.883 157.202 185.679 157.475C185.476 157.748 185.189 157.948 184.863 158.045C183.956 158.524 182.942 158.764 181.917 158.741Z" fill="white"/>
<path d="M181.916 154.635C182.886 154.616 183.845 154.843 184.704 155.294C184.978 155.364 185.222 155.523 185.396 155.747C185.57 155.971 185.664 156.246 185.664 156.53C185.664 156.813 185.57 157.088 185.396 157.312C185.222 157.536 184.978 157.696 184.704 157.766C183.837 158.196 182.883 158.419 181.916 158.419C180.948 158.419 179.994 158.196 179.128 157.766C178.853 157.696 178.609 157.536 178.436 157.312C178.262 157.088 178.167 156.813 178.167 156.53C178.167 156.246 178.262 155.971 178.436 155.747C178.609 155.523 178.853 155.364 179.128 155.294C179.986 154.842 180.946 154.616 181.916 154.635ZM181.916 153.997C180.833 153.973 179.762 154.227 178.806 154.735C177.098 155.721 177.098 157.339 178.806 158.324C179.771 158.809 180.836 159.062 181.916 159.062C182.996 159.062 184.06 158.809 185.025 158.324C186.733 157.339 186.733 155.721 185.025 154.735C184.069 154.228 182.998 153.974 181.916 153.997Z" fill="#4D8DFF"/>
<path d="M377.903 211.155C376.877 211.178 375.863 210.939 374.957 210.459C374.653 210.327 374.389 210.117 374.192 209.851C373.995 209.584 373.871 209.271 373.834 208.941C373.834 208.383 374.235 207.845 374.957 207.424C375.872 206.966 376.882 206.728 377.905 206.728C378.929 206.728 379.939 206.966 380.854 207.424C381.183 207.519 381.471 207.719 381.676 207.993C381.882 208.266 381.993 208.599 381.993 208.941C381.993 209.284 381.882 209.616 381.676 209.89C381.471 210.164 381.183 210.364 380.854 210.459C379.946 210.939 378.93 211.178 377.903 211.155Z" fill="white"/>
<path d="M377.902 207.028C378.872 207.007 379.831 207.232 380.69 207.681C380.964 207.753 381.206 207.914 381.378 208.138C381.551 208.362 381.645 208.637 381.645 208.92C381.645 209.203 381.551 209.478 381.378 209.702C381.206 209.926 380.964 210.086 380.69 210.158C379.824 210.588 378.869 210.812 377.902 210.812C376.935 210.812 375.98 210.588 375.114 210.158C374.84 210.086 374.598 209.926 374.426 209.702C374.253 209.478 374.159 209.203 374.159 208.92C374.159 208.637 374.253 208.362 374.426 208.138C374.598 207.914 374.84 207.753 375.114 207.681C375.974 207.232 376.932 207.008 377.902 207.028ZM377.902 206.385C376.819 206.363 375.749 206.619 374.792 207.128C373.085 208.113 373.085 209.726 374.792 210.717C375.757 211.202 376.822 211.455 377.902 211.455C378.982 211.455 380.047 211.202 381.012 210.717C382.719 209.726 382.719 208.113 381.012 207.128C380.056 206.618 378.985 206.362 377.902 206.385Z" fill="#4D8DFF"/>
<path d="M377.902 272.834C376.876 272.858 375.861 272.617 374.956 272.133C374.629 272.036 374.343 271.836 374.14 271.563C373.936 271.29 373.826 270.959 373.826 270.618C373.826 270.278 373.936 269.946 374.14 269.673C374.343 269.4 374.629 269.2 374.956 269.103C375.871 268.645 376.881 268.407 377.904 268.407C378.928 268.407 379.938 268.645 380.853 269.103C381.18 269.2 381.466 269.4 381.669 269.673C381.873 269.946 381.983 270.278 381.983 270.618C381.983 270.959 381.873 271.29 381.669 271.563C381.466 271.836 381.18 272.036 380.853 272.133C379.946 272.617 378.93 272.858 377.902 272.834Z" fill="white"/>
<path d="M377.902 268.729C378.872 268.708 379.831 268.933 380.69 269.382C380.964 269.454 381.206 269.615 381.378 269.839C381.551 270.063 381.645 270.338 381.645 270.621C381.645 270.904 381.551 271.179 381.378 271.403C381.206 271.627 380.964 271.787 380.69 271.859C379.824 272.289 378.869 272.513 377.902 272.513C376.935 272.513 375.98 272.289 375.114 271.859C374.84 271.787 374.598 271.627 374.426 271.403C374.253 271.179 374.159 270.904 374.159 270.621C374.159 270.338 374.253 270.063 374.426 269.839C374.598 269.615 374.84 269.454 375.114 269.382C375.974 268.933 376.932 268.709 377.902 268.729ZM377.902 268.086C376.82 268.065 375.75 268.319 374.792 268.824C373.085 269.809 373.085 271.427 374.792 272.413C375.756 272.903 376.821 273.159 377.902 273.159C378.983 273.159 380.048 272.903 381.012 272.413C382.719 271.427 382.719 269.809 381.012 268.824C380.054 268.319 378.984 268.065 377.902 268.086Z" fill="#4D8DFF"/>
<path d="M91.2578 211.155C90.2308 211.178 89.2149 210.939 88.3064 210.459C87.978 210.364 87.6895 210.164 87.4842 209.89C87.2789 209.616 87.168 209.284 87.168 208.941C87.168 208.599 87.2789 208.266 87.4842 207.993C87.6895 207.719 87.978 207.519 88.3064 207.424C89.2221 206.966 90.2316 206.728 91.2552 206.728C92.2788 206.728 93.2883 206.966 94.204 207.424C94.926 207.845 95.3266 208.383 95.3266 208.941C95.2893 209.271 95.1658 209.584 94.9688 209.851C94.7717 210.117 94.5079 210.327 94.204 210.459C93.2973 210.939 92.2831 211.178 91.2578 211.155Z" fill="white"/>
<path d="M91.2594 207.028C92.2289 207.008 93.1878 207.232 94.0475 207.681C94.3211 207.753 94.5631 207.914 94.7358 208.138C94.9086 208.362 95.0022 208.637 95.0022 208.92C95.0022 209.203 94.9086 209.478 94.7358 209.702C94.5631 209.926 94.3211 210.086 94.0475 210.158C93.181 210.588 92.2267 210.812 91.2594 210.812C90.2921 210.812 89.3378 210.588 88.4713 210.158C88.1977 210.086 87.9557 209.926 87.783 209.702C87.6102 209.478 87.5166 209.203 87.5166 208.92C87.5166 208.637 87.6102 208.362 87.783 208.138C87.9557 207.914 88.1977 207.753 88.4713 207.681C89.3307 207.232 90.2898 207.007 91.2594 207.028ZM91.2594 206.385C90.1764 206.362 89.1056 206.618 88.1499 207.128C86.4422 208.113 86.4422 209.726 88.1499 210.717C89.1146 211.202 90.1795 211.455 91.2594 211.455C92.3393 211.455 93.4042 211.202 94.3689 210.717C96.0766 209.726 96.0766 208.113 94.3689 207.128C93.4127 206.619 92.3423 206.363 91.2594 206.385Z" fill="#4D8DFF"/>
<path d="M91.2586 272.834C90.2309 272.858 89.2144 272.617 88.3072 272.133C87.9809 272.036 87.6947 271.836 87.4912 271.563C87.2877 271.29 87.1777 270.959 87.1777 270.618C87.1777 270.278 87.2877 269.946 87.4912 269.673C87.6947 269.4 87.9809 269.2 88.3072 269.103C89.2229 268.645 90.2324 268.407 91.256 268.407C92.2796 268.407 93.2891 268.645 94.2048 269.103C94.5311 269.2 94.8173 269.4 95.0208 269.673C95.2243 269.946 95.3343 270.278 95.3343 270.618C95.3343 270.959 95.2243 271.29 95.0208 271.563C94.8173 271.836 94.5311 272.036 94.2048 272.133C93.2996 272.617 92.2847 272.858 91.2586 272.834Z" fill="white"/>
<path d="M91.2594 268.729C92.2289 268.709 93.1878 268.933 94.0475 269.382C94.3211 269.454 94.5631 269.615 94.7358 269.839C94.9086 270.063 95.0022 270.338 95.0022 270.621C95.0022 270.904 94.9086 271.179 94.7358 271.403C94.5631 271.627 94.3211 271.787 94.0475 271.859C93.181 272.289 92.2267 272.513 91.2594 272.513C90.2921 272.513 89.3378 272.289 88.4713 271.859C88.1977 271.787 87.9557 271.627 87.783 271.403C87.6102 271.179 87.5166 270.904 87.5166 270.621C87.5166 270.338 87.6102 270.063 87.783 269.839C87.9557 269.615 88.1977 269.454 88.4713 269.382C89.3307 268.933 90.2898 268.708 91.2594 268.729ZM91.2594 268.086C90.1772 268.065 89.1073 268.319 88.1499 268.824C86.4422 269.809 86.4422 271.427 88.1499 272.413C89.113 272.903 90.1785 273.159 91.2594 273.159C92.3403 273.159 93.4058 272.903 94.3689 272.413C96.0766 271.427 96.0766 269.809 94.3689 268.824C93.4114 268.319 92.3416 268.065 91.2594 268.086Z" fill="#4D8DFF"/>
<path d="M286.482 158.741C285.457 158.764 284.442 158.525 283.536 158.045C283.209 157.948 282.923 157.748 282.72 157.475C282.516 157.202 282.406 156.87 282.406 156.53C282.406 156.189 282.516 155.858 282.72 155.585C282.923 155.312 283.209 155.112 283.536 155.014C284.45 154.557 285.459 154.319 286.482 154.319C287.505 154.319 288.513 154.557 289.428 155.014C289.754 155.112 290.041 155.312 290.244 155.585C290.448 155.858 290.558 156.189 290.558 156.53C290.558 156.87 290.448 157.202 290.244 157.475C290.041 157.748 289.754 157.948 289.428 158.045C288.522 158.525 287.507 158.764 286.482 158.741Z" fill="white"/>
<path d="M286.482 154.635C287.452 154.616 288.411 154.843 289.27 155.294C289.545 155.364 289.788 155.523 289.962 155.747C290.136 155.971 290.23 156.246 290.23 156.53C290.23 156.813 290.136 157.088 289.962 157.312C289.788 157.536 289.545 157.696 289.27 157.766C288.404 158.196 287.449 158.419 286.482 158.419C285.515 158.419 284.56 158.196 283.694 157.766C283.419 157.696 283.176 157.536 283.002 157.312C282.828 157.088 282.734 156.813 282.734 156.53C282.734 156.246 282.828 155.971 283.002 155.747C283.176 155.523 283.419 155.364 283.694 155.294C284.553 154.843 285.512 154.616 286.482 154.635ZM286.482 153.997C285.399 153.973 284.329 154.227 283.373 154.735C281.665 155.721 281.665 157.339 283.373 158.324C284.337 158.809 285.402 159.062 286.482 159.062C287.562 159.062 288.627 158.809 289.592 158.324C291.299 157.339 291.299 155.721 289.592 154.735C288.635 154.227 287.565 153.973 286.482 153.997Z" fill="#4D8DFF"/>
<path d="M332.661 182.853L136.564 296.066" stroke="#4D8DFF" stroke-width="1.38" stroke-miterlimit="10" stroke-dasharray="4.14 2.76"/>
<path d="M136.506 181.356L333.525 295.107" stroke="#4D8DFF" stroke-width="1.4" stroke-miterlimit="10" stroke-dasharray="4.2 2.8"/>
<g opacity="0.5">
<path d="M463.714 242.761C465.132 243.578 465.137 244.906 463.714 245.723L422.694 269.561C421.902 269.964 421.027 270.174 420.138 270.174C419.25 270.174 418.374 269.964 417.582 269.561L376.309 245.723C374.892 244.906 374.886 243.578 376.309 242.761L417.324 218.923C418.117 218.52 418.993 218.311 419.883 218.311C420.772 218.311 421.649 218.52 422.441 218.923L463.714 242.761Z" fill="#182E6B"/>
</g>
<path d="M463.732 236.579L422.744 260.417C421.951 260.82 421.074 261.03 420.185 261.03C419.296 261.03 418.419 260.82 417.626 260.417L376.343 236.579C376.052 236.445 375.8 236.237 375.615 235.975C375.43 235.713 375.318 235.407 375.289 235.087V238.197C375.315 238.518 375.427 238.826 375.612 239.089C375.797 239.352 376.05 239.561 376.343 239.694L417.632 263.527C418.423 263.929 419.299 264.139 420.188 264.139C421.076 264.139 421.952 263.929 422.744 263.527L463.727 239.704C464.017 239.574 464.268 239.368 464.453 239.109C464.639 238.85 464.752 238.546 464.781 238.229V235.119C464.75 235.433 464.637 235.734 464.453 235.99C464.268 236.246 464.02 236.45 463.732 236.579Z" fill="url(#paint1_linear_999_1862)"/>
<path d="M463.721 233.617C465.133 234.434 465.144 235.762 463.721 236.579L422.743 260.417C421.951 260.82 421.074 261.03 420.185 261.03C419.295 261.03 418.419 260.82 417.626 260.417L376.343 236.579C374.925 235.762 374.92 234.434 376.343 233.617L417.357 209.779C418.15 209.376 419.027 209.167 419.916 209.167C420.805 209.167 421.682 209.376 422.475 209.779L463.721 233.617Z" fill="url(#paint2_linear_999_1862)"/>
<g opacity="0.5">
<path d="M88.4666 242.762C89.8843 243.579 89.8896 244.907 88.4666 245.724L47.4891 269.562C46.6963 269.965 45.8196 270.175 44.9303 270.175C44.0411 270.175 43.1644 269.965 42.3715 269.562L1.06726 245.724C-0.350479 244.907 -0.36102 243.579 1.06726 242.762L42.0817 218.924C42.8745 218.521 43.7512 218.311 44.6404 218.311C45.5297 218.311 46.4064 218.521 47.1992 218.924L88.4666 242.762Z" fill="#182E6B"/>
</g>
<path d="M88.4868 236.579L47.4882 260.417C46.6954 260.82 45.8187 261.03 44.9294 261.03C44.0402 261.03 43.1635 260.82 42.3707 260.417L1.07166 236.579C0.779366 236.446 0.52766 236.238 0.342407 235.976C0.157155 235.714 0.0450377 235.407 0.0175781 235.087V238.197C0.0457357 238.517 0.158065 238.824 0.343179 239.087C0.528294 239.35 0.779612 239.559 1.07166 239.694L42.3548 263.527C43.1477 263.929 44.0244 264.139 44.9136 264.139C45.8029 264.139 46.6796 263.929 47.4724 263.527L88.4763 239.704C88.7664 239.573 89.0167 239.367 89.2018 239.108C89.3869 238.849 89.5002 238.546 89.5304 238.229V235.119C89.4991 235.432 89.3863 235.732 89.2032 235.988C89.0201 236.244 88.7731 236.448 88.4868 236.579Z" fill="url(#paint3_linear_999_1862)"/>
<path d="M88.4705 233.617C89.8882 234.434 89.8935 235.762 88.4705 236.579L47.4877 260.417C46.6949 260.82 45.8182 261.03 44.929 261.03C44.0397 261.03 43.163 260.82 42.3702 260.417L1.07117 236.579C-0.346573 235.762 -0.357114 234.434 1.07117 233.617L42.0908 209.779C42.8837 209.376 43.7604 209.167 44.6496 209.167C45.5389 209.167 46.4156 209.376 47.2084 209.779L88.4705 233.617Z" fill="url(#paint4_linear_999_1862)"/>
<g opacity="0.5">
<path d="M340.524 250.994C343.971 252.986 343.981 256.206 340.566 258.193L240.955 316.084C237.535 318.07 231.995 318.07 228.533 316.084L128.268 258.199C124.827 256.206 124.806 252.986 128.226 250.999L227.837 193.109C231.257 191.122 236.823 191.117 240.265 193.109L340.524 250.994Z" fill="#182E6B"/>
</g>
<path d="M353.967 234.16L241.797 299.35C237.95 301.585 231.683 301.585 227.809 299.35L114.901 234.16C112.951 233.038 111.976 231.557 111.981 230.081L111.955 238.593C111.955 240.069 112.925 241.549 114.88 242.677L227.783 307.862C231.657 310.097 237.923 310.097 241.776 307.862L353.946 242.672C355.859 241.56 356.819 240.105 356.819 238.645L356.845 230.134C356.861 231.594 355.881 233.048 353.967 234.16Z" fill="url(#paint5_linear_999_1862)"/>
<path d="M353.926 226.054C357.805 228.294 357.821 231.926 353.968 234.16L241.798 299.35C237.95 301.585 231.684 301.585 227.81 299.35L114.902 234.166C111.023 231.926 111.002 228.294 114.854 226.054L227.025 160.87C230.877 158.635 237.144 158.63 241.023 160.87L353.926 226.054Z" fill="url(#paint6_linear_999_1862)"/>
<g opacity="0.49">
<path d="M321.023 242.898C323.832 244.522 323.848 247.152 321.055 248.775L239.753 296.029C236.965 297.648 232.422 297.648 229.613 296.029L147.774 248.775C144.959 247.152 144.944 244.522 147.737 242.898L229.044 195.649C231.837 194.026 236.38 194.026 239.194 195.649L321.023 242.898Z" fill="#182E6B"/>
</g>
<path d="M331.996 226.755L240.438 279.986C237.276 281.81 232.185 281.81 229.017 279.986L136.864 226.755C135.283 225.838 134.471 224.647 134.477 223.424V230.371C134.477 231.578 135.267 232.785 136.864 233.702L229.023 286.933C232.185 288.756 237.297 288.756 240.444 286.933L332.001 233.702C333.582 232.795 334.341 231.593 334.347 230.418V223.466C334.341 224.658 333.561 225.849 331.996 226.755Z" fill="url(#paint7_linear_999_1862)"/>
<path d="M331.964 220.141C335.126 221.964 335.126 224.926 331.995 226.755L240.438 279.987C237.275 281.81 232.184 281.81 229.017 279.987L136.863 226.755C133.701 224.926 133.701 221.964 136.821 220.141L228.379 166.91C231.541 165.086 236.638 165.081 239.805 166.91L331.964 220.141Z" fill="url(#paint8_linear_999_1862)"/>
<path d="M234.489 370C247.45 370 257.958 363.933 257.958 356.45C257.958 348.966 247.45 342.899 234.489 342.899C221.527 342.899 211.02 348.966 211.02 356.45C211.02 363.933 221.527 370 234.489 370Z" fill="url(#paint9_linear_999_1862)"/>
<path d="M257.932 356.46C257.932 352.987 255.65 349.513 251.081 346.878C241.952 341.608 227.016 341.608 217.877 346.878C213.318 349.513 211.025 352.987 211.025 356.46V346.878C211.025 343.405 213.307 339.932 217.877 337.297C227.005 332.026 241.942 332.026 251.081 337.297C255.645 339.932 257.932 343.405 257.932 346.878V356.46Z" fill="url(#paint10_linear_999_1862)"/>
<path d="M234.489 360.418C247.45 360.418 257.958 354.351 257.958 346.868C257.958 339.384 247.45 333.317 234.489 333.317C221.527 333.317 211.02 339.384 211.02 346.868C211.02 354.351 221.527 360.418 234.489 360.418Z" fill="url(#paint11_linear_999_1862)"/>
<path d="M234.488 357.003C244.21 357.003 252.091 352.465 252.091 346.868C252.091 341.271 244.21 336.733 234.488 336.733C224.766 336.733 216.885 341.271 216.885 346.868C216.885 352.465 224.766 357.003 234.488 357.003Z" fill="#00398C"/>
<path d="M246.937 340.802C240.085 337.466 228.886 337.466 222.045 340.802C215.204 344.138 215.193 350.094 222.045 354.031C228.896 357.968 240.091 357.973 246.937 354.031C253.783 350.088 253.778 344.138 246.937 340.802Z" fill="white"/>
<path d="M257.932 356.45C257.932 359.918 255.65 363.391 251.081 366.026C241.952 371.297 227.016 371.297 217.877 366.026C213.318 363.391 211.025 359.918 211.025 356.45V346.868C211.025 350.341 213.307 353.815 217.877 356.45C227.005 361.72 241.942 361.72 251.081 356.45C255.645 353.815 257.932 350.341 257.932 346.868V356.45Z" fill="url(#paint12_linear_999_1862)"/>
<g filter="url(#filter0_d_999_1862)">
<path d="M194.729 193.52L189.395 196.682C188.498 197.211 187.754 197.966 187.239 198.872C186.725 199.778 186.456 200.803 186.461 201.845C186.466 202.887 186.744 203.909 187.267 204.81C187.79 205.712 188.54 206.46 189.443 206.98L254.733 244.659C255.627 245.174 256.639 245.449 257.671 245.456C258.702 245.464 259.719 245.204 260.62 244.701L266.096 241.639C267.016 241.126 267.783 240.378 268.32 239.472C268.857 238.565 269.143 237.533 269.151 236.479C269.158 235.426 268.886 234.39 268.363 233.476C267.839 232.562 267.082 231.803 266.169 231.277L200.732 193.493C199.818 192.968 198.781 192.694 197.727 192.698C196.673 192.703 195.638 192.986 194.729 193.52Z" fill="#00398C"/>
</g>
<path d="M261.568 243.215L198.139 206.596C190.982 202.464 185.184 191.38 185.184 181.825V12.9186C185.184 8.06986 181.194 6.9947 183.603 5.25019C183.698 5.18694 193.285 0.886287 193.39 0.849394C195.988 -0.146715 198.771 -0.5947 202.15 1.37644L265.579 38.0006C272.731 42.1326 278.534 53.211 278.534 62.7715V231.652C278.534 236.722 276.895 240.337 274.286 241.987C274.133 242.087 263.402 247.046 263.218 247.104C260.941 247.874 264.694 245.023 261.568 243.215Z" fill="#0052FF"/>
<path d="M261.568 243.214L198.139 206.596C190.982 202.464 185.184 191.38 185.184 181.825V12.9183C185.184 8.06951 181.194 6.99434 183.603 5.24983C183.698 5.18659 193.127 0.943904 193.232 0.907011C195.83 -0.0890977 198.613 -0.537083 201.992 1.43405L265.421 38.0582C272.578 42.1902 278.376 53.2686 278.376 62.8291V231.709C278.376 236.779 276.742 240.395 274.133 242.044C273.975 242.145 263.402 247.046 263.234 247.104C260.941 247.874 264.694 245.022 261.568 243.214Z" fill="url(#paint13_linear_999_1862)"/>
<path d="M261.568 243.215L198.139 206.596C190.982 202.464 185.184 191.381 185.184 181.825V12.9189C185.184 8.07012 181.194 6.99496 183.603 5.25045C183.698 5.1872 192.969 1.0025 193.09 0.965605C195.693 -0.030504 198.476 -0.47849 201.849 1.49265L265.279 38.1168C272.436 42.2488 278.239 53.3272 278.239 62.8877V231.768C278.239 236.838 276.6 240.453 273.991 242.103C273.838 242.203 263.418 247.047 263.25 247.105C260.941 247.874 264.694 245.023 261.568 243.215Z" fill="url(#paint14_linear_999_1862)"/>
<path d="M261.568 243.214L198.139 206.596C190.982 202.464 185.184 191.38 185.184 181.825V12.9183C185.184 8.06949 181.194 6.99432 183.603 5.24981C183.698 5.18657 192.816 1.03348 192.921 1.03348C195.519 0.0373671 198.302 -0.410618 201.681 1.56052L265.11 38.1847C272.262 42.3167 278.065 53.3951 278.065 62.9556V231.825C278.065 236.895 276.426 240.511 273.817 242.16C273.664 242.26 263.402 247.046 263.234 247.104C260.941 247.873 264.694 245.022 261.568 243.214Z" fill="url(#paint15_linear_999_1862)"/>
<path d="M261.568 243.215L198.139 206.596C190.982 202.464 185.184 191.38 185.184 181.825V12.9187C185.184 8.0699 181.194 6.99473 183.603 5.25022C183.698 5.18698 192.658 1.11822 192.763 1.08133C195.361 0.0852187 198.144 -0.362767 201.522 1.60837L264.952 38.2325C272.109 42.3645 277.907 53.4429 277.907 63.0035V231.883C277.907 236.954 276.273 240.569 273.664 242.219C273.506 242.319 263.402 247.046 263.234 247.104C260.941 247.874 264.694 245.023 261.568 243.215Z" fill="url(#paint16_linear_999_1862)"/>
<path d="M261.568 243.214L198.139 206.596C190.982 202.464 185.184 191.38 185.184 181.825V12.9183C185.184 8.06954 181.194 6.99437 183.603 5.24986C183.698 5.18662 192.499 1.17584 192.605 1.13894C195.208 0.142836 197.991 -0.30515 201.364 1.66599L264.799 38.269C271.956 42.401 277.759 53.4795 277.759 63.04V231.941C277.759 237.011 276.12 240.627 273.511 242.276C273.358 242.377 263.408 247.02 263.239 247.104C260.941 247.874 264.694 245.022 261.568 243.214Z" fill="url(#paint17_linear_999_1862)"/>
<path d="M261.568 243.215L198.139 206.596C190.982 202.464 185.184 191.38 185.184 181.825V12.9185C185.184 8.06967 181.194 6.9945 183.603 5.24999C183.698 5.18675 192.347 1.23394 192.452 1.19705C195.05 0.200941 197.833 -0.247044 201.211 1.72409L264.63 38.3271C271.782 42.4592 277.585 53.5376 277.585 63.0981V231.999C277.585 237.069 275.946 240.685 273.337 242.334C273.184 242.435 263.392 247.046 263.223 247.078C260.941 247.874 264.694 245.022 261.568 243.215Z" fill="url(#paint18_linear_999_1862)"/>
<path d="M261.568 243.215L198.139 206.596C190.982 202.464 185.184 191.38 185.184 181.825V12.9186C185.184 8.0698 181.194 6.99463 183.603 5.25013C183.698 5.18688 192.189 1.29205 192.294 1.25516C194.892 0.259047 197.675 -0.188939 201.053 1.7822L264.488 38.3747C271.645 42.5067 277.443 53.5851 277.443 63.1457V232.057C277.443 237.127 275.809 240.743 273.226 242.393C273.068 242.493 263.434 247.046 263.265 247.104C260.941 247.874 264.694 245.023 261.568 243.215Z" fill="url(#paint19_linear_999_1862)"/>
<path d="M261.568 243.214L198.139 206.596C190.982 202.464 185.184 191.38 185.184 181.825V12.9182C185.184 8.06945 181.194 6.99428 183.603 5.24978C183.698 5.18653 192.036 1.34967 192.136 1.31277C194.739 0.316664 197.522 -0.131322 200.895 1.83981L264.325 38.464C271.482 42.5907 277.279 53.6586 277.279 63.1928V232.115C277.279 237.185 275.64 240.801 273.031 242.45C272.879 242.55 263.397 247.046 263.229 247.104C260.941 247.873 264.694 245.022 261.568 243.214Z" fill="url(#paint20_linear_999_1862)"/>
<path d="M261.568 243.215L198.139 206.596C190.982 202.464 185.184 191.38 185.184 181.825V12.9184C185.184 8.06958 181.194 6.99441 183.603 5.24991C183.698 5.18666 191.878 1.40777 191.983 1.37088C194.581 0.374769 197.364 -0.073216 200.742 1.89792L264.172 38.5221C271.324 42.6541 277.127 53.7325 277.127 63.293V232.173C277.127 237.243 275.487 240.859 272.879 242.508C272.726 242.608 263.392 247.046 263.234 247.104C260.941 247.874 264.694 245.022 261.568 243.215Z" fill="url(#paint21_linear_999_1862)"/>
<path d="M261.568 243.215L198.139 206.596C190.982 202.464 185.184 191.38 185.184 181.825V12.9185C185.184 8.06971 181.194 6.99455 183.603 5.25004C183.698 5.18679 191.719 1.46588 191.825 1.42898C194.423 0.432875 197.206 -0.0151107 200.584 1.95603L264.014 38.5802C271.171 42.7122 276.968 53.7906 276.968 63.3511V232.231C276.968 237.301 275.335 240.917 272.752 242.566C272.594 242.667 263.429 247.046 263.265 247.104C260.941 247.874 264.694 245.022 261.568 243.215Z" fill="url(#paint22_linear_999_1862)"/>
<path d="M261.568 243.215L198.139 206.596C190.982 202.464 185.184 191.38 185.184 181.825V12.9186C185.184 8.06984 181.194 6.99468 183.603 5.25017C183.698 5.18692 191.561 1.52398 191.667 1.48709C194.27 0.49098 197.053 0.0429949 200.426 2.01413L263.861 38.6383C271.013 42.7703 276.816 53.8487 276.816 63.4092V232.289C276.816 237.359 275.177 240.975 272.568 242.625C272.415 242.725 263.402 247.046 263.234 247.104C260.941 247.874 264.694 245.023 261.568 243.215Z" fill="url(#paint23_linear_999_1862)"/>
<path d="M261.568 243.215L198.139 206.596C190.982 202.464 185.184 191.38 185.184 181.825V12.9186C185.184 8.06979 181.194 6.99462 183.603 5.25011C183.698 5.18687 191.409 1.56082 191.509 1.56082C194.107 0.564711 196.89 0.116725 200.268 2.08786L263.698 38.712C270.85 42.844 276.652 53.9224 276.652 63.483V232.326C276.652 237.396 275.013 241.012 272.404 242.661C272.251 242.761 263.397 247.025 263.229 247.083C260.941 247.874 264.694 245.022 261.568 243.215Z" fill="url(#paint24_linear_999_1862)"/>
<path d="M261.568 243.215L198.139 206.596C190.982 202.464 185.184 191.38 185.184 181.825V12.9184C185.184 8.06961 181.194 6.99445 183.603 5.24994C183.698 5.18669 191.25 1.6397 191.356 1.60281C193.954 0.606703 196.737 0.158718 200.115 2.12985L263.576 38.7329C270.734 42.8649 276.531 53.9433 276.531 63.5039V232.405C276.531 237.475 274.897 241.091 272.315 242.74C272.157 242.84 263.46 247.046 263.292 247.104C260.941 247.874 264.694 245.022 261.568 243.215Z" fill="url(#paint25_linear_999_1862)"/>
<path d="M261.568 243.215L198.139 206.596C190.982 202.464 185.184 191.38 185.184 181.825V12.9185C185.184 8.06975 181.194 6.99458 183.603 5.25007C183.698 5.18683 191.092 1.69781 191.198 1.66092C193.801 0.664809 196.584 0.216823 199.957 2.18796L263.392 38.8121C270.544 42.9441 276.347 54.0225 276.347 63.5831V232.463C276.347 237.533 274.707 241.149 272.099 242.798C271.946 242.898 263.402 247.046 263.234 247.104C260.941 247.874 264.694 245.022 261.568 243.215Z" fill="url(#paint26_linear_999_1862)"/>
<path d="M261.568 243.215L198.139 206.596C190.982 202.464 185.184 191.38 185.184 181.825V12.9187C185.184 8.06988 181.194 6.99471 183.603 5.2502C183.698 5.18696 190.939 1.75592 191.045 1.71902C193.643 0.722914 196.426 0.274928 199.804 2.24606L263.239 38.8491C270.391 42.9811 276.194 54.0595 276.194 63.6201V232.521C276.194 237.591 274.555 241.207 271.946 242.856C271.793 242.957 263.408 247.046 263.239 247.104C260.941 247.874 264.694 245.023 261.568 243.215Z" fill="url(#paint27_linear_999_1862)"/>
<path d="M261.568 243.214L198.139 206.596C190.982 202.464 185.184 191.38 185.184 181.825V12.9183C185.184 8.06952 181.194 6.99435 183.603 5.24984C183.698 5.1866 190.781 1.81353 190.887 1.77664C193.485 0.780531 196.268 0.332546 199.646 2.30368L263.081 38.9015C270.238 43.0335 276.036 54.1119 276.036 63.6724V232.579C276.036 237.649 274.402 241.264 271.819 242.914C271.661 243.014 263.434 247.046 263.265 247.104C260.941 247.874 264.694 245.022 261.568 243.214Z" fill="url(#paint28_linear_999_1862)"/>
<path d="M261.568 243.215L198.139 206.596C190.982 202.464 185.184 191.38 185.184 181.825V12.9185C185.184 8.0697 181.194 6.99453 183.603 5.25002C183.698 5.18678 190.623 1.87169 190.729 1.8348C193.332 0.833416 196.115 0.390701 199.493 2.36184L262.923 38.986C270.075 43.118 275.878 54.1964 275.878 63.7569V232.637C275.878 237.707 274.238 241.323 271.63 242.972C271.477 243.072 263.402 247.046 263.234 247.104C260.941 247.874 264.694 245.022 261.568 243.215Z" fill="url(#paint29_linear_999_1862)"/>
<path d="M261.568 243.215L198.139 206.596C190.982 202.464 185.184 191.38 185.184 181.825V12.9186C185.184 8.06983 181.194 6.99466 183.603 5.25015C183.698 5.18691 190.455 1.92979 190.576 1.8929C193.174 0.891522 195.957 0.448807 199.335 2.41994L262.765 39.0441C269.917 43.1761 275.719 54.2545 275.719 63.815V232.695C275.719 237.765 274.08 241.381 271.471 243.03C271.319 243.13 263.402 247.046 263.234 247.104C260.941 247.874 264.694 245.023 261.568 243.215Z" fill="url(#paint30_linear_999_1862)"/>
<path d="M261.568 243.215L198.139 206.596C190.982 202.464 185.184 191.38 185.184 181.825V12.9187C185.184 8.06996 181.194 6.99479 183.603 5.25029C183.698 5.18704 190.312 1.9879 190.418 1.95101C193.016 0.949627 195.799 0.506912 199.177 2.47805L262.607 39.1022C269.764 43.2342 275.561 54.3126 275.561 63.8731V232.753C275.561 237.823 273.927 241.439 271.345 243.088C271.187 243.189 263.439 247.047 263.26 247.104C260.941 247.874 264.694 245.023 261.568 243.215Z" fill="url(#paint31_linear_999_1862)"/>
<path d="M261.568 243.215L198.139 206.596C190.982 202.464 185.184 191.38 185.184 181.825V12.9184C185.184 8.0696 181.194 6.99444 183.603 5.24993C183.698 5.18668 190.154 2.04552 190.26 2.00862C192.863 1.00724 195.646 0.564529 199.024 2.53567L262.454 39.1598C269.606 43.2918 275.408 54.3702 275.408 63.9308V232.811C275.408 237.881 273.769 241.496 271.16 243.146C271.008 243.246 263.402 247.046 263.255 247.104C260.941 247.874 264.694 245.022 261.568 243.215Z" fill="url(#paint32_linear_999_1862)"/>
<path d="M261.568 243.215L198.139 206.596C190.982 202.464 185.184 191.38 185.184 181.825V12.9184C185.184 8.06965 181.194 6.99448 183.603 5.24998C183.698 5.18673 190.001 2.08773 190.107 2.08773C192.705 1.08635 195.488 0.643631 198.866 2.61477L262.296 39.2389C269.448 43.3709 275.25 54.4493 275.25 64.0099V232.853C275.25 237.923 273.611 241.539 271.002 243.188C270.85 243.288 263.402 247.03 263.234 247.088C260.941 247.874 264.694 245.022 261.568 243.215Z" fill="url(#paint33_linear_999_1862)"/>
<path d="M255.511 246.077L192.082 209.458C184.924 205.326 179.127 194.242 179.127 184.687V15.7803C179.127 6.24089 184.924 1.8559 192.082 5.98791L255.511 42.591C262.663 46.723 268.466 57.8067 268.466 67.3619V236.284C268.466 245.824 262.663 250.209 255.511 246.077Z" fill="white"/>
<path d="M260.656 246.351C259.058 246.291 257.504 245.813 256.149 244.965L192.72 208.346C185.932 204.425 180.408 193.82 180.408 184.703V15.7805C180.408 9.66679 182.97 5.71924 186.938 5.71924C188.534 5.77781 190.086 6.25395 191.439 7.10009L254.869 43.719C261.657 47.6401 267.18 58.2442 267.18 67.362V236.284C267.18 242.398 264.629 246.351 260.656 246.351Z" fill="url(#paint34_linear_999_1862)"/>
<path d="M183.418 186.858V18.5842C183.418 11.5851 187.671 8.36484 192.905 11.3953L254.669 47.0444C259.939 50.0749 264.155 58.2072 264.155 65.2116V233.48C264.155 240.479 259.897 243.7 254.669 240.669L192.921 205.02C187.682 201.989 183.418 193.852 183.418 186.858Z" fill="#4D8DFF"/>
<path d="M193.637 13.2555C188.689 10.399 184.678 12.6863 184.678 18.3678V188.529C184.678 194.21 188.689 201.125 193.637 203.981L253.952 238.808C258.901 241.665 262.912 239.378 262.912 233.701V63.5353C262.912 57.8591 258.901 50.939 253.952 48.0825L193.637 13.2555Z" fill="url(#paint35_linear_999_1862)"/>
<g filter="url(#filter1_d_999_1862)">
<path d="M249.935 174.315L250.341 174.083C250.678 173.862 250.958 173.566 251.16 173.217C251.361 172.868 251.478 172.477 251.5 172.075V147.752C251.478 147.35 251.361 146.958 251.16 146.61C250.958 146.261 250.678 145.964 250.341 145.744L171.174 99.9965C170.815 99.8121 170.418 99.7158 170.014 99.7158C169.611 99.7158 169.214 99.8121 168.855 99.9965L168.454 100.228C168.117 100.448 167.835 100.744 167.634 101.093C167.432 101.442 167.316 101.834 167.295 102.236V126.559C167.316 126.962 167.432 127.354 167.634 127.702C167.835 128.051 168.117 128.348 168.454 128.567L247.616 174.315C247.975 174.499 248.372 174.595 248.776 174.595C249.179 174.595 249.576 174.499 249.935 174.315Z" fill="url(#paint36_linear_999_1862)"/>
</g>
<path d="M167.307 102.052C167.386 101.446 167.871 101.23 168.456 101.562L247.617 147.314C247.961 147.527 248.244 147.825 248.439 148.178L251.159 146.597C250.963 146.244 250.68 145.946 250.337 145.733L171.175 99.9858C170.816 99.8013 170.419 99.7051 170.016 99.7051C169.612 99.7051 169.215 99.8013 168.856 99.9858L168.456 100.218C168.143 100.422 167.879 100.692 167.68 101.009C167.482 101.325 167.354 101.681 167.307 102.052Z" fill="url(#paint37_linear_999_1862)"/>
<path d="M247.811 174.409C248.149 174.544 248.511 174.604 248.875 174.588C249.238 174.572 249.594 174.479 249.919 174.315L250.325 174.088C250.661 173.866 250.941 173.568 251.141 173.218C251.342 172.869 251.457 172.477 251.479 172.075V147.752C251.466 147.348 251.35 146.954 251.141 146.608L248.422 148.189C248.629 148.536 248.747 148.929 248.764 149.333V173.661C248.78 174.309 248.359 174.62 247.811 174.409Z" fill="url(#paint38_linear_999_1862)"/>
<path d="M236.422 145.68C231.906 143.076 228.248 145.106 228.248 150.213C228.248 155.32 231.911 161.533 236.433 164.09C240.955 166.646 244.618 164.617 244.613 159.557C244.607 154.497 240.939 148.289 236.422 145.68Z" fill="url(#paint39_linear_999_1862)"/>
<g filter="url(#filter2_d_999_1862)">
<path d="M249.935 212.556L250.341 212.33C250.678 212.108 250.958 211.811 251.16 211.461C251.361 211.111 251.478 210.719 251.5 210.316V185.994C251.478 185.591 251.361 185.2 251.16 184.851C250.958 184.503 250.678 184.206 250.341 183.985L171.174 138.238C170.815 138.056 170.417 137.961 170.014 137.961C169.612 137.961 169.214 138.056 168.855 138.238L168.454 138.47C168.117 138.69 167.835 138.986 167.634 139.335C167.432 139.684 167.316 140.076 167.295 140.478V164.801C167.316 165.204 167.432 165.597 167.634 165.947C167.835 166.296 168.116 166.594 168.454 166.814L247.616 212.562C247.976 212.744 248.373 212.839 248.776 212.838C249.179 212.837 249.576 212.74 249.935 212.556Z" fill="url(#paint40_linear_999_1862)"/>
</g>
<path d="M167.307 140.294C167.386 139.693 167.871 139.472 168.456 139.804L247.617 185.556C247.961 185.769 248.244 186.067 248.439 186.421L251.159 184.839C250.965 184.483 250.682 184.184 250.337 183.97L171.175 138.223C170.816 138.041 170.419 137.946 170.016 137.946C169.613 137.946 169.216 138.041 168.856 138.223L168.456 138.455C168.142 138.66 167.877 138.93 167.679 139.248C167.481 139.566 167.354 139.922 167.307 140.294Z" fill="url(#paint41_linear_999_1862)"/>
<path d="M247.811 212.652C248.149 212.785 248.511 212.846 248.874 212.831C249.237 212.816 249.593 212.724 249.919 212.562L250.325 212.33C250.661 212.108 250.941 211.81 251.141 211.461C251.342 211.111 251.457 210.719 251.479 210.317V185.994C251.467 185.592 251.35 185.199 251.141 184.855L248.422 186.437C248.629 186.784 248.747 187.177 248.764 187.58V211.909C248.78 212.552 248.359 212.862 247.811 212.652Z" fill="url(#paint42_linear_999_1862)"/>
<path d="M236.422 183.923C231.906 181.319 228.248 183.348 228.248 188.455C228.248 193.562 231.911 199.776 236.433 202.332C240.955 204.888 244.618 202.859 244.613 197.8C244.607 192.74 240.939 186.532 236.422 183.923Z" fill="url(#paint43_linear_999_1862)"/>
<g filter="url(#filter3_d_999_1862)">
<path d="M249.935 103.348L250.341 103.122C250.678 102.9 250.958 102.602 251.159 102.253C251.361 101.903 251.477 101.511 251.5 101.108V76.7855C251.478 76.3834 251.361 75.9922 251.16 75.6434C250.958 75.2946 250.678 74.998 250.341 74.7774L171.174 29.0302C170.815 28.8457 170.418 28.7495 170.014 28.7495C169.611 28.7495 169.214 28.8457 168.855 29.0302L168.454 29.2621C168.117 29.4817 167.835 29.7781 167.634 30.1271C167.432 30.4761 167.316 30.8677 167.295 31.2701V55.5931C167.316 55.9963 167.432 56.3887 167.634 56.7385C167.835 57.0883 168.116 57.3857 168.454 57.6064L247.616 103.348C247.975 103.533 248.372 103.629 248.776 103.629C249.179 103.629 249.576 103.533 249.935 103.348Z" fill="url(#paint44_linear_999_1862)"/>
</g>
<path d="M167.307 31.0854C167.386 30.4793 167.871 30.2632 168.456 30.5952L247.617 76.3477C247.961 76.5607 248.244 76.8583 248.439 77.2121L251.159 75.631C250.965 75.2747 250.682 74.975 250.337 74.7613L171.175 29.0141C170.816 28.8296 170.419 28.7334 170.016 28.7334C169.612 28.7334 169.215 28.8296 168.856 29.0141L168.456 29.246C168.142 29.4512 167.877 29.722 167.679 30.0395C167.481 30.3571 167.354 30.7139 167.307 31.0854Z" fill="url(#paint45_linear_999_1862)"/>
<path d="M247.811 103.443C248.149 103.577 248.511 103.638 248.875 103.622C249.238 103.606 249.594 103.512 249.919 103.348L250.325 103.122C250.661 102.9 250.941 102.602 251.141 102.252C251.342 101.903 251.457 101.511 251.479 101.108V76.7854C251.467 76.3832 251.35 75.9909 251.141 75.647L248.422 77.2281C248.629 77.5752 248.747 77.9681 248.764 78.3718V102.674C248.78 103.343 248.359 103.654 247.811 103.443Z" fill="url(#paint46_linear_999_1862)"/>
<path d="M236.422 74.7406C231.906 72.137 228.248 74.1661 228.248 79.2731C228.248 84.3802 231.911 90.594 236.433 93.1501C240.955 95.7063 244.618 93.6772 244.613 88.6176C244.607 83.558 240.939 77.3231 236.422 74.7406Z" fill="url(#paint47_linear_999_1862)"/>
<g filter="url(#filter4_d_999_1862)">
<path d="M239.095 131.592L239.495 131.361C239.834 131.14 240.115 130.843 240.317 130.493C240.518 130.143 240.634 129.751 240.655 129.347V105.024C240.633 104.622 240.517 104.23 240.316 103.881C240.114 103.532 239.833 103.236 239.495 103.016L160.334 57.2691C159.973 57.087 159.575 56.9922 159.171 56.9922C158.768 56.9922 158.37 57.087 158.009 57.2691L157.609 57.501C157.271 57.7206 156.99 58.017 156.788 58.3659C156.587 58.7149 156.471 59.1066 156.449 59.509V83.832C156.47 84.2353 156.585 84.628 156.787 84.978C156.989 85.3279 157.27 85.6251 157.609 85.8453L236.77 131.592C237.131 131.775 237.529 131.869 237.933 131.869C238.336 131.869 238.734 131.775 239.095 131.592Z" fill="url(#paint48_linear_999_1862)"/>
</g>
<path d="M156.459 59.3242C156.538 58.7234 157.023 58.502 157.608 58.8393L236.775 104.592C237.117 104.803 237.398 105.099 237.592 105.451L240.311 103.87C240.116 103.515 239.833 103.215 239.489 103L160.333 57.253C159.972 57.0709 159.574 56.9761 159.171 56.9761C158.767 56.9761 158.369 57.0709 158.008 57.253L157.608 57.4849C157.295 57.6906 157.031 57.9615 156.832 58.2789C156.634 58.5964 156.507 58.953 156.459 59.3242Z" fill="url(#paint49_linear_999_1862)"/>
<path d="M236.971 131.661C237.309 131.796 237.671 131.858 238.034 131.842C238.398 131.827 238.754 131.735 239.079 131.572L239.485 131.34C239.823 131.12 240.105 130.822 240.306 130.473C240.508 130.123 240.624 129.73 240.644 129.327V105.03C240.631 104.625 240.513 104.231 240.302 103.886L237.582 105.467C237.791 105.814 237.908 106.207 237.925 106.611V130.923C237.935 131.588 237.514 131.893 236.971 131.661Z" fill="url(#paint50_linear_999_1862)"/>
<path d="M225.577 102.958C221.065 100.323 217.402 102.378 217.402 107.486C217.402 112.593 221.092 118.806 225.587 121.363C230.083 123.919 233.772 121.89 233.772 116.83C233.772 111.77 230.093 105.562 225.577 102.958Z" fill="#F5F5F5"/>
<path d="M223.069 116.171C222.989 116.194 222.904 116.192 222.825 116.165C222.746 116.139 222.677 116.09 222.626 116.024L221.53 114.269C221.382 114.026 221.577 113.604 221.967 113.32C222.357 113.035 222.789 112.993 222.932 113.236L223.701 114.479L229.235 109.172C229.583 108.84 230.047 108.713 230.289 108.882C230.532 109.051 230.421 109.457 230.078 109.783L223.754 115.839C223.578 116.017 223.355 116.139 223.111 116.192L223.069 116.171Z" fill="url(#paint51_linear_999_1862)"/>
<path d="M178.137 39.9134C173.621 37.3046 169.963 39.3337 169.963 44.4407C169.963 49.5478 173.626 55.7668 178.148 58.3177C182.67 60.8686 186.328 58.8448 186.328 53.7852C186.328 48.7256 182.654 42.5223 178.137 39.9134Z" fill="#627EEA"/>
<path d="M177.305 42.9858L177.6 47.8504L181.4 51.5397L177.305 42.9858Z" fill="white" fill-opacity="0.6"/>
<path d="M177.304 42.9858L174.031 47.861H177.599L177.304 42.9858Z" fill="white"/>
<path d="M177.906 52.8314L178.112 56.136L181.448 52.2886L177.906 52.8314Z" fill="white" fill-opacity="0.6"/>
<path d="M178.11 56.1361L177.904 52.8316L174.078 48.6152L178.11 56.1361Z" fill="white"/>
<path d="M177.864 52.0777L181.4 51.5506L177.605 47.8613L177.864 52.0777Z" fill="white" fill-opacity="0.2"/>
<path d="M174.031 47.8613L177.863 52.0777L177.605 47.8613H174.031Z" fill="white" fill-opacity="0.6"/>
<path d="M166.405 68.6319C161.888 65.9967 158.23 68.0522 158.23 73.1645C158.23 78.2768 161.893 84.4853 166.415 87.0362C170.937 89.5871 174.6 87.5633 174.595 82.5037C174.59 77.4441 170.922 71.2408 166.405 68.6319Z" fill="#F0B90B"/>
<path d="M163.502 76.0476L164.783 75.1885L165.052 75.0041L165.695 74.5772L168.241 78.3613L169.505 77.5022L165.484 71.5098L162.021 73.834L163.502 76.0476Z" fill="white"/>
<path d="M165.849 76.7721L164.572 77.6309L166.058 79.8395L167.335 78.9807L165.849 76.7721Z" fill="white"/>
<path d="M168.387 80.5538L166.205 82.0243L165.309 80.6961L165.146 80.4484L163.649 78.2349L162.379 79.0887L166.416 85.0864L169.868 82.7569L168.387 80.5538Z" fill="white"/>
<path d="M161.111 74.4605L159.834 75.3193L161.319 77.528L162.596 76.6692L161.111 74.4605Z" fill="white"/>
<path d="M170.576 79.0899L169.299 79.9487L170.784 82.1573L172.061 81.2985L170.576 79.0899Z" fill="white"/>
<path d="M178.137 111.265C173.621 108.656 169.963 110.685 169.963 115.792C169.963 120.899 173.626 127.118 178.148 129.669C182.67 132.22 186.328 130.196 186.328 125.136C186.328 120.077 182.654 113.873 178.137 111.265Z" fill="#2775CA"/>
<path d="M180.239 122.876C180.113 121.742 179.443 121.078 178.173 120.367C177.261 119.84 177.056 119.513 177.003 119.06C176.951 118.606 177.219 118.443 177.815 118.707C178.062 118.801 178.284 118.95 178.467 119.141C178.649 119.333 178.786 119.562 178.869 119.813C178.912 119.923 178.995 120.014 179.101 120.066L179.575 120.277C179.696 120.33 179.775 120.277 179.76 120.14V120.109C179.649 119.707 179.461 119.332 179.205 119.003C178.949 118.675 178.63 118.4 178.268 118.195L178.194 117.431C178.179 117.355 178.146 117.284 178.1 117.222C178.053 117.16 177.994 117.109 177.926 117.073L177.478 116.873C177.356 116.825 177.277 116.873 177.267 117.031L177.351 117.774C176.471 117.51 175.975 117.911 176.065 118.722C176.186 119.777 176.829 120.472 178.099 121.178C178.959 121.705 179.248 122.022 179.306 122.538C179.364 123.055 178.985 123.229 178.416 122.981C178.118 122.874 177.85 122.697 177.636 122.463C177.422 122.23 177.268 121.948 177.188 121.642C177.17 121.582 177.141 121.525 177.101 121.476C177.061 121.427 177.012 121.387 176.956 121.358L176.429 121.136C176.308 121.084 176.234 121.136 176.244 121.273V121.305C176.366 121.78 176.585 122.225 176.887 122.611C177.189 122.998 177.568 123.317 177.999 123.55L178.089 124.325C178.103 124.401 178.134 124.473 178.18 124.536C178.226 124.599 178.284 124.651 178.352 124.689L178.8 124.884C178.922 124.936 179.001 124.884 179.011 124.731L178.927 123.956C179.802 124.183 180.324 123.766 180.223 122.902L180.239 122.876Z" fill="white"/>
<path d="M177.141 124.747C174.712 122.823 173.199 119.476 173.789 117.368C173.896 116.843 174.195 116.377 174.626 116.059C175.057 115.742 175.591 115.596 176.124 115.65C176.235 115.65 176.282 115.565 176.267 115.407L176.214 114.954C176.206 114.886 176.183 114.821 176.148 114.763C176.112 114.705 176.065 114.655 176.008 114.617C175.977 114.617 175.919 114.575 175.892 114.617C173.162 114.348 171.976 116.941 173.215 120.414C174.005 122.508 175.365 124.34 177.141 125.7C177.268 125.816 177.379 125.806 177.394 125.7C177.421 125.7 177.394 125.648 177.394 125.579L177.342 125.126C177.307 124.985 177.238 124.855 177.141 124.747ZM179.176 116.029C179.044 115.913 178.933 115.924 178.918 116.029C178.891 116.029 178.918 116.082 178.918 116.145L178.97 116.598C179.003 116.751 179.077 116.892 179.186 117.004C181.616 118.928 183.123 122.275 182.538 124.383C182.434 124.909 182.136 125.378 181.704 125.696C181.273 126.015 180.737 126.161 180.204 126.106C180.093 126.106 180.045 126.191 180.061 126.349L180.114 126.802C180.121 126.87 180.143 126.936 180.179 126.994C180.214 127.052 180.262 127.102 180.319 127.139C180.351 127.139 180.409 127.181 180.435 127.139C183.166 127.408 184.351 124.815 183.108 121.342C182.324 119.231 180.968 117.381 179.192 115.998L179.176 116.029Z" fill="white"/>
<path d="M178.137 149.317C173.621 146.708 169.963 148.737 169.963 153.844C169.963 158.951 173.626 165.165 178.148 167.721C182.67 170.277 186.328 168.248 186.328 163.188C186.328 158.129 182.654 151.92 178.137 149.317Z" fill="#7F4AE7"/>
<path d="M172.709 153.649C172.709 153.617 172.709 153.586 172.709 153.575C172.712 153.567 172.712 153.557 172.709 153.549C172.717 153.49 172.744 153.435 172.785 153.393C172.827 153.352 172.882 153.325 172.941 153.317C173.046 153.317 173.146 153.27 173.252 153.254C173.329 153.232 173.409 153.218 173.489 153.212C173.535 153.204 173.581 153.194 173.626 153.18C173.701 153.173 173.775 153.161 173.847 153.143L173.99 153.111L174.127 153.085L174.269 153.053C174.315 153.056 174.36 153.056 174.406 153.053C174.48 153.028 174.556 153.011 174.633 153.001C174.673 153.003 174.714 153.003 174.754 153.001C174.84 152.975 174.928 152.957 175.017 152.948C175.094 152.934 175.174 152.945 175.244 152.98L175.392 153.048C175.488 153.094 175.574 153.158 175.645 153.238C175.704 153.305 175.767 153.368 175.834 153.428C175.865 153.457 175.893 153.489 175.919 153.523C175.977 153.591 176.04 153.644 176.098 153.702C176.156 153.76 176.324 153.939 176.446 154.05C176.567 154.16 176.572 154.176 176.63 154.245L176.962 154.577C177.031 154.645 177.099 154.724 177.173 154.793C177.247 154.861 177.352 154.993 177.452 155.077C177.495 155.114 177.534 155.154 177.568 155.199C177.658 155.283 177.742 155.378 177.827 155.462C177.894 155.527 177.957 155.595 178.016 155.668C178.136 155.799 178.228 155.953 178.285 156.121C178.287 156.158 178.287 156.195 178.285 156.232L178.364 156.98C178.368 157.039 178.377 157.097 178.39 157.154C178.417 157.259 178.39 157.301 178.306 157.307C178.257 157.301 178.208 157.301 178.159 157.307C178.122 157.315 178.084 157.315 178.048 157.307C178.007 157.32 177.964 157.331 177.921 157.338C177.86 157.342 177.8 157.354 177.742 157.375C177.672 157.385 177.604 157.401 177.537 157.423C177.5 157.423 177.458 157.423 177.442 157.344C177.439 157.321 177.439 157.298 177.442 157.275C177.41 156.996 177.384 156.716 177.352 156.432C177.346 156.364 177.328 156.298 177.3 156.237C177.263 156.15 177.22 156.065 177.173 155.984C177.116 155.887 177.047 155.799 176.967 155.72L176.63 155.383C176.525 155.278 176.419 155.177 176.319 155.067C176.219 154.956 176.077 154.835 175.961 154.708C175.845 154.582 175.808 154.54 175.729 154.466C175.65 154.386 175.557 154.322 175.455 154.276C175.409 154.261 175.365 154.242 175.323 154.218C175.28 154.206 175.234 154.206 175.191 154.218C175.142 154.224 175.093 154.224 175.044 154.218C175.006 154.221 174.968 154.23 174.933 154.245C174.88 154.245 174.817 154.245 174.764 154.271C174.712 154.297 174.606 154.297 174.533 154.324C174.489 154.333 174.444 154.333 174.401 154.324C174.364 154.324 174.338 154.324 174.301 154.324C174.19 154.337 174.081 154.358 173.974 154.387C173.934 154.402 173.897 154.426 173.867 154.457C173.837 154.488 173.814 154.525 173.8 154.566C173.773 154.675 173.773 154.789 173.8 154.898C173.837 155.336 173.884 155.778 173.932 156.216C173.939 156.292 173.953 156.368 173.974 156.442C173.994 156.527 174.027 156.607 174.074 156.68C174.106 156.722 174.121 156.769 174.153 156.811C174.245 156.934 174.345 157.051 174.453 157.159L174.733 157.444L174.996 157.707C175.051 157.756 175.102 157.809 175.149 157.865C175.187 157.911 175.23 157.954 175.276 157.992C175.365 158.071 175.439 158.171 175.529 158.245C175.618 158.319 175.65 158.35 175.708 158.414H175.739C175.843 158.48 175.957 158.53 176.077 158.561C176.157 158.574 176.239 158.565 176.314 158.535C176.357 158.529 176.399 158.52 176.44 158.508C176.52 158.482 176.609 158.477 176.688 158.45C176.73 158.442 176.773 158.442 176.815 158.45C176.851 158.447 176.887 158.438 176.92 158.424C177.031 158.398 177.157 158.387 177.268 158.35C177.379 158.313 177.452 158.319 177.542 158.298C177.644 158.268 177.748 158.247 177.853 158.234C177.933 158.215 178.014 158.201 178.095 158.192C178.174 158.192 178.243 158.161 178.317 158.145H178.438C178.522 158.145 178.612 158.113 178.696 158.087C178.781 158.06 178.828 158.087 178.891 158.05L179.144 157.997C179.213 157.978 179.284 157.963 179.355 157.955L179.566 157.913C179.644 157.886 179.726 157.871 179.808 157.865C179.835 157.865 179.85 157.865 179.871 157.865C179.94 157.857 180.009 157.857 180.077 157.865H180.14L180.267 157.923C180.381 157.978 180.485 158.053 180.572 158.145C180.662 158.234 180.746 158.329 180.836 158.408C180.926 158.487 180.999 158.577 181.084 158.666L181.194 158.772C181.321 158.898 181.437 159.025 181.563 159.146L181.8 159.389L182.059 159.652L182.222 159.815L182.454 160.047L182.58 160.179L182.802 160.395C182.881 160.474 182.955 160.559 183.034 160.648C183.094 160.728 183.147 160.812 183.192 160.901C183.201 160.928 183.215 160.953 183.234 160.975C183.239 160.996 183.239 161.017 183.234 161.038C183.234 161.08 183.234 161.128 183.234 161.17C183.334 162.145 183.434 163.115 183.54 164.09C183.55 164.142 183.547 164.196 183.532 164.247C183.518 164.299 183.491 164.346 183.455 164.385C183.392 164.449 183.308 164.488 183.218 164.496C183.151 164.515 183.082 164.529 183.013 164.538C182.933 164.557 182.852 164.571 182.77 164.58C182.736 164.571 182.699 164.571 182.665 164.58C182.623 164.58 182.575 164.58 182.538 164.606L182.407 164.633L182.175 164.675C182.096 164.675 182.022 164.706 181.948 164.722C181.873 164.73 181.799 164.744 181.727 164.764C181.69 164.77 181.653 164.77 181.616 164.764C181.526 164.764 181.453 164.807 181.363 164.817H181.194C181.133 164.823 181.072 164.808 181.02 164.775L180.767 164.664C180.726 164.643 180.689 164.614 180.657 164.58C180.567 164.496 180.483 164.395 180.393 164.322C180.362 164.293 180.334 164.261 180.309 164.227C180.23 164.148 180.146 164.074 180.072 163.995C179.998 163.916 179.856 163.779 179.75 163.673C179.645 163.568 179.555 163.468 179.455 163.368C179.355 163.268 179.276 163.199 179.192 163.104C179.107 163.009 179.033 162.946 178.954 162.867L178.786 162.688C178.733 162.64 178.686 162.582 178.633 162.54C178.595 162.508 178.56 162.473 178.528 162.435C178.406 162.303 178.275 162.192 178.164 162.055C178.067 161.938 177.992 161.804 177.943 161.66C177.902 161.543 177.877 161.42 177.869 161.296L177.79 160.548C177.79 160.495 177.79 160.469 177.832 160.458C177.891 160.435 177.953 160.423 178.016 160.422H178.111L178.385 160.364C178.48 160.364 178.57 160.321 178.665 160.3C178.759 160.279 178.744 160.3 178.759 160.385C178.757 160.406 178.757 160.427 178.759 160.448C178.759 160.727 178.817 161.007 178.844 161.286C178.856 161.369 178.879 161.451 178.912 161.528C178.977 161.676 179.062 161.815 179.165 161.939C179.199 161.981 179.236 162.019 179.276 162.055C179.35 162.119 179.413 162.198 179.481 162.261C179.55 162.324 179.655 162.43 179.74 162.514C179.824 162.598 179.903 162.672 179.977 162.762C180.051 162.851 180.077 162.856 180.124 162.909L180.298 163.088C180.356 163.141 180.409 163.199 180.467 163.246C180.525 163.294 180.514 163.304 180.541 163.32C180.64 163.401 180.752 163.463 180.873 163.505C180.96 163.521 181.049 163.521 181.136 163.505C181.215 163.505 181.284 163.468 181.363 163.457C181.431 163.45 181.499 163.434 181.563 163.41C181.609 163.407 181.655 163.407 181.7 163.41C181.851 163.375 182.004 163.343 182.159 163.315C182.225 163.301 182.285 163.268 182.333 163.22C182.4 163.131 182.432 163.02 182.422 162.909C182.422 162.714 182.391 162.503 182.37 162.298C182.349 162.092 182.317 161.771 182.291 161.523C182.274 161.373 182.237 161.226 182.18 161.086C182.121 160.948 182.037 160.823 181.932 160.717L181.885 160.648C181.769 160.516 181.642 160.406 181.526 160.279C181.41 160.153 181.352 160.1 181.263 160.021C181.225 159.987 181.19 159.95 181.157 159.91C181.057 159.8 180.947 159.705 180.841 159.599C180.803 159.563 180.768 159.525 180.736 159.483C180.673 159.41 180.599 159.383 180.541 159.309C180.483 159.236 180.488 159.283 180.467 159.267C180.352 159.186 180.211 159.151 180.072 159.167L179.819 159.215C179.773 159.216 179.728 159.227 179.687 159.246C179.651 159.254 179.613 159.254 179.576 159.246C179.445 159.278 179.308 159.299 179.171 159.32L178.902 159.378C178.798 159.391 178.696 159.413 178.596 159.441L178.396 159.478C178.301 159.478 178.195 159.51 178.101 159.536C178.006 159.562 177.885 159.573 177.779 159.605C177.674 159.636 177.632 159.631 177.558 159.647L177.331 159.7C177.263 159.7 177.189 159.699 177.12 159.736C177.069 159.754 177.016 159.765 176.962 159.768C176.894 159.768 176.83 159.794 176.767 159.805L176.509 159.852C176.444 159.874 176.377 159.885 176.309 159.884C176.233 159.884 176.159 159.871 176.087 159.847C175.977 159.801 175.874 159.738 175.782 159.663C175.735 159.621 175.691 159.577 175.65 159.531L175.571 159.447C175.45 159.325 175.323 159.209 175.207 159.078C175.16 159.025 175.107 158.988 175.06 158.935L174.901 158.777L174.733 158.603C174.675 158.535 174.601 158.482 174.543 158.414C174.485 158.345 174.327 158.197 174.216 158.087C174.165 158.038 174.115 157.987 174.069 157.934C174.021 157.876 173.963 157.839 173.916 157.781L173.742 157.602C173.689 157.549 173.637 157.491 173.579 157.444C173.53 157.405 173.485 157.361 173.447 157.312L173.32 157.175C173.253 157.096 173.193 157.012 173.141 156.922C173.088 156.848 173.078 156.764 173.03 156.69C172.983 156.616 173.03 156.648 173.03 156.627C173.03 156.606 173.088 156.68 173.099 156.711C173.121 156.785 173.153 156.856 173.194 156.922C173.275 157.059 173.376 157.184 173.494 157.291L174.206 158.008L175.234 159.062C175.397 159.23 175.571 159.394 175.734 159.589C175.848 159.702 175.987 159.787 176.14 159.837C176.249 159.873 176.368 159.873 176.477 159.837L177.226 159.689L177.795 159.578C178.032 159.531 178.269 159.489 178.501 159.436C178.733 159.383 178.954 159.352 179.176 159.304C179.397 159.257 179.777 159.188 180.077 159.13C180.175 159.125 180.273 159.142 180.364 159.178C180.455 159.214 180.537 159.27 180.604 159.341C180.789 159.494 180.957 159.689 181.131 159.868L181.6 160.342C181.742 160.49 181.89 160.627 182.022 160.785C182.206 160.994 182.323 161.252 182.359 161.528C182.412 161.982 182.454 162.43 182.501 162.883C182.533 163.204 182.438 163.41 182.196 163.41L181.389 163.579C181.288 163.609 181.184 163.628 181.078 163.637C180.97 163.65 180.86 163.626 180.767 163.568C180.644 163.493 180.531 163.402 180.43 163.299L179.582 162.44C179.455 162.314 179.329 162.198 179.207 162.066C179.061 161.903 178.943 161.716 178.86 161.513C178.839 161.449 178.824 161.384 178.817 161.318C178.817 161.043 178.754 160.759 178.738 160.49C178.738 160.49 178.738 160.453 178.738 160.437C178.731 160.431 178.722 160.428 178.712 160.428C178.702 160.428 178.693 160.431 178.686 160.437C178.595 160.462 178.504 160.481 178.412 160.495C178.269 160.495 178.127 160.559 177.979 160.58C177.911 160.58 177.885 160.638 177.895 160.738C177.927 160.985 177.953 161.233 177.974 161.47C178.003 161.786 178.152 162.079 178.39 162.287C178.807 162.698 179.218 163.12 179.629 163.536C179.966 163.874 180.309 164.216 180.641 164.559C180.765 164.691 180.921 164.789 181.094 164.843C181.153 164.857 181.214 164.857 181.273 164.843L182.201 164.664C182.428 164.617 182.654 164.585 182.881 164.538L183.324 164.448C183.424 164.448 183.471 164.348 183.513 164.258C183.538 164.172 183.538 164.081 183.513 163.995L183.229 161.244C183.199 161.019 183.097 160.81 182.939 160.648C182.707 160.39 182.465 160.158 182.222 159.916C182.122 159.815 182.027 159.71 181.927 159.615C181.827 159.52 181.658 159.336 181.521 159.204C181.384 159.072 181.179 158.856 180.994 158.677C180.81 158.498 180.657 158.324 180.467 158.15C180.4 158.077 180.319 158.018 180.228 157.978C180.137 157.938 180.039 157.918 179.94 157.918C179.756 157.918 179.587 157.992 179.413 158.023C179.239 158.055 178.997 158.113 178.791 158.155C178.586 158.197 178.48 158.224 178.322 158.25L177.7 158.356C177.521 158.387 177.347 158.435 177.173 158.471L176.556 158.598C176.435 158.598 176.319 158.661 176.193 158.672C176.067 158.672 175.944 158.645 175.83 158.591C175.717 158.537 175.618 158.458 175.539 158.361C175.123 157.939 174.706 157.523 174.295 157.096C174.139 156.937 174.015 156.749 173.932 156.543C173.905 156.468 173.887 156.39 173.879 156.311C173.826 155.81 173.774 155.309 173.726 154.809C173.7 154.54 173.8 154.397 173.984 154.355C174.253 154.287 174.511 154.25 174.801 154.192C174.917 154.166 175.044 154.144 175.17 154.129C175.243 154.128 175.315 154.144 175.381 154.176C175.582 154.273 175.761 154.409 175.908 154.577C176.209 154.888 176.509 155.188 176.815 155.494L177.041 155.72C177.186 155.885 177.3 156.074 177.379 156.279C177.411 156.372 177.427 156.47 177.426 156.569C177.426 156.769 177.463 156.975 177.484 157.175C177.484 157.207 177.484 157.238 177.484 157.27C177.484 157.301 177.484 157.349 177.552 157.344C177.621 157.338 177.763 157.291 177.874 157.275C177.985 157.259 178.138 157.207 178.285 157.196C178.294 157.197 178.303 157.196 178.312 157.193C178.32 157.19 178.327 157.185 178.333 157.178C178.339 157.171 178.343 157.163 178.345 157.154C178.346 157.145 178.346 157.136 178.343 157.128C178.311 156.79 178.285 156.458 178.232 156.116C178.194 155.94 178.108 155.778 177.985 155.647C177.843 155.484 177.694 155.33 177.537 155.183L176.967 154.603L176.198 153.812C175.998 153.612 175.803 153.401 175.597 153.212C175.512 153.116 175.408 153.039 175.291 152.985C175.253 152.975 175.214 152.975 175.176 152.985C175.118 152.985 175.049 152.985 174.991 152.985L174.506 153.075L173.979 153.18L173.384 153.296C173.257 153.322 173.136 153.349 173.009 153.364C172.927 153.376 172.852 153.417 172.799 153.48C172.781 153.495 172.768 153.514 172.758 153.535C172.749 153.556 172.745 153.579 172.746 153.602C172.762 153.633 172.772 153.691 172.709 153.649Z" fill="white"/>
<path d="M173.168 156.959C173.122 156.889 173.089 156.813 173.067 156.732C173.066 156.718 173.06 156.704 173.052 156.692C173.044 156.68 173.033 156.671 173.02 156.664C173.02 156.448 172.973 156.226 172.951 156.005C172.888 155.425 172.83 154.851 172.772 154.271L172.709 153.649C172.756 153.649 172.751 153.612 172.751 153.581C172.751 153.549 172.751 153.486 172.804 153.465C172.857 153.444 172.804 153.507 172.804 153.517C172.785 153.57 172.774 153.625 172.772 153.681C172.762 153.744 172.762 153.808 172.772 153.871L172.804 154.203C172.804 154.313 172.804 154.424 172.841 154.535C172.846 154.619 172.846 154.703 172.841 154.788C172.841 154.904 172.841 155.014 172.878 155.13C172.915 155.246 172.878 155.341 172.915 155.457C172.92 155.532 172.92 155.608 172.915 155.684C172.915 155.805 172.951 155.931 172.951 156.042C172.951 156.153 172.951 156.195 172.951 156.269C172.962 156.447 172.992 156.624 173.041 156.796C173.051 156.825 173.063 156.853 173.078 156.88C173.173 156.912 173.189 156.959 173.168 156.959Z" fill="white"/>
<path d="M173.167 156.959C173.175 156.937 173.175 156.913 173.167 156.89C173.136 156.845 173.116 156.792 173.109 156.738C173.109 156.69 173.077 156.637 173.072 156.59C173.065 156.531 173.065 156.47 173.072 156.411C173.082 156.375 173.082 156.336 173.072 156.3C173.067 156.285 173.067 156.268 173.072 156.253C173.087 156.196 173.087 156.136 173.072 156.079C173.068 156.071 173.066 156.062 173.066 156.052C173.066 156.043 173.068 156.034 173.072 156.026C173.08 155.997 173.08 155.966 173.072 155.937C173.04 155.826 173.072 155.742 173.035 155.631C173.042 155.538 173.042 155.444 173.035 155.352C173.035 155.225 173.035 155.104 172.993 154.972C172.993 154.946 172.993 154.925 172.993 154.898C172.993 154.777 172.993 154.661 172.956 154.535C172.956 154.44 172.956 154.334 172.93 154.234C172.903 154.134 172.93 154.108 172.93 154.044C172.937 153.981 172.937 153.918 172.93 153.855C172.916 153.806 172.916 153.755 172.93 153.707C172.932 153.688 172.932 153.668 172.93 153.649C172.924 153.63 172.923 153.61 172.928 153.59C172.932 153.571 172.942 153.553 172.956 153.538C172.956 153.538 172.956 153.512 172.956 153.496C172.99 153.446 173.041 153.409 173.098 153.391C173.135 153.385 173.172 153.385 173.209 153.391C173.268 153.382 173.326 153.369 173.383 153.354C173.414 153.351 173.446 153.351 173.478 153.354C173.535 153.339 173.593 153.326 173.652 153.317C173.726 153.308 173.8 153.294 173.873 153.275C173.948 153.27 174.023 153.255 174.094 153.233C174.133 153.228 174.172 153.228 174.21 153.233C174.266 153.229 174.321 153.216 174.374 153.196C174.409 153.193 174.444 153.193 174.479 153.196C174.585 153.196 174.679 153.154 174.785 153.138C174.89 153.122 175.001 153.091 175.112 153.075C175.222 153.059 175.233 153.038 175.322 153.075C175.327 153.077 175.333 153.078 175.338 153.078C175.344 153.078 175.349 153.077 175.354 153.075C175.354 153.075 175.407 153.075 175.438 153.075L175.544 153.117C175.59 153.135 175.631 153.166 175.66 153.206L175.691 153.238C175.774 153.3 175.85 153.371 175.918 153.449C175.965 153.496 176.018 153.538 176.066 153.591L176.224 153.76L176.377 153.913C176.503 154.044 176.635 154.166 176.756 154.303C176.877 154.44 176.977 154.524 177.088 154.635L177.357 154.914C177.441 154.998 177.52 155.088 177.605 155.167C177.689 155.246 177.715 155.272 177.768 155.325L177.9 155.467C178 155.561 178.095 155.659 178.184 155.763C178.326 155.918 178.418 156.113 178.448 156.321L178.543 157.244C178.543 157.312 178.543 157.349 178.479 157.344C178.429 157.336 178.377 157.336 178.327 157.344C178.263 157.344 178.205 157.381 178.137 157.386L177.91 157.428C177.848 157.437 177.786 157.451 177.726 157.47C177.726 157.47 177.699 157.47 177.678 157.47C177.663 157.452 177.654 157.43 177.652 157.407C177.652 157.338 177.652 157.265 177.652 157.196C177.652 157.049 177.62 156.906 177.61 156.764C177.599 156.622 177.583 156.553 177.578 156.453C177.57 156.415 177.558 156.378 177.541 156.342C177.504 156.279 177.478 156.211 177.441 156.147C177.372 156.017 177.283 155.898 177.178 155.794C177.093 155.71 177.014 155.615 176.925 155.536C176.835 155.457 176.814 155.415 176.751 155.362C176.687 155.309 176.682 155.288 176.645 155.251C176.608 155.214 176.482 155.077 176.398 155.004L176.234 154.84C176.188 154.8 176.146 154.756 176.108 154.709L175.955 154.556C175.814 154.405 175.63 154.3 175.428 154.255C175.386 154.255 175.365 154.255 175.328 154.255C175.252 154.256 175.178 154.268 175.106 154.292H175.08C174.987 154.299 174.896 154.315 174.806 154.34C174.749 154.349 174.693 154.361 174.637 154.376H174.511C174.492 154.371 174.472 154.371 174.453 154.376C174.426 154.376 174.384 154.376 174.358 154.376L174.216 154.408C174.146 154.42 174.083 154.455 174.036 154.508C174.004 154.551 173.979 154.599 173.963 154.651C173.949 154.713 173.949 154.778 173.963 154.84L174.121 156.374C174.144 156.565 174.216 156.747 174.332 156.901C174.421 157.033 174.523 157.154 174.637 157.265L174.906 157.533L175.069 157.697C175.122 157.755 175.185 157.802 175.238 157.871C175.269 157.907 175.302 157.94 175.338 157.971C175.486 158.113 175.623 158.266 175.77 158.414C175.914 158.561 176.097 158.664 176.297 158.709C176.362 158.722 176.428 158.722 176.492 158.709C176.563 158.689 176.636 158.675 176.709 158.667H176.809C176.908 158.651 177.007 158.63 177.104 158.603C177.147 158.591 177.191 158.582 177.236 158.577L177.525 158.514C177.612 158.491 177.7 158.473 177.789 158.461C177.814 158.464 177.838 158.464 177.863 158.461C177.942 158.435 178.031 158.435 178.11 158.414C178.191 158.39 178.274 158.378 178.358 158.377C178.358 158.377 178.39 158.377 178.406 158.377C178.466 158.36 178.528 158.35 178.59 158.345L178.78 158.308C178.854 158.308 178.922 158.271 179.001 158.261C179.08 158.25 179.165 158.224 179.254 158.213C179.344 158.203 179.391 158.182 179.465 158.166H179.607C179.676 158.166 179.739 158.134 179.802 158.118C179.877 158.099 179.952 158.085 180.029 158.076L180.161 158.05C180.326 158.042 180.49 158.094 180.619 158.198C180.736 158.283 180.842 158.382 180.935 158.493C180.999 158.556 181.057 158.619 181.125 158.677L181.194 158.756C181.362 158.925 181.536 159.094 181.721 159.283C181.8 159.368 181.889 159.441 181.963 159.526C182.037 159.61 182.148 159.71 182.237 159.805C182.327 159.9 182.422 159.995 182.517 160.084C182.611 160.174 182.738 160.3 182.843 160.422L182.97 160.543C183.049 160.617 183.123 160.701 183.196 160.78C183.296 160.879 183.373 160.997 183.423 161.128C183.419 161.143 183.419 161.16 183.423 161.175C183.458 161.223 183.477 161.28 183.476 161.339L183.776 164.264C183.791 164.305 183.791 164.349 183.776 164.39C183.776 164.422 183.745 164.464 183.723 164.501C183.694 164.554 183.645 164.594 183.586 164.612C183.518 164.612 183.444 164.612 183.381 164.654C183.318 164.696 183.165 164.691 183.065 164.717C182.989 164.738 182.911 164.754 182.833 164.764C182.772 164.768 182.712 164.777 182.654 164.791C182.586 164.811 182.518 164.825 182.448 164.833C182.385 164.833 182.322 164.833 182.253 164.87C182.168 164.882 182.083 164.9 182 164.923L181.863 164.949C181.737 164.949 181.621 165.002 181.494 165.017H181.441C181.441 165.017 181.41 165.017 181.405 165.017C181.399 165.017 181.31 165.017 181.252 164.991L181.125 164.933C181.068 164.919 181.019 164.883 180.988 164.833C180.835 164.702 180.691 164.561 180.556 164.411C180.509 164.36 180.458 164.312 180.403 164.269C180.366 164.237 180.329 164.19 180.292 164.153C180.256 164.116 180.124 163.979 180.039 163.895L179.776 163.631L179.423 163.273C179.338 163.183 179.254 163.11 179.175 163.02L178.985 162.83L178.643 162.488C178.512 162.363 178.402 162.219 178.316 162.061C178.298 162.028 178.283 161.992 178.274 161.955C178.236 161.846 178.213 161.733 178.205 161.618C178.205 161.37 178.153 161.117 178.126 160.859C178.126 160.796 178.126 160.764 178.174 160.754C178.248 160.732 178.324 160.718 178.4 160.712C178.443 160.696 178.487 160.685 178.532 160.68C178.582 160.672 178.631 160.662 178.68 160.648L178.906 160.601H178.964C179.006 160.601 179.028 160.601 179.028 160.675C179.025 160.71 179.025 160.745 179.028 160.78C179.028 161.022 179.08 161.265 179.101 161.507C179.101 161.571 179.133 161.634 179.138 161.692C179.136 161.702 179.136 161.713 179.138 161.723C179.214 161.906 179.319 162.075 179.449 162.224C179.489 162.277 179.535 162.324 179.586 162.366C179.628 162.398 179.665 162.451 179.707 162.488L180.103 162.893L180.261 163.052C180.303 163.099 180.35 163.136 180.393 163.178C180.435 163.22 180.509 163.31 180.572 163.368C180.622 163.42 180.675 163.469 180.73 163.515L180.804 163.589C180.895 163.659 180.992 163.721 181.094 163.774C181.141 163.774 181.204 163.774 181.252 163.774C181.299 163.774 181.399 163.774 181.468 163.742C181.536 163.71 181.721 163.679 181.852 163.658C181.984 163.637 182.058 163.61 182.163 163.594L182.432 163.536C182.481 163.527 182.527 163.506 182.566 163.476C182.605 163.446 182.637 163.407 182.659 163.363C182.694 163.289 182.708 163.207 182.701 163.125C182.675 162.641 182.601 162.135 182.559 161.639C182.541 161.504 182.502 161.372 182.443 161.249C182.378 161.12 182.297 160.999 182.2 160.891C182.1 160.78 181.99 160.68 181.889 160.569C181.789 160.459 181.689 160.374 181.594 160.269L181.325 159.995L181.115 159.784C181.051 159.721 180.988 159.647 180.925 159.589C180.836 159.499 180.735 159.423 180.624 159.362C180.543 159.32 180.456 159.29 180.366 159.273H180.266L179.818 159.357C179.744 159.357 179.665 159.389 179.591 159.404L179.381 159.447C179.302 159.447 179.212 159.447 179.133 159.499C179.084 159.507 179.034 159.507 178.985 159.499C178.946 159.503 178.907 159.511 178.869 159.526C178.775 159.555 178.678 159.577 178.58 159.589L178.263 159.652C178.185 159.66 178.107 159.676 178.031 159.7C177.993 159.709 177.954 159.709 177.915 159.7C177.868 159.731 177.8 159.7 177.742 159.736C177.683 159.747 177.625 159.762 177.568 159.779C177.515 159.779 177.446 159.779 177.394 159.81C177.325 159.831 177.254 159.847 177.183 159.858H177.051C176.962 159.858 176.872 159.884 176.788 159.91C176.749 159.914 176.71 159.914 176.672 159.91H176.645C176.562 159.931 176.474 159.934 176.39 159.917C176.305 159.901 176.225 159.866 176.155 159.816C176.068 159.76 175.987 159.697 175.913 159.626L175.802 159.505L175.654 159.362C175.533 159.236 175.412 159.109 175.286 158.988C175.159 158.867 175.101 158.809 175.011 158.709L174.722 158.414L174.49 158.182C174.384 158.082 174.284 157.971 174.184 157.871C174.084 157.771 173.984 157.665 173.878 157.57L173.715 157.407C173.501 157.301 173.313 157.148 173.167 156.959Z" fill="white"/>
<g filter="url(#filter5_d_999_1862)">
<path d="M57.1499 242.488C55.8323 243.916 48.1902 247.073 40.8116 244.39C33.433 241.708 29.9388 236.648 29.3906 234.782C28.1152 230.466 33.8758 225.364 48.7489 230.677C56.1644 233.328 60.7865 238.545 57.1499 242.488Z" fill="#4D8DFF"/>
</g>
<path d="M18.2695 183.148L27.2292 178.479C31.7565 175.88 37.9914 176.244 44.8693 180.192C58.7147 188.129 69.9354 207.571 69.9354 223.609C69.9354 231.684 67.0947 237.355 62.5042 239.984L53.5444 244.654C58.135 242.019 60.9757 236.353 60.9757 228.279C60.9757 212.241 49.7497 192.798 35.9096 184.861C29.0423 180.914 22.7968 180.55 18.2695 183.148Z" fill="url(#paint52_linear_999_1862)"/>
<path d="M53.5604 244.644C63.3973 239.001 63.4734 220.658 53.7304 203.673C43.9874 186.688 28.1148 177.494 18.278 183.136C8.44113 188.779 8.36505 207.122 18.108 224.107C27.851 241.092 43.7236 250.286 53.5604 244.644Z" fill="url(#paint53_linear_999_1862)"/>
<path d="M50.4191 205.389C54.8304 213.036 57.2706 221.163 57.2706 228.279C57.2706 234.682 55.3048 239.346 51.7367 241.412C48.1686 243.478 43.2303 242.867 37.7543 239.705C31.6195 236.184 25.8115 230.039 21.416 222.397C17.0205 214.755 14.5645 206.622 14.5645 199.507C14.5645 193.104 16.5303 188.439 20.0984 186.373C23.6665 184.307 28.5943 184.924 34.0703 188.065C40.1945 191.602 46.0025 197.747 50.4191 205.389Z" fill="url(#paint54_linear_999_1862)"/>
<path d="M51.9144 204.525C56.331 212.173 58.766 220.3 58.766 227.415C58.766 233.818 56.8001 238.482 53.232 240.548C49.664 242.615 44.7361 241.993 39.2602 238.857C33.1254 235.336 27.3174 229.185 22.9219 221.543C18.5263 213.901 16.0703 205.769 16.0703 198.654C16.0703 192.256 18.0362 187.586 21.6043 185.52C25.1723 183.454 30.1002 184.076 35.5761 187.217C41.6898 190.738 47.4873 196.883 51.9144 204.525Z" fill="url(#paint55_linear_999_1862)"/>
<path d="M34.7031 195.354L35.5411 209.057L46.2559 219.419L34.7031 195.354Z" fill="white" fill-opacity="0.6"/>
<path d="M34.7019 195.354L25.4629 209.057H35.5399L34.7019 195.354Z" fill="white"/>
<path d="M36.4199 223.14L36.9891 232.463L46.4126 221.596L36.4199 223.14Z" fill="white" fill-opacity="0.6"/>
<path d="M36.9745 232.463L36.4211 223.139L25.5957 211.244L36.9745 232.463Z" fill="white"/>
<path d="M36.2736 220.984L46.2558 219.434L35.541 209.073L36.2736 220.984Z" fill="white" fill-opacity="0.2"/>
<path d="M25.4629 209.068L36.2725 220.984L35.5399 209.073L25.4629 209.068Z" fill="white" fill-opacity="0.6"/>
<g filter="url(#filter6_d_999_1862)">
<path d="M434.148 242.488C432.835 243.916 425.214 247.073 417.809 244.39C410.404 241.708 406.931 236.648 406.404 234.782C405.129 230.466 410.895 225.364 425.762 230.677C433.162 233.328 437.784 238.545 434.148 242.488Z" fill="#4D8DFF"/>
</g>
<path d="M395.268 183.148L404.227 178.478C408.76 175.88 414.989 176.244 421.867 180.191C435.713 188.128 446.939 207.571 446.939 223.609C446.939 231.683 444.093 237.354 439.507 239.984L430.548 244.654C435.133 242.018 437.974 236.353 437.974 228.278C437.974 212.24 426.753 192.798 412.908 184.861C406.03 180.913 399.8 180.549 395.268 183.148Z" fill="url(#paint56_linear_999_1862)"/>
<path d="M430.551 244.631C440.388 238.988 440.464 220.645 430.721 203.66C420.978 186.675 405.105 177.481 395.268 183.124C385.431 188.766 385.355 207.11 395.098 224.094C404.841 241.079 420.714 250.274 430.551 244.631Z" fill="url(#paint57_linear_999_1862)"/>
<path d="M427.419 205.389C431.83 213.036 434.271 221.163 434.271 228.278C434.271 234.682 432.305 239.346 428.737 241.412C425.169 243.478 420.23 242.867 414.754 239.704C408.62 236.184 402.812 230.038 398.416 222.396C394.02 214.754 391.564 206.622 391.564 199.507C391.564 193.103 393.53 188.439 397.098 186.373C400.666 184.307 405.594 184.924 411.07 188.065C417.194 191.601 423.008 197.746 427.419 205.389Z" fill="url(#paint58_linear_999_1862)"/>
<path d="M428.918 204.525C433.33 212.172 435.77 220.299 435.77 227.414C435.77 233.818 433.809 238.482 430.236 240.548C426.663 242.614 421.74 241.992 416.264 238.856C410.129 235.336 404.321 229.185 399.926 221.543C395.53 213.901 393.074 205.769 393.074 198.653C393.074 192.255 395.04 187.586 398.608 185.52C402.176 183.454 407.104 184.075 412.58 187.217C418.694 190.737 424.502 196.883 428.918 204.525Z" fill="url(#paint59_linear_999_1862)"/>
<path d="M413.546 230.381L425.958 229.353L426.021 212.868L413.672 197.42L401.261 198.474L401.197 214.934L413.546 230.381ZM413.546 227.514L404.249 215.887L410.347 215.36L413.551 224.088L416.798 219.134L422.864 226.739L413.546 227.514ZM418.157 212.546L413.567 219.55L409.04 207.244L418.157 212.546ZM403.4 201.136L412.645 200.371L412.618 207.139L405.904 203.223L409.456 212.915L403.353 213.442L403.4 201.136ZM423.871 213.057L423.823 225.39L417.725 217.743L421.346 212.214L414.6 208.288L414.626 201.494L423.871 213.057Z" fill="url(#paint60_linear_999_1862)"/>
<defs>
<filter id="filter0_d_999_1862" x="182.721" y="188.958" width="107.649" height="77.7183" filterUnits="userSpaceOnUse" color-interpolation-filters="sRGB">
<feFlood flood-opacity="0" result="BackgroundImageFix"/>
<feColorMatrix in="SourceAlpha" type="matrix" values="0 0 0 0 0 0 0 0 0 0 0 0 0 0 0 0 0 0 127 0" result="hardAlpha"/>
<feOffset dx="8.74" dy="8.74"/>
<feGaussianBlur stdDeviation="6.24"/>
<feColorMatrix type="matrix" values="0 0 0 0 0 0 0 0 0 0 0 0 0 0 0 0 0 0 0.25 0"/>
<feBlend mode="normal" in2="BackgroundImageFix" result="effect1_dropShadow_999_1862"/>
<feBlend mode="normal" in="SourceGraphic" in2="effect1_dropShadow_999_1862" result="shape"/>
</filter>
<filter id="filter1_d_999_1862" x="161.285" y="93.7058" width="104.245" height="94.9194" filterUnits="userSpaceOnUse" color-interpolation-filters="sRGB">
<feFlood flood-opacity="0" result="BackgroundImageFix"/>
<feColorMatrix in="SourceAlpha" type="matrix" values="0 0 0 0 0 0 0 0 0 0 0 0 0 0 0 0 0 0 127 0" result="hardAlpha"/>
<feOffset dx="4.01" dy="4.01"/>
<feGaussianBlur stdDeviation="5.01"/>
<feColorMatrix type="matrix" values="0 0 0 0 0 0 0 0 0 0.192157 0 0 0 0 0.466667 0 0 0 1 0"/>
<feBlend mode="normal" in2="BackgroundImageFix" result="effect1_dropShadow_999_1862"/>
<feBlend mode="normal" in="SourceGraphic" in2="effect1_dropShadow_999_1862" result="shape"/>
</filter>
<filter id="filter2_d_999_1862" x="164.285" y="133.951" width="100.245" height="90.9165" filterUnits="userSpaceOnUse" color-interpolation-filters="sRGB">
<feFlood flood-opacity="0" result="BackgroundImageFix"/>
<feColorMatrix in="SourceAlpha" type="matrix" values="0 0 0 0 0 0 0 0 0 0 0 0 0 0 0 0 0 0 127 0" result="hardAlpha"/>
<feOffset dx="5.01" dy="4.01"/>
<feGaussianBlur stdDeviation="4.01"/>
<feColorMatrix type="matrix" values="0 0 0 0 0 0 0 0 0 0.192157 0 0 0 0 0.466667 0 0 0 1 0"/>
<feBlend mode="normal" in2="BackgroundImageFix" result="effect1_dropShadow_999_1862"/>
<feBlend mode="normal" in="SourceGraphic" in2="effect1_dropShadow_999_1862" result="shape"/>
</filter>
<filter id="filter3_d_999_1862" x="165.285" y="24.7395" width="100.245" height="90.9194" filterUnits="userSpaceOnUse" color-interpolation-filters="sRGB">
<feFlood flood-opacity="0" result="BackgroundImageFix"/>
<feColorMatrix in="SourceAlpha" type="matrix" values="0 0 0 0 0 0 0 0 0 0 0 0 0 0 0 0 0 0 127 0" result="hardAlpha"/>
<feOffset dx="6.01" dy="4.01"/>
<feGaussianBlur stdDeviation="4.01"/>
<feColorMatrix type="matrix" values="0 0 0 0 0 0 0 0 0 0.192157 0 0 0 0 0.466667 0 0 0 1 0"/>
<feBlend mode="normal" in2="BackgroundImageFix" result="effect1_dropShadow_999_1862"/>
<feBlend mode="normal" in="SourceGraphic" in2="effect1_dropShadow_999_1862" result="shape"/>
</filter>
<filter id="filter4_d_999_1862" x="153.439" y="51.9822" width="100.245" height="90.9174" filterUnits="userSpaceOnUse" color-interpolation-filters="sRGB">
<feFlood flood-opacity="0" result="BackgroundImageFix"/>
<feColorMatrix in="SourceAlpha" type="matrix" values="0 0 0 0 0 0 0 0 0 0 0 0 0 0 0 0 0 0 127 0" result="hardAlpha"/>
<feOffset dx="5.01" dy="3.01"/>
<feGaussianBlur stdDeviation="4.01"/>
<feColorMatrix type="matrix" values="0 0 0 0 0 0 0 0 0 0.192157 0 0 0 0 0.466667 0 0 0 1 0"/>
<feBlend mode="normal" in2="BackgroundImageFix" result="effect1_dropShadow_999_1862"/>
<feBlend mode="normal" in="SourceGraphic" in2="effect1_dropShadow_999_1862" result="shape"/>
</filter>
<filter id="filter5_d_999_1862" x="29.2188" y="221.404" width="49.1973" height="37.0322" filterUnits="userSpaceOnUse" color-interpolation-filters="sRGB">
<feFlood flood-opacity="0" result="BackgroundImageFix"/>
<feColorMatrix in="SourceAlpha" type="matrix" values="0 0 0 0 0 0 0 0 0 0 0 0 0 0 0 0 0 0 127 0" result="hardAlpha"/>
<feOffset dx="10" dy="3"/>
<feGaussianBlur stdDeviation="5"/>
<feColorMatrix type="matrix" values="0 0 0 0 0 0 0 0 0 0.192157 0 0 0 0 0.466667 0 0 0 1 0"/>
<feBlend mode="normal" in2="BackgroundImageFix" result="effect1_dropShadow_999_1862"/>
<feBlend mode="normal" in="SourceGraphic" in2="effect1_dropShadow_999_1862" result="shape"/>
</filter>
<filter id="filter6_d_999_1862" x="406.232" y="221.404" width="49.1816" height="37.0322" filterUnits="userSpaceOnUse" color-interpolation-filters="sRGB">
<feFlood flood-opacity="0" result="BackgroundImageFix"/>
<feColorMatrix in="SourceAlpha" type="matrix" values="0 0 0 0 0 0 0 0 0 0 0 0 0 0 0 0 0 0 127 0" result="hardAlpha"/>
<feOffset dx="10" dy="3"/>
<feGaussianBlur stdDeviation="5"/>
<feColorMatrix type="matrix" values="0 0 0 0 0 0 0 0 0 0.192157 0 0 0 0 0.466667 0 0 0 1 0"/>
<feBlend mode="normal" in2="BackgroundImageFix" result="effect1_dropShadow_999_1862"/>
<feBlend mode="normal" in="SourceGraphic" in2="effect1_dropShadow_999_1862" result="shape"/>
</filter>
<linearGradient id="paint0_linear_999_1862" x1="284.426" y1="325.713" x2="289.501" y2="320.637" gradientUnits="userSpaceOnUse">
<stop stop-color="#707073"/>
<stop offset="1" stop-color="#4D8DFF"/>
</linearGradient>
<linearGradient id="paint1_linear_999_1862" x1="375.242" y1="249.613" x2="464.786" y2="249.613" gradientUnits="userSpaceOnUse">
<stop stop-color="#0052FF"/>
<stop offset="1" stop-color="#00398C"/>
</linearGradient>
<linearGradient id="paint2_linear_999_1862" x1="375.246" y1="235.098" x2="464.785" y2="235.098" gradientUnits="userSpaceOnUse">
<stop stop-color="#4D8DFF"/>
<stop offset="1" stop-color="#0052FF"/>
</linearGradient>
<linearGradient id="paint3_linear_999_1862" x1="-0.00877396" y1="249.613" x2="89.5409" y2="249.613" gradientUnits="userSpaceOnUse">
<stop stop-color="#0052FF"/>
<stop offset="1" stop-color="#00398C"/>
</linearGradient>
<linearGradient id="paint4_linear_999_1862" x1="0.0012747" y1="235.098" x2="89.5404" y2="235.098" gradientUnits="userSpaceOnUse">
<stop stop-color="#4D8DFF"/>
<stop offset="1" stop-color="#0052FF"/>
</linearGradient>
<linearGradient id="paint5_linear_999_1862" x1="111.955" y1="269.809" x2="356.845" y2="269.809" gradientUnits="userSpaceOnUse">
<stop stop-color="#0052FF"/>
<stop offset="1" stop-color="#00398C"/>
</linearGradient>
<linearGradient id="paint6_linear_999_1862" x1="111.982" y1="230.107" x2="356.845" y2="230.107" gradientUnits="userSpaceOnUse">
<stop stop-color="#4D8DFF"/>
<stop offset="1" stop-color="#0052FF"/>
</linearGradient>
<linearGradient id="paint7_linear_999_1862" x1="134.456" y1="255.853" x2="334.347" y2="255.853" gradientUnits="userSpaceOnUse">
<stop stop-color="#0052FF"/>
<stop offset="1" stop-color="#00398C"/>
</linearGradient>
<linearGradient id="paint8_linear_999_1862" x1="134.476" y1="223.445" x2="334.346" y2="223.445" gradientUnits="userSpaceOnUse">
<stop stop-color="#4D8DFF"/>
<stop offset="1" stop-color="#0052FF"/>
</linearGradient>
<linearGradient id="paint9_linear_999_1862" x1="211.051" y1="356.45" x2="257.932" y2="356.45" gradientUnits="userSpaceOnUse">
<stop stop-color="#0052FF"/>
<stop offset="1" stop-color="#00398C"/>
</linearGradient>
<linearGradient id="paint10_linear_999_1862" x1="211.052" y1="344.902" x2="257.932" y2="344.902" gradientUnits="userSpaceOnUse">
<stop stop-color="#0052FF"/>
<stop offset="1" stop-color="#00398C"/>
</linearGradient>
<linearGradient id="paint11_linear_999_1862" x1="211.051" y1="346.868" x2="257.932" y2="346.868" gradientUnits="userSpaceOnUse">
<stop stop-color="#0052FF"/>
<stop offset="1" stop-color="#4D8DFF"/>
</linearGradient>
<linearGradient id="paint12_linear_999_1862" x1="211.052" y1="358.421" x2="257.932" y2="358.421" gradientUnits="userSpaceOnUse">
<stop stop-color="#0052FF"/>
<stop offset="0.34" stop-color="#5D97FE"/>
<stop offset="0.97" stop-color="#0052FF"/>
</linearGradient>
<linearGradient id="paint13_linear_999_1862" x1="192.663" y1="1.56581" x2="271.503" y2="244.927" gradientUnits="userSpaceOnUse">
<stop stop-color="#0052FF"/>
<stop offset="0.21" stop-color="#0354FF"/>
<stop offset="0.34" stop-color="#0455FF"/>
<stop offset="0.54" stop-color="#0455FF"/>
<stop offset="0.79" stop-color="#0354FF"/>
<stop offset="1" stop-color="#0052FF"/>
</linearGradient>
<linearGradient id="paint14_linear_999_1862" x1="192.589" y1="1.59805" x2="271.424" y2="244.954" gradientUnits="userSpaceOnUse">
<stop stop-color="#0052FF"/>
<stop offset="0.21" stop-color="#0657FF"/>
<stop offset="0.34" stop-color="#0758FF"/>
<stop offset="0.54" stop-color="#0758FF"/>
<stop offset="0.79" stop-color="#0556FF"/>
<stop offset="1" stop-color="#0052FF"/>
</linearGradient>
<linearGradient id="paint15_linear_999_1862" x1="192.51" y1="1.62904" x2="271.345" y2="244.98" gradientUnits="userSpaceOnUse">
<stop stop-color="#0052FF"/>
<stop offset="0.21" stop-color="#0A59FF"/>
<stop offset="0.34" stop-color="#0B5AFF"/>
<stop offset="0.54" stop-color="#0B5AFF"/>
<stop offset="0.79" stop-color="#0858FF"/>
<stop offset="1" stop-color="#0052FF"/>
</linearGradient>
<linearGradient id="paint16_linear_999_1862" x1="192.436" y1="1.66107" x2="271.266" y2="245.002" gradientUnits="userSpaceOnUse">
<stop stop-color="#0052FF"/>
<stop offset="0.21" stop-color="#0D5CFF"/>
<stop offset="0.34" stop-color="#0F5DFF"/>
<stop offset="0.54" stop-color="#0F5DFF"/>
<stop offset="0.79" stop-color="#0A5AFF"/>
<stop offset="1" stop-color="#0052FF"/>
</linearGradient>
<linearGradient id="paint17_linear_999_1862" x1="192.357" y1="1.69234" x2="271.187" y2="245.028" gradientUnits="userSpaceOnUse">
<stop stop-color="#0052FF"/>
<stop offset="0.21" stop-color="#105EFF"/>
<stop offset="0.34" stop-color="#1260FF"/>
<stop offset="0.54" stop-color="#1260FF"/>
<stop offset="0.79" stop-color="#0D5CFF"/>
<stop offset="1" stop-color="#0052FF"/>
</linearGradient>
<linearGradient id="paint18_linear_999_1862" x1="192.278" y1="1.72409" x2="271.102" y2="245.054" gradientUnits="userSpaceOnUse">
<stop stop-color="#0052FF"/>
<stop offset="0.21" stop-color="#1361FF"/>
<stop offset="0.34" stop-color="#1663FF"/>
<stop offset="0.54" stop-color="#1663FF"/>
<stop offset="0.59" stop-color="#1462FF"/>
<stop offset="0.79" stop-color="#0F5EFF"/>
<stop offset="1" stop-color="#0052FF"/>
</linearGradient>
<linearGradient id="paint19_linear_999_1862" x1="192.204" y1="1.75584" x2="271.023" y2="245.08" gradientUnits="userSpaceOnUse">
<stop stop-color="#0052FF"/>
<stop offset="0.21" stop-color="#1663FF"/>
<stop offset="0.34" stop-color="#1A66FF"/>
<stop offset="0.54" stop-color="#1A66FF"/>
<stop offset="0.6" stop-color="#1764FF"/>
<stop offset="0.79" stop-color="#1260FF"/>
<stop offset="1" stop-color="#0052FF"/>
</linearGradient>
<linearGradient id="paint20_linear_999_1862" x1="192.125" y1="1.78711" x2="270.944" y2="245.106" gradientUnits="userSpaceOnUse">
<stop stop-color="#0052FF"/>
<stop offset="0.21" stop-color="#1A65FF"/>
<stop offset="0.34" stop-color="#1D68FF"/>
<stop offset="0.54" stop-color="#1D68FF"/>
<stop offset="0.6" stop-color="#1A66FF"/>
<stop offset="0.79" stop-color="#1562FF"/>
<stop offset="1" stop-color="#0052FF"/>
</linearGradient>
<linearGradient id="paint21_linear_999_1862" x1="192.046" y1="1.82413" x2="270.865" y2="245.133" gradientUnits="userSpaceOnUse">
<stop stop-color="#0052FF"/>
<stop offset="0.21" stop-color="#1D68FF"/>
<stop offset="0.34" stop-color="#216BFF"/>
<stop offset="0.54" stop-color="#216BFF"/>
<stop offset="0.62" stop-color="#1C68FF"/>
<stop offset="0.79" stop-color="#1764FF"/>
<stop offset="1" stop-color="#0052FF"/>
</linearGradient>
<linearGradient id="paint22_linear_999_1862" x1="191.972" y1="1.85589" x2="270.786" y2="245.159" gradientUnits="userSpaceOnUse">
<stop stop-color="#0052FF"/>
<stop offset="0.21" stop-color="#206AFF"/>
<stop offset="0.34" stop-color="#256EFF"/>
<stop offset="0.54" stop-color="#256EFF"/>
<stop offset="0.63" stop-color="#1F6AFF"/>
<stop offset="0.79" stop-color="#1A66FF"/>
<stop offset="1" stop-color="#0052FF"/>
</linearGradient>
<linearGradient id="paint23_linear_999_1862" x1="191.893" y1="1.88764" x2="270.707" y2="245.186" gradientUnits="userSpaceOnUse">
<stop stop-color="#0052FF"/>
<stop offset="0.21" stop-color="#236DFF"/>
<stop offset="0.34" stop-color="#2871FF"/>
<stop offset="0.54" stop-color="#2871FF"/>
<stop offset="0.64" stop-color="#216BFF"/>
<stop offset="0.79" stop-color="#1C67FF"/>
<stop offset="1" stop-color="#0052FF"/>
</linearGradient>
<linearGradient id="paint24_linear_999_1862" x1="191.82" y1="1.91921" x2="270.628" y2="245.207" gradientUnits="userSpaceOnUse">
<stop stop-color="#0052FF"/>
<stop offset="0.21" stop-color="#266FFF"/>
<stop offset="0.34" stop-color="#2C74FF"/>
<stop offset="0.54" stop-color="#2C74FF"/>
<stop offset="0.65" stop-color="#246DFF"/>
<stop offset="0.79" stop-color="#1F69FF"/>
<stop offset="1" stop-color="#0052FF"/>
</linearGradient>
<linearGradient id="paint25_linear_999_1862" x1="191.741" y1="1.95066" x2="270.549" y2="245.233" gradientUnits="userSpaceOnUse">
<stop stop-color="#0052FF"/>
<stop offset="0.21" stop-color="#2972FF"/>
<stop offset="0.34" stop-color="#3077FF"/>
<stop offset="0.54" stop-color="#3077FF"/>
<stop offset="0.66" stop-color="#266FFF"/>
<stop offset="0.79" stop-color="#216BFF"/>
<stop offset="1" stop-color="#0052FF"/>
</linearGradient>
<linearGradient id="paint26_linear_999_1862" x1="191.661" y1="1.98241" x2="270.47" y2="245.26" gradientUnits="userSpaceOnUse">
<stop stop-color="#0052FF"/>
<stop offset="0.21" stop-color="#2D74FF"/>
<stop offset="0.34" stop-color="#3379FF"/>
<stop offset="0.54" stop-color="#3379FF"/>
<stop offset="0.66" stop-color="#2971FF"/>
<stop offset="0.79" stop-color="#246DFF"/>
<stop offset="1" stop-color="#0052FF"/>
</linearGradient>
<linearGradient id="paint27_linear_999_1862" x1="191.588" y1="2.01417" x2="270.391" y2="245.286" gradientUnits="userSpaceOnUse">
<stop stop-color="#0052FF"/>
<stop offset="0.21" stop-color="#3076FF"/>
<stop offset="0.34" stop-color="#377CFF"/>
<stop offset="0.54" stop-color="#377CFF"/>
<stop offset="0.66" stop-color="#2C73FF"/>
<stop offset="0.79" stop-color="#276FFF"/>
<stop offset="1" stop-color="#0052FF"/>
</linearGradient>
<linearGradient id="paint28_linear_999_1862" x1="191.509" y1="2.04543" x2="270.312" y2="245.312" gradientUnits="userSpaceOnUse">
<stop stop-color="#0052FF"/>
<stop offset="0.21" stop-color="#3379FF"/>
<stop offset="0.34" stop-color="#3B7FFF"/>
<stop offset="0.54" stop-color="#3B7FFF"/>
<stop offset="0.67" stop-color="#2E75FF"/>
<stop offset="0.79" stop-color="#2971FF"/>
<stop offset="1" stop-color="#0052FF"/>
</linearGradient>
<linearGradient id="paint29_linear_999_1862" x1="191.43" y1="2.0825" x2="270.233" y2="245.339" gradientUnits="userSpaceOnUse">
<stop stop-color="#0052FF"/>
<stop offset="0.21" stop-color="#367BFF"/>
<stop offset="0.34" stop-color="#3E82FF"/>
<stop offset="0.54" stop-color="#3E82FF"/>
<stop offset="0.67" stop-color="#3177FF"/>
<stop offset="0.79" stop-color="#2C73FF"/>
<stop offset="1" stop-color="#0052FF"/>
</linearGradient>
<linearGradient id="paint30_linear_999_1862" x1="191.356" y1="2.11426" x2="270.154" y2="245.365" gradientUnits="userSpaceOnUse">
<stop stop-color="#0052FF"/>
<stop offset="0.21" stop-color="#397EFF"/>
<stop offset="0.34" stop-color="#4285FF"/>
<stop offset="0.54" stop-color="#4285FF"/>
<stop offset="0.55" stop-color="#4285FF"/>
<stop offset="0.68" stop-color="#3379FF"/>
<stop offset="0.79" stop-color="#2E75FF"/>
<stop offset="1" stop-color="#0052FF"/>
</linearGradient>
<linearGradient id="paint31_linear_999_1862" x1="191.277" y1="2.14601" x2="270.075" y2="245.386" gradientUnits="userSpaceOnUse">
<stop stop-color="#0052FF"/>
<stop offset="0.21" stop-color="#3D80FF"/>
<stop offset="0.34" stop-color="#4687FF"/>
<stop offset="0.54" stop-color="#4687FF"/>
<stop offset="0.55" stop-color="#4586FF"/>
<stop offset="0.68" stop-color="#367BFF"/>
<stop offset="0.79" stop-color="#3177FF"/>
<stop offset="1" stop-color="#0052FF"/>
</linearGradient>
<linearGradient id="paint32_linear_999_1862" x1="191.203" y1="2.17728" x2="269.996" y2="245.412" gradientUnits="userSpaceOnUse">
<stop stop-color="#0052FF"/>
<stop offset="0.21" stop-color="#4083FF"/>
<stop offset="0.34" stop-color="#498AFF"/>
<stop offset="0.54" stop-color="#498AFF"/>
<stop offset="0.56" stop-color="#4788FF"/>
<stop offset="0.68" stop-color="#387DFF"/>
<stop offset="0.79" stop-color="#3379FF"/>
<stop offset="1" stop-color="#0052FF"/>
</linearGradient>
<linearGradient id="paint33_linear_999_1862" x1="191.124" y1="2.20895" x2="269.917" y2="245.439" gradientUnits="userSpaceOnUse">
<stop stop-color="#0052FF"/>
<stop offset="0.21" stop-color="#4385FF"/>
<stop offset="0.34" stop-color="#4D8DFF"/>
<stop offset="0.54" stop-color="#4D8DFF"/>
<stop offset="0.56" stop-color="#4A8AFF"/>
<stop offset="0.69" stop-color="#3B7FFF"/>
<stop offset="0.79" stop-color="#367BFF"/>
<stop offset="1" stop-color="#0052FF"/>
</linearGradient>
<linearGradient id="paint34_linear_999_1862" x1="66.0665" y1="190.579" x2="344.086" y2="76.8066" gradientUnits="userSpaceOnUse">
<stop stop-color="#0052FF"/>
<stop offset="0.11" stop-color="#135FFF"/>
<stop offset="0.32" stop-color="#4480FF"/>
<stop offset="0.62" stop-color="#93B6FF"/>
<stop offset="1" stop-color="white"/>
</linearGradient>
<linearGradient id="paint35_linear_999_1862" x1="174.29" y1="31.6335" x2="297.159" y2="265.93" gradientUnits="userSpaceOnUse">
<stop stop-color="white"/>
<stop offset="1" stop-color="white"/>
</linearGradient>
<linearGradient id="paint36_linear_999_1862" x1="167.295" y1="137.158" x2="251.5" y2="137.158" gradientUnits="userSpaceOnUse">
<stop stop-color="#C7DDFF"/>
<stop offset="1" stop-color="#E6F0FF"/>
</linearGradient>
<linearGradient id="paint37_linear_999_1862" x1="167.307" y1="123.95" x2="251.159" y2="123.95" gradientUnits="userSpaceOnUse">
<stop stop-color="#4D8DFF"/>
<stop offset="1" stop-color="#0052FF"/>
</linearGradient>
<linearGradient id="paint38_linear_999_1862" x1="247.811" y1="160.601" x2="251.495" y2="160.601" gradientUnits="userSpaceOnUse">
<stop stop-color="#4D8DFF"/>
<stop offset="1" stop-color="#0052FF"/>
</linearGradient>
<linearGradient id="paint39_linear_999_1862" x1="228.248" y1="154.866" x2="244.613" y2="154.866" gradientUnits="userSpaceOnUse">
<stop stop-color="#4D8DFF"/>
<stop offset="1" stop-color="#0052FF"/>
</linearGradient>
<linearGradient id="paint40_linear_999_1862" x1="167.295" y1="175.4" x2="251.5" y2="175.4" gradientUnits="userSpaceOnUse">
<stop stop-color="#C7DDFF"/>
<stop offset="1" stop-color="#E6F0FF"/>
</linearGradient>
<linearGradient id="paint41_linear_999_1862" x1="167.307" y1="162.192" x2="251.159" y2="162.192" gradientUnits="userSpaceOnUse">
<stop stop-color="#4D8DFF"/>
<stop offset="1" stop-color="#0052FF"/>
</linearGradient>
<linearGradient id="paint42_linear_999_1862" x1="247.811" y1="198.843" x2="251.495" y2="198.843" gradientUnits="userSpaceOnUse">
<stop stop-color="#4D8DFF"/>
<stop offset="1" stop-color="#0052FF"/>
</linearGradient>
<linearGradient id="paint43_linear_999_1862" x1="228.248" y1="193.114" x2="244.613" y2="193.114" gradientUnits="userSpaceOnUse">
<stop stop-color="#4D8DFF"/>
<stop offset="1" stop-color="#0052FF"/>
</linearGradient>
<linearGradient id="paint44_linear_999_1862" x1="167.295" y1="66.1919" x2="251.5" y2="66.1919" gradientUnits="userSpaceOnUse">
<stop stop-color="#C7DDFF"/>
<stop offset="1" stop-color="#E6F0FF"/>
</linearGradient>
<linearGradient id="paint45_linear_999_1862" x1="167.307" y1="52.984" x2="251.159" y2="52.984" gradientUnits="userSpaceOnUse">
<stop stop-color="#4D8DFF"/>
<stop offset="1" stop-color="#0052FF"/>
</linearGradient>
<linearGradient id="paint46_linear_999_1862" x1="247.811" y1="89.6347" x2="251.495" y2="89.6347" gradientUnits="userSpaceOnUse">
<stop stop-color="#4D8DFF"/>
<stop offset="1" stop-color="#0052FF"/>
</linearGradient>
<linearGradient id="paint47_linear_999_1862" x1="228.248" y1="83.9006" x2="244.613" y2="83.9006" gradientUnits="userSpaceOnUse">
<stop stop-color="#4D8DFF"/>
<stop offset="1" stop-color="#0052FF"/>
</linearGradient>
<linearGradient id="paint48_linear_999_1862" x1="156.449" y1="94.4308" x2="240.655" y2="94.4308" gradientUnits="userSpaceOnUse">
<stop stop-color="#4D8DFF"/>
<stop offset="1" stop-color="#0052FF"/>
</linearGradient>
<linearGradient id="paint49_linear_999_1862" x1="156.459" y1="81.2228" x2="240.311" y2="81.2228" gradientUnits="userSpaceOnUse">
<stop stop-color="#0052FF"/>
<stop offset="1" stop-color="#00398C"/>
</linearGradient>
<linearGradient id="paint50_linear_999_1862" x1="236.971" y1="117.874" x2="240.655" y2="117.874" gradientUnits="userSpaceOnUse">
<stop stop-color="#0052FF"/>
<stop offset="1" stop-color="#00398C"/>
</linearGradient>
<linearGradient id="paint51_linear_999_1862" x1="221.482" y1="112.482" x2="230.405" y2="112.482" gradientUnits="userSpaceOnUse">
<stop stop-color="#4D8DFF"/>
<stop offset="1" stop-color="#0052FF"/>
</linearGradient>
<linearGradient id="paint52_linear_999_1862" x1="44.0946" y1="244.654" x2="44.0946" y2="176.819" gradientUnits="userSpaceOnUse">
<stop stop-color="#4D7EFF"/>
<stop offset="1" stop-color="#E6F0FF"/>
</linearGradient>
<linearGradient id="paint53_linear_999_1862" x1="10.8355" y1="213.894" x2="60.973" y2="213.894" gradientUnits="userSpaceOnUse">
<stop stop-color="#C7DDFF"/>
<stop offset="1" stop-color="#E6F0FF"/>
</linearGradient>
<linearGradient id="paint54_linear_999_1862" x1="14.5539" y1="213.901" x2="57.2601" y2="213.901" gradientUnits="userSpaceOnUse">
<stop stop-color="#0052FF"/>
<stop offset="1" stop-color="#00398C"/>
</linearGradient>
<linearGradient id="paint55_linear_999_1862" x1="16.0545" y1="213.037" x2="58.7607" y2="213.037" gradientUnits="userSpaceOnUse">
<stop stop-color="#4D8DFF"/>
<stop offset="1" stop-color="#0052FF"/>
</linearGradient>
<linearGradient id="paint56_linear_999_1862" x1="421.093" y1="244.654" x2="421.093" y2="176.818" gradientUnits="userSpaceOnUse">
<stop stop-color="#4D7EFF"/>
<stop offset="1" stop-color="#E6F0FF"/>
</linearGradient>
<linearGradient id="paint57_linear_999_1862" x1="387.824" y1="213.896" x2="437.962" y2="213.896" gradientUnits="userSpaceOnUse">
<stop stop-color="#C7DDFF"/>
<stop offset="1" stop-color="#E6F0FF"/>
</linearGradient>
<linearGradient id="paint58_linear_999_1862" x1="391.554" y1="213.9" x2="434.265" y2="213.9" gradientUnits="userSpaceOnUse">
<stop stop-color="#0052FF"/>
<stop offset="1" stop-color="#00398C"/>
</linearGradient>
<linearGradient id="paint59_linear_999_1862" x1="393.053" y1="213.036" x2="435.759" y2="213.036" gradientUnits="userSpaceOnUse">
<stop stop-color="#4D8DFF"/>
<stop offset="1" stop-color="#0052FF"/>
</linearGradient>
<linearGradient id="paint60_linear_999_1862" x1="431.214" y1="217.375" x2="400.548" y2="209.069" gradientUnits="userSpaceOnUse">
<stop stop-color="#C7DDFF"/>
<stop offset="1" stop-color="#E6F0FF"/>
</linearGradient>
</defs>
</svg>
