<svg width="14" height="12" viewBox="0 0 14 12" fill="none" xmlns="http://www.w3.org/2000/svg">
<path d="M1.03699 6C1.18268 4.68001 1.76395 3.44617 2.68899 2.49333L3.70766 3.51167L4.17932 3.04033L3.17899 2.04033C4.16544 1.2233 5.38833 0.744899 6.66732 0.675667V2.33333H7.33399V0.675667C8.61299 0.744875 9.83589 1.22328 10.8223 2.04033L9.86232 3L10.334 3.47133L11.3123 2.493C12.2374 3.44592 12.8187 4.67989 12.9643 6H11.562V6.66667H13.0007C13.002 8.05699 12.5179 9.40417 11.632 10.4757L10.492 9.33567L10.0203 9.807L11.1797 10.966L11.1753 10.97L11.639 11.449C12.2814 10.8286 12.7922 10.0851 13.1407 9.26279C13.4892 8.44052 13.6683 7.55641 13.6673 6.66333C13.6673 2.98333 10.6823 0 7.00066 0C3.31899 0 0.333989 2.983 0.333989 6.66333C0.331982 8.41985 1.02595 10.1056 2.26399 11.3517L2.73732 10.8827L2.73099 10.876L3.73299 9.87433L3.26166 9.403L2.28866 10.3757C1.45324 9.32001 0.999324 8.01289 1.00066 6.66667H2.35166V6H1.03699Z" fill="#D40707"/>
<path d="M6.17444 7.96999C6.0457 7.9946 5.93037 8.06536 5.85011 8.16899L5.30411 8.97899C5.24311 9.38332 5.28644 9.54432 5.52578 9.80566L6.40344 10.2337C6.52477 10.2837 6.66011 10.287 6.78378 10.2443L11.0224 8.28699C11.6528 8.06799 11.4841 7.41466 10.8284 7.54032L6.17478 7.96999H6.17444Z" fill="#D40707"/>
</svg>
