<svg width="24" height="24" viewBox="0 0 24 24" fill="none" xmlns="http://www.w3.org/2000/svg">
<path d="M9.4974 20.3392H7.83073C7.82941 19.2345 7.38999 18.1755 6.60888 17.3944C5.82776 16.6133 4.76873 16.1738 3.66406 16.1725V14.5059C5.21062 14.5076 6.69332 15.1228 7.7869 16.2164C8.88048 17.3099 9.49563 18.7926 9.4974 20.3392Z" fill="#4673DB"/>
<path d="M13.6641 20.3385H11.9974C11.995 18.1291 11.1162 16.0109 9.55394 14.4487C7.99166 12.8864 5.87346 12.0076 3.66406 12.0052V10.3385C6.31528 10.3416 8.85702 11.3962 10.7317 13.2709C12.6064 15.1456 13.661 17.6873 13.6641 20.3385ZM20.3307 9.50521C18.7842 9.50344 17.3015 8.8883 16.2079 7.79472C15.1143 6.70114 14.4992 5.21843 14.4974 3.67188H16.1641C16.1654 4.77654 16.6048 5.83558 17.3859 6.61669C18.167 7.39781 19.2261 7.83722 20.3307 7.83854V9.50521Z" fill="#4673DB"/>
<path d="M20.332 13.6654C17.6808 13.6623 15.1391 12.6077 13.2644 10.733C11.3897 8.85833 10.3351 6.31658 10.332 3.66536H11.9987C12.0011 5.87476 12.8799 7.99296 14.4422 9.55524C16.0044 11.1175 18.1226 11.9963 20.332 11.9987V13.6654ZM5.08786 18.9095C4.93159 18.7533 4.71967 18.6655 4.4987 18.6655C4.27773 18.6655 4.0658 18.7533 3.90953 18.9095L0.332031 22.487L1.51036 23.6654L5.08786 20.0879C5.24409 19.9316 5.33185 19.7197 5.33185 19.4987C5.33185 19.2777 5.24409 19.0658 5.08786 18.9095ZM22.487 0.332031L18.9095 3.90953C18.7577 4.0667 18.6737 4.2772 18.6756 4.4957C18.6775 4.7142 18.7652 4.92321 18.9197 5.07771C19.0742 5.23222 19.2832 5.31986 19.5017 5.32176C19.7202 5.32366 19.9307 5.23966 20.0879 5.08786L23.6654 1.51036L22.487 0.332031Z" fill="#4673DB"/>
</svg>
