<svg width="20" height="20" viewBox="0 0 20 20" fill="none" xmlns="http://www.w3.org/2000/svg">
<path d="M8.0026 16.6764H6.66927C6.66821 15.7927 6.31668 14.9455 5.69179 14.3206C5.0669 13.6957 4.21967 13.3442 3.33594 13.3431V12.0098C4.57318 12.0112 5.75935 12.5033 6.63421 13.3782C7.50907 14.253 8.00119 15.4392 8.0026 16.6764Z" fill="#1B2D5B"/>
<path d="M11.3359 16.6742H10.0026C10.0007 14.9066 9.29766 13.2121 8.04784 11.9623C6.79802 10.7124 5.10345 10.0094 3.33594 10.0075V8.67415C5.45691 8.67662 7.49031 9.52027 8.99006 11.02C10.4898 12.5198 11.3335 14.5532 11.3359 16.6742ZM16.6693 8.00749C15.432 8.00607 14.2459 7.51396 13.371 6.63909C12.4961 5.76423 12.004 4.57806 12.0026 3.34082H13.3359C13.337 4.22455 13.6885 5.07178 14.3134 5.69667C14.9383 6.32157 15.7855 6.67309 16.6693 6.67415V8.00749Z" fill="#1B2D5B"/>
<path d="M16.668 11.3356C14.547 11.3331 12.5136 10.4895 11.0138 8.98974C9.51409 7.48998 8.67044 5.45659 8.66797 3.33561H10.0013C10.0032 5.10313 10.7062 6.79769 11.9561 8.04751C13.2059 9.29734 14.9005 10.0003 16.668 10.0023V11.3356ZM4.47264 15.5309C4.34762 15.406 4.17808 15.3358 4.0013 15.3358C3.82453 15.3358 3.65499 15.406 3.52997 15.5309L0.667969 18.3929L1.61064 19.3356L4.47264 16.4736C4.59762 16.3486 4.66783 16.1791 4.66783 16.0023C4.66783 15.8255 4.59762 15.656 4.47264 15.5309V15.5309ZM18.392 0.668945L15.53 3.53095C15.4085 3.65668 15.3413 3.82508 15.3429 3.99988C15.3444 4.17468 15.4145 4.34189 15.5381 4.46549C15.6617 4.5891 15.8289 4.65921 16.0037 4.66073C16.1785 4.66225 16.3469 4.59505 16.4726 4.47361L19.3346 1.61161L18.392 0.668945Z" fill="#1B2D5B"/>
</svg>
