<svg width="22" height="19" viewBox="0 0 22 19" fill="none" xmlns="http://www.w3.org/2000/svg">
<path d="M10.9978 18.1792C15.1889 18.1792 17.5464 15.8217 17.5464 11.6306C17.5464 7.43952 15.1889 5.08203 10.9978 5.08203C6.8067 5.08203 4.44922 7.43952 4.44922 11.6306C4.44922 15.8217 6.8067 18.1792 10.9978 18.1792Z" stroke="#6D7996" stroke-width="1.5" stroke-linecap="round" stroke-linejoin="round"/>
<path d="M16.7695 8.04074C17.2438 7.4909 17.8314 7.05016 18.4921 6.74874C19.1527 6.44731 19.8707 6.29234 20.5968 6.29445" stroke="#6D7996" stroke-width="1.5" stroke-linecap="round" stroke-linejoin="round"/>
<path d="M17.543 11.1602H20.5967" stroke="#6D7996" stroke-width="1.5" stroke-linecap="round" stroke-linejoin="round"/>
<path d="M1.39844 11.1602H4.45213" stroke="#6D7996" stroke-width="1.5" stroke-linecap="round" stroke-linejoin="round"/>
<path d="M5.22656 8.04074C4.75227 7.4909 4.16466 7.05016 3.50404 6.74874C2.84342 6.44731 2.12542 6.29234 1.39929 6.29445" stroke="#6D7996" stroke-width="1.5" stroke-linecap="round" stroke-linejoin="round"/>
<path d="M16.7695 15.2044C17.2438 15.7542 17.8314 16.195 18.4921 16.4964C19.1527 16.7978 19.8707 16.9528 20.5968 16.9507" stroke="#6D7996" stroke-width="1.5" stroke-linecap="round" stroke-linejoin="round"/>
<path d="M5.22656 15.2044C4.75227 15.7542 4.16466 16.195 3.50404 16.4964C2.84342 16.7978 2.12542 16.9528 1.39929 16.9507" stroke="#6D7996" stroke-width="1.5" stroke-linecap="round" stroke-linejoin="round"/>
<path d="M13.1602 5.32997C13.717 4.91406 14.1798 4.31308 14.5018 3.58793C14.8238 2.86278 14.9935 2.03922 14.9938 1.20068" stroke="#6D7996" stroke-width="1.5" stroke-linecap="round" stroke-linejoin="round"/>
<path d="M8.8125 5.32997C8.25567 4.91406 7.79281 4.31308 7.47081 3.58793C7.14881 2.86278 6.97911 2.03922 6.9789 1.20068" stroke="#6D7996" stroke-width="1.5" stroke-linecap="round" stroke-linejoin="round"/>
<path d="M4.55469 10.1758L17.4358 10.1758" stroke="#6D7996" stroke-width="1.5" stroke-linecap="round" stroke-linejoin="round"/>
<path d="M17.4493 10.2397H4.54297C5.02248 6.92164 7.29391 5.08203 10.9961 5.08203C14.6984 5.08203 16.9698 6.92164 17.4493 10.2397Z" fill="white" stroke="#6D7996" stroke-width="1.5" stroke-linecap="round" stroke-linejoin="round"/>
</svg>
