<svg width="52" height="52" viewBox="0 0 52 52" fill="none" xmlns="http://www.w3.org/2000/svg">
<path d="M25.9773 50.9946C41.9627 50.9946 50.9546 42.0028 50.9546 26.0173C50.9546 10.0319 41.9627 1.04004 25.9773 1.04004C9.99182 1.04004 1 10.0319 1 26.0173C1 42.0028 9.99182 50.9946 25.9773 50.9946Z" fill="white" fill-opacity="0.8"/>
<path d="M50.9546 26.0173C50.9546 42.0028 41.9627 50.9946 25.9773 50.9946C9.99182 50.9946 1 42.0028 1 26.0173C1 10.0319 9.99182 1.04004 25.9773 1.04004" stroke="#284BBD" stroke-width="2" stroke-linecap="round" stroke-linejoin="round"/>
<path d="M21.9801 13.4512C16.181 14.7673 12.9883 19.1529 12.9883 26.0217C12.9883 34.3342 17.664 39.0099 25.9765 39.0099C33.1825 39.0099 37.6555 35.496 38.7186 29.1452" stroke="#284BBD" stroke-width="2" stroke-linecap="round" stroke-linejoin="round"/>
<path d="M25.9766 26.0224L34.6328 17.3662" stroke="#284BBD" stroke-width="2" stroke-linecap="round" stroke-linejoin="round"/>
<path d="M34.631 17.3703L32.988 12.0424C32.7695 11.3341 32.9608 10.563 33.4849 10.0388L42.5234 1L44.5216 7.47939L51.001 9.47757L41.9625 18.5164C41.4384 19.0405 40.6673 19.2318 39.9589 19.0134L34.631 17.3703Z" fill="white" stroke="#284BBD" stroke-width="2" stroke-linecap="round" stroke-linejoin="round"/>
</svg>
