<svg width="19" height="19" viewBox="0 0 19 19" fill="none" xmlns="http://www.w3.org/2000/svg">
<path d="M1.27331 10.1769C1.67169 7.58744 1.87088 6.2927 2.76993 5.52139C3.66898 4.75008 4.97895 4.75008 7.59889 4.75008H11.136C13.756 4.75008 15.066 4.75008 15.965 5.52139C16.8641 6.2927 17.0632 7.58744 17.4616 10.1769L18.4172 16.3883C18.549 17.245 18.6149 17.6734 18.3755 17.9525C18.136 18.2316 17.7026 18.2316 16.8358 18.2316H1.89911C1.0323 18.2316 0.59889 18.2316 0.359449 17.9525C0.120008 17.6734 0.185911 17.245 0.317716 16.3883L1.27331 10.1769Z" fill="#1B2D5B"/>
<path fill-rule="evenodd" clip-rule="evenodd" d="M5.73726 8.25946C5.51634 8.25946 5.33726 8.08037 5.33726 7.85946L5.33726 4.22982C5.33726 2.00432 7.14138 0.200195 9.36689 0.200195C11.5924 0.200195 13.3965 2.00432 13.3965 4.22983V7.85945C13.3965 8.08037 13.2174 8.25945 12.9965 8.25945C12.7756 8.25945 12.5965 8.08037 12.5965 7.85945V4.22983C12.5965 2.44615 11.1506 1.0002 9.36689 1.0002C7.58321 1.00019 6.13726 2.44615 6.13726 4.22982L6.13726 7.85946C6.13726 8.08037 5.95817 8.25946 5.73726 8.25946Z" fill="#1B2D5B"/>
</svg>
