<svg width="23" height="23" viewBox="0 0 23 23" fill="none" xmlns="http://www.w3.org/2000/svg">
<path d="M1.34261 12.4709C1.84059 9.23406 2.08958 7.61563 3.21339 6.65149C4.3372 5.68736 5.97466 5.68736 9.24959 5.68736H13.671C16.946 5.68736 18.5834 5.68736 19.7072 6.65149C20.831 7.61563 21.08 9.23406 21.578 12.4709L22.7725 20.2351C22.9373 21.306 23.0196 21.8415 22.7203 22.1903C22.421 22.5392 21.8793 22.5392 20.7958 22.5392H2.12487C1.04135 22.5392 0.49959 22.5392 0.200288 22.1903C-0.0990133 21.8415 -0.016635 21.306 0.148122 20.2351L1.34261 12.4709Z" fill="#4673DB"/>
<path fill-rule="evenodd" clip-rule="evenodd" d="M6.92255 10.0741C6.64641 10.0741 6.42255 9.85022 6.42255 9.57408L6.42255 5.03704C6.42255 2.25516 8.67771 -5.73675e-07 11.4596 0C14.2415 -3.8e-07 16.4966 2.25516 16.4966 5.03704V9.57407C16.4966 9.85022 16.2728 10.0741 15.9966 10.0741C15.7205 10.0741 15.4966 9.85022 15.4966 9.57407V5.03704C15.4966 2.80744 13.6892 1 11.4596 1C9.22999 0.999999 7.42255 2.80744 7.42255 5.03704L7.42255 9.57408C7.42255 9.85022 7.19869 10.0741 6.92255 10.0741Z" fill="#4673DB"/>
</svg>
