<svg width="57" height="50" viewBox="0 0 57 50" fill="none" xmlns="http://www.w3.org/2000/svg">
<path d="M50.4079 40.3548C53.37 40.0792 55.8596 37.9125 56.2698 34.966C56.7391 31.5943 57 28.128 57 24.5599C57 20.8658 56.739 17.2309 56.2365 13.7508C55.8391 10.9984 53.5924 8.92081 50.8267 8.63032C46.1544 8.13957 41.2728 7.875 36.2808 7.875C31.3043 7.875 26.509 8.1555 21.8325 8.63904C19.0196 8.92989 16.7351 11.0506 16.3357 13.8501C15.8431 17.3033 15.5616 20.8977 15.5616 24.5599C15.5616 28.1931 15.8694 31.7253 16.3535 35.1547C16.7563 38.0077 19.0774 40.1851 21.9439 40.4763C26.5751 40.9466 31.3497 41.2448 36.2808 41.2448C36.3989 41.2448 36.5168 41.2446 36.6347 41.244C40.1118 45.2438 42.7777 47.2205 47.4373 49.3134V40.6299C48.1928 40.5616 48.9439 40.4914 49.6905 40.4217C49.9301 40.3994 50.1692 40.377 50.4079 40.3548Z" fill="url(#paint0_linear_1035_3345)"/>
<path d="M8.5921 34.3275C5.62997 34.0518 3.14042 31.8851 2.73024 28.9386C2.26087 25.567 2 22.1007 2 18.5326C2 14.8385 2.26097 11.2035 2.76349 7.72343C3.16093 4.97102 5.40756 2.89347 8.17331 2.60297C12.8456 2.11222 17.7272 1.84766 22.7192 1.84766C27.6957 1.84766 32.491 2.12815 37.1675 2.6117C39.9804 2.90255 42.2649 5.02325 42.6643 7.82278C43.1569 11.276 43.4384 14.8704 43.4384 18.5326C43.4384 22.1657 43.1306 25.6979 42.6465 29.1274C42.2437 31.9803 39.9226 34.1578 37.0561 34.4489C32.4249 34.9193 27.6503 35.2175 22.7192 35.2175C22.6011 35.2175 22.4832 35.2172 22.3653 35.2167C18.8882 39.2165 16.2223 41.1931 11.5627 43.286V34.6026C10.8072 34.5342 10.0561 34.4641 9.30948 34.3944C9.06988 34.372 8.83075 34.3497 8.5921 34.3275Z" fill="white" stroke="#0052FF" stroke-width="2.4" stroke-linecap="round" stroke-linejoin="round"/>
<path d="M22.7069 20.6049C22.7069 19.408 23.6804 18.6738 25.3979 17.5262C26.9909 16.4617 27.8312 15.0809 27.4574 13.2018C27.0836 11.3227 25.531 9.77001 23.6518 9.39623C20.7021 8.80949 17.8633 11.1391 17.8633 14.1466" stroke="#0052FF" stroke-width="2.4" stroke-linecap="round" stroke-linejoin="round"/>
<path d="M22.7074 27.5011C22.4785 27.5011 22.293 27.3156 22.293 27.0867C22.293 26.8579 22.4785 26.6724 22.7074 26.6724" stroke="#0052FF" stroke-width="2.4"/>
<path d="M22.7067 27.5011C22.9356 27.5011 23.1211 27.3156 23.1211 27.0867C23.1211 26.8579 22.9356 26.6724 22.7067 26.6724" stroke="#0052FF" stroke-width="2.4"/>
<defs>
<linearGradient id="paint0_linear_1035_3345" x1="57" y1="28.5947" x2="15.5616" y2="28.5947" gradientUnits="userSpaceOnUse">
<stop stop-color="#0052FF"/>
<stop offset="1" stop-color="#5179FF"/>
</linearGradient>
</defs>
</svg>
