<svg width="20" height="19" viewBox="0 0 20 19" fill="none" xmlns="http://www.w3.org/2000/svg">
<path d="M13.2812 14.0606H17.9169C17.5276 8.92357 15.3159 5.73285 12.4791 3.84554L13.7707 1.02638C13.8097 0.936923 13.826 0.839175 13.8179 0.7419C13.8099 0.644626 13.7778 0.550866 13.7246 0.469029C13.6715 0.387192 13.5988 0.319836 13.5131 0.273002C13.4275 0.226168 13.3316 0.201319 13.234 0.200684H5.14806C5.05046 0.201319 4.95454 0.226168 4.8689 0.273002C4.78327 0.319836 4.71059 0.387192 4.6574 0.469029C4.6042 0.550866 4.57215 0.644626 4.56412 0.7419C4.55608 0.839175 4.57231 0.936923 4.61136 1.02638L5.3191 2.55981H11.2877L10.7569 3.73938H9.6658C9.99902 4.63541 10.244 5.56183 10.3971 6.50546C10.4963 7.0908 10.5594 7.68171 10.5859 8.27481L9.654 8.92947C9.65653 8.1666 9.59339 7.40494 9.46527 6.65291C9.3023 5.65203 9.02117 4.67402 8.62778 3.73938H8.038C7.49371 4.4271 7.00463 5.15678 6.57534 5.92158C6.2292 6.57762 5.93536 7.25995 5.69656 7.96222L4.88856 7.42552C5.12441 6.74677 5.41433 6.08803 5.75554 5.45565C6.1003 4.86264 6.47837 4.28964 6.88792 3.73938H5.8558L5.90298 3.83964C2.77713 5.92158 0.400309 9.57823 0.400309 15.6825C0.392339 15.8108 0.409874 15.9394 0.451901 16.0609C0.493927 16.1824 0.559612 16.2944 0.645161 16.3904C0.73071 16.4863 0.834427 16.5644 0.95032 16.62C1.06621 16.6757 1.19199 16.7078 1.32037 16.7146H6.03863C5.83603 16.5037 5.69615 16.2406 5.63465 15.9548C5.57315 15.6689 5.59246 15.3715 5.69042 15.096C5.78838 14.8205 5.96112 14.5777 6.18929 14.3948C6.41746 14.2119 6.69205 14.0962 6.98229 14.0606C6.84104 13.821 6.76575 13.5484 6.76407 13.2703C6.76407 12.8479 6.93184 12.4429 7.23047 12.1443C7.52911 11.8456 7.93415 11.6779 8.35648 11.6779H11.8952C12.3175 11.6779 12.7225 11.8456 13.0212 12.1443C13.3198 12.4429 13.4876 12.8479 13.4876 13.2703C13.4906 13.5474 13.4193 13.8203 13.2812 14.0606Z" fill="#1B2D5B"/>
<path d="M11.3405 15.5358C11.3405 15.3794 11.2784 15.2293 11.1678 15.1187C11.0572 15.0081 10.9072 14.946 10.7507 14.946H7.21205C7.05563 14.946 6.90561 15.0081 6.79501 15.1187C6.6844 15.2293 6.62227 15.3794 6.62227 15.5358C6.62227 15.6922 6.6844 15.8422 6.79501 15.9528C6.90561 16.0634 7.05563 16.1256 7.21205 16.1256H10.7507C10.9072 16.1256 11.0572 16.0634 11.1678 15.9528C11.2784 15.8422 11.3405 15.6922 11.3405 15.5358Z" fill="#1B2D5B"/>
<path d="M11.8941 12.5804H8.35541C8.19899 12.5804 8.04897 12.6425 7.93837 12.7531C7.82776 12.8637 7.76562 13.0137 7.76562 13.1702C7.76562 13.3266 7.82776 13.4766 7.93837 13.5872C8.04897 13.6978 8.19899 13.7599 8.35541 13.7599H11.8941C12.0505 13.7599 12.2005 13.6978 12.3111 13.5872C12.4218 13.4766 12.4839 13.3266 12.4839 13.1702C12.4839 13.0137 12.4218 12.8637 12.3111 12.7531C12.2005 12.6425 12.0505 12.5804 11.8941 12.5804Z" fill="#1B2D5B"/>
<path d="M11.5765 17.3054H8.03783C7.88141 17.3054 7.7314 17.3675 7.62079 17.4781C7.51018 17.5887 7.44805 17.7387 7.44805 17.8952C7.44805 18.0516 7.51018 18.2016 7.62079 18.3122C7.7314 18.4228 7.88141 18.4849 8.03783 18.4849H11.5765C11.7329 18.4849 11.883 18.4228 11.9936 18.3122C12.1042 18.2016 12.1663 18.0516 12.1663 17.8952C12.1663 17.7387 12.1042 17.5887 11.9936 17.4781C11.883 17.3675 11.7329 17.3054 11.5765 17.3054Z" fill="#1B2D5B"/>
<path d="M17.8874 17.3054H13.7589C13.6025 17.3054 13.4525 17.3675 13.3419 17.4781C13.2313 17.5887 13.1691 17.7387 13.1691 17.8952C13.1691 18.0516 13.2313 18.2016 13.3419 18.3122C13.4525 18.4228 13.6025 18.4849 13.7589 18.4849H17.8874C18.0438 18.4849 18.1938 18.4228 18.3044 18.3122C18.415 18.2016 18.4772 18.0516 18.4772 17.8952C18.4772 17.7387 18.415 17.5887 18.3044 17.4781C18.1938 17.3675 18.0438 17.3054 17.8874 17.3054Z" fill="#1B2D5B"/>
<path d="M18.4761 14.946H14.3476C14.1912 14.946 14.0412 15.0081 13.9306 15.1187C13.82 15.2293 13.7578 15.3794 13.7578 15.5358C13.7578 15.6922 13.82 15.8422 13.9306 15.9528C14.0412 16.0634 14.1912 16.1256 14.3476 16.1256H18.4761C18.6325 16.1256 18.7825 16.0634 18.8931 15.9528C19.0037 15.8422 19.0659 15.6922 19.0659 15.5358C19.0659 15.3794 19.0037 15.2293 18.8931 15.1187C18.7825 15.0081 18.6325 14.946 18.4761 14.946Z" fill="#1B2D5B"/>
</svg>
