<svg width="24" height="23" viewBox="0 0 24 23" fill="none" xmlns="http://www.w3.org/2000/svg">
<path d="M16.1034 17.3249H21.898C21.4115 10.9036 18.6468 6.9152 15.1008 4.55607L16.7153 1.03212C16.7641 0.920299 16.7844 0.798114 16.7744 0.676521C16.7643 0.554928 16.7243 0.437728 16.6578 0.335432C16.5913 0.233136 16.5004 0.148941 16.3934 0.090398C16.2863 0.0318549 16.1664 0.000793768 16.0444 0H5.93703C5.81502 0.000793768 5.69512 0.0318549 5.58808 0.090398C5.48104 0.148941 5.39019 0.233136 5.3237 0.335432C5.25721 0.437728 5.21714 0.554928 5.2071 0.676521C5.19706 0.798114 5.21735 0.920299 5.26615 1.03212L6.15083 2.94891H13.6116L12.9481 4.42337H11.5842C12.0007 5.5434 12.3069 6.70143 12.4984 7.88097C12.6224 8.61265 12.7012 9.35128 12.7343 10.0927L11.5695 10.911C11.5726 9.9574 11.4937 9.00532 11.3335 8.06528C11.1298 6.81418 10.7784 5.59167 10.2867 4.42337H9.54945C8.86909 5.28303 8.25774 6.19512 7.72112 7.15112C7.28845 7.97117 6.92115 8.82409 6.62265 9.70193L5.61265 9.03105C5.90746 8.18261 6.26987 7.35919 6.69637 6.56871C7.12733 5.82745 7.59991 5.11119 8.11185 4.42337H6.8217L6.88068 4.5487C2.97337 7.15112 0.00233966 11.7219 0.00233966 19.3522C-0.00762264 19.5126 0.0142959 19.6734 0.0668289 19.8253C0.119362 19.9772 0.201468 20.1171 0.308404 20.2371C0.41534 20.3571 0.544986 20.4546 0.689853 20.5242C0.834719 20.5938 0.991935 20.6339 1.15242 20.6424H7.05024C6.797 20.3788 6.62214 20.0499 6.54526 19.6926C6.46839 19.3353 6.49253 18.9636 6.61498 18.6192C6.73743 18.2748 6.95336 17.9713 7.23857 17.7427C7.52378 17.5141 7.86701 17.3694 8.22981 17.3249C8.05325 17.0254 7.95914 16.6846 7.95704 16.337C7.95704 15.8091 8.16675 15.3028 8.54004 14.9295C8.91334 14.5562 9.41963 14.3465 9.94755 14.3465H14.3709C14.8988 14.3465 15.4051 14.5562 15.7784 14.9295C16.1517 15.3028 16.3614 15.8091 16.3614 16.337C16.3652 16.6834 16.2761 17.0245 16.1034 17.3249Z" fill="#4673DB"/>
<path d="M13.6776 19.1689C13.6776 18.9733 13.5999 18.7858 13.4617 18.6476C13.3234 18.5093 13.1359 18.4316 12.9404 18.4316H8.51701C8.32149 18.4316 8.13397 18.5093 7.99571 18.6476C7.85746 18.7858 7.77979 18.9733 7.77979 19.1689C7.77979 19.3644 7.85746 19.5519 7.99571 19.6902C8.13397 19.8284 8.32149 19.9061 8.51701 19.9061H12.9404C13.1359 19.9061 13.3234 19.8284 13.4617 19.6902C13.5999 19.5519 13.6776 19.3644 13.6776 19.1689Z" fill="#4673DB"/>
<path d="M14.3696 15.4746H9.94621C9.75069 15.4746 9.56317 15.5523 9.42491 15.6905C9.28666 15.8288 9.20898 16.0163 9.20898 16.2118C9.20898 16.4074 9.28666 16.5949 9.42491 16.7331C9.56317 16.8714 9.75069 16.9491 9.94621 16.9491H14.3696C14.5651 16.9491 14.7526 16.8714 14.8909 16.7331C15.0291 16.5949 15.1068 16.4074 15.1068 16.2118C15.1068 16.0163 15.0291 15.8288 14.8909 15.6905C14.7526 15.5523 14.5651 15.4746 14.3696 15.4746Z" fill="#4673DB"/>
<path d="M13.9726 21.3809H9.54924C9.35371 21.3809 9.1662 21.4585 9.02794 21.5968C8.88968 21.735 8.81201 21.9226 8.81201 22.1181C8.81201 22.3136 8.88968 22.5011 9.02794 22.6394C9.1662 22.7776 9.35371 22.8553 9.54924 22.8553H13.9726C14.1681 22.8553 14.3557 22.7776 14.4939 22.6394C14.6322 22.5011 14.7098 22.3136 14.7098 22.1181C14.7098 21.9226 14.6322 21.735 14.4939 21.5968C14.3557 21.4585 14.1681 21.3809 13.9726 21.3809Z" fill="#4673DB"/>
<path d="M21.8612 21.3809H16.7006C16.5051 21.3809 16.3176 21.4585 16.1793 21.5968C16.041 21.735 15.9634 21.9226 15.9634 22.1181C15.9634 22.3136 16.041 22.5011 16.1793 22.6394C16.3176 22.7776 16.5051 22.8553 16.7006 22.8553H21.8612C22.0567 22.8553 22.2442 22.7776 22.3825 22.6394C22.5208 22.5011 22.5984 22.3136 22.5984 22.1181C22.5984 21.9226 22.5208 21.735 22.3825 21.5968C22.2442 21.4585 22.0567 21.3809 21.8612 21.3809Z" fill="#4673DB"/>
<path d="M22.597 18.4316H17.4364C17.2409 18.4316 17.0534 18.5093 16.9151 18.6476C16.7769 18.7858 16.6992 18.9733 16.6992 19.1689C16.6992 19.3644 16.7769 19.5519 16.9151 19.6902C17.0534 19.8284 17.2409 19.9061 17.4364 19.9061H22.597C22.7926 19.9061 22.9801 19.8284 23.1183 19.6902C23.2566 19.5519 23.3343 19.3644 23.3343 19.1689C23.3343 18.9733 23.2566 18.7858 23.1183 18.6476C22.9801 18.5093 22.7926 18.4316 22.597 18.4316Z" fill="#4673DB"/>
</svg>
