<svg width="20" height="19" viewBox="0 0 20 19" fill="none" xmlns="http://www.w3.org/2000/svg">
<path d="M6.36496 7.9157C6.34406 7.59145 6.21868 7.44382 5.89309 7.36832C5.1116 7.19016 4.4149 6.74925 3.91936 6.11924C3.42382 5.48924 3.15944 4.70828 3.17039 3.90681C3.18926 2.24987 4.32243 0.857844 5.95713 0.486414C7.49543 0.136555 9.11395 0.905705 9.85344 2.33885C9.89186 2.413 9.92894 2.4885 9.9795 2.58826C10.024 2.50535 10.0604 2.44198 10.0934 2.3766C10.8194 0.933344 12.4184 0.148014 13.9675 0.474954C14.7437 0.636696 15.4438 1.05291 15.9566 1.6576C16.4695 2.2623 16.7658 3.02089 16.7987 3.81311C16.8708 5.47005 15.7242 6.98139 14.0632 7.37102C13.7437 7.44652 13.6136 7.5955 13.5954 7.9103C14.16 7.87549 14.7043 7.6869 15.1694 7.36495C15.2808 7.28448 15.4086 7.22954 15.5436 7.20402C15.6786 7.17851 15.8176 7.18305 15.9507 7.21733C17.9663 7.62179 19.5383 9.47894 19.5834 11.5356C19.5962 12.116 19.6138 12.6985 19.5733 13.2762C19.5578 13.4959 19.4243 13.7393 19.2754 13.9118C18.9194 14.3251 18.4193 14.5239 17.9137 14.6911C17.6595 14.776 17.398 14.8421 17.1364 14.9021C16.9902 14.9358 16.9342 14.9992 16.9342 15.1569C16.9443 15.653 16.9207 16.1505 16.9436 16.6453C16.9605 17.0269 16.8088 17.3107 16.5392 17.556C16.1226 17.9416 15.615 18.1627 15.0851 18.336C13.9918 18.6973 12.8606 18.8449 11.7146 18.9278C10.1365 19.0454 8.55045 18.997 6.98244 18.7836C6.1061 18.6629 5.24325 18.487 4.42826 18.131C4.17557 18.0168 3.93294 17.8815 3.70293 17.7266C3.26274 17.4367 2.9931 17.0653 3.05242 16.4889C3.09691 16.0474 3.05242 15.5978 3.06388 15.1522C3.06792 14.9857 3.00321 14.9331 2.84749 14.8825C2.31495 14.7073 1.78443 14.5212 1.26942 14.3015C1.05977 14.2125 0.881811 14.0386 0.705871 13.8835C0.600483 13.7925 0.517991 13.6779 0.465061 13.5491C0.41213 13.4203 0.390246 13.2808 0.401176 13.142C0.42477 12.4005 0.358708 11.6549 0.446341 10.9249C0.674188 9.01853 2.09182 7.57325 3.98268 7.20991C4.29412 7.14992 4.54691 7.18901 4.81048 7.37304C5.27176 7.68776 5.80803 7.87496 6.36496 7.9157ZM10.3159 17.9854C10.7015 17.9632 11.3836 17.9484 12.0598 17.8762C12.7359 17.8041 13.4161 17.7219 14.0733 17.5581C14.6281 17.4232 15.1566 17.1684 15.6912 16.9514C15.8759 16.8759 15.9426 16.7134 15.9345 16.4997C15.9177 16.0278 15.9345 15.556 15.9278 15.0841C15.9022 13.2216 14.7076 11.6536 12.9543 11.1959C12.8124 11.1646 12.664 11.1842 12.535 11.2512C10.8167 12.201 9.10923 12.1983 7.40038 11.2296C7.30962 11.1764 7.20452 11.1528 7.09973 11.1622C5.5439 11.4042 4.19435 12.8521 4.09189 14.4275C4.04672 15.1225 4.08582 15.8229 4.07369 16.5172C4.07369 16.6905 4.11885 16.8226 4.26648 16.8927C4.65139 17.0761 5.02956 17.2898 5.43402 17.4125C6.92783 17.8681 8.47153 17.9598 10.3159 17.9854ZM3.11713 13.9112C3.13736 13.8512 3.15623 13.8053 3.16837 13.7581C3.71439 11.6947 5.08956 10.5359 7.14085 10.118C7.24328 10.0964 7.34905 10.0962 7.45157 10.1173C7.55409 10.1384 7.65117 10.1804 7.73676 10.2407C9.21978 11.1925 10.719 11.1966 12.2101 10.2515C12.2987 10.1886 12.3995 10.1451 12.506 10.1238C12.6125 10.1024 12.7223 10.1036 12.8283 10.1274C14.8506 10.5744 16.1496 11.7938 16.7583 13.7642C16.7771 13.8256 16.8041 13.8835 16.8533 14.0103C17.3737 13.7932 17.878 13.595 18.3694 13.3672C18.4233 13.3342 18.4691 13.2895 18.5034 13.2364C18.5377 13.1833 18.5597 13.1232 18.5676 13.0604C18.5864 12.5481 18.5864 12.0351 18.5676 11.5215C18.515 10.0115 17.3939 8.6289 15.9278 8.26353C15.8173 8.23622 15.7007 8.24912 15.5988 8.29993C14.8507 8.74613 13.9916 8.97122 13.1208 8.94909C13.0172 8.95239 12.9185 8.99394 12.8438 9.06571C11.2225 10.7564 8.73712 10.7638 7.12737 9.08189C7.04883 9.00272 6.9435 8.95583 6.83211 8.95044C5.96143 8.96834 5.10355 8.73879 4.35816 8.28847C4.27257 8.2411 4.17397 8.22266 4.07706 8.23589C2.78548 8.45767 1.62939 9.61376 1.47637 10.9215C1.39278 11.6354 1.43053 12.3648 1.43188 13.0867C1.43188 13.169 1.53569 13.2735 1.61726 13.3294C2.06688 13.6415 2.57987 13.7912 3.11713 13.9112ZM12.8343 6.47379C12.8367 5.7166 12.5388 4.98935 12.006 4.45135C11.4731 3.91334 10.7488 3.60845 9.99163 3.60346C8.42906 3.59268 7.12939 4.88426 7.12332 6.45357C7.124 7.21072 7.42347 7.93701 7.95664 8.4746C8.48982 9.01219 9.21361 9.31764 9.97073 9.32457C11.536 9.33603 12.8283 8.04917 12.8343 6.47379ZM13.859 6.36324C14.8418 6.27358 15.7694 5.12559 15.7916 3.98635C15.8172 2.69612 14.8512 1.59868 13.5408 1.42948C12.5451 1.30073 11.2643 1.98899 11.0843 2.74533C12.7723 3.35876 13.6999 4.5553 13.859 6.36324ZM6.10004 6.36324C6.2571 4.55732 7.19343 3.3473 8.90026 2.73859C8.50321 1.79485 7.22242 1.21984 6.12363 1.48409C4.89137 1.77934 4.09863 2.89566 4.19165 4.19465C4.26446 5.21524 5.20348 6.28437 6.10004 6.36256V6.36324Z" fill="#1B2D5B"/>
</svg>
