<svg width="40" height="42" viewBox="0 0 40 42" fill="none" xmlns="http://www.w3.org/2000/svg">
<path d="M37.3529 24.4379C37.699 24.2579 37.9966 23.9972 38.2206 23.6778C39.7778 21.458 33.4373 16.0749 32.9867 12.8395C31.768 4.08898 24.8972 1 17.2488 1C6.94111 1 1 6.28582 1 16.8575C1 25.9189 3.96591 27.4291 6.9585 33.3561C6.9585 33.3561 6.94111 38.7349 6.94111 41H25.1199V35.7345C25.286 34.3893 26.4862 33.4842 27.8416 33.4842H29.8624C32.0715 33.4842 33.8624 31.6934 33.8624 29.4842V24.7718L36.2325 24.7122C36.6226 24.712 37.0069 24.6179 37.3529 24.4379Z" stroke="#0052FF" stroke-width="1.6"/>
<path d="M18.375 13.8488V1" stroke="#0052FF" stroke-width="1.6" stroke-linecap="round" stroke-linejoin="round"/>
<path d="M23.6139 19.8847C23.6139 21.6705 23.1141 22.9528 22.2776 23.7893C21.441 24.6258 20.1588 25.1256 18.373 25.1256V26.7256C20.4533 26.7256 22.1916 26.1381 23.409 24.9207C24.6263 23.7033 25.2139 21.965 25.2139 19.8847H23.6139ZM18.373 25.1256C16.5871 25.1256 15.3049 24.6258 14.4684 23.7893C13.6318 22.9528 13.132 21.6705 13.132 19.8847H11.532C11.532 21.965 12.1196 23.7033 13.337 24.9207C14.5544 26.1381 16.2926 26.7256 18.373 26.7256V25.1256ZM13.132 19.8847C13.132 18.0988 13.6318 16.8166 14.4684 15.9801C15.3049 15.1435 16.5871 14.6438 18.373 14.6438V13.0437C16.2926 13.0437 14.5544 13.6313 13.337 14.8487C12.1196 16.0661 11.532 17.8043 11.532 19.8847H13.132ZM18.373 14.6438C20.1588 14.6438 21.441 15.1435 22.2776 15.9801C23.1141 16.8166 23.6139 18.0988 23.6139 19.8847H25.2139C25.2139 17.8043 24.6263 16.0661 23.409 14.8487C22.1916 13.6313 20.4533 13.0437 18.373 13.0437V14.6438Z" fill="#0052FF"/>
<path d="M19.8789 25.8115C22.8994 28.832 28.9403 31.9587 36.4915 31.9587" stroke="#284BBF" stroke-width="1.6" stroke-linecap="round"/>
</svg>
