<svg width="23" height="25" viewBox="0 0 23 25" fill="none" xmlns="http://www.w3.org/2000/svg">
<path fill-rule="evenodd" clip-rule="evenodd" d="M11.4448 0.00195312C8.4332 0.00195312 5.68897 0.996703 4.06551 1.80944C3.91883 1.88278 3.78215 1.95478 3.6548 2.02412C3.40278 2.16147 3.1881 2.28948 3.01742 2.40215L4.86424 5.12105L5.73364 5.46707C9.13126 7.18122 13.6876 7.18122 17.0859 5.46707L18.0727 4.95503L19.8195 2.40215C19.4576 2.16613 19.0813 1.95303 18.6927 1.7641C17.0779 0.960033 14.3997 0.00195312 11.4448 0.00195312ZM7.1491 3.07954C6.49512 2.95717 5.8492 2.79507 5.21493 2.59417C6.73573 1.91878 9.00258 1.20205 11.4441 1.20205C13.1356 1.20205 14.7351 1.54608 16.0578 1.98212C14.5077 2.20014 12.8536 2.57017 11.2774 3.02554C10.0373 3.38423 8.58788 3.34556 7.1491 3.07954ZM17.79 6.45582L17.6266 6.5385C13.8883 8.42399 8.93058 8.42399 5.19227 6.5385L5.03759 6.45982C-0.577547 12.621 -4.86457 24.002 11.4448 24.002C27.7528 24.002 23.3611 12.4083 17.79 6.45582ZM10.7514 12.003C10.3977 12.003 10.0586 12.1434 9.80851 12.3935C9.55844 12.6436 9.41795 12.9827 9.41795 13.3364C9.41795 13.69 9.55844 14.0292 9.80851 14.2793C10.0586 14.5294 10.3977 14.6698 10.7514 14.6698V12.003ZM12.0848 10.6695V10.0028H10.7514V10.6695C10.0441 10.6695 9.36576 10.9505 8.86562 11.4506C8.36548 11.9508 8.08451 12.6291 8.08451 13.3364C8.08451 14.0437 8.36548 14.722 8.86562 15.2222C9.36576 15.7223 10.0441 16.0033 10.7514 16.0033V18.6702C10.4756 18.6702 10.2066 18.5848 9.98143 18.4256C9.75623 18.2665 9.58593 18.0414 9.49396 17.7814C9.43507 17.6147 9.31236 17.4782 9.15282 17.4019C8.99327 17.3256 8.80997 17.3158 8.64322 17.3747C8.47647 17.4336 8.33995 17.5563 8.26368 17.7159C8.18741 17.8754 8.17764 18.0587 8.23652 18.2255C8.42043 18.7455 8.76102 19.1957 9.2114 19.5142C9.66178 19.8326 10.1998 20.0036 10.7514 20.0036V20.6703H12.0848V20.0036C12.7921 20.0036 13.4705 19.7226 13.9706 19.2225C14.4708 18.7224 14.7517 18.044 14.7517 17.3367C14.7517 16.6294 14.4708 15.9511 13.9706 15.451C13.4705 14.9508 12.7921 14.6698 12.0848 14.6698V12.003C12.6649 12.003 13.1589 12.373 13.3429 12.8917C13.3702 12.9766 13.4143 13.0551 13.4725 13.1226C13.5306 13.1902 13.6018 13.2454 13.6817 13.2849C13.7615 13.3245 13.8486 13.3477 13.9375 13.353C14.0265 13.3584 14.1157 13.3458 14.1997 13.3161C14.2838 13.2864 14.361 13.2402 14.4269 13.1801C14.4928 13.1201 14.5459 13.0474 14.5832 12.9664C14.6205 12.8854 14.6412 12.7978 14.644 12.7087C14.6468 12.6196 14.6318 12.5308 14.5997 12.4477C14.4158 11.9276 14.0752 11.4774 13.6248 11.159C13.1745 10.8405 12.6364 10.6695 12.0848 10.6695ZM12.0848 16.0033V18.6702C12.4385 18.6702 12.7777 18.5297 13.0277 18.2796C13.2778 18.0295 13.4183 17.6904 13.4183 17.3367C13.4183 16.9831 13.2778 16.6439 13.0277 16.3938C12.7777 16.1438 12.4385 16.0033 12.0848 16.0033Z" fill="#4673DB"/>
</svg>
