<svg width="19" height="20" viewBox="0 0 19 20" fill="none" xmlns="http://www.w3.org/2000/svg">
<path fill-rule="evenodd" clip-rule="evenodd" d="M9.35505 0.401367C6.94578 0.401367 4.7504 1.19717 3.45162 1.84735C3.33428 1.90603 3.22494 1.96363 3.12306 2.0191C2.92145 2.12898 2.7497 2.23139 2.61315 2.32153L4.09061 4.49664L4.78613 4.77346C7.50423 6.14478 11.1493 6.14478 13.868 4.77346L14.6574 4.36383L16.0548 2.32153C15.7653 2.13271 15.4642 1.96223 15.1534 1.81108C13.8616 1.16783 11.719 0.401367 9.35505 0.401367ZM5.9185 2.86344C5.39531 2.76554 4.87858 2.63586 4.37117 2.47514C5.5878 1.93483 7.40129 1.36145 9.35451 1.36145C10.7077 1.36145 11.9873 1.63667 13.0455 1.9855C11.8054 2.15991 10.4821 2.45594 9.22117 2.82024C8.22909 3.10719 7.06952 3.07626 5.9185 2.86344ZM14.4312 5.56446L14.3005 5.6306C11.3099 7.139 7.34368 7.139 4.35303 5.6306L4.22929 5.56766C-0.262819 10.4966 -3.69244 19.6014 9.35505 19.6014C22.4015 19.6014 18.8881 10.3265 14.4312 5.56446ZM8.80033 10.0022C8.51741 10.0022 8.24608 10.1146 8.04603 10.3146C7.84597 10.5147 7.73358 10.786 7.73358 11.0689C7.73358 11.3518 7.84597 11.6232 8.04603 11.8232C8.24608 12.0233 8.51741 12.1357 8.80033 12.1357V10.0022ZM9.86709 8.93541V8.40203H8.80033V8.93541C8.23449 8.93541 7.69183 9.16019 7.29172 9.5603C6.8916 9.96041 6.66682 10.5031 6.66682 11.0689C6.66682 11.6348 6.8916 12.1774 7.29172 12.5775C7.69183 12.9777 8.23449 13.2024 8.80033 13.2024V15.3359C8.57972 15.336 8.36452 15.2677 8.18436 15.1403C8.00421 15.013 7.86796 14.8329 7.79438 14.625C7.74728 14.4916 7.64911 14.3823 7.52147 14.3213C7.39384 14.2603 7.24719 14.2525 7.11379 14.2996C6.9804 14.3467 6.87118 14.4449 6.81016 14.5725C6.74914 14.7001 6.74133 14.8468 6.78843 14.9802C6.93556 15.3962 7.20804 15.7564 7.56834 16.0111C7.92865 16.2659 8.35906 16.4027 8.80033 16.4027V16.9361H9.86709V16.4027C10.4329 16.4027 10.9756 16.1779 11.3757 15.7778C11.7758 15.3777 12.0006 14.835 12.0006 14.2692C12.0006 13.7033 11.7758 13.1607 11.3757 12.7606C10.9756 12.3605 10.4329 12.1357 9.86709 12.1357V10.0022C10.3311 10.0022 10.7264 10.2982 10.8736 10.7132C10.8954 10.7811 10.9306 10.8439 10.9772 10.8979C11.0237 10.9519 11.0806 10.9961 11.1446 11.0278C11.2085 11.0594 11.2781 11.0779 11.3493 11.0822C11.4204 11.0865 11.4918 11.0765 11.559 11.0527C11.6263 11.029 11.6881 10.992 11.7407 10.9439C11.7934 10.8958 11.836 10.8377 11.8658 10.7729C11.8956 10.7082 11.9122 10.638 11.9144 10.5668C11.9167 10.4955 11.9046 10.4245 11.879 10.3579C11.7319 9.94191 11.4594 9.58173 11.0991 9.32697C10.7388 9.07222 10.3084 8.93542 9.86709 8.93541ZM9.86709 13.2024V15.3359C10.15 15.3359 10.4213 15.2236 10.6214 15.0235C10.8215 14.8234 10.9338 14.5521 10.9338 14.2692C10.9338 13.9863 10.8215 13.7149 10.6214 13.5149C10.4213 13.3148 10.15 13.2024 9.86709 13.2024Z" fill="#1B2D5B"/>
</svg>
