<svg width="34" height="40" viewBox="0 0 34 40" fill="none" xmlns="http://www.w3.org/2000/svg">
<mask id="path-1-inside-1_1035_6040" fill="white">
<path d="M32.108 35.2849C32.5859 35.2317 32.9568 34.8434 32.9892 34.3637C33.35 29.018 33.5432 23.9258 33.5432 18.0244C33.5432 12.1231 33.35 7.03091 32.9892 1.68522C32.9568 1.2055 32.5859 0.817157 32.108 0.764014C22.9471 -0.25475 15.2094 -0.25475 6.04848 0.764015C5.57062 0.817158 5.1997 1.20551 5.16732 1.68522C4.80649 7.03091 4.61328 12.1231 4.61328 18.0244C4.61328 23.9258 4.80649 29.018 5.16732 34.3637C5.1997 34.8434 5.57062 35.2317 6.04848 35.2849C15.2094 36.3036 22.9471 36.3036 32.108 35.2849Z"/>
</mask>
<path d="M32.108 35.2849C32.5859 35.2317 32.9568 34.8434 32.9892 34.3637C33.35 29.018 33.5432 23.9258 33.5432 18.0244C33.5432 12.1231 33.35 7.03091 32.9892 1.68522C32.9568 1.2055 32.5859 0.817157 32.108 0.764014C22.9471 -0.25475 15.2094 -0.25475 6.04848 0.764015C5.57062 0.817158 5.1997 1.20551 5.16732 1.68522C4.80649 7.03091 4.61328 12.1231 4.61328 18.0244C4.61328 23.9258 4.80649 29.018 5.16732 34.3637C5.1997 34.8434 5.57062 35.2317 6.04848 35.2849C15.2094 36.3036 22.9471 36.3036 32.108 35.2849Z" fill="white"/>
<path d="M6.04848 0.764015L6.20322 2.15544L6.04848 0.764015ZM32.9892 1.68522L31.5924 1.77951L32.9892 1.68522ZM32.108 0.764014L31.9533 2.15544L32.108 0.764014ZM32.9892 34.3637L34.386 34.458L32.9892 34.3637ZM32.108 35.2849L32.2628 36.6763L32.108 35.2849ZM32.1432 18.0244C32.1432 23.8922 31.9512 28.9529 31.5924 34.2694L34.386 34.458C34.7488 29.0831 34.9432 23.9594 34.9432 18.0244L32.1432 18.0244ZM31.5924 1.77951C31.9512 7.096 32.1432 12.1566 32.1432 18.0244L34.9432 18.0244C34.9432 12.0895 34.7488 6.96582 34.386 1.59093L31.5924 1.77951ZM6.01328 18.0244C6.01328 12.1566 6.20528 7.096 6.56414 1.77951L3.7705 1.59093C3.40769 6.96582 3.21328 12.0895 3.21328 18.0244L6.01328 18.0244ZM6.56414 34.2694C6.20528 28.9529 6.01328 23.8922 6.01328 18.0244L3.21328 18.0244C3.21328 23.9594 3.40769 29.0831 3.7705 34.458L6.56414 34.2694ZM32.2628 -0.627408C22.999 -1.65761 15.1575 -1.65761 5.89374 -0.627407L6.20322 2.15544C15.2613 1.14811 22.8952 1.14811 31.9533 2.15544L32.2628 -0.627408ZM5.89374 36.6763C15.1575 37.7065 22.999 37.7065 32.2628 36.6763L31.9533 33.8935C22.8952 34.9008 15.2613 34.9008 6.20322 33.8935L5.89374 36.6763ZM3.7705 34.458C3.84839 35.6118 4.7407 36.5481 5.89374 36.6763L6.20322 33.8935C6.40054 33.9154 6.55102 34.075 6.56414 34.2694L3.7705 34.458ZM6.56414 1.77951C6.55102 1.97391 6.40054 2.13349 6.20322 2.15544L5.89374 -0.627407C4.7407 -0.49918 3.84838 0.437099 3.7705 1.59093L6.56414 1.77951ZM34.386 1.59093C34.3081 0.437098 33.4158 -0.499181 32.2628 -0.627408L31.9533 2.15544C31.756 2.13349 31.6055 1.97391 31.5924 1.77951L34.386 1.59093ZM31.5924 34.2694C31.6055 34.075 31.756 33.9154 31.9533 33.8935L32.2628 36.6763C33.4158 36.5481 34.3081 35.6118 34.386 34.458L31.5924 34.2694Z" fill="#464C57" mask="url(#path-1-inside-1_1035_6040)"/>
<rect x="12.7383" y="7.70447" width="12.6838" height="7.27798" rx="0.75" fill="white" stroke="#464C57" stroke-width="1.4"/>
<mask id="path-4-inside-2_1035_6040" fill="white">
<path d="M27.4947 39.2365C27.9726 39.1834 28.3435 38.795 28.3759 38.3153C28.7367 32.9696 28.9299 27.8775 28.9299 21.9761C28.9299 16.0747 28.7367 10.9826 28.3759 5.63688C28.3435 5.15716 27.9726 4.76882 27.4947 4.71567C18.3338 3.69691 10.5961 3.69691 1.4352 4.71568C0.957335 4.76882 0.586422 5.15717 0.55404 5.63688C0.193205 10.9826 -1.04583e-06 16.0747 -7.87876e-07 21.9761C-5.29919e-07 27.8775 0.193206 32.9696 0.554041 38.3153C0.586423 38.795 0.957337 39.1834 1.4352 39.2365C10.5961 40.2553 18.3338 40.2553 27.4947 39.2365Z"/>
</mask>
<path d="M27.4947 39.2365C27.9726 39.1834 28.3435 38.795 28.3759 38.3153C28.7367 32.9696 28.9299 27.8775 28.9299 21.9761C28.9299 16.0747 28.7367 10.9826 28.3759 5.63688C28.3435 5.15716 27.9726 4.76882 27.4947 4.71567C18.3338 3.69691 10.5961 3.69691 1.4352 4.71568C0.957335 4.76882 0.586422 5.15717 0.55404 5.63688C0.193205 10.9826 -1.04583e-06 16.0747 -7.87876e-07 21.9761C-5.29919e-07 27.8775 0.193206 32.9696 0.554041 38.3153C0.586423 38.795 0.957337 39.1834 1.4352 39.2365C10.5961 40.2553 18.3338 40.2553 27.4947 39.2365Z" fill="#C4C4C4"/>
<path d="M1.4352 4.71568L1.58994 6.1071L1.4352 4.71568ZM28.3759 5.63688L26.9791 5.73117L28.3759 5.63688ZM27.4947 4.71567L27.34 6.1071L27.4947 4.71567ZM28.3759 38.3153L29.7727 38.4096L28.3759 38.3153ZM27.4947 39.2365L27.6495 40.628L27.4947 39.2365ZM27.5299 21.9761C27.5299 27.8439 27.3379 32.9046 26.9791 38.221L29.7727 38.4096C30.1355 33.0347 30.3299 27.911 30.3299 21.9761L27.5299 21.9761ZM26.9791 5.73117C27.3379 11.0477 27.5299 16.1083 27.5299 21.9761L30.3299 21.9761C30.3299 16.0412 30.1355 10.9175 29.7727 5.54259L26.9791 5.73117ZM1.4 21.9761C1.4 16.1083 1.592 11.0477 1.95086 5.73117L-0.842781 5.54259C-1.20559 10.9175 -1.4 16.0412 -1.4 21.9761L1.4 21.9761ZM1.95086 38.221C1.592 32.9046 1.4 27.8439 1.4 21.9761L-1.4 21.9761C-1.4 27.911 -1.20559 33.0347 -0.84278 38.4096L1.95086 38.221ZM27.6495 3.32425C18.3857 2.29405 10.5442 2.29405 1.28046 3.32425L1.58994 6.1071C10.648 5.09977 18.2819 5.09977 27.34 6.1071L27.6495 3.32425ZM1.28046 40.628C10.5442 41.6582 18.3857 41.6582 27.6495 40.628L27.34 37.8451C18.2819 38.8524 10.648 38.8524 1.58994 37.8451L1.28046 40.628ZM-0.84278 38.4096C-0.764896 39.5635 0.127417 40.4997 1.28046 40.628L1.58994 37.8451C1.78726 37.8671 1.93774 38.0266 1.95086 38.221L-0.84278 38.4096ZM1.95086 5.73117C1.93774 5.92557 1.78726 6.08515 1.58994 6.1071L1.28046 3.32425C0.127414 3.45248 -0.764897 4.38876 -0.842781 5.54259L1.95086 5.73117ZM29.7727 5.54259C29.6948 4.38876 28.8025 3.45248 27.6495 3.32425L27.34 6.1071C27.1427 6.08515 26.9922 5.92557 26.9791 5.73117L29.7727 5.54259ZM26.9791 38.221C26.9922 38.0266 27.1427 37.8671 27.34 37.8451L27.6495 40.628C28.8025 40.4997 29.6948 39.5634 29.7727 38.4096L26.9791 38.221Z" fill="#464C57" mask="url(#path-4-inside-2_1035_6040)"/>
<rect x="8.125" y="11.6561" width="12.6838" height="7.27798" rx="0.75" fill="white" stroke="#464C57" stroke-width="1.4"/>
</svg>
