<svg width="24" height="28" viewBox="0 0 24 28" fill="none" xmlns="http://www.w3.org/2000/svg">
<path d="M10.5 9.32878H12.8333V10.4954H10.5V9.32878ZM10.5 4.66211H12.8333V5.82878H10.5V4.66211ZM10.5 11.6621H12.8333V12.8288H10.5V11.6621Z" fill="#4673DB"/>
<path d="M22.1667 14.002V10.502C18.61 10.5012 15.164 11.7387 12.4203 14.002H10.913C8.16934 11.7387 4.72335 10.5012 1.16667 10.502V14.002C0.857247 14.002 0.560501 14.1249 0.341709 14.3437C0.122916 14.5625 0 14.8592 0 15.1686V17.502C0 17.8114 0.122916 18.1081 0.341709 18.3269C0.560501 18.5457 0.857247 18.6686 1.16667 18.6686V23.3353C5.06574 23.3317 8.81996 24.8126 11.6667 27.477C14.5164 24.8173 18.2686 23.3372 22.1667 23.3353V18.6686C22.4761 18.6686 22.7728 18.5457 22.9916 18.3269C23.2104 18.1081 23.3333 17.8114 23.3333 17.502V15.1686C23.3333 14.8592 23.2104 14.5625 22.9916 14.3437C22.7728 14.1249 22.4761 14.002 22.1667 14.002Z" fill="#4673DB"/>
<path d="M8.16667 5.83529C8.811 5.83529 9.33333 5.31295 9.33333 4.66862C9.33333 4.02429 8.811 3.50195 8.16667 3.50195C7.52233 3.50195 7 4.02429 7 4.66862C7 5.31295 7.52233 5.83529 8.16667 5.83529Z" fill="#4673DB"/>
<path d="M15.1628 5.83529C15.8071 5.83529 16.3294 5.31295 16.3294 4.66862C16.3294 4.02429 15.8071 3.50195 15.1628 3.50195C14.5184 3.50195 13.9961 4.02429 13.9961 4.66862C13.9961 5.31295 14.5184 5.83529 15.1628 5.83529Z" fill="#4673DB"/>
<path d="M16.3333 9.33334H7C6.07203 9.33241 5.18233 8.96336 4.52615 8.30719C3.86997 7.65101 3.50093 6.76131 3.5 5.83333V3.5C3.50093 2.57203 3.86997 1.68233 4.52615 1.02615C5.18233 0.369973 6.07203 0.000926584 7 0L16.3333 0C17.2613 0.000926584 18.151 0.369973 18.8072 1.02615C19.4634 1.68233 19.8324 2.57203 19.8333 3.5V5.83333C19.8324 6.76131 19.4634 7.65101 18.8072 8.30719C18.151 8.96336 17.2613 9.33241 16.3333 9.33334ZM7 2.33333C6.69068 2.33364 6.39411 2.45666 6.17538 2.67538C5.95666 2.89411 5.83364 3.19068 5.83333 3.5V5.83333C5.83364 6.14266 5.95666 6.43923 6.17538 6.65795C6.39411 6.87668 6.69068 6.99969 7 7H16.3333C16.6427 6.99969 16.9392 6.87668 17.1579 6.65795C17.3767 6.43923 17.4997 6.14266 17.5 5.83333V3.5C17.4997 3.19068 17.3767 2.89411 17.1579 2.67538C16.9392 2.45666 16.6427 2.33364 16.3333 2.33333H7Z" fill="#4673DB"/>
</svg>
