<svg width="20" height="23" viewBox="0 0 20 23" fill="none" xmlns="http://www.w3.org/2000/svg">
<path d="M8.80078 8.26409H10.6674V9.19743H8.80078V8.26409ZM8.80078 4.53076H10.6674V5.46409H8.80078V4.53076ZM8.80078 10.1308H10.6674V11.0641H8.80078V10.1308Z" fill="#1B2D5B"/>
<path d="M18.1318 11.9992V9.19922C15.2864 9.19863 12.5296 10.1886 10.3347 11.9992H9.12884C6.93391 10.1886 4.17711 9.19863 1.33177 9.19922V11.9992C1.08424 11.9992 0.846838 12.0976 0.671804 12.2726C0.496771 12.4476 0.398438 12.685 0.398438 12.9326V14.7992C0.398438 15.0468 0.496771 15.2842 0.671804 15.4592C0.846838 15.6342 1.08424 15.7326 1.33177 15.7326V19.4659C4.45103 19.463 7.4544 20.6477 9.73177 22.7792C12.0115 20.6515 15.0133 19.4674 18.1318 19.4659V15.7326C18.3793 15.7326 18.6167 15.6342 18.7917 15.4592C18.9668 15.2842 19.0651 15.0468 19.0651 14.7992V12.9326C19.0651 12.685 18.9668 12.4476 18.7917 12.2726C18.6167 12.0976 18.3793 11.9992 18.1318 11.9992Z" fill="#1B2D5B"/>
<path d="M6.92943 5.46579C7.44489 5.46579 7.86276 5.04792 7.86276 4.53245C7.86276 4.01699 7.44489 3.59912 6.92943 3.59912C6.41396 3.59912 5.99609 4.01699 5.99609 4.53245C5.99609 5.04792 6.41396 5.46579 6.92943 5.46579Z" fill="#1B2D5B"/>
<path d="M12.531 5.46579C13.0465 5.46579 13.4643 5.04792 13.4643 4.53245C13.4643 4.01699 13.0465 3.59912 12.531 3.59912C12.0155 3.59912 11.5977 4.01699 11.5977 4.53245C11.5977 5.04792 12.0155 5.46579 12.531 5.46579Z" fill="#1B2D5B"/>
<path d="M13.4659 8.26599H5.99922C5.25684 8.26524 4.54508 7.97001 4.02014 7.44507C3.4952 6.92012 3.19996 6.20836 3.19922 5.46598V3.59932C3.19996 2.85694 3.4952 2.14518 4.02014 1.62024C4.54508 1.09529 5.25684 0.800058 5.99922 0.799316H13.4659C14.2083 0.800058 14.92 1.09529 15.445 1.62024C15.9699 2.14518 16.2651 2.85694 16.2659 3.59932V5.46598C16.2651 6.20836 15.9699 6.92012 15.445 7.44507C14.92 7.97001 14.2083 8.26524 13.4659 8.26599ZM5.99922 2.66598C5.75176 2.66623 5.51451 2.76464 5.33953 2.93962C5.16454 3.1146 5.06613 3.35186 5.06589 3.59932V5.46598C5.06613 5.71344 5.16454 5.9507 5.33953 6.12568C5.51451 6.30066 5.75176 6.39907 5.99922 6.39932H13.4659C13.7133 6.39907 13.9506 6.30066 14.1256 6.12568C14.3006 5.9507 14.399 5.71344 14.3992 5.46598V3.59932C14.399 3.35186 14.3006 3.1146 14.1256 2.93962C13.9506 2.76464 13.7133 2.66623 13.4659 2.66598H5.99922Z" fill="#1B2D5B"/>
</svg>
