<svg width="15" height="14" viewBox="0 0 15 14" fill="none" xmlns="http://www.w3.org/2000/svg">
<path d="M1 7C1 10.4518 3.79822 13.25 7.25 13.25C10.7018 13.25 13.5 10.4518 13.5 7C13.5 3.54822 10.7018 0.75 7.25 0.75C3.79822 0.75 1 3.54822 1 7Z" stroke="#464C57" stroke-width="1.5" stroke-linecap="round" stroke-linejoin="round"/>
<path d="M4.43262 6.25C4.0184 6.25 3.68262 6.58579 3.68262 7C3.68262 7.41421 4.0184 7.75 4.43262 7.75L4.43262 6.25ZM10.0625 7.75C10.4767 7.75 10.8125 7.41421 10.8125 7C10.8125 6.58579 10.4767 6.25 10.0625 6.25L10.0625 7.75ZM4.43262 7.75L10.0625 7.75L10.0625 6.25L4.43262 6.25L4.43262 7.75Z" fill="#464C57"/>
<path d="M7.57752 8.76689C7.25272 9.02395 7.19781 9.49564 7.45487 9.82043C7.71194 10.1452 8.18362 10.2001 8.50842 9.94308L7.57752 8.76689ZM9.91808 7.42572L10.5159 7.87862L9.91808 7.42572ZM8.50842 4.0572C8.18362 3.80014 7.71193 3.85505 7.45487 4.17984C7.19781 4.50464 7.25272 4.97633 7.57752 5.23339L8.50842 4.0572ZM9.91808 6.57455L10.5159 6.12165L9.91808 6.57455ZM8.50842 9.94308C9.47337 9.17936 9.93709 8.64261 10.5159 7.87862L9.32027 6.97281C8.79854 7.66148 8.42079 8.09948 7.57752 8.76689L8.50842 9.94308ZM7.57752 5.23339C8.42079 5.9008 8.79854 6.3388 9.32027 7.02746L10.5159 6.12165C9.93709 5.35766 9.47337 4.82091 8.50842 4.0572L7.57752 5.23339ZM10.5159 7.87862C10.9135 7.35378 10.9135 6.64649 10.5159 6.12165L9.32027 7.02746C9.32106 7.0285 9.31925 7.02634 9.31734 7.02071C9.31546 7.01516 9.31411 7.00807 9.31411 7.00014C9.31411 6.9922 9.31546 6.98511 9.31734 6.97956C9.31925 6.97393 9.32106 6.97178 9.32027 6.97281L10.5159 7.87862Z" fill="#464C57"/>
</svg>
