<svg width="22" height="22" viewBox="0 0 22 22" fill="none" xmlns="http://www.w3.org/2000/svg">
<path d="M16.5432 2.68359L15.7488 2.77816L16.5432 2.68359ZM15.7542 1.84245L15.6125 2.6298L15.7542 1.84245ZM12.8537 15.8755L12.7923 15.0779L12.8537 15.8755ZM10.9933 15.1486C10.4915 15.1486 9.98989 15.1202 9.48721 15.0744L9.34191 16.6678C9.88033 16.7169 10.4318 16.7486 10.9933 16.7486V15.1486ZM12.7923 15.0779C12.1997 15.1235 11.6002 15.1486 10.9933 15.1486V16.7486C11.6443 16.7486 12.2849 16.7217 12.9151 16.6732L12.7923 15.0779ZM17.5989 11.8052C17.6656 10.7834 17.7045 9.73975 17.7045 8.67497H16.1045C16.1045 9.70076 16.067 10.7094 16.0023 11.701L17.5989 11.8052ZM17.7045 8.67497C17.7045 6.57057 17.5673 4.51846 17.3376 2.58902L15.7488 2.77816C15.9717 4.65052 16.1045 6.63925 16.1045 8.67497H17.7045ZM10.9933 2.20137C12.5866 2.20137 14.1166 2.36052 15.6125 2.6298L15.896 1.05511C14.32 0.771427 12.6945 0.601367 10.9933 0.601367V2.20137ZM6.36332 2.62569C7.83628 2.35135 9.39396 2.20137 10.9933 2.20137V0.601367C9.29466 0.601367 7.63892 0.760594 6.07036 1.05274L6.36332 2.62569ZM4.64696 2.57029C4.40741 4.50451 4.28203 6.56924 4.28203 8.67497H5.88203C5.88203 6.63138 6.00379 4.63244 6.23483 2.76695L4.64696 2.57029ZM4.28203 8.67497C4.28203 9.6411 4.31028 10.5902 4.36329 11.5229L5.96071 11.4322C5.90937 10.5287 5.88203 9.60988 5.88203 8.67497H4.28203ZM17.3376 2.58902C17.2461 1.82028 16.666 1.19371 15.896 1.05511L15.6125 2.6298C15.682 2.64231 15.7395 2.69985 15.7488 2.77816L17.3376 2.58902ZM12.9151 16.6732C15.5051 16.4739 17.4338 14.3343 17.5989 11.8052L16.0023 11.701C15.8849 13.4994 14.5263 14.9444 12.7923 15.0779L12.9151 16.6732ZM6.07036 1.05274C5.31013 1.19433 4.7407 1.81343 4.64696 2.57029L6.23483 2.76695C6.24419 2.69136 6.29893 2.63768 6.36332 2.62569L6.07036 1.05274ZM9.48721 15.0744C7.59072 14.9014 6.06859 13.3304 5.96071 11.4322L4.36329 11.5229C4.51632 14.2157 6.65905 16.4231 9.34191 16.6678L9.48721 15.0744Z" fill="#6D7996"/>
<path d="M10.9922 15.9609V20.6137" stroke="#6D7996" stroke-width="1.6" stroke-linecap="round" stroke-linejoin="round"/>
<path d="M7.29688 20.6138H14.6859" stroke="#6D7996" stroke-width="1.6" stroke-linecap="round" stroke-linejoin="round"/>
<path d="M19.3006 8.52376L18.6812 8.01753L19.3006 8.52376ZM16.5352 2.07939C16.0933 2.07939 15.7352 2.43757 15.7352 2.87939C15.7352 3.32122 16.0933 3.67939 16.5352 3.67939V2.07939ZM16.7398 9.25399C16.3071 9.34307 16.0285 9.7661 16.1176 10.1989C16.2066 10.6316 16.6297 10.9102 17.0624 10.8211L16.7398 9.25399ZM19.9201 9.03C20.8796 7.85588 21.3991 6.2923 21.3991 4.68772H19.7991C19.7991 5.96074 19.3845 7.15689 18.6812 8.01753L19.9201 9.03ZM21.3991 4.68772V3.8794H19.7991V4.68772H21.3991ZM19.5991 2.07939H16.5352V3.67939H19.5991V2.07939ZM17.0624 10.8211C18.1643 10.5943 19.1605 9.95947 19.9201 9.03L18.6812 8.01753C18.1287 8.69355 17.444 9.10906 16.7398 9.25399L17.0624 10.8211ZM21.3991 3.8794C21.3991 2.88528 20.5933 2.07939 19.5991 2.07939V3.67939C19.7096 3.67939 19.7991 3.76894 19.7991 3.8794H21.3991Z" fill="#6D7996"/>
<path d="M5.41016 2.07939C5.85198 2.07939 6.21016 2.43757 6.21016 2.87939C6.21016 3.32122 5.85198 3.67939 5.41016 3.67939V2.07939ZM5.24571 9.25156C5.67809 9.34242 5.95495 9.7666 5.86409 10.199C5.77323 10.6314 5.34905 10.9082 4.91667 10.8174L5.24571 9.25156ZM2.0772 9.03C1.11767 7.85588 0.598129 6.2923 0.598129 4.68772H2.19813C2.19813 5.96074 2.61277 7.15689 3.31611 8.01753L2.0772 9.03ZM0.598129 4.68772V3.87939H2.19813V4.68772H0.598129ZM2.39813 2.07939H5.41016V3.67939H2.39813V2.07939ZM4.91667 10.8174C3.82196 10.5873 2.83259 9.95434 2.0772 9.03L3.31611 8.01753C3.86552 8.68982 4.54574 9.10447 5.24571 9.25156L4.91667 10.8174ZM0.598129 3.87939C0.598129 2.88528 1.40402 2.07939 2.39813 2.07939V3.67939C2.28767 3.67939 2.19813 3.76894 2.19813 3.87939H0.598129Z" fill="#6D7996"/>
</svg>
