<svg width="24" height="24" viewBox="0 0 24 24" fill="none" xmlns="http://www.w3.org/2000/svg">
<rect x="0.8" y="0.8" width="22.4" height="22.4" rx="11.2" fill="#CCDCFF"/>
<path d="M16.8321 9.70711L17.5392 9L16.125 7.58579L15.4179 8.29289L16.8321 9.70711ZM10.125 15L9.41789 15.7071L10.125 16.4142L10.8321 15.7071L10.125 15ZM8.20711 11.6679L7.5 10.9608L6.08579 12.375L6.79289 13.0821L8.20711 11.6679ZM15.4179 8.29289L9.41789 14.2929L10.8321 15.7071L16.8321 9.70711L15.4179 8.29289ZM10.8321 14.2929L8.20711 11.6679L6.79289 13.0821L9.41789 15.7071L10.8321 14.2929Z" fill="#0052FF"/>
<rect x="0.8" y="0.8" width="22.4" height="22.4" rx="11.2" stroke="#0052FF" stroke-width="1.6"/>
</svg>
