<svg width="22" height="23" viewBox="0 0 22 23" fill="none" xmlns="http://www.w3.org/2000/svg">
<path d="M20.0279 13.6097C20.2053 13.5174 20.3578 13.3838 20.4726 13.2202C21.2706 12.0826 18.0213 9.32393 17.7904 7.66593C17.1659 3.18162 13.6449 1.59863 9.72533 1.59863C4.44303 1.59863 1.39844 4.30742 1.39844 9.72499C1.39844 14.3686 2.91836 15.1426 4.45195 18.1799C4.45195 18.1799 4.44303 20.9364 4.44303 22.0971H13.759V19.3987C13.8441 18.7094 14.4591 18.2456 15.1537 18.2456C16.8578 18.2456 18.2392 16.8642 18.2392 15.1601V13.7808L19.4538 13.7502C19.6537 13.7501 19.8506 13.7019 20.0279 13.6097Z" stroke="#6D7996" stroke-width="1.6"/>
<path d="M10.3008 8.18316V1.59863" stroke="#6D7996" stroke-width="1.6" stroke-linecap="round" stroke-linejoin="round"/>
<path d="M12.5985 11.2754C12.5985 12.1188 12.3638 12.6648 12.028 13.0006C11.6921 13.3365 11.1462 13.5712 10.3028 13.5712V15.1712C11.4407 15.1712 12.4426 14.8487 13.1593 14.132C13.876 13.4153 14.1985 12.4133 14.1985 11.2754H12.5985ZM10.3028 13.5712C9.4594 13.5712 8.91347 13.3365 8.57761 13.0006C8.24176 12.6648 8.00703 12.1188 8.00703 11.2754H6.40703C6.40703 12.4133 6.72954 13.4153 7.44624 14.132C8.16294 14.8487 9.16489 15.1712 10.3028 15.1712V13.5712ZM8.00703 11.2754C8.00703 10.4321 8.24176 9.88612 8.57761 9.55027C8.91347 9.21441 9.4594 8.97969 10.3028 8.97969V7.37969C9.16489 7.37969 8.16294 7.7022 7.44624 8.4189C6.72954 9.1356 6.40703 10.1375 6.40703 11.2754H8.00703ZM10.3028 8.97969C11.1462 8.97969 11.6921 9.21441 12.028 9.55027C12.3638 9.88612 12.5985 10.4321 12.5985 11.2754H14.1985C14.1985 10.1375 13.876 9.1356 13.1593 8.4189C12.4426 7.7022 11.4407 7.37969 10.3028 7.37969V8.97969Z" fill="#6D7996"/>
<path d="M11.0742 14.3145C12.6221 15.8623 15.7178 17.4646 19.5875 17.4646" stroke="#45516E" stroke-width="1.6" stroke-linecap="round"/>
</svg>
