<svg width="22" height="20" viewBox="0 0 22 20" fill="none" xmlns="http://www.w3.org/2000/svg">
<path d="M2.49523 5.59235L1.92954 5.02667L1.36385 5.59235L1.92954 6.15804L2.49523 5.59235ZM19.2639 7.78843C19.2639 8.23026 19.622 8.58843 20.0639 8.58843C20.5057 8.58843 20.8639 8.23026 20.8639 7.78843H19.2639ZM20.0651 14.3763L20.6308 14.942L21.1965 14.3763L20.6308 13.8106L20.0651 14.3763ZM2.19844 12.1802C2.19844 11.7384 1.84027 11.3802 1.39844 11.3802C0.95661 11.3802 0.598437 11.7384 0.598437 12.1802H2.19844ZM6.3217 0.63451L1.92954 5.02667L3.06091 6.15804L7.45307 1.76588L6.3217 0.63451ZM1.92954 6.15804L6.3217 10.5502L7.45307 9.41883L3.06091 5.02667L1.92954 6.15804ZM2.49523 6.39235H17.8678V4.79235H2.49523V6.39235ZM17.8678 6.39235C18.6388 6.39235 19.2639 7.0174 19.2639 7.78843H20.8639C20.8639 6.13374 19.5225 4.79235 17.8678 4.79235V6.39235ZM15.1073 10.5498L19.4994 14.942L20.6308 13.8106L16.2386 9.41844L15.1073 10.5498ZM19.4994 13.8106L15.1073 18.2028L16.2386 19.3341L20.6308 14.942L19.4994 13.8106ZM20.0651 13.5763H3.59452V15.1763H20.0651V13.5763ZM3.59452 13.5763C2.82348 13.5763 2.19844 12.9512 2.19844 12.1802H0.598437C0.598437 13.8349 1.93983 15.1763 3.59452 15.1763V13.5763Z" fill="#1B2D5B"/>
</svg>
