<svg width="26" height="24" viewBox="0 0 26 24" fill="none" xmlns="http://www.w3.org/2000/svg">
<path d="M2.37099 6.4902L1.8053 5.92451L1.23961 6.4902L1.8053 7.05588L2.37099 6.4902ZM23.5318 9.23529C23.5318 9.67712 23.8899 10.0353 24.3318 10.0353C24.7736 10.0353 25.1318 9.67712 25.1318 9.23529H23.5318ZM24.3333 17.4701L24.899 18.0358L25.4647 17.4701L24.899 16.9044L24.3333 17.4701ZM1.8 14.725C1.8 14.2832 1.44183 13.925 1 13.925C0.558172 13.925 0.2 14.2832 0.2 14.725H1.8ZM7.2955 0.434315L1.8053 5.92451L2.93667 7.05588L8.42687 1.56569L7.2955 0.434315ZM1.8053 7.05588L7.2955 12.5461L8.42687 11.4147L2.93667 5.92451L1.8053 7.05588ZM2.37099 7.2902H21.5867V5.6902H2.37099V7.2902ZM21.5867 7.2902C22.6609 7.2902 23.5318 8.16105 23.5318 9.23529H25.1318C25.1318 7.27739 23.5446 5.6902 21.5867 5.6902V7.2902ZM18.2775 12.5456L23.7676 18.0358L24.899 16.9044L19.4088 11.4142L18.2775 12.5456ZM23.7676 16.9044L18.2775 22.3946L19.4088 23.526L24.899 18.0358L23.7676 16.9044ZM24.3333 16.6701H3.7451V18.2701H24.3333V16.6701ZM3.7451 16.6701C2.67085 16.6701 1.8 15.7993 1.8 14.725H0.2C0.2 16.6829 1.7872 18.2701 3.7451 18.2701V16.6701Z" fill="#4673DB"/>
</svg>
