<svg width="21" height="21" viewBox="0 0 21 21" fill="none" xmlns="http://www.w3.org/2000/svg">
<path d="M1.39844 1.39941V19.0569C1.39844 19.3245 1.50474 19.5811 1.69397 19.7704C1.88319 19.9596 2.13983 20.0659 2.40744 20.0659H20.0649M1.39844 16.7866H2.91193M1.39844 13.7596H2.91193M1.39844 10.7326H2.91193M1.39844 7.70565H2.91193M1.39844 4.67866H2.91193" stroke="#1B2D5B" stroke-width="1.6" stroke-linecap="round" stroke-linejoin="round"/>
<path d="M18.3009 6.44653C19.2761 6.44653 20.0666 5.65598 20.0666 4.68079C20.0666 3.70559 19.2761 2.91504 18.3009 2.91504C17.3257 2.91504 16.5352 3.70559 16.5352 4.68079C16.5352 5.65598 17.3257 6.44653 18.3009 6.44653Z" stroke="#1B2D5B" stroke-width="1.6" stroke-linecap="round" stroke-linejoin="round"/>
<path d="M15.4142 13.0452C16.3894 13.0452 17.1799 12.2546 17.1799 11.2794C17.1799 10.3042 16.3894 9.51367 15.4142 9.51367C14.439 9.51367 13.6484 10.3042 13.6484 11.2794C13.6484 12.2546 14.439 13.0452 15.4142 13.0452Z" stroke="#1B2D5B" stroke-width="1.6" stroke-linecap="round" stroke-linejoin="round"/>
<path d="M9.64465 9.4729C10.6198 9.4729 11.4104 8.68235 11.4104 7.70715C11.4104 6.73196 10.6198 5.94141 9.64465 5.94141C8.66946 5.94141 7.87891 6.73196 7.87891 7.70715C7.87891 8.68235 8.66946 9.4729 9.64465 9.4729Z" stroke="#1B2D5B" stroke-width="1.6" stroke-linecap="round" stroke-linejoin="round"/>
<path d="M6.29309 17.0403C7.26829 17.0403 8.05884 16.2497 8.05884 15.2745C8.05884 14.2993 7.26829 13.5088 6.29309 13.5088C5.3179 13.5088 4.52734 14.2993 4.52734 15.2745C4.52734 16.2497 5.3179 17.0403 6.29309 17.0403Z" stroke="#1B2D5B" stroke-width="1.6" stroke-linecap="round" stroke-linejoin="round"/>
<path d="M7.01172 13.6556L8.93386 9.31687M13.9183 10.346L11.1486 8.63075M17.6012 6.29492L16.1482 9.67002" stroke="#1B2D5B" stroke-width="1.6" stroke-linecap="round" stroke-linejoin="round"/>
</svg>
