<svg width="26" height="26" viewBox="0 0 26 26" fill="none" xmlns="http://www.w3.org/2000/svg">
<path d="M1 1V23.0718C1 23.4063 1.13288 23.7271 1.36941 23.9637C1.60594 24.2002 1.92674 24.3331 2.26125 24.3331H24.3331M1 20.234H2.89187M1 16.4503H2.89187M1 12.6665H2.89187M1 8.8828H2.89187M1 5.09905H2.89187" stroke="#4673DB" stroke-width="1.6" stroke-linecap="round" stroke-linejoin="round"/>
<path d="M22.1252 7.3089C23.3441 7.3089 24.3323 6.32071 24.3323 5.10171C24.3323 3.88272 23.3441 2.89453 22.1252 2.89453C20.9062 2.89453 19.918 3.88272 19.918 5.10171C19.918 6.32071 20.9062 7.3089 22.1252 7.3089Z" stroke="#4673DB" stroke-width="1.6" stroke-linecap="round" stroke-linejoin="round"/>
<path d="M18.5197 15.5569C19.7387 15.5569 20.7269 14.5688 20.7269 13.3498C20.7269 12.1308 19.7387 11.1426 18.5197 11.1426C17.3007 11.1426 16.3125 12.1308 16.3125 13.3498C16.3125 14.5688 17.3007 15.5569 18.5197 15.5569Z" stroke="#4673DB" stroke-width="1.6" stroke-linecap="round" stroke-linejoin="round"/>
<path d="M11.3087 11.0921C12.5277 11.0921 13.5159 10.1039 13.5159 8.88492C13.5159 7.66592 12.5277 6.67773 11.3087 6.67773C10.0898 6.67773 9.10156 7.66592 9.10156 8.88492C9.10156 10.1039 10.0898 11.0921 11.3087 11.0921Z" stroke="#4673DB" stroke-width="1.6" stroke-linecap="round" stroke-linejoin="round"/>
<path d="M7.11734 20.5511C8.33633 20.5511 9.32452 19.5629 9.32452 18.3439C9.32452 17.1249 8.33633 16.1367 7.11734 16.1367C5.89835 16.1367 4.91016 17.1249 4.91016 18.3439C4.91016 19.5629 5.89835 20.5511 7.11734 20.5511Z" stroke="#4673DB" stroke-width="1.6" stroke-linecap="round" stroke-linejoin="round"/>
<path d="M8.01562 16.3199L10.4183 10.8966M16.6489 12.183L13.1867 10.0389M21.2524 7.11914L19.4362 11.338" stroke="#4673DB" stroke-width="1.6" stroke-linecap="round" stroke-linejoin="round"/>
</svg>
