<svg width="20" height="22" viewBox="0 0 20 22" fill="none" xmlns="http://www.w3.org/2000/svg">
<path d="M12.6344 1.04562C12.421 0.87254 12.1741 0.745311 11.9093 0.671868C11.6445 0.598425 11.3674 0.580343 11.0953 0.618752C10.8232 0.65716 10.5619 0.751234 10.3278 0.895104C10.0936 1.03897 9.89165 1.22955 9.73444 1.45495L5.67844 7.26428H7.3051L10.8251 2.21762C10.8775 2.14232 10.945 2.07865 11.0231 2.03061C11.1013 1.98257 11.1886 1.95118 11.2794 1.93842C11.3703 1.92565 11.4628 1.93178 11.5512 1.95642C11.6396 1.98106 11.7219 2.02368 11.7931 2.08162L12.8704 2.95628L9.89177 7.26428H11.5131L13.9078 3.79762L16.1531 5.62028C16.2839 5.72664 16.3696 5.87863 16.3929 6.04562C16.4161 6.21262 16.3752 6.38223 16.2784 6.52028L15.7584 7.26428H17.3851C17.6678 6.84982 17.7844 6.34425 17.7118 5.84783C17.6392 5.35141 17.3827 4.90041 16.9931 4.58428L12.6331 1.04562H12.6344ZM2.39844 5.93228C1.868 5.93228 1.3593 6.143 0.984224 6.51807C0.609151 6.89314 0.398438 7.40185 0.398438 7.93228V18.599C0.398438 19.483 0.749627 20.3309 1.37475 20.956C1.99987 21.5811 2.84772 21.9323 3.73177 21.9323H16.3984C17.1057 21.9323 17.784 21.6513 18.2841 21.1512C18.7842 20.6511 19.0651 19.9729 19.0651 19.2656V11.2656C19.0651 10.5584 18.7842 9.8801 18.2841 9.38C17.784 8.8799 17.1057 8.59895 16.3984 8.59895H2.39844C2.22163 8.59895 2.05206 8.52871 1.92703 8.40369C1.80201 8.27866 1.73177 8.1091 1.73177 7.93228C1.73177 7.75547 1.80201 7.5859 1.92703 7.46088C2.05206 7.33586 2.22163 7.26562 2.39844 7.26562H4.3571L5.29044 5.93228H2.39844ZM14.3984 15.2656H15.7318C15.9086 15.2656 16.0782 15.3359 16.2032 15.4609C16.3282 15.5859 16.3984 15.7555 16.3984 15.9323C16.3984 16.1091 16.3282 16.2787 16.2032 16.4037C16.0782 16.5287 15.9086 16.599 15.7318 16.599H14.3984C14.2216 16.599 14.0521 16.5287 13.927 16.4037C13.802 16.2787 13.7318 16.1091 13.7318 15.9323C13.7318 15.7555 13.802 15.5859 13.927 15.4609C14.0521 15.3359 14.2216 15.2656 14.3984 15.2656Z" fill="#1B2D5B"/>
</svg>
