<svg width="16" height="20" viewBox="0 0 16 20" fill="none" xmlns="http://www.w3.org/2000/svg">
<path d="M10.488 1.24013C10.305 1.09178 10.0935 0.982728 9.86648 0.919776C9.6395 0.856825 9.40197 0.841326 9.16874 0.874248C8.9355 0.907169 8.71155 0.987804 8.51085 1.11112C8.31016 1.23444 8.13704 1.39779 8.00229 1.59099L4.52571 6.57042H5.92L8.93714 2.2447C8.98209 2.18016 9.03988 2.12559 9.10688 2.08441C9.17389 2.04323 9.24868 2.01633 9.32657 2.00539C9.40445 1.99445 9.48376 1.9997 9.55952 2.02082C9.63528 2.04194 9.70586 2.07847 9.76686 2.12813L10.6903 2.87785L8.13714 6.57042H9.52686L11.5794 3.59899L13.504 5.16128C13.6161 5.25244 13.6896 5.38271 13.7095 5.52585C13.7294 5.66899 13.6944 5.81437 13.6114 5.9327L13.1657 6.57042H14.56C14.8023 6.21517 14.9023 5.78181 14.84 5.35631C14.7778 4.93081 14.5579 4.54424 14.224 4.27328L10.4869 1.24013H10.488ZM1.71429 5.4287C1.25963 5.4287 0.823594 5.60932 0.502103 5.93081C0.180612 6.2523 0 6.68833 0 7.14299V16.2858C0 17.0436 0.301019 17.7703 0.836838 18.3062C1.37266 18.842 2.09938 19.143 2.85714 19.143H13.7143C14.3205 19.143 14.9019 18.9022 15.3305 18.4735C15.7592 18.0449 16 17.4635 16 16.8573V10.0001C16 9.39392 15.7592 8.81254 15.3305 8.38389C14.9019 7.95523 14.3205 7.71442 13.7143 7.71442H1.71429C1.56273 7.71442 1.41739 7.65421 1.31022 7.54705C1.20306 7.43989 1.14286 7.29454 1.14286 7.14299C1.14286 6.99144 1.20306 6.84609 1.31022 6.73893C1.41739 6.63177 1.56273 6.57156 1.71429 6.57156H3.39314L4.19314 5.4287H1.71429ZM12 13.4287H13.1429C13.2944 13.4287 13.4398 13.4889 13.5469 13.5961C13.6541 13.7032 13.7143 13.8486 13.7143 14.0001C13.7143 14.1517 13.6541 14.297 13.5469 14.4042C13.4398 14.5114 13.2944 14.5716 13.1429 14.5716H12C11.8484 14.5716 11.7031 14.5114 11.5959 14.4042C11.4888 14.297 11.4286 14.1517 11.4286 14.0001C11.4286 13.8486 11.4888 13.7032 11.5959 13.5961C11.7031 13.4889 11.8484 13.4287 12 13.4287Z" fill="#A1AAC7"/>
</svg>
