<svg width="24" height="27" viewBox="0 0 24 27" fill="none" xmlns="http://www.w3.org/2000/svg">
<path d="M15.295 0.558119C15.0282 0.341774 14.7196 0.182738 14.3886 0.0909335C14.0576 -0.000870624 13.7112 -0.0234725 13.3711 0.024538C13.0309 0.0725486 12.7043 0.190141 12.4117 0.369979C12.119 0.549817 11.8665 0.78804 11.67 1.06979L6.6 8.33145H8.63333L13.0333 2.02312C13.0989 1.929 13.1832 1.84942 13.2809 1.78936C13.3786 1.72931 13.4877 1.69008 13.6012 1.67412C13.7148 1.65816 13.8305 1.66582 13.941 1.69662C14.0514 1.72742 14.1544 1.7807 14.2433 1.85312L15.59 2.94645L11.8667 8.33145H13.8933L16.8867 3.99812L19.6933 6.27645C19.8569 6.4094 19.964 6.59938 19.993 6.80813C20.0221 7.01687 19.971 7.22888 19.85 7.40145L19.2 8.33145H21.2333C21.5867 7.81338 21.7325 7.18141 21.6417 6.56088C21.551 5.94036 21.2303 5.37662 20.7433 4.98145L15.2933 0.558119H15.295ZM2.5 6.66645C1.83696 6.66645 1.20107 6.92985 0.732233 7.39869C0.263392 7.86753 0 8.50341 0 9.16645V22.4998C0 23.6049 0.438987 24.6647 1.22039 25.4461C2.00179 26.2275 3.0616 26.6665 4.16667 26.6665H20C20.8841 26.6665 21.7319 26.3153 22.357 25.6901C22.9821 25.065 23.3333 24.2172 23.3333 23.3331V13.3331C23.3333 12.4491 22.9821 11.6012 22.357 10.9761C21.7319 10.351 20.8841 9.99979 20 9.99979H2.5C2.27899 9.99979 2.06702 9.91199 1.91074 9.75571C1.75446 9.59943 1.66667 9.38747 1.66667 9.16645C1.66667 8.94544 1.75446 8.73348 1.91074 8.5772C2.06702 8.42092 2.27899 8.33312 2.5 8.33312H4.94833L6.115 6.66645H2.5ZM17.5 18.3331H19.1667C19.3877 18.3331 19.5996 18.4209 19.7559 18.5772C19.9122 18.7335 20 18.9454 20 19.1665C20 19.3875 19.9122 19.5994 19.7559 19.7557C19.5996 19.912 19.3877 19.9998 19.1667 19.9998H17.5C17.279 19.9998 17.067 19.912 16.9107 19.7557C16.7545 19.5994 16.6667 19.3875 16.6667 19.1665C16.6667 18.9454 16.7545 18.7335 16.9107 18.5772C17.067 18.4209 17.279 18.3331 17.5 18.3331Z" fill="#4673DB"/>
</svg>
